G75*
%MOIN*%
%OFA0B0*%
%FSLAX25Y25*%
%IPPOS*%
%LPD*%
%AMOC8*
5,1,8,0,0,1.08239X$1,22.5*
%
%ADD10C,0.00000*%
%ADD11C,0.02578*%
%ADD12C,0.05906*%
%ADD13C,0.00600*%
D10*
X0033342Y0048933D02*
X0033342Y0283933D01*
X0053342Y0303933D01*
X0058302Y0303894D01*
X0053342Y0303933D02*
X0288342Y0303933D01*
X0308342Y0283933D01*
X0308342Y0048933D01*
X0288342Y0028933D01*
X0053342Y0028933D01*
X0033342Y0048933D01*
X0099208Y0096433D02*
X0099210Y0096561D01*
X0099216Y0096689D01*
X0099226Y0096816D01*
X0099240Y0096944D01*
X0099257Y0097070D01*
X0099279Y0097196D01*
X0099305Y0097322D01*
X0099334Y0097446D01*
X0099367Y0097570D01*
X0099404Y0097692D01*
X0099445Y0097813D01*
X0099490Y0097933D01*
X0099538Y0098052D01*
X0099590Y0098169D01*
X0099646Y0098284D01*
X0099705Y0098398D01*
X0099767Y0098509D01*
X0099833Y0098619D01*
X0099902Y0098726D01*
X0099975Y0098832D01*
X0100051Y0098935D01*
X0100130Y0099035D01*
X0100212Y0099134D01*
X0100297Y0099229D01*
X0100385Y0099322D01*
X0100476Y0099412D01*
X0100569Y0099499D01*
X0100666Y0099584D01*
X0100764Y0099665D01*
X0100866Y0099743D01*
X0100969Y0099818D01*
X0101075Y0099890D01*
X0101183Y0099959D01*
X0101293Y0100024D01*
X0101406Y0100085D01*
X0101520Y0100144D01*
X0101635Y0100198D01*
X0101753Y0100249D01*
X0101871Y0100297D01*
X0101992Y0100340D01*
X0102113Y0100380D01*
X0102236Y0100416D01*
X0102360Y0100449D01*
X0102485Y0100477D01*
X0102610Y0100502D01*
X0102736Y0100522D01*
X0102863Y0100539D01*
X0102991Y0100552D01*
X0103118Y0100561D01*
X0103246Y0100566D01*
X0103374Y0100567D01*
X0103502Y0100564D01*
X0103630Y0100557D01*
X0103757Y0100546D01*
X0103884Y0100531D01*
X0104011Y0100513D01*
X0104137Y0100490D01*
X0104262Y0100463D01*
X0104386Y0100433D01*
X0104509Y0100399D01*
X0104632Y0100361D01*
X0104753Y0100319D01*
X0104872Y0100273D01*
X0104990Y0100224D01*
X0105107Y0100171D01*
X0105222Y0100115D01*
X0105335Y0100055D01*
X0105446Y0099992D01*
X0105555Y0099925D01*
X0105662Y0099855D01*
X0105767Y0099781D01*
X0105869Y0099705D01*
X0105969Y0099625D01*
X0106067Y0099542D01*
X0106162Y0099456D01*
X0106254Y0099367D01*
X0106343Y0099276D01*
X0106430Y0099182D01*
X0106513Y0099085D01*
X0106594Y0098985D01*
X0106671Y0098884D01*
X0106746Y0098779D01*
X0106817Y0098673D01*
X0106884Y0098564D01*
X0106949Y0098454D01*
X0107009Y0098341D01*
X0107067Y0098227D01*
X0107120Y0098111D01*
X0107170Y0097993D01*
X0107217Y0097874D01*
X0107260Y0097753D01*
X0107299Y0097631D01*
X0107334Y0097508D01*
X0107365Y0097384D01*
X0107393Y0097259D01*
X0107416Y0097133D01*
X0107436Y0097007D01*
X0107452Y0096880D01*
X0107464Y0096753D01*
X0107472Y0096625D01*
X0107476Y0096497D01*
X0107476Y0096369D01*
X0107472Y0096241D01*
X0107464Y0096113D01*
X0107452Y0095986D01*
X0107436Y0095859D01*
X0107416Y0095733D01*
X0107393Y0095607D01*
X0107365Y0095482D01*
X0107334Y0095358D01*
X0107299Y0095235D01*
X0107260Y0095113D01*
X0107217Y0094992D01*
X0107170Y0094873D01*
X0107120Y0094755D01*
X0107067Y0094639D01*
X0107009Y0094525D01*
X0106949Y0094412D01*
X0106884Y0094302D01*
X0106817Y0094193D01*
X0106746Y0094087D01*
X0106671Y0093982D01*
X0106594Y0093881D01*
X0106513Y0093781D01*
X0106430Y0093684D01*
X0106343Y0093590D01*
X0106254Y0093499D01*
X0106162Y0093410D01*
X0106067Y0093324D01*
X0105969Y0093241D01*
X0105869Y0093161D01*
X0105767Y0093085D01*
X0105662Y0093011D01*
X0105555Y0092941D01*
X0105446Y0092874D01*
X0105335Y0092811D01*
X0105222Y0092751D01*
X0105107Y0092695D01*
X0104990Y0092642D01*
X0104872Y0092593D01*
X0104753Y0092547D01*
X0104632Y0092505D01*
X0104509Y0092467D01*
X0104386Y0092433D01*
X0104262Y0092403D01*
X0104137Y0092376D01*
X0104011Y0092353D01*
X0103884Y0092335D01*
X0103757Y0092320D01*
X0103630Y0092309D01*
X0103502Y0092302D01*
X0103374Y0092299D01*
X0103246Y0092300D01*
X0103118Y0092305D01*
X0102991Y0092314D01*
X0102863Y0092327D01*
X0102736Y0092344D01*
X0102610Y0092364D01*
X0102485Y0092389D01*
X0102360Y0092417D01*
X0102236Y0092450D01*
X0102113Y0092486D01*
X0101992Y0092526D01*
X0101871Y0092569D01*
X0101753Y0092617D01*
X0101635Y0092668D01*
X0101520Y0092722D01*
X0101406Y0092781D01*
X0101293Y0092842D01*
X0101183Y0092907D01*
X0101075Y0092976D01*
X0100969Y0093048D01*
X0100866Y0093123D01*
X0100764Y0093201D01*
X0100666Y0093282D01*
X0100569Y0093367D01*
X0100476Y0093454D01*
X0100385Y0093544D01*
X0100297Y0093637D01*
X0100212Y0093732D01*
X0100130Y0093831D01*
X0100051Y0093931D01*
X0099975Y0094034D01*
X0099902Y0094140D01*
X0099833Y0094247D01*
X0099767Y0094357D01*
X0099705Y0094468D01*
X0099646Y0094582D01*
X0099590Y0094697D01*
X0099538Y0094814D01*
X0099490Y0094933D01*
X0099445Y0095053D01*
X0099404Y0095174D01*
X0099367Y0095296D01*
X0099334Y0095420D01*
X0099305Y0095544D01*
X0099279Y0095670D01*
X0099257Y0095796D01*
X0099240Y0095922D01*
X0099226Y0096050D01*
X0099216Y0096177D01*
X0099210Y0096305D01*
X0099208Y0096433D01*
X0082436Y0166433D02*
X0082438Y0166586D01*
X0082444Y0166740D01*
X0082454Y0166893D01*
X0082468Y0167045D01*
X0082486Y0167198D01*
X0082508Y0167349D01*
X0082533Y0167500D01*
X0082563Y0167651D01*
X0082597Y0167801D01*
X0082634Y0167949D01*
X0082675Y0168097D01*
X0082720Y0168243D01*
X0082769Y0168389D01*
X0082822Y0168533D01*
X0082878Y0168675D01*
X0082938Y0168816D01*
X0083002Y0168956D01*
X0083069Y0169094D01*
X0083140Y0169230D01*
X0083215Y0169364D01*
X0083292Y0169496D01*
X0083374Y0169626D01*
X0083458Y0169754D01*
X0083546Y0169880D01*
X0083637Y0170003D01*
X0083731Y0170124D01*
X0083829Y0170242D01*
X0083929Y0170358D01*
X0084033Y0170471D01*
X0084139Y0170582D01*
X0084248Y0170690D01*
X0084360Y0170795D01*
X0084474Y0170896D01*
X0084592Y0170995D01*
X0084711Y0171091D01*
X0084833Y0171184D01*
X0084958Y0171273D01*
X0085085Y0171360D01*
X0085214Y0171442D01*
X0085345Y0171522D01*
X0085478Y0171598D01*
X0085613Y0171671D01*
X0085750Y0171740D01*
X0085889Y0171805D01*
X0086029Y0171867D01*
X0086171Y0171925D01*
X0086314Y0171980D01*
X0086459Y0172031D01*
X0086605Y0172078D01*
X0086752Y0172121D01*
X0086900Y0172160D01*
X0087049Y0172196D01*
X0087199Y0172227D01*
X0087350Y0172255D01*
X0087501Y0172279D01*
X0087654Y0172299D01*
X0087806Y0172315D01*
X0087959Y0172327D01*
X0088112Y0172335D01*
X0088265Y0172339D01*
X0088419Y0172339D01*
X0088572Y0172335D01*
X0088725Y0172327D01*
X0088878Y0172315D01*
X0089030Y0172299D01*
X0089183Y0172279D01*
X0089334Y0172255D01*
X0089485Y0172227D01*
X0089635Y0172196D01*
X0089784Y0172160D01*
X0089932Y0172121D01*
X0090079Y0172078D01*
X0090225Y0172031D01*
X0090370Y0171980D01*
X0090513Y0171925D01*
X0090655Y0171867D01*
X0090795Y0171805D01*
X0090934Y0171740D01*
X0091071Y0171671D01*
X0091206Y0171598D01*
X0091339Y0171522D01*
X0091470Y0171442D01*
X0091599Y0171360D01*
X0091726Y0171273D01*
X0091851Y0171184D01*
X0091973Y0171091D01*
X0092092Y0170995D01*
X0092210Y0170896D01*
X0092324Y0170795D01*
X0092436Y0170690D01*
X0092545Y0170582D01*
X0092651Y0170471D01*
X0092755Y0170358D01*
X0092855Y0170242D01*
X0092953Y0170124D01*
X0093047Y0170003D01*
X0093138Y0169880D01*
X0093226Y0169754D01*
X0093310Y0169626D01*
X0093392Y0169496D01*
X0093469Y0169364D01*
X0093544Y0169230D01*
X0093615Y0169094D01*
X0093682Y0168956D01*
X0093746Y0168816D01*
X0093806Y0168675D01*
X0093862Y0168533D01*
X0093915Y0168389D01*
X0093964Y0168243D01*
X0094009Y0168097D01*
X0094050Y0167949D01*
X0094087Y0167801D01*
X0094121Y0167651D01*
X0094151Y0167500D01*
X0094176Y0167349D01*
X0094198Y0167198D01*
X0094216Y0167045D01*
X0094230Y0166893D01*
X0094240Y0166740D01*
X0094246Y0166586D01*
X0094248Y0166433D01*
X0094246Y0166280D01*
X0094240Y0166126D01*
X0094230Y0165973D01*
X0094216Y0165821D01*
X0094198Y0165668D01*
X0094176Y0165517D01*
X0094151Y0165366D01*
X0094121Y0165215D01*
X0094087Y0165065D01*
X0094050Y0164917D01*
X0094009Y0164769D01*
X0093964Y0164623D01*
X0093915Y0164477D01*
X0093862Y0164333D01*
X0093806Y0164191D01*
X0093746Y0164050D01*
X0093682Y0163910D01*
X0093615Y0163772D01*
X0093544Y0163636D01*
X0093469Y0163502D01*
X0093392Y0163370D01*
X0093310Y0163240D01*
X0093226Y0163112D01*
X0093138Y0162986D01*
X0093047Y0162863D01*
X0092953Y0162742D01*
X0092855Y0162624D01*
X0092755Y0162508D01*
X0092651Y0162395D01*
X0092545Y0162284D01*
X0092436Y0162176D01*
X0092324Y0162071D01*
X0092210Y0161970D01*
X0092092Y0161871D01*
X0091973Y0161775D01*
X0091851Y0161682D01*
X0091726Y0161593D01*
X0091599Y0161506D01*
X0091470Y0161424D01*
X0091339Y0161344D01*
X0091206Y0161268D01*
X0091071Y0161195D01*
X0090934Y0161126D01*
X0090795Y0161061D01*
X0090655Y0160999D01*
X0090513Y0160941D01*
X0090370Y0160886D01*
X0090225Y0160835D01*
X0090079Y0160788D01*
X0089932Y0160745D01*
X0089784Y0160706D01*
X0089635Y0160670D01*
X0089485Y0160639D01*
X0089334Y0160611D01*
X0089183Y0160587D01*
X0089030Y0160567D01*
X0088878Y0160551D01*
X0088725Y0160539D01*
X0088572Y0160531D01*
X0088419Y0160527D01*
X0088265Y0160527D01*
X0088112Y0160531D01*
X0087959Y0160539D01*
X0087806Y0160551D01*
X0087654Y0160567D01*
X0087501Y0160587D01*
X0087350Y0160611D01*
X0087199Y0160639D01*
X0087049Y0160670D01*
X0086900Y0160706D01*
X0086752Y0160745D01*
X0086605Y0160788D01*
X0086459Y0160835D01*
X0086314Y0160886D01*
X0086171Y0160941D01*
X0086029Y0160999D01*
X0085889Y0161061D01*
X0085750Y0161126D01*
X0085613Y0161195D01*
X0085478Y0161268D01*
X0085345Y0161344D01*
X0085214Y0161424D01*
X0085085Y0161506D01*
X0084958Y0161593D01*
X0084833Y0161682D01*
X0084711Y0161775D01*
X0084592Y0161871D01*
X0084474Y0161970D01*
X0084360Y0162071D01*
X0084248Y0162176D01*
X0084139Y0162284D01*
X0084033Y0162395D01*
X0083929Y0162508D01*
X0083829Y0162624D01*
X0083731Y0162742D01*
X0083637Y0162863D01*
X0083546Y0162986D01*
X0083458Y0163112D01*
X0083374Y0163240D01*
X0083292Y0163370D01*
X0083215Y0163502D01*
X0083140Y0163636D01*
X0083069Y0163772D01*
X0083002Y0163910D01*
X0082938Y0164050D01*
X0082878Y0164191D01*
X0082822Y0164333D01*
X0082769Y0164477D01*
X0082720Y0164623D01*
X0082675Y0164769D01*
X0082634Y0164917D01*
X0082597Y0165065D01*
X0082563Y0165215D01*
X0082533Y0165366D01*
X0082508Y0165517D01*
X0082486Y0165668D01*
X0082468Y0165821D01*
X0082454Y0165973D01*
X0082444Y0166126D01*
X0082438Y0166280D01*
X0082436Y0166433D01*
X0062436Y0166433D02*
X0062438Y0166586D01*
X0062444Y0166740D01*
X0062454Y0166893D01*
X0062468Y0167045D01*
X0062486Y0167198D01*
X0062508Y0167349D01*
X0062533Y0167500D01*
X0062563Y0167651D01*
X0062597Y0167801D01*
X0062634Y0167949D01*
X0062675Y0168097D01*
X0062720Y0168243D01*
X0062769Y0168389D01*
X0062822Y0168533D01*
X0062878Y0168675D01*
X0062938Y0168816D01*
X0063002Y0168956D01*
X0063069Y0169094D01*
X0063140Y0169230D01*
X0063215Y0169364D01*
X0063292Y0169496D01*
X0063374Y0169626D01*
X0063458Y0169754D01*
X0063546Y0169880D01*
X0063637Y0170003D01*
X0063731Y0170124D01*
X0063829Y0170242D01*
X0063929Y0170358D01*
X0064033Y0170471D01*
X0064139Y0170582D01*
X0064248Y0170690D01*
X0064360Y0170795D01*
X0064474Y0170896D01*
X0064592Y0170995D01*
X0064711Y0171091D01*
X0064833Y0171184D01*
X0064958Y0171273D01*
X0065085Y0171360D01*
X0065214Y0171442D01*
X0065345Y0171522D01*
X0065478Y0171598D01*
X0065613Y0171671D01*
X0065750Y0171740D01*
X0065889Y0171805D01*
X0066029Y0171867D01*
X0066171Y0171925D01*
X0066314Y0171980D01*
X0066459Y0172031D01*
X0066605Y0172078D01*
X0066752Y0172121D01*
X0066900Y0172160D01*
X0067049Y0172196D01*
X0067199Y0172227D01*
X0067350Y0172255D01*
X0067501Y0172279D01*
X0067654Y0172299D01*
X0067806Y0172315D01*
X0067959Y0172327D01*
X0068112Y0172335D01*
X0068265Y0172339D01*
X0068419Y0172339D01*
X0068572Y0172335D01*
X0068725Y0172327D01*
X0068878Y0172315D01*
X0069030Y0172299D01*
X0069183Y0172279D01*
X0069334Y0172255D01*
X0069485Y0172227D01*
X0069635Y0172196D01*
X0069784Y0172160D01*
X0069932Y0172121D01*
X0070079Y0172078D01*
X0070225Y0172031D01*
X0070370Y0171980D01*
X0070513Y0171925D01*
X0070655Y0171867D01*
X0070795Y0171805D01*
X0070934Y0171740D01*
X0071071Y0171671D01*
X0071206Y0171598D01*
X0071339Y0171522D01*
X0071470Y0171442D01*
X0071599Y0171360D01*
X0071726Y0171273D01*
X0071851Y0171184D01*
X0071973Y0171091D01*
X0072092Y0170995D01*
X0072210Y0170896D01*
X0072324Y0170795D01*
X0072436Y0170690D01*
X0072545Y0170582D01*
X0072651Y0170471D01*
X0072755Y0170358D01*
X0072855Y0170242D01*
X0072953Y0170124D01*
X0073047Y0170003D01*
X0073138Y0169880D01*
X0073226Y0169754D01*
X0073310Y0169626D01*
X0073392Y0169496D01*
X0073469Y0169364D01*
X0073544Y0169230D01*
X0073615Y0169094D01*
X0073682Y0168956D01*
X0073746Y0168816D01*
X0073806Y0168675D01*
X0073862Y0168533D01*
X0073915Y0168389D01*
X0073964Y0168243D01*
X0074009Y0168097D01*
X0074050Y0167949D01*
X0074087Y0167801D01*
X0074121Y0167651D01*
X0074151Y0167500D01*
X0074176Y0167349D01*
X0074198Y0167198D01*
X0074216Y0167045D01*
X0074230Y0166893D01*
X0074240Y0166740D01*
X0074246Y0166586D01*
X0074248Y0166433D01*
X0074246Y0166280D01*
X0074240Y0166126D01*
X0074230Y0165973D01*
X0074216Y0165821D01*
X0074198Y0165668D01*
X0074176Y0165517D01*
X0074151Y0165366D01*
X0074121Y0165215D01*
X0074087Y0165065D01*
X0074050Y0164917D01*
X0074009Y0164769D01*
X0073964Y0164623D01*
X0073915Y0164477D01*
X0073862Y0164333D01*
X0073806Y0164191D01*
X0073746Y0164050D01*
X0073682Y0163910D01*
X0073615Y0163772D01*
X0073544Y0163636D01*
X0073469Y0163502D01*
X0073392Y0163370D01*
X0073310Y0163240D01*
X0073226Y0163112D01*
X0073138Y0162986D01*
X0073047Y0162863D01*
X0072953Y0162742D01*
X0072855Y0162624D01*
X0072755Y0162508D01*
X0072651Y0162395D01*
X0072545Y0162284D01*
X0072436Y0162176D01*
X0072324Y0162071D01*
X0072210Y0161970D01*
X0072092Y0161871D01*
X0071973Y0161775D01*
X0071851Y0161682D01*
X0071726Y0161593D01*
X0071599Y0161506D01*
X0071470Y0161424D01*
X0071339Y0161344D01*
X0071206Y0161268D01*
X0071071Y0161195D01*
X0070934Y0161126D01*
X0070795Y0161061D01*
X0070655Y0160999D01*
X0070513Y0160941D01*
X0070370Y0160886D01*
X0070225Y0160835D01*
X0070079Y0160788D01*
X0069932Y0160745D01*
X0069784Y0160706D01*
X0069635Y0160670D01*
X0069485Y0160639D01*
X0069334Y0160611D01*
X0069183Y0160587D01*
X0069030Y0160567D01*
X0068878Y0160551D01*
X0068725Y0160539D01*
X0068572Y0160531D01*
X0068419Y0160527D01*
X0068265Y0160527D01*
X0068112Y0160531D01*
X0067959Y0160539D01*
X0067806Y0160551D01*
X0067654Y0160567D01*
X0067501Y0160587D01*
X0067350Y0160611D01*
X0067199Y0160639D01*
X0067049Y0160670D01*
X0066900Y0160706D01*
X0066752Y0160745D01*
X0066605Y0160788D01*
X0066459Y0160835D01*
X0066314Y0160886D01*
X0066171Y0160941D01*
X0066029Y0160999D01*
X0065889Y0161061D01*
X0065750Y0161126D01*
X0065613Y0161195D01*
X0065478Y0161268D01*
X0065345Y0161344D01*
X0065214Y0161424D01*
X0065085Y0161506D01*
X0064958Y0161593D01*
X0064833Y0161682D01*
X0064711Y0161775D01*
X0064592Y0161871D01*
X0064474Y0161970D01*
X0064360Y0162071D01*
X0064248Y0162176D01*
X0064139Y0162284D01*
X0064033Y0162395D01*
X0063929Y0162508D01*
X0063829Y0162624D01*
X0063731Y0162742D01*
X0063637Y0162863D01*
X0063546Y0162986D01*
X0063458Y0163112D01*
X0063374Y0163240D01*
X0063292Y0163370D01*
X0063215Y0163502D01*
X0063140Y0163636D01*
X0063069Y0163772D01*
X0063002Y0163910D01*
X0062938Y0164050D01*
X0062878Y0164191D01*
X0062822Y0164333D01*
X0062769Y0164477D01*
X0062720Y0164623D01*
X0062675Y0164769D01*
X0062634Y0164917D01*
X0062597Y0165065D01*
X0062563Y0165215D01*
X0062533Y0165366D01*
X0062508Y0165517D01*
X0062486Y0165668D01*
X0062468Y0165821D01*
X0062454Y0165973D01*
X0062444Y0166126D01*
X0062438Y0166280D01*
X0062436Y0166433D01*
X0114936Y0166433D02*
X0114938Y0166586D01*
X0114944Y0166740D01*
X0114954Y0166893D01*
X0114968Y0167045D01*
X0114986Y0167198D01*
X0115008Y0167349D01*
X0115033Y0167500D01*
X0115063Y0167651D01*
X0115097Y0167801D01*
X0115134Y0167949D01*
X0115175Y0168097D01*
X0115220Y0168243D01*
X0115269Y0168389D01*
X0115322Y0168533D01*
X0115378Y0168675D01*
X0115438Y0168816D01*
X0115502Y0168956D01*
X0115569Y0169094D01*
X0115640Y0169230D01*
X0115715Y0169364D01*
X0115792Y0169496D01*
X0115874Y0169626D01*
X0115958Y0169754D01*
X0116046Y0169880D01*
X0116137Y0170003D01*
X0116231Y0170124D01*
X0116329Y0170242D01*
X0116429Y0170358D01*
X0116533Y0170471D01*
X0116639Y0170582D01*
X0116748Y0170690D01*
X0116860Y0170795D01*
X0116974Y0170896D01*
X0117092Y0170995D01*
X0117211Y0171091D01*
X0117333Y0171184D01*
X0117458Y0171273D01*
X0117585Y0171360D01*
X0117714Y0171442D01*
X0117845Y0171522D01*
X0117978Y0171598D01*
X0118113Y0171671D01*
X0118250Y0171740D01*
X0118389Y0171805D01*
X0118529Y0171867D01*
X0118671Y0171925D01*
X0118814Y0171980D01*
X0118959Y0172031D01*
X0119105Y0172078D01*
X0119252Y0172121D01*
X0119400Y0172160D01*
X0119549Y0172196D01*
X0119699Y0172227D01*
X0119850Y0172255D01*
X0120001Y0172279D01*
X0120154Y0172299D01*
X0120306Y0172315D01*
X0120459Y0172327D01*
X0120612Y0172335D01*
X0120765Y0172339D01*
X0120919Y0172339D01*
X0121072Y0172335D01*
X0121225Y0172327D01*
X0121378Y0172315D01*
X0121530Y0172299D01*
X0121683Y0172279D01*
X0121834Y0172255D01*
X0121985Y0172227D01*
X0122135Y0172196D01*
X0122284Y0172160D01*
X0122432Y0172121D01*
X0122579Y0172078D01*
X0122725Y0172031D01*
X0122870Y0171980D01*
X0123013Y0171925D01*
X0123155Y0171867D01*
X0123295Y0171805D01*
X0123434Y0171740D01*
X0123571Y0171671D01*
X0123706Y0171598D01*
X0123839Y0171522D01*
X0123970Y0171442D01*
X0124099Y0171360D01*
X0124226Y0171273D01*
X0124351Y0171184D01*
X0124473Y0171091D01*
X0124592Y0170995D01*
X0124710Y0170896D01*
X0124824Y0170795D01*
X0124936Y0170690D01*
X0125045Y0170582D01*
X0125151Y0170471D01*
X0125255Y0170358D01*
X0125355Y0170242D01*
X0125453Y0170124D01*
X0125547Y0170003D01*
X0125638Y0169880D01*
X0125726Y0169754D01*
X0125810Y0169626D01*
X0125892Y0169496D01*
X0125969Y0169364D01*
X0126044Y0169230D01*
X0126115Y0169094D01*
X0126182Y0168956D01*
X0126246Y0168816D01*
X0126306Y0168675D01*
X0126362Y0168533D01*
X0126415Y0168389D01*
X0126464Y0168243D01*
X0126509Y0168097D01*
X0126550Y0167949D01*
X0126587Y0167801D01*
X0126621Y0167651D01*
X0126651Y0167500D01*
X0126676Y0167349D01*
X0126698Y0167198D01*
X0126716Y0167045D01*
X0126730Y0166893D01*
X0126740Y0166740D01*
X0126746Y0166586D01*
X0126748Y0166433D01*
X0126746Y0166280D01*
X0126740Y0166126D01*
X0126730Y0165973D01*
X0126716Y0165821D01*
X0126698Y0165668D01*
X0126676Y0165517D01*
X0126651Y0165366D01*
X0126621Y0165215D01*
X0126587Y0165065D01*
X0126550Y0164917D01*
X0126509Y0164769D01*
X0126464Y0164623D01*
X0126415Y0164477D01*
X0126362Y0164333D01*
X0126306Y0164191D01*
X0126246Y0164050D01*
X0126182Y0163910D01*
X0126115Y0163772D01*
X0126044Y0163636D01*
X0125969Y0163502D01*
X0125892Y0163370D01*
X0125810Y0163240D01*
X0125726Y0163112D01*
X0125638Y0162986D01*
X0125547Y0162863D01*
X0125453Y0162742D01*
X0125355Y0162624D01*
X0125255Y0162508D01*
X0125151Y0162395D01*
X0125045Y0162284D01*
X0124936Y0162176D01*
X0124824Y0162071D01*
X0124710Y0161970D01*
X0124592Y0161871D01*
X0124473Y0161775D01*
X0124351Y0161682D01*
X0124226Y0161593D01*
X0124099Y0161506D01*
X0123970Y0161424D01*
X0123839Y0161344D01*
X0123706Y0161268D01*
X0123571Y0161195D01*
X0123434Y0161126D01*
X0123295Y0161061D01*
X0123155Y0160999D01*
X0123013Y0160941D01*
X0122870Y0160886D01*
X0122725Y0160835D01*
X0122579Y0160788D01*
X0122432Y0160745D01*
X0122284Y0160706D01*
X0122135Y0160670D01*
X0121985Y0160639D01*
X0121834Y0160611D01*
X0121683Y0160587D01*
X0121530Y0160567D01*
X0121378Y0160551D01*
X0121225Y0160539D01*
X0121072Y0160531D01*
X0120919Y0160527D01*
X0120765Y0160527D01*
X0120612Y0160531D01*
X0120459Y0160539D01*
X0120306Y0160551D01*
X0120154Y0160567D01*
X0120001Y0160587D01*
X0119850Y0160611D01*
X0119699Y0160639D01*
X0119549Y0160670D01*
X0119400Y0160706D01*
X0119252Y0160745D01*
X0119105Y0160788D01*
X0118959Y0160835D01*
X0118814Y0160886D01*
X0118671Y0160941D01*
X0118529Y0160999D01*
X0118389Y0161061D01*
X0118250Y0161126D01*
X0118113Y0161195D01*
X0117978Y0161268D01*
X0117845Y0161344D01*
X0117714Y0161424D01*
X0117585Y0161506D01*
X0117458Y0161593D01*
X0117333Y0161682D01*
X0117211Y0161775D01*
X0117092Y0161871D01*
X0116974Y0161970D01*
X0116860Y0162071D01*
X0116748Y0162176D01*
X0116639Y0162284D01*
X0116533Y0162395D01*
X0116429Y0162508D01*
X0116329Y0162624D01*
X0116231Y0162742D01*
X0116137Y0162863D01*
X0116046Y0162986D01*
X0115958Y0163112D01*
X0115874Y0163240D01*
X0115792Y0163370D01*
X0115715Y0163502D01*
X0115640Y0163636D01*
X0115569Y0163772D01*
X0115502Y0163910D01*
X0115438Y0164050D01*
X0115378Y0164191D01*
X0115322Y0164333D01*
X0115269Y0164477D01*
X0115220Y0164623D01*
X0115175Y0164769D01*
X0115134Y0164917D01*
X0115097Y0165065D01*
X0115063Y0165215D01*
X0115033Y0165366D01*
X0115008Y0165517D01*
X0114986Y0165668D01*
X0114968Y0165821D01*
X0114954Y0165973D01*
X0114944Y0166126D01*
X0114938Y0166280D01*
X0114936Y0166433D01*
X0099208Y0236433D02*
X0099210Y0236561D01*
X0099216Y0236689D01*
X0099226Y0236816D01*
X0099240Y0236944D01*
X0099257Y0237070D01*
X0099279Y0237196D01*
X0099305Y0237322D01*
X0099334Y0237446D01*
X0099367Y0237570D01*
X0099404Y0237692D01*
X0099445Y0237813D01*
X0099490Y0237933D01*
X0099538Y0238052D01*
X0099590Y0238169D01*
X0099646Y0238284D01*
X0099705Y0238398D01*
X0099767Y0238509D01*
X0099833Y0238619D01*
X0099902Y0238726D01*
X0099975Y0238832D01*
X0100051Y0238935D01*
X0100130Y0239035D01*
X0100212Y0239134D01*
X0100297Y0239229D01*
X0100385Y0239322D01*
X0100476Y0239412D01*
X0100569Y0239499D01*
X0100666Y0239584D01*
X0100764Y0239665D01*
X0100866Y0239743D01*
X0100969Y0239818D01*
X0101075Y0239890D01*
X0101183Y0239959D01*
X0101293Y0240024D01*
X0101406Y0240085D01*
X0101520Y0240144D01*
X0101635Y0240198D01*
X0101753Y0240249D01*
X0101871Y0240297D01*
X0101992Y0240340D01*
X0102113Y0240380D01*
X0102236Y0240416D01*
X0102360Y0240449D01*
X0102485Y0240477D01*
X0102610Y0240502D01*
X0102736Y0240522D01*
X0102863Y0240539D01*
X0102991Y0240552D01*
X0103118Y0240561D01*
X0103246Y0240566D01*
X0103374Y0240567D01*
X0103502Y0240564D01*
X0103630Y0240557D01*
X0103757Y0240546D01*
X0103884Y0240531D01*
X0104011Y0240513D01*
X0104137Y0240490D01*
X0104262Y0240463D01*
X0104386Y0240433D01*
X0104509Y0240399D01*
X0104632Y0240361D01*
X0104753Y0240319D01*
X0104872Y0240273D01*
X0104990Y0240224D01*
X0105107Y0240171D01*
X0105222Y0240115D01*
X0105335Y0240055D01*
X0105446Y0239992D01*
X0105555Y0239925D01*
X0105662Y0239855D01*
X0105767Y0239781D01*
X0105869Y0239705D01*
X0105969Y0239625D01*
X0106067Y0239542D01*
X0106162Y0239456D01*
X0106254Y0239367D01*
X0106343Y0239276D01*
X0106430Y0239182D01*
X0106513Y0239085D01*
X0106594Y0238985D01*
X0106671Y0238884D01*
X0106746Y0238779D01*
X0106817Y0238673D01*
X0106884Y0238564D01*
X0106949Y0238454D01*
X0107009Y0238341D01*
X0107067Y0238227D01*
X0107120Y0238111D01*
X0107170Y0237993D01*
X0107217Y0237874D01*
X0107260Y0237753D01*
X0107299Y0237631D01*
X0107334Y0237508D01*
X0107365Y0237384D01*
X0107393Y0237259D01*
X0107416Y0237133D01*
X0107436Y0237007D01*
X0107452Y0236880D01*
X0107464Y0236753D01*
X0107472Y0236625D01*
X0107476Y0236497D01*
X0107476Y0236369D01*
X0107472Y0236241D01*
X0107464Y0236113D01*
X0107452Y0235986D01*
X0107436Y0235859D01*
X0107416Y0235733D01*
X0107393Y0235607D01*
X0107365Y0235482D01*
X0107334Y0235358D01*
X0107299Y0235235D01*
X0107260Y0235113D01*
X0107217Y0234992D01*
X0107170Y0234873D01*
X0107120Y0234755D01*
X0107067Y0234639D01*
X0107009Y0234525D01*
X0106949Y0234412D01*
X0106884Y0234302D01*
X0106817Y0234193D01*
X0106746Y0234087D01*
X0106671Y0233982D01*
X0106594Y0233881D01*
X0106513Y0233781D01*
X0106430Y0233684D01*
X0106343Y0233590D01*
X0106254Y0233499D01*
X0106162Y0233410D01*
X0106067Y0233324D01*
X0105969Y0233241D01*
X0105869Y0233161D01*
X0105767Y0233085D01*
X0105662Y0233011D01*
X0105555Y0232941D01*
X0105446Y0232874D01*
X0105335Y0232811D01*
X0105222Y0232751D01*
X0105107Y0232695D01*
X0104990Y0232642D01*
X0104872Y0232593D01*
X0104753Y0232547D01*
X0104632Y0232505D01*
X0104509Y0232467D01*
X0104386Y0232433D01*
X0104262Y0232403D01*
X0104137Y0232376D01*
X0104011Y0232353D01*
X0103884Y0232335D01*
X0103757Y0232320D01*
X0103630Y0232309D01*
X0103502Y0232302D01*
X0103374Y0232299D01*
X0103246Y0232300D01*
X0103118Y0232305D01*
X0102991Y0232314D01*
X0102863Y0232327D01*
X0102736Y0232344D01*
X0102610Y0232364D01*
X0102485Y0232389D01*
X0102360Y0232417D01*
X0102236Y0232450D01*
X0102113Y0232486D01*
X0101992Y0232526D01*
X0101871Y0232569D01*
X0101753Y0232617D01*
X0101635Y0232668D01*
X0101520Y0232722D01*
X0101406Y0232781D01*
X0101293Y0232842D01*
X0101183Y0232907D01*
X0101075Y0232976D01*
X0100969Y0233048D01*
X0100866Y0233123D01*
X0100764Y0233201D01*
X0100666Y0233282D01*
X0100569Y0233367D01*
X0100476Y0233454D01*
X0100385Y0233544D01*
X0100297Y0233637D01*
X0100212Y0233732D01*
X0100130Y0233831D01*
X0100051Y0233931D01*
X0099975Y0234034D01*
X0099902Y0234140D01*
X0099833Y0234247D01*
X0099767Y0234357D01*
X0099705Y0234468D01*
X0099646Y0234582D01*
X0099590Y0234697D01*
X0099538Y0234814D01*
X0099490Y0234933D01*
X0099445Y0235053D01*
X0099404Y0235174D01*
X0099367Y0235296D01*
X0099334Y0235420D01*
X0099305Y0235544D01*
X0099279Y0235670D01*
X0099257Y0235796D01*
X0099240Y0235922D01*
X0099226Y0236050D01*
X0099216Y0236177D01*
X0099210Y0236305D01*
X0099208Y0236433D01*
X0234208Y0236433D02*
X0234210Y0236561D01*
X0234216Y0236689D01*
X0234226Y0236816D01*
X0234240Y0236944D01*
X0234257Y0237070D01*
X0234279Y0237196D01*
X0234305Y0237322D01*
X0234334Y0237446D01*
X0234367Y0237570D01*
X0234404Y0237692D01*
X0234445Y0237813D01*
X0234490Y0237933D01*
X0234538Y0238052D01*
X0234590Y0238169D01*
X0234646Y0238284D01*
X0234705Y0238398D01*
X0234767Y0238509D01*
X0234833Y0238619D01*
X0234902Y0238726D01*
X0234975Y0238832D01*
X0235051Y0238935D01*
X0235130Y0239035D01*
X0235212Y0239134D01*
X0235297Y0239229D01*
X0235385Y0239322D01*
X0235476Y0239412D01*
X0235569Y0239499D01*
X0235666Y0239584D01*
X0235764Y0239665D01*
X0235866Y0239743D01*
X0235969Y0239818D01*
X0236075Y0239890D01*
X0236183Y0239959D01*
X0236293Y0240024D01*
X0236406Y0240085D01*
X0236520Y0240144D01*
X0236635Y0240198D01*
X0236753Y0240249D01*
X0236871Y0240297D01*
X0236992Y0240340D01*
X0237113Y0240380D01*
X0237236Y0240416D01*
X0237360Y0240449D01*
X0237485Y0240477D01*
X0237610Y0240502D01*
X0237736Y0240522D01*
X0237863Y0240539D01*
X0237991Y0240552D01*
X0238118Y0240561D01*
X0238246Y0240566D01*
X0238374Y0240567D01*
X0238502Y0240564D01*
X0238630Y0240557D01*
X0238757Y0240546D01*
X0238884Y0240531D01*
X0239011Y0240513D01*
X0239137Y0240490D01*
X0239262Y0240463D01*
X0239386Y0240433D01*
X0239509Y0240399D01*
X0239632Y0240361D01*
X0239753Y0240319D01*
X0239872Y0240273D01*
X0239990Y0240224D01*
X0240107Y0240171D01*
X0240222Y0240115D01*
X0240335Y0240055D01*
X0240446Y0239992D01*
X0240555Y0239925D01*
X0240662Y0239855D01*
X0240767Y0239781D01*
X0240869Y0239705D01*
X0240969Y0239625D01*
X0241067Y0239542D01*
X0241162Y0239456D01*
X0241254Y0239367D01*
X0241343Y0239276D01*
X0241430Y0239182D01*
X0241513Y0239085D01*
X0241594Y0238985D01*
X0241671Y0238884D01*
X0241746Y0238779D01*
X0241817Y0238673D01*
X0241884Y0238564D01*
X0241949Y0238454D01*
X0242009Y0238341D01*
X0242067Y0238227D01*
X0242120Y0238111D01*
X0242170Y0237993D01*
X0242217Y0237874D01*
X0242260Y0237753D01*
X0242299Y0237631D01*
X0242334Y0237508D01*
X0242365Y0237384D01*
X0242393Y0237259D01*
X0242416Y0237133D01*
X0242436Y0237007D01*
X0242452Y0236880D01*
X0242464Y0236753D01*
X0242472Y0236625D01*
X0242476Y0236497D01*
X0242476Y0236369D01*
X0242472Y0236241D01*
X0242464Y0236113D01*
X0242452Y0235986D01*
X0242436Y0235859D01*
X0242416Y0235733D01*
X0242393Y0235607D01*
X0242365Y0235482D01*
X0242334Y0235358D01*
X0242299Y0235235D01*
X0242260Y0235113D01*
X0242217Y0234992D01*
X0242170Y0234873D01*
X0242120Y0234755D01*
X0242067Y0234639D01*
X0242009Y0234525D01*
X0241949Y0234412D01*
X0241884Y0234302D01*
X0241817Y0234193D01*
X0241746Y0234087D01*
X0241671Y0233982D01*
X0241594Y0233881D01*
X0241513Y0233781D01*
X0241430Y0233684D01*
X0241343Y0233590D01*
X0241254Y0233499D01*
X0241162Y0233410D01*
X0241067Y0233324D01*
X0240969Y0233241D01*
X0240869Y0233161D01*
X0240767Y0233085D01*
X0240662Y0233011D01*
X0240555Y0232941D01*
X0240446Y0232874D01*
X0240335Y0232811D01*
X0240222Y0232751D01*
X0240107Y0232695D01*
X0239990Y0232642D01*
X0239872Y0232593D01*
X0239753Y0232547D01*
X0239632Y0232505D01*
X0239509Y0232467D01*
X0239386Y0232433D01*
X0239262Y0232403D01*
X0239137Y0232376D01*
X0239011Y0232353D01*
X0238884Y0232335D01*
X0238757Y0232320D01*
X0238630Y0232309D01*
X0238502Y0232302D01*
X0238374Y0232299D01*
X0238246Y0232300D01*
X0238118Y0232305D01*
X0237991Y0232314D01*
X0237863Y0232327D01*
X0237736Y0232344D01*
X0237610Y0232364D01*
X0237485Y0232389D01*
X0237360Y0232417D01*
X0237236Y0232450D01*
X0237113Y0232486D01*
X0236992Y0232526D01*
X0236871Y0232569D01*
X0236753Y0232617D01*
X0236635Y0232668D01*
X0236520Y0232722D01*
X0236406Y0232781D01*
X0236293Y0232842D01*
X0236183Y0232907D01*
X0236075Y0232976D01*
X0235969Y0233048D01*
X0235866Y0233123D01*
X0235764Y0233201D01*
X0235666Y0233282D01*
X0235569Y0233367D01*
X0235476Y0233454D01*
X0235385Y0233544D01*
X0235297Y0233637D01*
X0235212Y0233732D01*
X0235130Y0233831D01*
X0235051Y0233931D01*
X0234975Y0234034D01*
X0234902Y0234140D01*
X0234833Y0234247D01*
X0234767Y0234357D01*
X0234705Y0234468D01*
X0234646Y0234582D01*
X0234590Y0234697D01*
X0234538Y0234814D01*
X0234490Y0234933D01*
X0234445Y0235053D01*
X0234404Y0235174D01*
X0234367Y0235296D01*
X0234334Y0235420D01*
X0234305Y0235544D01*
X0234279Y0235670D01*
X0234257Y0235796D01*
X0234240Y0235922D01*
X0234226Y0236050D01*
X0234216Y0236177D01*
X0234210Y0236305D01*
X0234208Y0236433D01*
X0247436Y0166433D02*
X0247438Y0166586D01*
X0247444Y0166740D01*
X0247454Y0166893D01*
X0247468Y0167045D01*
X0247486Y0167198D01*
X0247508Y0167349D01*
X0247533Y0167500D01*
X0247563Y0167651D01*
X0247597Y0167801D01*
X0247634Y0167949D01*
X0247675Y0168097D01*
X0247720Y0168243D01*
X0247769Y0168389D01*
X0247822Y0168533D01*
X0247878Y0168675D01*
X0247938Y0168816D01*
X0248002Y0168956D01*
X0248069Y0169094D01*
X0248140Y0169230D01*
X0248215Y0169364D01*
X0248292Y0169496D01*
X0248374Y0169626D01*
X0248458Y0169754D01*
X0248546Y0169880D01*
X0248637Y0170003D01*
X0248731Y0170124D01*
X0248829Y0170242D01*
X0248929Y0170358D01*
X0249033Y0170471D01*
X0249139Y0170582D01*
X0249248Y0170690D01*
X0249360Y0170795D01*
X0249474Y0170896D01*
X0249592Y0170995D01*
X0249711Y0171091D01*
X0249833Y0171184D01*
X0249958Y0171273D01*
X0250085Y0171360D01*
X0250214Y0171442D01*
X0250345Y0171522D01*
X0250478Y0171598D01*
X0250613Y0171671D01*
X0250750Y0171740D01*
X0250889Y0171805D01*
X0251029Y0171867D01*
X0251171Y0171925D01*
X0251314Y0171980D01*
X0251459Y0172031D01*
X0251605Y0172078D01*
X0251752Y0172121D01*
X0251900Y0172160D01*
X0252049Y0172196D01*
X0252199Y0172227D01*
X0252350Y0172255D01*
X0252501Y0172279D01*
X0252654Y0172299D01*
X0252806Y0172315D01*
X0252959Y0172327D01*
X0253112Y0172335D01*
X0253265Y0172339D01*
X0253419Y0172339D01*
X0253572Y0172335D01*
X0253725Y0172327D01*
X0253878Y0172315D01*
X0254030Y0172299D01*
X0254183Y0172279D01*
X0254334Y0172255D01*
X0254485Y0172227D01*
X0254635Y0172196D01*
X0254784Y0172160D01*
X0254932Y0172121D01*
X0255079Y0172078D01*
X0255225Y0172031D01*
X0255370Y0171980D01*
X0255513Y0171925D01*
X0255655Y0171867D01*
X0255795Y0171805D01*
X0255934Y0171740D01*
X0256071Y0171671D01*
X0256206Y0171598D01*
X0256339Y0171522D01*
X0256470Y0171442D01*
X0256599Y0171360D01*
X0256726Y0171273D01*
X0256851Y0171184D01*
X0256973Y0171091D01*
X0257092Y0170995D01*
X0257210Y0170896D01*
X0257324Y0170795D01*
X0257436Y0170690D01*
X0257545Y0170582D01*
X0257651Y0170471D01*
X0257755Y0170358D01*
X0257855Y0170242D01*
X0257953Y0170124D01*
X0258047Y0170003D01*
X0258138Y0169880D01*
X0258226Y0169754D01*
X0258310Y0169626D01*
X0258392Y0169496D01*
X0258469Y0169364D01*
X0258544Y0169230D01*
X0258615Y0169094D01*
X0258682Y0168956D01*
X0258746Y0168816D01*
X0258806Y0168675D01*
X0258862Y0168533D01*
X0258915Y0168389D01*
X0258964Y0168243D01*
X0259009Y0168097D01*
X0259050Y0167949D01*
X0259087Y0167801D01*
X0259121Y0167651D01*
X0259151Y0167500D01*
X0259176Y0167349D01*
X0259198Y0167198D01*
X0259216Y0167045D01*
X0259230Y0166893D01*
X0259240Y0166740D01*
X0259246Y0166586D01*
X0259248Y0166433D01*
X0259246Y0166280D01*
X0259240Y0166126D01*
X0259230Y0165973D01*
X0259216Y0165821D01*
X0259198Y0165668D01*
X0259176Y0165517D01*
X0259151Y0165366D01*
X0259121Y0165215D01*
X0259087Y0165065D01*
X0259050Y0164917D01*
X0259009Y0164769D01*
X0258964Y0164623D01*
X0258915Y0164477D01*
X0258862Y0164333D01*
X0258806Y0164191D01*
X0258746Y0164050D01*
X0258682Y0163910D01*
X0258615Y0163772D01*
X0258544Y0163636D01*
X0258469Y0163502D01*
X0258392Y0163370D01*
X0258310Y0163240D01*
X0258226Y0163112D01*
X0258138Y0162986D01*
X0258047Y0162863D01*
X0257953Y0162742D01*
X0257855Y0162624D01*
X0257755Y0162508D01*
X0257651Y0162395D01*
X0257545Y0162284D01*
X0257436Y0162176D01*
X0257324Y0162071D01*
X0257210Y0161970D01*
X0257092Y0161871D01*
X0256973Y0161775D01*
X0256851Y0161682D01*
X0256726Y0161593D01*
X0256599Y0161506D01*
X0256470Y0161424D01*
X0256339Y0161344D01*
X0256206Y0161268D01*
X0256071Y0161195D01*
X0255934Y0161126D01*
X0255795Y0161061D01*
X0255655Y0160999D01*
X0255513Y0160941D01*
X0255370Y0160886D01*
X0255225Y0160835D01*
X0255079Y0160788D01*
X0254932Y0160745D01*
X0254784Y0160706D01*
X0254635Y0160670D01*
X0254485Y0160639D01*
X0254334Y0160611D01*
X0254183Y0160587D01*
X0254030Y0160567D01*
X0253878Y0160551D01*
X0253725Y0160539D01*
X0253572Y0160531D01*
X0253419Y0160527D01*
X0253265Y0160527D01*
X0253112Y0160531D01*
X0252959Y0160539D01*
X0252806Y0160551D01*
X0252654Y0160567D01*
X0252501Y0160587D01*
X0252350Y0160611D01*
X0252199Y0160639D01*
X0252049Y0160670D01*
X0251900Y0160706D01*
X0251752Y0160745D01*
X0251605Y0160788D01*
X0251459Y0160835D01*
X0251314Y0160886D01*
X0251171Y0160941D01*
X0251029Y0160999D01*
X0250889Y0161061D01*
X0250750Y0161126D01*
X0250613Y0161195D01*
X0250478Y0161268D01*
X0250345Y0161344D01*
X0250214Y0161424D01*
X0250085Y0161506D01*
X0249958Y0161593D01*
X0249833Y0161682D01*
X0249711Y0161775D01*
X0249592Y0161871D01*
X0249474Y0161970D01*
X0249360Y0162071D01*
X0249248Y0162176D01*
X0249139Y0162284D01*
X0249033Y0162395D01*
X0248929Y0162508D01*
X0248829Y0162624D01*
X0248731Y0162742D01*
X0248637Y0162863D01*
X0248546Y0162986D01*
X0248458Y0163112D01*
X0248374Y0163240D01*
X0248292Y0163370D01*
X0248215Y0163502D01*
X0248140Y0163636D01*
X0248069Y0163772D01*
X0248002Y0163910D01*
X0247938Y0164050D01*
X0247878Y0164191D01*
X0247822Y0164333D01*
X0247769Y0164477D01*
X0247720Y0164623D01*
X0247675Y0164769D01*
X0247634Y0164917D01*
X0247597Y0165065D01*
X0247563Y0165215D01*
X0247533Y0165366D01*
X0247508Y0165517D01*
X0247486Y0165668D01*
X0247468Y0165821D01*
X0247454Y0165973D01*
X0247444Y0166126D01*
X0247438Y0166280D01*
X0247436Y0166433D01*
X0234208Y0096433D02*
X0234210Y0096561D01*
X0234216Y0096689D01*
X0234226Y0096816D01*
X0234240Y0096944D01*
X0234257Y0097070D01*
X0234279Y0097196D01*
X0234305Y0097322D01*
X0234334Y0097446D01*
X0234367Y0097570D01*
X0234404Y0097692D01*
X0234445Y0097813D01*
X0234490Y0097933D01*
X0234538Y0098052D01*
X0234590Y0098169D01*
X0234646Y0098284D01*
X0234705Y0098398D01*
X0234767Y0098509D01*
X0234833Y0098619D01*
X0234902Y0098726D01*
X0234975Y0098832D01*
X0235051Y0098935D01*
X0235130Y0099035D01*
X0235212Y0099134D01*
X0235297Y0099229D01*
X0235385Y0099322D01*
X0235476Y0099412D01*
X0235569Y0099499D01*
X0235666Y0099584D01*
X0235764Y0099665D01*
X0235866Y0099743D01*
X0235969Y0099818D01*
X0236075Y0099890D01*
X0236183Y0099959D01*
X0236293Y0100024D01*
X0236406Y0100085D01*
X0236520Y0100144D01*
X0236635Y0100198D01*
X0236753Y0100249D01*
X0236871Y0100297D01*
X0236992Y0100340D01*
X0237113Y0100380D01*
X0237236Y0100416D01*
X0237360Y0100449D01*
X0237485Y0100477D01*
X0237610Y0100502D01*
X0237736Y0100522D01*
X0237863Y0100539D01*
X0237991Y0100552D01*
X0238118Y0100561D01*
X0238246Y0100566D01*
X0238374Y0100567D01*
X0238502Y0100564D01*
X0238630Y0100557D01*
X0238757Y0100546D01*
X0238884Y0100531D01*
X0239011Y0100513D01*
X0239137Y0100490D01*
X0239262Y0100463D01*
X0239386Y0100433D01*
X0239509Y0100399D01*
X0239632Y0100361D01*
X0239753Y0100319D01*
X0239872Y0100273D01*
X0239990Y0100224D01*
X0240107Y0100171D01*
X0240222Y0100115D01*
X0240335Y0100055D01*
X0240446Y0099992D01*
X0240555Y0099925D01*
X0240662Y0099855D01*
X0240767Y0099781D01*
X0240869Y0099705D01*
X0240969Y0099625D01*
X0241067Y0099542D01*
X0241162Y0099456D01*
X0241254Y0099367D01*
X0241343Y0099276D01*
X0241430Y0099182D01*
X0241513Y0099085D01*
X0241594Y0098985D01*
X0241671Y0098884D01*
X0241746Y0098779D01*
X0241817Y0098673D01*
X0241884Y0098564D01*
X0241949Y0098454D01*
X0242009Y0098341D01*
X0242067Y0098227D01*
X0242120Y0098111D01*
X0242170Y0097993D01*
X0242217Y0097874D01*
X0242260Y0097753D01*
X0242299Y0097631D01*
X0242334Y0097508D01*
X0242365Y0097384D01*
X0242393Y0097259D01*
X0242416Y0097133D01*
X0242436Y0097007D01*
X0242452Y0096880D01*
X0242464Y0096753D01*
X0242472Y0096625D01*
X0242476Y0096497D01*
X0242476Y0096369D01*
X0242472Y0096241D01*
X0242464Y0096113D01*
X0242452Y0095986D01*
X0242436Y0095859D01*
X0242416Y0095733D01*
X0242393Y0095607D01*
X0242365Y0095482D01*
X0242334Y0095358D01*
X0242299Y0095235D01*
X0242260Y0095113D01*
X0242217Y0094992D01*
X0242170Y0094873D01*
X0242120Y0094755D01*
X0242067Y0094639D01*
X0242009Y0094525D01*
X0241949Y0094412D01*
X0241884Y0094302D01*
X0241817Y0094193D01*
X0241746Y0094087D01*
X0241671Y0093982D01*
X0241594Y0093881D01*
X0241513Y0093781D01*
X0241430Y0093684D01*
X0241343Y0093590D01*
X0241254Y0093499D01*
X0241162Y0093410D01*
X0241067Y0093324D01*
X0240969Y0093241D01*
X0240869Y0093161D01*
X0240767Y0093085D01*
X0240662Y0093011D01*
X0240555Y0092941D01*
X0240446Y0092874D01*
X0240335Y0092811D01*
X0240222Y0092751D01*
X0240107Y0092695D01*
X0239990Y0092642D01*
X0239872Y0092593D01*
X0239753Y0092547D01*
X0239632Y0092505D01*
X0239509Y0092467D01*
X0239386Y0092433D01*
X0239262Y0092403D01*
X0239137Y0092376D01*
X0239011Y0092353D01*
X0238884Y0092335D01*
X0238757Y0092320D01*
X0238630Y0092309D01*
X0238502Y0092302D01*
X0238374Y0092299D01*
X0238246Y0092300D01*
X0238118Y0092305D01*
X0237991Y0092314D01*
X0237863Y0092327D01*
X0237736Y0092344D01*
X0237610Y0092364D01*
X0237485Y0092389D01*
X0237360Y0092417D01*
X0237236Y0092450D01*
X0237113Y0092486D01*
X0236992Y0092526D01*
X0236871Y0092569D01*
X0236753Y0092617D01*
X0236635Y0092668D01*
X0236520Y0092722D01*
X0236406Y0092781D01*
X0236293Y0092842D01*
X0236183Y0092907D01*
X0236075Y0092976D01*
X0235969Y0093048D01*
X0235866Y0093123D01*
X0235764Y0093201D01*
X0235666Y0093282D01*
X0235569Y0093367D01*
X0235476Y0093454D01*
X0235385Y0093544D01*
X0235297Y0093637D01*
X0235212Y0093732D01*
X0235130Y0093831D01*
X0235051Y0093931D01*
X0234975Y0094034D01*
X0234902Y0094140D01*
X0234833Y0094247D01*
X0234767Y0094357D01*
X0234705Y0094468D01*
X0234646Y0094582D01*
X0234590Y0094697D01*
X0234538Y0094814D01*
X0234490Y0094933D01*
X0234445Y0095053D01*
X0234404Y0095174D01*
X0234367Y0095296D01*
X0234334Y0095420D01*
X0234305Y0095544D01*
X0234279Y0095670D01*
X0234257Y0095796D01*
X0234240Y0095922D01*
X0234226Y0096050D01*
X0234216Y0096177D01*
X0234210Y0096305D01*
X0234208Y0096433D01*
D11*
X0198342Y0128933D03*
X0215342Y0140933D03*
X0198342Y0166433D03*
X0198342Y0171433D03*
X0180342Y0175933D03*
X0178342Y0193933D03*
X0173342Y0193933D03*
X0170342Y0196433D03*
X0163342Y0196933D03*
X0163842Y0211933D03*
X0159342Y0217933D03*
X0150842Y0217933D03*
X0152842Y0233445D03*
X0158342Y0238933D03*
X0169737Y0238933D03*
X0177852Y0238933D03*
X0187342Y0238933D03*
X0183342Y0229507D03*
X0186342Y0227538D03*
X0198342Y0203933D03*
X0204342Y0196933D03*
X0180342Y0154933D03*
X0175342Y0154933D03*
X0180342Y0140933D03*
X0170834Y0137941D03*
X0159342Y0133933D03*
X0159342Y0119933D03*
X0177342Y0118933D03*
X0185842Y0096433D03*
X0165842Y0096433D03*
X0190842Y0070933D03*
X0133342Y0128933D03*
X0141342Y0136933D03*
X0148342Y0146433D03*
X0143342Y0158933D03*
X0143342Y0163933D03*
X0143342Y0173933D03*
X0143342Y0178933D03*
X0143342Y0186433D03*
X0130253Y0179933D03*
X0133342Y0203933D03*
X0130342Y0217933D03*
X0130342Y0235433D03*
X0131342Y0154933D03*
X0105342Y0154933D03*
X0054342Y0154933D03*
X0047342Y0168933D03*
X0250342Y0140933D03*
X0292342Y0168933D03*
X0250342Y0196933D03*
D12*
X0223342Y0171433D03*
X0223342Y0161433D03*
X0213342Y0161433D03*
X0213342Y0171433D03*
D13*
X0198342Y0171433D02*
X0198342Y0203933D01*
X0198342Y0166433D02*
X0198342Y0128933D01*
X0148342Y0146433D02*
X0148342Y0163933D01*
X0143342Y0168933D01*
X0143342Y0173933D01*
X0143342Y0178933D02*
X0143342Y0186433D01*
X0133342Y0173933D02*
X0133342Y0203933D01*
X0133342Y0173933D02*
X0143342Y0163933D01*
X0143342Y0158933D02*
X0133342Y0148933D01*
X0133342Y0128933D01*
M02*
