G75*
%MOIN*%
%OFA0B0*%
%FSLAX25Y25*%
%IPPOS*%
%LPD*%
%AMOC8*
5,1,8,0,0,1.08239X$1,22.5*
%
%ADD10C,0.00000*%
%ADD11C,0.02578*%
%ADD12C,0.05906*%
%ADD13C,0.00600*%
%ADD14C,0.05000*%
%ADD15C,0.00700*%
D10*
X0033342Y0048933D02*
X0033342Y0283933D01*
X0053342Y0303933D01*
X0058302Y0303894D01*
X0053342Y0303933D02*
X0288342Y0303933D01*
X0308342Y0283933D01*
X0308342Y0048933D01*
X0288342Y0028933D01*
X0053342Y0028933D01*
X0033342Y0048933D01*
X0099208Y0096433D02*
X0099210Y0096561D01*
X0099216Y0096689D01*
X0099226Y0096816D01*
X0099240Y0096944D01*
X0099257Y0097070D01*
X0099279Y0097196D01*
X0099305Y0097322D01*
X0099334Y0097446D01*
X0099367Y0097570D01*
X0099404Y0097692D01*
X0099445Y0097813D01*
X0099490Y0097933D01*
X0099538Y0098052D01*
X0099590Y0098169D01*
X0099646Y0098284D01*
X0099705Y0098398D01*
X0099767Y0098509D01*
X0099833Y0098619D01*
X0099902Y0098726D01*
X0099975Y0098832D01*
X0100051Y0098935D01*
X0100130Y0099035D01*
X0100212Y0099134D01*
X0100297Y0099229D01*
X0100385Y0099322D01*
X0100476Y0099412D01*
X0100569Y0099499D01*
X0100666Y0099584D01*
X0100764Y0099665D01*
X0100866Y0099743D01*
X0100969Y0099818D01*
X0101075Y0099890D01*
X0101183Y0099959D01*
X0101293Y0100024D01*
X0101406Y0100085D01*
X0101520Y0100144D01*
X0101635Y0100198D01*
X0101753Y0100249D01*
X0101871Y0100297D01*
X0101992Y0100340D01*
X0102113Y0100380D01*
X0102236Y0100416D01*
X0102360Y0100449D01*
X0102485Y0100477D01*
X0102610Y0100502D01*
X0102736Y0100522D01*
X0102863Y0100539D01*
X0102991Y0100552D01*
X0103118Y0100561D01*
X0103246Y0100566D01*
X0103374Y0100567D01*
X0103502Y0100564D01*
X0103630Y0100557D01*
X0103757Y0100546D01*
X0103884Y0100531D01*
X0104011Y0100513D01*
X0104137Y0100490D01*
X0104262Y0100463D01*
X0104386Y0100433D01*
X0104509Y0100399D01*
X0104632Y0100361D01*
X0104753Y0100319D01*
X0104872Y0100273D01*
X0104990Y0100224D01*
X0105107Y0100171D01*
X0105222Y0100115D01*
X0105335Y0100055D01*
X0105446Y0099992D01*
X0105555Y0099925D01*
X0105662Y0099855D01*
X0105767Y0099781D01*
X0105869Y0099705D01*
X0105969Y0099625D01*
X0106067Y0099542D01*
X0106162Y0099456D01*
X0106254Y0099367D01*
X0106343Y0099276D01*
X0106430Y0099182D01*
X0106513Y0099085D01*
X0106594Y0098985D01*
X0106671Y0098884D01*
X0106746Y0098779D01*
X0106817Y0098673D01*
X0106884Y0098564D01*
X0106949Y0098454D01*
X0107009Y0098341D01*
X0107067Y0098227D01*
X0107120Y0098111D01*
X0107170Y0097993D01*
X0107217Y0097874D01*
X0107260Y0097753D01*
X0107299Y0097631D01*
X0107334Y0097508D01*
X0107365Y0097384D01*
X0107393Y0097259D01*
X0107416Y0097133D01*
X0107436Y0097007D01*
X0107452Y0096880D01*
X0107464Y0096753D01*
X0107472Y0096625D01*
X0107476Y0096497D01*
X0107476Y0096369D01*
X0107472Y0096241D01*
X0107464Y0096113D01*
X0107452Y0095986D01*
X0107436Y0095859D01*
X0107416Y0095733D01*
X0107393Y0095607D01*
X0107365Y0095482D01*
X0107334Y0095358D01*
X0107299Y0095235D01*
X0107260Y0095113D01*
X0107217Y0094992D01*
X0107170Y0094873D01*
X0107120Y0094755D01*
X0107067Y0094639D01*
X0107009Y0094525D01*
X0106949Y0094412D01*
X0106884Y0094302D01*
X0106817Y0094193D01*
X0106746Y0094087D01*
X0106671Y0093982D01*
X0106594Y0093881D01*
X0106513Y0093781D01*
X0106430Y0093684D01*
X0106343Y0093590D01*
X0106254Y0093499D01*
X0106162Y0093410D01*
X0106067Y0093324D01*
X0105969Y0093241D01*
X0105869Y0093161D01*
X0105767Y0093085D01*
X0105662Y0093011D01*
X0105555Y0092941D01*
X0105446Y0092874D01*
X0105335Y0092811D01*
X0105222Y0092751D01*
X0105107Y0092695D01*
X0104990Y0092642D01*
X0104872Y0092593D01*
X0104753Y0092547D01*
X0104632Y0092505D01*
X0104509Y0092467D01*
X0104386Y0092433D01*
X0104262Y0092403D01*
X0104137Y0092376D01*
X0104011Y0092353D01*
X0103884Y0092335D01*
X0103757Y0092320D01*
X0103630Y0092309D01*
X0103502Y0092302D01*
X0103374Y0092299D01*
X0103246Y0092300D01*
X0103118Y0092305D01*
X0102991Y0092314D01*
X0102863Y0092327D01*
X0102736Y0092344D01*
X0102610Y0092364D01*
X0102485Y0092389D01*
X0102360Y0092417D01*
X0102236Y0092450D01*
X0102113Y0092486D01*
X0101992Y0092526D01*
X0101871Y0092569D01*
X0101753Y0092617D01*
X0101635Y0092668D01*
X0101520Y0092722D01*
X0101406Y0092781D01*
X0101293Y0092842D01*
X0101183Y0092907D01*
X0101075Y0092976D01*
X0100969Y0093048D01*
X0100866Y0093123D01*
X0100764Y0093201D01*
X0100666Y0093282D01*
X0100569Y0093367D01*
X0100476Y0093454D01*
X0100385Y0093544D01*
X0100297Y0093637D01*
X0100212Y0093732D01*
X0100130Y0093831D01*
X0100051Y0093931D01*
X0099975Y0094034D01*
X0099902Y0094140D01*
X0099833Y0094247D01*
X0099767Y0094357D01*
X0099705Y0094468D01*
X0099646Y0094582D01*
X0099590Y0094697D01*
X0099538Y0094814D01*
X0099490Y0094933D01*
X0099445Y0095053D01*
X0099404Y0095174D01*
X0099367Y0095296D01*
X0099334Y0095420D01*
X0099305Y0095544D01*
X0099279Y0095670D01*
X0099257Y0095796D01*
X0099240Y0095922D01*
X0099226Y0096050D01*
X0099216Y0096177D01*
X0099210Y0096305D01*
X0099208Y0096433D01*
X0082436Y0166433D02*
X0082438Y0166586D01*
X0082444Y0166740D01*
X0082454Y0166893D01*
X0082468Y0167045D01*
X0082486Y0167198D01*
X0082508Y0167349D01*
X0082533Y0167500D01*
X0082563Y0167651D01*
X0082597Y0167801D01*
X0082634Y0167949D01*
X0082675Y0168097D01*
X0082720Y0168243D01*
X0082769Y0168389D01*
X0082822Y0168533D01*
X0082878Y0168675D01*
X0082938Y0168816D01*
X0083002Y0168956D01*
X0083069Y0169094D01*
X0083140Y0169230D01*
X0083215Y0169364D01*
X0083292Y0169496D01*
X0083374Y0169626D01*
X0083458Y0169754D01*
X0083546Y0169880D01*
X0083637Y0170003D01*
X0083731Y0170124D01*
X0083829Y0170242D01*
X0083929Y0170358D01*
X0084033Y0170471D01*
X0084139Y0170582D01*
X0084248Y0170690D01*
X0084360Y0170795D01*
X0084474Y0170896D01*
X0084592Y0170995D01*
X0084711Y0171091D01*
X0084833Y0171184D01*
X0084958Y0171273D01*
X0085085Y0171360D01*
X0085214Y0171442D01*
X0085345Y0171522D01*
X0085478Y0171598D01*
X0085613Y0171671D01*
X0085750Y0171740D01*
X0085889Y0171805D01*
X0086029Y0171867D01*
X0086171Y0171925D01*
X0086314Y0171980D01*
X0086459Y0172031D01*
X0086605Y0172078D01*
X0086752Y0172121D01*
X0086900Y0172160D01*
X0087049Y0172196D01*
X0087199Y0172227D01*
X0087350Y0172255D01*
X0087501Y0172279D01*
X0087654Y0172299D01*
X0087806Y0172315D01*
X0087959Y0172327D01*
X0088112Y0172335D01*
X0088265Y0172339D01*
X0088419Y0172339D01*
X0088572Y0172335D01*
X0088725Y0172327D01*
X0088878Y0172315D01*
X0089030Y0172299D01*
X0089183Y0172279D01*
X0089334Y0172255D01*
X0089485Y0172227D01*
X0089635Y0172196D01*
X0089784Y0172160D01*
X0089932Y0172121D01*
X0090079Y0172078D01*
X0090225Y0172031D01*
X0090370Y0171980D01*
X0090513Y0171925D01*
X0090655Y0171867D01*
X0090795Y0171805D01*
X0090934Y0171740D01*
X0091071Y0171671D01*
X0091206Y0171598D01*
X0091339Y0171522D01*
X0091470Y0171442D01*
X0091599Y0171360D01*
X0091726Y0171273D01*
X0091851Y0171184D01*
X0091973Y0171091D01*
X0092092Y0170995D01*
X0092210Y0170896D01*
X0092324Y0170795D01*
X0092436Y0170690D01*
X0092545Y0170582D01*
X0092651Y0170471D01*
X0092755Y0170358D01*
X0092855Y0170242D01*
X0092953Y0170124D01*
X0093047Y0170003D01*
X0093138Y0169880D01*
X0093226Y0169754D01*
X0093310Y0169626D01*
X0093392Y0169496D01*
X0093469Y0169364D01*
X0093544Y0169230D01*
X0093615Y0169094D01*
X0093682Y0168956D01*
X0093746Y0168816D01*
X0093806Y0168675D01*
X0093862Y0168533D01*
X0093915Y0168389D01*
X0093964Y0168243D01*
X0094009Y0168097D01*
X0094050Y0167949D01*
X0094087Y0167801D01*
X0094121Y0167651D01*
X0094151Y0167500D01*
X0094176Y0167349D01*
X0094198Y0167198D01*
X0094216Y0167045D01*
X0094230Y0166893D01*
X0094240Y0166740D01*
X0094246Y0166586D01*
X0094248Y0166433D01*
X0094246Y0166280D01*
X0094240Y0166126D01*
X0094230Y0165973D01*
X0094216Y0165821D01*
X0094198Y0165668D01*
X0094176Y0165517D01*
X0094151Y0165366D01*
X0094121Y0165215D01*
X0094087Y0165065D01*
X0094050Y0164917D01*
X0094009Y0164769D01*
X0093964Y0164623D01*
X0093915Y0164477D01*
X0093862Y0164333D01*
X0093806Y0164191D01*
X0093746Y0164050D01*
X0093682Y0163910D01*
X0093615Y0163772D01*
X0093544Y0163636D01*
X0093469Y0163502D01*
X0093392Y0163370D01*
X0093310Y0163240D01*
X0093226Y0163112D01*
X0093138Y0162986D01*
X0093047Y0162863D01*
X0092953Y0162742D01*
X0092855Y0162624D01*
X0092755Y0162508D01*
X0092651Y0162395D01*
X0092545Y0162284D01*
X0092436Y0162176D01*
X0092324Y0162071D01*
X0092210Y0161970D01*
X0092092Y0161871D01*
X0091973Y0161775D01*
X0091851Y0161682D01*
X0091726Y0161593D01*
X0091599Y0161506D01*
X0091470Y0161424D01*
X0091339Y0161344D01*
X0091206Y0161268D01*
X0091071Y0161195D01*
X0090934Y0161126D01*
X0090795Y0161061D01*
X0090655Y0160999D01*
X0090513Y0160941D01*
X0090370Y0160886D01*
X0090225Y0160835D01*
X0090079Y0160788D01*
X0089932Y0160745D01*
X0089784Y0160706D01*
X0089635Y0160670D01*
X0089485Y0160639D01*
X0089334Y0160611D01*
X0089183Y0160587D01*
X0089030Y0160567D01*
X0088878Y0160551D01*
X0088725Y0160539D01*
X0088572Y0160531D01*
X0088419Y0160527D01*
X0088265Y0160527D01*
X0088112Y0160531D01*
X0087959Y0160539D01*
X0087806Y0160551D01*
X0087654Y0160567D01*
X0087501Y0160587D01*
X0087350Y0160611D01*
X0087199Y0160639D01*
X0087049Y0160670D01*
X0086900Y0160706D01*
X0086752Y0160745D01*
X0086605Y0160788D01*
X0086459Y0160835D01*
X0086314Y0160886D01*
X0086171Y0160941D01*
X0086029Y0160999D01*
X0085889Y0161061D01*
X0085750Y0161126D01*
X0085613Y0161195D01*
X0085478Y0161268D01*
X0085345Y0161344D01*
X0085214Y0161424D01*
X0085085Y0161506D01*
X0084958Y0161593D01*
X0084833Y0161682D01*
X0084711Y0161775D01*
X0084592Y0161871D01*
X0084474Y0161970D01*
X0084360Y0162071D01*
X0084248Y0162176D01*
X0084139Y0162284D01*
X0084033Y0162395D01*
X0083929Y0162508D01*
X0083829Y0162624D01*
X0083731Y0162742D01*
X0083637Y0162863D01*
X0083546Y0162986D01*
X0083458Y0163112D01*
X0083374Y0163240D01*
X0083292Y0163370D01*
X0083215Y0163502D01*
X0083140Y0163636D01*
X0083069Y0163772D01*
X0083002Y0163910D01*
X0082938Y0164050D01*
X0082878Y0164191D01*
X0082822Y0164333D01*
X0082769Y0164477D01*
X0082720Y0164623D01*
X0082675Y0164769D01*
X0082634Y0164917D01*
X0082597Y0165065D01*
X0082563Y0165215D01*
X0082533Y0165366D01*
X0082508Y0165517D01*
X0082486Y0165668D01*
X0082468Y0165821D01*
X0082454Y0165973D01*
X0082444Y0166126D01*
X0082438Y0166280D01*
X0082436Y0166433D01*
X0062436Y0166433D02*
X0062438Y0166586D01*
X0062444Y0166740D01*
X0062454Y0166893D01*
X0062468Y0167045D01*
X0062486Y0167198D01*
X0062508Y0167349D01*
X0062533Y0167500D01*
X0062563Y0167651D01*
X0062597Y0167801D01*
X0062634Y0167949D01*
X0062675Y0168097D01*
X0062720Y0168243D01*
X0062769Y0168389D01*
X0062822Y0168533D01*
X0062878Y0168675D01*
X0062938Y0168816D01*
X0063002Y0168956D01*
X0063069Y0169094D01*
X0063140Y0169230D01*
X0063215Y0169364D01*
X0063292Y0169496D01*
X0063374Y0169626D01*
X0063458Y0169754D01*
X0063546Y0169880D01*
X0063637Y0170003D01*
X0063731Y0170124D01*
X0063829Y0170242D01*
X0063929Y0170358D01*
X0064033Y0170471D01*
X0064139Y0170582D01*
X0064248Y0170690D01*
X0064360Y0170795D01*
X0064474Y0170896D01*
X0064592Y0170995D01*
X0064711Y0171091D01*
X0064833Y0171184D01*
X0064958Y0171273D01*
X0065085Y0171360D01*
X0065214Y0171442D01*
X0065345Y0171522D01*
X0065478Y0171598D01*
X0065613Y0171671D01*
X0065750Y0171740D01*
X0065889Y0171805D01*
X0066029Y0171867D01*
X0066171Y0171925D01*
X0066314Y0171980D01*
X0066459Y0172031D01*
X0066605Y0172078D01*
X0066752Y0172121D01*
X0066900Y0172160D01*
X0067049Y0172196D01*
X0067199Y0172227D01*
X0067350Y0172255D01*
X0067501Y0172279D01*
X0067654Y0172299D01*
X0067806Y0172315D01*
X0067959Y0172327D01*
X0068112Y0172335D01*
X0068265Y0172339D01*
X0068419Y0172339D01*
X0068572Y0172335D01*
X0068725Y0172327D01*
X0068878Y0172315D01*
X0069030Y0172299D01*
X0069183Y0172279D01*
X0069334Y0172255D01*
X0069485Y0172227D01*
X0069635Y0172196D01*
X0069784Y0172160D01*
X0069932Y0172121D01*
X0070079Y0172078D01*
X0070225Y0172031D01*
X0070370Y0171980D01*
X0070513Y0171925D01*
X0070655Y0171867D01*
X0070795Y0171805D01*
X0070934Y0171740D01*
X0071071Y0171671D01*
X0071206Y0171598D01*
X0071339Y0171522D01*
X0071470Y0171442D01*
X0071599Y0171360D01*
X0071726Y0171273D01*
X0071851Y0171184D01*
X0071973Y0171091D01*
X0072092Y0170995D01*
X0072210Y0170896D01*
X0072324Y0170795D01*
X0072436Y0170690D01*
X0072545Y0170582D01*
X0072651Y0170471D01*
X0072755Y0170358D01*
X0072855Y0170242D01*
X0072953Y0170124D01*
X0073047Y0170003D01*
X0073138Y0169880D01*
X0073226Y0169754D01*
X0073310Y0169626D01*
X0073392Y0169496D01*
X0073469Y0169364D01*
X0073544Y0169230D01*
X0073615Y0169094D01*
X0073682Y0168956D01*
X0073746Y0168816D01*
X0073806Y0168675D01*
X0073862Y0168533D01*
X0073915Y0168389D01*
X0073964Y0168243D01*
X0074009Y0168097D01*
X0074050Y0167949D01*
X0074087Y0167801D01*
X0074121Y0167651D01*
X0074151Y0167500D01*
X0074176Y0167349D01*
X0074198Y0167198D01*
X0074216Y0167045D01*
X0074230Y0166893D01*
X0074240Y0166740D01*
X0074246Y0166586D01*
X0074248Y0166433D01*
X0074246Y0166280D01*
X0074240Y0166126D01*
X0074230Y0165973D01*
X0074216Y0165821D01*
X0074198Y0165668D01*
X0074176Y0165517D01*
X0074151Y0165366D01*
X0074121Y0165215D01*
X0074087Y0165065D01*
X0074050Y0164917D01*
X0074009Y0164769D01*
X0073964Y0164623D01*
X0073915Y0164477D01*
X0073862Y0164333D01*
X0073806Y0164191D01*
X0073746Y0164050D01*
X0073682Y0163910D01*
X0073615Y0163772D01*
X0073544Y0163636D01*
X0073469Y0163502D01*
X0073392Y0163370D01*
X0073310Y0163240D01*
X0073226Y0163112D01*
X0073138Y0162986D01*
X0073047Y0162863D01*
X0072953Y0162742D01*
X0072855Y0162624D01*
X0072755Y0162508D01*
X0072651Y0162395D01*
X0072545Y0162284D01*
X0072436Y0162176D01*
X0072324Y0162071D01*
X0072210Y0161970D01*
X0072092Y0161871D01*
X0071973Y0161775D01*
X0071851Y0161682D01*
X0071726Y0161593D01*
X0071599Y0161506D01*
X0071470Y0161424D01*
X0071339Y0161344D01*
X0071206Y0161268D01*
X0071071Y0161195D01*
X0070934Y0161126D01*
X0070795Y0161061D01*
X0070655Y0160999D01*
X0070513Y0160941D01*
X0070370Y0160886D01*
X0070225Y0160835D01*
X0070079Y0160788D01*
X0069932Y0160745D01*
X0069784Y0160706D01*
X0069635Y0160670D01*
X0069485Y0160639D01*
X0069334Y0160611D01*
X0069183Y0160587D01*
X0069030Y0160567D01*
X0068878Y0160551D01*
X0068725Y0160539D01*
X0068572Y0160531D01*
X0068419Y0160527D01*
X0068265Y0160527D01*
X0068112Y0160531D01*
X0067959Y0160539D01*
X0067806Y0160551D01*
X0067654Y0160567D01*
X0067501Y0160587D01*
X0067350Y0160611D01*
X0067199Y0160639D01*
X0067049Y0160670D01*
X0066900Y0160706D01*
X0066752Y0160745D01*
X0066605Y0160788D01*
X0066459Y0160835D01*
X0066314Y0160886D01*
X0066171Y0160941D01*
X0066029Y0160999D01*
X0065889Y0161061D01*
X0065750Y0161126D01*
X0065613Y0161195D01*
X0065478Y0161268D01*
X0065345Y0161344D01*
X0065214Y0161424D01*
X0065085Y0161506D01*
X0064958Y0161593D01*
X0064833Y0161682D01*
X0064711Y0161775D01*
X0064592Y0161871D01*
X0064474Y0161970D01*
X0064360Y0162071D01*
X0064248Y0162176D01*
X0064139Y0162284D01*
X0064033Y0162395D01*
X0063929Y0162508D01*
X0063829Y0162624D01*
X0063731Y0162742D01*
X0063637Y0162863D01*
X0063546Y0162986D01*
X0063458Y0163112D01*
X0063374Y0163240D01*
X0063292Y0163370D01*
X0063215Y0163502D01*
X0063140Y0163636D01*
X0063069Y0163772D01*
X0063002Y0163910D01*
X0062938Y0164050D01*
X0062878Y0164191D01*
X0062822Y0164333D01*
X0062769Y0164477D01*
X0062720Y0164623D01*
X0062675Y0164769D01*
X0062634Y0164917D01*
X0062597Y0165065D01*
X0062563Y0165215D01*
X0062533Y0165366D01*
X0062508Y0165517D01*
X0062486Y0165668D01*
X0062468Y0165821D01*
X0062454Y0165973D01*
X0062444Y0166126D01*
X0062438Y0166280D01*
X0062436Y0166433D01*
X0114936Y0166433D02*
X0114938Y0166586D01*
X0114944Y0166740D01*
X0114954Y0166893D01*
X0114968Y0167045D01*
X0114986Y0167198D01*
X0115008Y0167349D01*
X0115033Y0167500D01*
X0115063Y0167651D01*
X0115097Y0167801D01*
X0115134Y0167949D01*
X0115175Y0168097D01*
X0115220Y0168243D01*
X0115269Y0168389D01*
X0115322Y0168533D01*
X0115378Y0168675D01*
X0115438Y0168816D01*
X0115502Y0168956D01*
X0115569Y0169094D01*
X0115640Y0169230D01*
X0115715Y0169364D01*
X0115792Y0169496D01*
X0115874Y0169626D01*
X0115958Y0169754D01*
X0116046Y0169880D01*
X0116137Y0170003D01*
X0116231Y0170124D01*
X0116329Y0170242D01*
X0116429Y0170358D01*
X0116533Y0170471D01*
X0116639Y0170582D01*
X0116748Y0170690D01*
X0116860Y0170795D01*
X0116974Y0170896D01*
X0117092Y0170995D01*
X0117211Y0171091D01*
X0117333Y0171184D01*
X0117458Y0171273D01*
X0117585Y0171360D01*
X0117714Y0171442D01*
X0117845Y0171522D01*
X0117978Y0171598D01*
X0118113Y0171671D01*
X0118250Y0171740D01*
X0118389Y0171805D01*
X0118529Y0171867D01*
X0118671Y0171925D01*
X0118814Y0171980D01*
X0118959Y0172031D01*
X0119105Y0172078D01*
X0119252Y0172121D01*
X0119400Y0172160D01*
X0119549Y0172196D01*
X0119699Y0172227D01*
X0119850Y0172255D01*
X0120001Y0172279D01*
X0120154Y0172299D01*
X0120306Y0172315D01*
X0120459Y0172327D01*
X0120612Y0172335D01*
X0120765Y0172339D01*
X0120919Y0172339D01*
X0121072Y0172335D01*
X0121225Y0172327D01*
X0121378Y0172315D01*
X0121530Y0172299D01*
X0121683Y0172279D01*
X0121834Y0172255D01*
X0121985Y0172227D01*
X0122135Y0172196D01*
X0122284Y0172160D01*
X0122432Y0172121D01*
X0122579Y0172078D01*
X0122725Y0172031D01*
X0122870Y0171980D01*
X0123013Y0171925D01*
X0123155Y0171867D01*
X0123295Y0171805D01*
X0123434Y0171740D01*
X0123571Y0171671D01*
X0123706Y0171598D01*
X0123839Y0171522D01*
X0123970Y0171442D01*
X0124099Y0171360D01*
X0124226Y0171273D01*
X0124351Y0171184D01*
X0124473Y0171091D01*
X0124592Y0170995D01*
X0124710Y0170896D01*
X0124824Y0170795D01*
X0124936Y0170690D01*
X0125045Y0170582D01*
X0125151Y0170471D01*
X0125255Y0170358D01*
X0125355Y0170242D01*
X0125453Y0170124D01*
X0125547Y0170003D01*
X0125638Y0169880D01*
X0125726Y0169754D01*
X0125810Y0169626D01*
X0125892Y0169496D01*
X0125969Y0169364D01*
X0126044Y0169230D01*
X0126115Y0169094D01*
X0126182Y0168956D01*
X0126246Y0168816D01*
X0126306Y0168675D01*
X0126362Y0168533D01*
X0126415Y0168389D01*
X0126464Y0168243D01*
X0126509Y0168097D01*
X0126550Y0167949D01*
X0126587Y0167801D01*
X0126621Y0167651D01*
X0126651Y0167500D01*
X0126676Y0167349D01*
X0126698Y0167198D01*
X0126716Y0167045D01*
X0126730Y0166893D01*
X0126740Y0166740D01*
X0126746Y0166586D01*
X0126748Y0166433D01*
X0126746Y0166280D01*
X0126740Y0166126D01*
X0126730Y0165973D01*
X0126716Y0165821D01*
X0126698Y0165668D01*
X0126676Y0165517D01*
X0126651Y0165366D01*
X0126621Y0165215D01*
X0126587Y0165065D01*
X0126550Y0164917D01*
X0126509Y0164769D01*
X0126464Y0164623D01*
X0126415Y0164477D01*
X0126362Y0164333D01*
X0126306Y0164191D01*
X0126246Y0164050D01*
X0126182Y0163910D01*
X0126115Y0163772D01*
X0126044Y0163636D01*
X0125969Y0163502D01*
X0125892Y0163370D01*
X0125810Y0163240D01*
X0125726Y0163112D01*
X0125638Y0162986D01*
X0125547Y0162863D01*
X0125453Y0162742D01*
X0125355Y0162624D01*
X0125255Y0162508D01*
X0125151Y0162395D01*
X0125045Y0162284D01*
X0124936Y0162176D01*
X0124824Y0162071D01*
X0124710Y0161970D01*
X0124592Y0161871D01*
X0124473Y0161775D01*
X0124351Y0161682D01*
X0124226Y0161593D01*
X0124099Y0161506D01*
X0123970Y0161424D01*
X0123839Y0161344D01*
X0123706Y0161268D01*
X0123571Y0161195D01*
X0123434Y0161126D01*
X0123295Y0161061D01*
X0123155Y0160999D01*
X0123013Y0160941D01*
X0122870Y0160886D01*
X0122725Y0160835D01*
X0122579Y0160788D01*
X0122432Y0160745D01*
X0122284Y0160706D01*
X0122135Y0160670D01*
X0121985Y0160639D01*
X0121834Y0160611D01*
X0121683Y0160587D01*
X0121530Y0160567D01*
X0121378Y0160551D01*
X0121225Y0160539D01*
X0121072Y0160531D01*
X0120919Y0160527D01*
X0120765Y0160527D01*
X0120612Y0160531D01*
X0120459Y0160539D01*
X0120306Y0160551D01*
X0120154Y0160567D01*
X0120001Y0160587D01*
X0119850Y0160611D01*
X0119699Y0160639D01*
X0119549Y0160670D01*
X0119400Y0160706D01*
X0119252Y0160745D01*
X0119105Y0160788D01*
X0118959Y0160835D01*
X0118814Y0160886D01*
X0118671Y0160941D01*
X0118529Y0160999D01*
X0118389Y0161061D01*
X0118250Y0161126D01*
X0118113Y0161195D01*
X0117978Y0161268D01*
X0117845Y0161344D01*
X0117714Y0161424D01*
X0117585Y0161506D01*
X0117458Y0161593D01*
X0117333Y0161682D01*
X0117211Y0161775D01*
X0117092Y0161871D01*
X0116974Y0161970D01*
X0116860Y0162071D01*
X0116748Y0162176D01*
X0116639Y0162284D01*
X0116533Y0162395D01*
X0116429Y0162508D01*
X0116329Y0162624D01*
X0116231Y0162742D01*
X0116137Y0162863D01*
X0116046Y0162986D01*
X0115958Y0163112D01*
X0115874Y0163240D01*
X0115792Y0163370D01*
X0115715Y0163502D01*
X0115640Y0163636D01*
X0115569Y0163772D01*
X0115502Y0163910D01*
X0115438Y0164050D01*
X0115378Y0164191D01*
X0115322Y0164333D01*
X0115269Y0164477D01*
X0115220Y0164623D01*
X0115175Y0164769D01*
X0115134Y0164917D01*
X0115097Y0165065D01*
X0115063Y0165215D01*
X0115033Y0165366D01*
X0115008Y0165517D01*
X0114986Y0165668D01*
X0114968Y0165821D01*
X0114954Y0165973D01*
X0114944Y0166126D01*
X0114938Y0166280D01*
X0114936Y0166433D01*
X0099208Y0236433D02*
X0099210Y0236561D01*
X0099216Y0236689D01*
X0099226Y0236816D01*
X0099240Y0236944D01*
X0099257Y0237070D01*
X0099279Y0237196D01*
X0099305Y0237322D01*
X0099334Y0237446D01*
X0099367Y0237570D01*
X0099404Y0237692D01*
X0099445Y0237813D01*
X0099490Y0237933D01*
X0099538Y0238052D01*
X0099590Y0238169D01*
X0099646Y0238284D01*
X0099705Y0238398D01*
X0099767Y0238509D01*
X0099833Y0238619D01*
X0099902Y0238726D01*
X0099975Y0238832D01*
X0100051Y0238935D01*
X0100130Y0239035D01*
X0100212Y0239134D01*
X0100297Y0239229D01*
X0100385Y0239322D01*
X0100476Y0239412D01*
X0100569Y0239499D01*
X0100666Y0239584D01*
X0100764Y0239665D01*
X0100866Y0239743D01*
X0100969Y0239818D01*
X0101075Y0239890D01*
X0101183Y0239959D01*
X0101293Y0240024D01*
X0101406Y0240085D01*
X0101520Y0240144D01*
X0101635Y0240198D01*
X0101753Y0240249D01*
X0101871Y0240297D01*
X0101992Y0240340D01*
X0102113Y0240380D01*
X0102236Y0240416D01*
X0102360Y0240449D01*
X0102485Y0240477D01*
X0102610Y0240502D01*
X0102736Y0240522D01*
X0102863Y0240539D01*
X0102991Y0240552D01*
X0103118Y0240561D01*
X0103246Y0240566D01*
X0103374Y0240567D01*
X0103502Y0240564D01*
X0103630Y0240557D01*
X0103757Y0240546D01*
X0103884Y0240531D01*
X0104011Y0240513D01*
X0104137Y0240490D01*
X0104262Y0240463D01*
X0104386Y0240433D01*
X0104509Y0240399D01*
X0104632Y0240361D01*
X0104753Y0240319D01*
X0104872Y0240273D01*
X0104990Y0240224D01*
X0105107Y0240171D01*
X0105222Y0240115D01*
X0105335Y0240055D01*
X0105446Y0239992D01*
X0105555Y0239925D01*
X0105662Y0239855D01*
X0105767Y0239781D01*
X0105869Y0239705D01*
X0105969Y0239625D01*
X0106067Y0239542D01*
X0106162Y0239456D01*
X0106254Y0239367D01*
X0106343Y0239276D01*
X0106430Y0239182D01*
X0106513Y0239085D01*
X0106594Y0238985D01*
X0106671Y0238884D01*
X0106746Y0238779D01*
X0106817Y0238673D01*
X0106884Y0238564D01*
X0106949Y0238454D01*
X0107009Y0238341D01*
X0107067Y0238227D01*
X0107120Y0238111D01*
X0107170Y0237993D01*
X0107217Y0237874D01*
X0107260Y0237753D01*
X0107299Y0237631D01*
X0107334Y0237508D01*
X0107365Y0237384D01*
X0107393Y0237259D01*
X0107416Y0237133D01*
X0107436Y0237007D01*
X0107452Y0236880D01*
X0107464Y0236753D01*
X0107472Y0236625D01*
X0107476Y0236497D01*
X0107476Y0236369D01*
X0107472Y0236241D01*
X0107464Y0236113D01*
X0107452Y0235986D01*
X0107436Y0235859D01*
X0107416Y0235733D01*
X0107393Y0235607D01*
X0107365Y0235482D01*
X0107334Y0235358D01*
X0107299Y0235235D01*
X0107260Y0235113D01*
X0107217Y0234992D01*
X0107170Y0234873D01*
X0107120Y0234755D01*
X0107067Y0234639D01*
X0107009Y0234525D01*
X0106949Y0234412D01*
X0106884Y0234302D01*
X0106817Y0234193D01*
X0106746Y0234087D01*
X0106671Y0233982D01*
X0106594Y0233881D01*
X0106513Y0233781D01*
X0106430Y0233684D01*
X0106343Y0233590D01*
X0106254Y0233499D01*
X0106162Y0233410D01*
X0106067Y0233324D01*
X0105969Y0233241D01*
X0105869Y0233161D01*
X0105767Y0233085D01*
X0105662Y0233011D01*
X0105555Y0232941D01*
X0105446Y0232874D01*
X0105335Y0232811D01*
X0105222Y0232751D01*
X0105107Y0232695D01*
X0104990Y0232642D01*
X0104872Y0232593D01*
X0104753Y0232547D01*
X0104632Y0232505D01*
X0104509Y0232467D01*
X0104386Y0232433D01*
X0104262Y0232403D01*
X0104137Y0232376D01*
X0104011Y0232353D01*
X0103884Y0232335D01*
X0103757Y0232320D01*
X0103630Y0232309D01*
X0103502Y0232302D01*
X0103374Y0232299D01*
X0103246Y0232300D01*
X0103118Y0232305D01*
X0102991Y0232314D01*
X0102863Y0232327D01*
X0102736Y0232344D01*
X0102610Y0232364D01*
X0102485Y0232389D01*
X0102360Y0232417D01*
X0102236Y0232450D01*
X0102113Y0232486D01*
X0101992Y0232526D01*
X0101871Y0232569D01*
X0101753Y0232617D01*
X0101635Y0232668D01*
X0101520Y0232722D01*
X0101406Y0232781D01*
X0101293Y0232842D01*
X0101183Y0232907D01*
X0101075Y0232976D01*
X0100969Y0233048D01*
X0100866Y0233123D01*
X0100764Y0233201D01*
X0100666Y0233282D01*
X0100569Y0233367D01*
X0100476Y0233454D01*
X0100385Y0233544D01*
X0100297Y0233637D01*
X0100212Y0233732D01*
X0100130Y0233831D01*
X0100051Y0233931D01*
X0099975Y0234034D01*
X0099902Y0234140D01*
X0099833Y0234247D01*
X0099767Y0234357D01*
X0099705Y0234468D01*
X0099646Y0234582D01*
X0099590Y0234697D01*
X0099538Y0234814D01*
X0099490Y0234933D01*
X0099445Y0235053D01*
X0099404Y0235174D01*
X0099367Y0235296D01*
X0099334Y0235420D01*
X0099305Y0235544D01*
X0099279Y0235670D01*
X0099257Y0235796D01*
X0099240Y0235922D01*
X0099226Y0236050D01*
X0099216Y0236177D01*
X0099210Y0236305D01*
X0099208Y0236433D01*
X0234208Y0236433D02*
X0234210Y0236561D01*
X0234216Y0236689D01*
X0234226Y0236816D01*
X0234240Y0236944D01*
X0234257Y0237070D01*
X0234279Y0237196D01*
X0234305Y0237322D01*
X0234334Y0237446D01*
X0234367Y0237570D01*
X0234404Y0237692D01*
X0234445Y0237813D01*
X0234490Y0237933D01*
X0234538Y0238052D01*
X0234590Y0238169D01*
X0234646Y0238284D01*
X0234705Y0238398D01*
X0234767Y0238509D01*
X0234833Y0238619D01*
X0234902Y0238726D01*
X0234975Y0238832D01*
X0235051Y0238935D01*
X0235130Y0239035D01*
X0235212Y0239134D01*
X0235297Y0239229D01*
X0235385Y0239322D01*
X0235476Y0239412D01*
X0235569Y0239499D01*
X0235666Y0239584D01*
X0235764Y0239665D01*
X0235866Y0239743D01*
X0235969Y0239818D01*
X0236075Y0239890D01*
X0236183Y0239959D01*
X0236293Y0240024D01*
X0236406Y0240085D01*
X0236520Y0240144D01*
X0236635Y0240198D01*
X0236753Y0240249D01*
X0236871Y0240297D01*
X0236992Y0240340D01*
X0237113Y0240380D01*
X0237236Y0240416D01*
X0237360Y0240449D01*
X0237485Y0240477D01*
X0237610Y0240502D01*
X0237736Y0240522D01*
X0237863Y0240539D01*
X0237991Y0240552D01*
X0238118Y0240561D01*
X0238246Y0240566D01*
X0238374Y0240567D01*
X0238502Y0240564D01*
X0238630Y0240557D01*
X0238757Y0240546D01*
X0238884Y0240531D01*
X0239011Y0240513D01*
X0239137Y0240490D01*
X0239262Y0240463D01*
X0239386Y0240433D01*
X0239509Y0240399D01*
X0239632Y0240361D01*
X0239753Y0240319D01*
X0239872Y0240273D01*
X0239990Y0240224D01*
X0240107Y0240171D01*
X0240222Y0240115D01*
X0240335Y0240055D01*
X0240446Y0239992D01*
X0240555Y0239925D01*
X0240662Y0239855D01*
X0240767Y0239781D01*
X0240869Y0239705D01*
X0240969Y0239625D01*
X0241067Y0239542D01*
X0241162Y0239456D01*
X0241254Y0239367D01*
X0241343Y0239276D01*
X0241430Y0239182D01*
X0241513Y0239085D01*
X0241594Y0238985D01*
X0241671Y0238884D01*
X0241746Y0238779D01*
X0241817Y0238673D01*
X0241884Y0238564D01*
X0241949Y0238454D01*
X0242009Y0238341D01*
X0242067Y0238227D01*
X0242120Y0238111D01*
X0242170Y0237993D01*
X0242217Y0237874D01*
X0242260Y0237753D01*
X0242299Y0237631D01*
X0242334Y0237508D01*
X0242365Y0237384D01*
X0242393Y0237259D01*
X0242416Y0237133D01*
X0242436Y0237007D01*
X0242452Y0236880D01*
X0242464Y0236753D01*
X0242472Y0236625D01*
X0242476Y0236497D01*
X0242476Y0236369D01*
X0242472Y0236241D01*
X0242464Y0236113D01*
X0242452Y0235986D01*
X0242436Y0235859D01*
X0242416Y0235733D01*
X0242393Y0235607D01*
X0242365Y0235482D01*
X0242334Y0235358D01*
X0242299Y0235235D01*
X0242260Y0235113D01*
X0242217Y0234992D01*
X0242170Y0234873D01*
X0242120Y0234755D01*
X0242067Y0234639D01*
X0242009Y0234525D01*
X0241949Y0234412D01*
X0241884Y0234302D01*
X0241817Y0234193D01*
X0241746Y0234087D01*
X0241671Y0233982D01*
X0241594Y0233881D01*
X0241513Y0233781D01*
X0241430Y0233684D01*
X0241343Y0233590D01*
X0241254Y0233499D01*
X0241162Y0233410D01*
X0241067Y0233324D01*
X0240969Y0233241D01*
X0240869Y0233161D01*
X0240767Y0233085D01*
X0240662Y0233011D01*
X0240555Y0232941D01*
X0240446Y0232874D01*
X0240335Y0232811D01*
X0240222Y0232751D01*
X0240107Y0232695D01*
X0239990Y0232642D01*
X0239872Y0232593D01*
X0239753Y0232547D01*
X0239632Y0232505D01*
X0239509Y0232467D01*
X0239386Y0232433D01*
X0239262Y0232403D01*
X0239137Y0232376D01*
X0239011Y0232353D01*
X0238884Y0232335D01*
X0238757Y0232320D01*
X0238630Y0232309D01*
X0238502Y0232302D01*
X0238374Y0232299D01*
X0238246Y0232300D01*
X0238118Y0232305D01*
X0237991Y0232314D01*
X0237863Y0232327D01*
X0237736Y0232344D01*
X0237610Y0232364D01*
X0237485Y0232389D01*
X0237360Y0232417D01*
X0237236Y0232450D01*
X0237113Y0232486D01*
X0236992Y0232526D01*
X0236871Y0232569D01*
X0236753Y0232617D01*
X0236635Y0232668D01*
X0236520Y0232722D01*
X0236406Y0232781D01*
X0236293Y0232842D01*
X0236183Y0232907D01*
X0236075Y0232976D01*
X0235969Y0233048D01*
X0235866Y0233123D01*
X0235764Y0233201D01*
X0235666Y0233282D01*
X0235569Y0233367D01*
X0235476Y0233454D01*
X0235385Y0233544D01*
X0235297Y0233637D01*
X0235212Y0233732D01*
X0235130Y0233831D01*
X0235051Y0233931D01*
X0234975Y0234034D01*
X0234902Y0234140D01*
X0234833Y0234247D01*
X0234767Y0234357D01*
X0234705Y0234468D01*
X0234646Y0234582D01*
X0234590Y0234697D01*
X0234538Y0234814D01*
X0234490Y0234933D01*
X0234445Y0235053D01*
X0234404Y0235174D01*
X0234367Y0235296D01*
X0234334Y0235420D01*
X0234305Y0235544D01*
X0234279Y0235670D01*
X0234257Y0235796D01*
X0234240Y0235922D01*
X0234226Y0236050D01*
X0234216Y0236177D01*
X0234210Y0236305D01*
X0234208Y0236433D01*
X0247436Y0166433D02*
X0247438Y0166586D01*
X0247444Y0166740D01*
X0247454Y0166893D01*
X0247468Y0167045D01*
X0247486Y0167198D01*
X0247508Y0167349D01*
X0247533Y0167500D01*
X0247563Y0167651D01*
X0247597Y0167801D01*
X0247634Y0167949D01*
X0247675Y0168097D01*
X0247720Y0168243D01*
X0247769Y0168389D01*
X0247822Y0168533D01*
X0247878Y0168675D01*
X0247938Y0168816D01*
X0248002Y0168956D01*
X0248069Y0169094D01*
X0248140Y0169230D01*
X0248215Y0169364D01*
X0248292Y0169496D01*
X0248374Y0169626D01*
X0248458Y0169754D01*
X0248546Y0169880D01*
X0248637Y0170003D01*
X0248731Y0170124D01*
X0248829Y0170242D01*
X0248929Y0170358D01*
X0249033Y0170471D01*
X0249139Y0170582D01*
X0249248Y0170690D01*
X0249360Y0170795D01*
X0249474Y0170896D01*
X0249592Y0170995D01*
X0249711Y0171091D01*
X0249833Y0171184D01*
X0249958Y0171273D01*
X0250085Y0171360D01*
X0250214Y0171442D01*
X0250345Y0171522D01*
X0250478Y0171598D01*
X0250613Y0171671D01*
X0250750Y0171740D01*
X0250889Y0171805D01*
X0251029Y0171867D01*
X0251171Y0171925D01*
X0251314Y0171980D01*
X0251459Y0172031D01*
X0251605Y0172078D01*
X0251752Y0172121D01*
X0251900Y0172160D01*
X0252049Y0172196D01*
X0252199Y0172227D01*
X0252350Y0172255D01*
X0252501Y0172279D01*
X0252654Y0172299D01*
X0252806Y0172315D01*
X0252959Y0172327D01*
X0253112Y0172335D01*
X0253265Y0172339D01*
X0253419Y0172339D01*
X0253572Y0172335D01*
X0253725Y0172327D01*
X0253878Y0172315D01*
X0254030Y0172299D01*
X0254183Y0172279D01*
X0254334Y0172255D01*
X0254485Y0172227D01*
X0254635Y0172196D01*
X0254784Y0172160D01*
X0254932Y0172121D01*
X0255079Y0172078D01*
X0255225Y0172031D01*
X0255370Y0171980D01*
X0255513Y0171925D01*
X0255655Y0171867D01*
X0255795Y0171805D01*
X0255934Y0171740D01*
X0256071Y0171671D01*
X0256206Y0171598D01*
X0256339Y0171522D01*
X0256470Y0171442D01*
X0256599Y0171360D01*
X0256726Y0171273D01*
X0256851Y0171184D01*
X0256973Y0171091D01*
X0257092Y0170995D01*
X0257210Y0170896D01*
X0257324Y0170795D01*
X0257436Y0170690D01*
X0257545Y0170582D01*
X0257651Y0170471D01*
X0257755Y0170358D01*
X0257855Y0170242D01*
X0257953Y0170124D01*
X0258047Y0170003D01*
X0258138Y0169880D01*
X0258226Y0169754D01*
X0258310Y0169626D01*
X0258392Y0169496D01*
X0258469Y0169364D01*
X0258544Y0169230D01*
X0258615Y0169094D01*
X0258682Y0168956D01*
X0258746Y0168816D01*
X0258806Y0168675D01*
X0258862Y0168533D01*
X0258915Y0168389D01*
X0258964Y0168243D01*
X0259009Y0168097D01*
X0259050Y0167949D01*
X0259087Y0167801D01*
X0259121Y0167651D01*
X0259151Y0167500D01*
X0259176Y0167349D01*
X0259198Y0167198D01*
X0259216Y0167045D01*
X0259230Y0166893D01*
X0259240Y0166740D01*
X0259246Y0166586D01*
X0259248Y0166433D01*
X0259246Y0166280D01*
X0259240Y0166126D01*
X0259230Y0165973D01*
X0259216Y0165821D01*
X0259198Y0165668D01*
X0259176Y0165517D01*
X0259151Y0165366D01*
X0259121Y0165215D01*
X0259087Y0165065D01*
X0259050Y0164917D01*
X0259009Y0164769D01*
X0258964Y0164623D01*
X0258915Y0164477D01*
X0258862Y0164333D01*
X0258806Y0164191D01*
X0258746Y0164050D01*
X0258682Y0163910D01*
X0258615Y0163772D01*
X0258544Y0163636D01*
X0258469Y0163502D01*
X0258392Y0163370D01*
X0258310Y0163240D01*
X0258226Y0163112D01*
X0258138Y0162986D01*
X0258047Y0162863D01*
X0257953Y0162742D01*
X0257855Y0162624D01*
X0257755Y0162508D01*
X0257651Y0162395D01*
X0257545Y0162284D01*
X0257436Y0162176D01*
X0257324Y0162071D01*
X0257210Y0161970D01*
X0257092Y0161871D01*
X0256973Y0161775D01*
X0256851Y0161682D01*
X0256726Y0161593D01*
X0256599Y0161506D01*
X0256470Y0161424D01*
X0256339Y0161344D01*
X0256206Y0161268D01*
X0256071Y0161195D01*
X0255934Y0161126D01*
X0255795Y0161061D01*
X0255655Y0160999D01*
X0255513Y0160941D01*
X0255370Y0160886D01*
X0255225Y0160835D01*
X0255079Y0160788D01*
X0254932Y0160745D01*
X0254784Y0160706D01*
X0254635Y0160670D01*
X0254485Y0160639D01*
X0254334Y0160611D01*
X0254183Y0160587D01*
X0254030Y0160567D01*
X0253878Y0160551D01*
X0253725Y0160539D01*
X0253572Y0160531D01*
X0253419Y0160527D01*
X0253265Y0160527D01*
X0253112Y0160531D01*
X0252959Y0160539D01*
X0252806Y0160551D01*
X0252654Y0160567D01*
X0252501Y0160587D01*
X0252350Y0160611D01*
X0252199Y0160639D01*
X0252049Y0160670D01*
X0251900Y0160706D01*
X0251752Y0160745D01*
X0251605Y0160788D01*
X0251459Y0160835D01*
X0251314Y0160886D01*
X0251171Y0160941D01*
X0251029Y0160999D01*
X0250889Y0161061D01*
X0250750Y0161126D01*
X0250613Y0161195D01*
X0250478Y0161268D01*
X0250345Y0161344D01*
X0250214Y0161424D01*
X0250085Y0161506D01*
X0249958Y0161593D01*
X0249833Y0161682D01*
X0249711Y0161775D01*
X0249592Y0161871D01*
X0249474Y0161970D01*
X0249360Y0162071D01*
X0249248Y0162176D01*
X0249139Y0162284D01*
X0249033Y0162395D01*
X0248929Y0162508D01*
X0248829Y0162624D01*
X0248731Y0162742D01*
X0248637Y0162863D01*
X0248546Y0162986D01*
X0248458Y0163112D01*
X0248374Y0163240D01*
X0248292Y0163370D01*
X0248215Y0163502D01*
X0248140Y0163636D01*
X0248069Y0163772D01*
X0248002Y0163910D01*
X0247938Y0164050D01*
X0247878Y0164191D01*
X0247822Y0164333D01*
X0247769Y0164477D01*
X0247720Y0164623D01*
X0247675Y0164769D01*
X0247634Y0164917D01*
X0247597Y0165065D01*
X0247563Y0165215D01*
X0247533Y0165366D01*
X0247508Y0165517D01*
X0247486Y0165668D01*
X0247468Y0165821D01*
X0247454Y0165973D01*
X0247444Y0166126D01*
X0247438Y0166280D01*
X0247436Y0166433D01*
X0234208Y0096433D02*
X0234210Y0096561D01*
X0234216Y0096689D01*
X0234226Y0096816D01*
X0234240Y0096944D01*
X0234257Y0097070D01*
X0234279Y0097196D01*
X0234305Y0097322D01*
X0234334Y0097446D01*
X0234367Y0097570D01*
X0234404Y0097692D01*
X0234445Y0097813D01*
X0234490Y0097933D01*
X0234538Y0098052D01*
X0234590Y0098169D01*
X0234646Y0098284D01*
X0234705Y0098398D01*
X0234767Y0098509D01*
X0234833Y0098619D01*
X0234902Y0098726D01*
X0234975Y0098832D01*
X0235051Y0098935D01*
X0235130Y0099035D01*
X0235212Y0099134D01*
X0235297Y0099229D01*
X0235385Y0099322D01*
X0235476Y0099412D01*
X0235569Y0099499D01*
X0235666Y0099584D01*
X0235764Y0099665D01*
X0235866Y0099743D01*
X0235969Y0099818D01*
X0236075Y0099890D01*
X0236183Y0099959D01*
X0236293Y0100024D01*
X0236406Y0100085D01*
X0236520Y0100144D01*
X0236635Y0100198D01*
X0236753Y0100249D01*
X0236871Y0100297D01*
X0236992Y0100340D01*
X0237113Y0100380D01*
X0237236Y0100416D01*
X0237360Y0100449D01*
X0237485Y0100477D01*
X0237610Y0100502D01*
X0237736Y0100522D01*
X0237863Y0100539D01*
X0237991Y0100552D01*
X0238118Y0100561D01*
X0238246Y0100566D01*
X0238374Y0100567D01*
X0238502Y0100564D01*
X0238630Y0100557D01*
X0238757Y0100546D01*
X0238884Y0100531D01*
X0239011Y0100513D01*
X0239137Y0100490D01*
X0239262Y0100463D01*
X0239386Y0100433D01*
X0239509Y0100399D01*
X0239632Y0100361D01*
X0239753Y0100319D01*
X0239872Y0100273D01*
X0239990Y0100224D01*
X0240107Y0100171D01*
X0240222Y0100115D01*
X0240335Y0100055D01*
X0240446Y0099992D01*
X0240555Y0099925D01*
X0240662Y0099855D01*
X0240767Y0099781D01*
X0240869Y0099705D01*
X0240969Y0099625D01*
X0241067Y0099542D01*
X0241162Y0099456D01*
X0241254Y0099367D01*
X0241343Y0099276D01*
X0241430Y0099182D01*
X0241513Y0099085D01*
X0241594Y0098985D01*
X0241671Y0098884D01*
X0241746Y0098779D01*
X0241817Y0098673D01*
X0241884Y0098564D01*
X0241949Y0098454D01*
X0242009Y0098341D01*
X0242067Y0098227D01*
X0242120Y0098111D01*
X0242170Y0097993D01*
X0242217Y0097874D01*
X0242260Y0097753D01*
X0242299Y0097631D01*
X0242334Y0097508D01*
X0242365Y0097384D01*
X0242393Y0097259D01*
X0242416Y0097133D01*
X0242436Y0097007D01*
X0242452Y0096880D01*
X0242464Y0096753D01*
X0242472Y0096625D01*
X0242476Y0096497D01*
X0242476Y0096369D01*
X0242472Y0096241D01*
X0242464Y0096113D01*
X0242452Y0095986D01*
X0242436Y0095859D01*
X0242416Y0095733D01*
X0242393Y0095607D01*
X0242365Y0095482D01*
X0242334Y0095358D01*
X0242299Y0095235D01*
X0242260Y0095113D01*
X0242217Y0094992D01*
X0242170Y0094873D01*
X0242120Y0094755D01*
X0242067Y0094639D01*
X0242009Y0094525D01*
X0241949Y0094412D01*
X0241884Y0094302D01*
X0241817Y0094193D01*
X0241746Y0094087D01*
X0241671Y0093982D01*
X0241594Y0093881D01*
X0241513Y0093781D01*
X0241430Y0093684D01*
X0241343Y0093590D01*
X0241254Y0093499D01*
X0241162Y0093410D01*
X0241067Y0093324D01*
X0240969Y0093241D01*
X0240869Y0093161D01*
X0240767Y0093085D01*
X0240662Y0093011D01*
X0240555Y0092941D01*
X0240446Y0092874D01*
X0240335Y0092811D01*
X0240222Y0092751D01*
X0240107Y0092695D01*
X0239990Y0092642D01*
X0239872Y0092593D01*
X0239753Y0092547D01*
X0239632Y0092505D01*
X0239509Y0092467D01*
X0239386Y0092433D01*
X0239262Y0092403D01*
X0239137Y0092376D01*
X0239011Y0092353D01*
X0238884Y0092335D01*
X0238757Y0092320D01*
X0238630Y0092309D01*
X0238502Y0092302D01*
X0238374Y0092299D01*
X0238246Y0092300D01*
X0238118Y0092305D01*
X0237991Y0092314D01*
X0237863Y0092327D01*
X0237736Y0092344D01*
X0237610Y0092364D01*
X0237485Y0092389D01*
X0237360Y0092417D01*
X0237236Y0092450D01*
X0237113Y0092486D01*
X0236992Y0092526D01*
X0236871Y0092569D01*
X0236753Y0092617D01*
X0236635Y0092668D01*
X0236520Y0092722D01*
X0236406Y0092781D01*
X0236293Y0092842D01*
X0236183Y0092907D01*
X0236075Y0092976D01*
X0235969Y0093048D01*
X0235866Y0093123D01*
X0235764Y0093201D01*
X0235666Y0093282D01*
X0235569Y0093367D01*
X0235476Y0093454D01*
X0235385Y0093544D01*
X0235297Y0093637D01*
X0235212Y0093732D01*
X0235130Y0093831D01*
X0235051Y0093931D01*
X0234975Y0094034D01*
X0234902Y0094140D01*
X0234833Y0094247D01*
X0234767Y0094357D01*
X0234705Y0094468D01*
X0234646Y0094582D01*
X0234590Y0094697D01*
X0234538Y0094814D01*
X0234490Y0094933D01*
X0234445Y0095053D01*
X0234404Y0095174D01*
X0234367Y0095296D01*
X0234334Y0095420D01*
X0234305Y0095544D01*
X0234279Y0095670D01*
X0234257Y0095796D01*
X0234240Y0095922D01*
X0234226Y0096050D01*
X0234216Y0096177D01*
X0234210Y0096305D01*
X0234208Y0096433D01*
D11*
X0198342Y0128933D03*
X0215342Y0140933D03*
X0198342Y0166433D03*
X0198342Y0171433D03*
X0180342Y0175933D03*
X0178342Y0193933D03*
X0173342Y0193933D03*
X0170342Y0196433D03*
X0163342Y0196933D03*
X0163842Y0211933D03*
X0159342Y0217933D03*
X0150842Y0217933D03*
X0152842Y0233445D03*
X0158342Y0238933D03*
X0169737Y0238933D03*
X0177852Y0238933D03*
X0187342Y0238933D03*
X0183342Y0229507D03*
X0186342Y0227538D03*
X0198342Y0203933D03*
X0204342Y0196933D03*
X0180342Y0154933D03*
X0175342Y0154933D03*
X0180342Y0140933D03*
X0170834Y0137941D03*
X0159342Y0133933D03*
X0159342Y0119933D03*
X0177342Y0118933D03*
X0185842Y0096433D03*
X0165842Y0096433D03*
X0190842Y0070933D03*
X0133342Y0128933D03*
X0141342Y0136933D03*
X0148342Y0146433D03*
X0143342Y0158933D03*
X0143342Y0163933D03*
X0143342Y0173933D03*
X0143342Y0178933D03*
X0143342Y0186433D03*
X0130253Y0179933D03*
X0133342Y0203933D03*
X0130342Y0217933D03*
X0130342Y0235433D03*
X0131342Y0154933D03*
X0105342Y0154933D03*
X0054342Y0154933D03*
X0047342Y0168933D03*
X0250342Y0140933D03*
X0292342Y0168933D03*
X0250342Y0196933D03*
D12*
X0223342Y0171433D03*
X0223342Y0161433D03*
X0213342Y0161433D03*
X0213342Y0171433D03*
D13*
X0213342Y0161433D02*
X0148796Y0161433D01*
X0144207Y0166022D01*
X0144164Y0166022D01*
X0130253Y0179933D01*
X0108342Y0185933D02*
X0108092Y0186183D01*
X0108342Y0186433D01*
X0129477Y0215844D02*
X0128253Y0217068D01*
X0128253Y0218798D01*
X0129477Y0220022D01*
X0131207Y0220022D01*
X0132431Y0218798D01*
X0132431Y0217068D01*
X0131207Y0215844D01*
X0129477Y0215844D01*
X0129053Y0216267D02*
X0055842Y0216267D01*
X0055842Y0215669D02*
X0153342Y0215669D01*
X0153342Y0216267D02*
X0152130Y0216267D01*
X0151707Y0215844D02*
X0152931Y0217068D01*
X0152931Y0218798D01*
X0151707Y0220022D01*
X0149977Y0220022D01*
X0148753Y0218798D01*
X0148753Y0217068D01*
X0149977Y0215844D01*
X0151707Y0215844D01*
X0152729Y0216866D02*
X0153342Y0216866D01*
X0153342Y0217464D02*
X0152931Y0217464D01*
X0152931Y0218063D02*
X0153342Y0218063D01*
X0153342Y0218661D02*
X0152931Y0218661D01*
X0153342Y0219260D02*
X0152469Y0219260D01*
X0151871Y0219858D02*
X0153342Y0219858D01*
X0153342Y0220457D02*
X0055842Y0220457D01*
X0055842Y0221055D02*
X0153342Y0221055D01*
X0153342Y0221654D02*
X0055842Y0221654D01*
X0055842Y0222252D02*
X0153342Y0222252D01*
X0153342Y0222851D02*
X0055842Y0222851D01*
X0055842Y0223449D02*
X0153342Y0223449D01*
X0153342Y0224048D02*
X0055842Y0224048D01*
X0055842Y0224646D02*
X0153342Y0224646D01*
X0153342Y0225245D02*
X0055842Y0225245D01*
X0055842Y0225843D02*
X0153342Y0225843D01*
X0153342Y0226442D02*
X0055842Y0226442D01*
X0055842Y0227040D02*
X0153342Y0227040D01*
X0153342Y0227639D02*
X0055842Y0227639D01*
X0055842Y0228237D02*
X0153342Y0228237D01*
X0153342Y0228836D02*
X0055842Y0228836D01*
X0055842Y0229434D02*
X0153342Y0229434D01*
X0153342Y0230033D02*
X0055842Y0230033D01*
X0055842Y0230631D02*
X0153342Y0230631D01*
X0153342Y0231230D02*
X0104980Y0231230D01*
X0104423Y0230999D02*
X0106420Y0231826D01*
X0107948Y0233355D01*
X0108776Y0235352D01*
X0108776Y0237514D01*
X0107948Y0239511D01*
X0106420Y0241040D01*
X0104423Y0241867D01*
X0102261Y0241867D01*
X0100264Y0241040D01*
X0098735Y0239511D01*
X0097908Y0237514D01*
X0097908Y0235352D01*
X0098735Y0233355D01*
X0100264Y0231826D01*
X0102261Y0230999D01*
X0104423Y0230999D01*
X0106422Y0231828D02*
X0151504Y0231828D01*
X0151977Y0231356D02*
X0150753Y0232579D01*
X0150753Y0234310D01*
X0151977Y0235534D01*
X0153342Y0235534D01*
X0153342Y0281433D01*
X0063342Y0281433D01*
X0055842Y0273933D01*
X0055842Y0201433D01*
X0153342Y0201433D01*
X0153342Y0231356D01*
X0151977Y0231356D01*
X0150905Y0232427D02*
X0107020Y0232427D01*
X0107619Y0233025D02*
X0150753Y0233025D01*
X0150753Y0233624D02*
X0131487Y0233624D01*
X0131207Y0233344D02*
X0132431Y0234568D01*
X0132431Y0236298D01*
X0131207Y0237522D01*
X0129477Y0237522D01*
X0128253Y0236298D01*
X0128253Y0234568D01*
X0129477Y0233344D01*
X0131207Y0233344D01*
X0132085Y0234222D02*
X0150753Y0234222D01*
X0151264Y0234821D02*
X0132431Y0234821D01*
X0132431Y0235419D02*
X0151862Y0235419D01*
X0153342Y0236018D02*
X0132431Y0236018D01*
X0132113Y0236616D02*
X0153342Y0236616D01*
X0153342Y0237215D02*
X0131514Y0237215D01*
X0129169Y0237215D02*
X0108776Y0237215D01*
X0108776Y0236616D02*
X0128571Y0236616D01*
X0128253Y0236018D02*
X0108776Y0236018D01*
X0108776Y0235419D02*
X0128253Y0235419D01*
X0128253Y0234821D02*
X0108556Y0234821D01*
X0108308Y0234222D02*
X0128598Y0234222D01*
X0129197Y0233624D02*
X0108060Y0233624D01*
X0108652Y0237814D02*
X0153342Y0237814D01*
X0153342Y0238412D02*
X0108404Y0238412D01*
X0108156Y0239011D02*
X0153342Y0239011D01*
X0153342Y0239609D02*
X0107850Y0239609D01*
X0107252Y0240208D02*
X0153342Y0240208D01*
X0153342Y0240806D02*
X0106653Y0240806D01*
X0105539Y0241405D02*
X0153342Y0241405D01*
X0153342Y0242003D02*
X0055842Y0242003D01*
X0055842Y0241405D02*
X0101145Y0241405D01*
X0100030Y0240806D02*
X0055842Y0240806D01*
X0055842Y0240208D02*
X0099432Y0240208D01*
X0098833Y0239609D02*
X0055842Y0239609D01*
X0055842Y0239011D02*
X0098528Y0239011D01*
X0098280Y0238412D02*
X0055842Y0238412D01*
X0055842Y0237814D02*
X0098032Y0237814D01*
X0097908Y0237215D02*
X0055842Y0237215D01*
X0055842Y0236616D02*
X0097908Y0236616D01*
X0097908Y0236018D02*
X0055842Y0236018D01*
X0055842Y0235419D02*
X0097908Y0235419D01*
X0098128Y0234821D02*
X0055842Y0234821D01*
X0055842Y0234222D02*
X0098376Y0234222D01*
X0098624Y0233624D02*
X0055842Y0233624D01*
X0055842Y0233025D02*
X0099065Y0233025D01*
X0099663Y0232427D02*
X0055842Y0232427D01*
X0055842Y0231828D02*
X0100262Y0231828D01*
X0101704Y0231230D02*
X0055842Y0231230D01*
X0055842Y0242602D02*
X0153342Y0242602D01*
X0153342Y0243200D02*
X0055842Y0243200D01*
X0055842Y0243799D02*
X0153342Y0243799D01*
X0153342Y0244397D02*
X0055842Y0244397D01*
X0055842Y0244996D02*
X0153342Y0244996D01*
X0153342Y0245594D02*
X0055842Y0245594D01*
X0055842Y0246193D02*
X0153342Y0246193D01*
X0153342Y0246791D02*
X0055842Y0246791D01*
X0055842Y0247390D02*
X0153342Y0247390D01*
X0153342Y0247988D02*
X0055842Y0247988D01*
X0055842Y0248587D02*
X0153342Y0248587D01*
X0153342Y0249185D02*
X0055842Y0249185D01*
X0055842Y0249784D02*
X0153342Y0249784D01*
X0153342Y0250382D02*
X0055842Y0250382D01*
X0055842Y0250981D02*
X0153342Y0250981D01*
X0153342Y0251579D02*
X0055842Y0251579D01*
X0055842Y0252178D02*
X0153342Y0252178D01*
X0153342Y0252776D02*
X0055842Y0252776D01*
X0055842Y0253375D02*
X0153342Y0253375D01*
X0153342Y0253973D02*
X0055842Y0253973D01*
X0055842Y0254572D02*
X0153342Y0254572D01*
X0153342Y0255170D02*
X0055842Y0255170D01*
X0055842Y0255769D02*
X0153342Y0255769D01*
X0153342Y0256367D02*
X0055842Y0256367D01*
X0055842Y0256966D02*
X0153342Y0256966D01*
X0153342Y0257564D02*
X0055842Y0257564D01*
X0055842Y0258163D02*
X0153342Y0258163D01*
X0153342Y0258761D02*
X0055842Y0258761D01*
X0055842Y0259360D02*
X0153342Y0259360D01*
X0153342Y0259958D02*
X0055842Y0259958D01*
X0055842Y0260557D02*
X0153342Y0260557D01*
X0153342Y0261155D02*
X0055842Y0261155D01*
X0055842Y0261754D02*
X0153342Y0261754D01*
X0153342Y0262352D02*
X0055842Y0262352D01*
X0055842Y0262951D02*
X0153342Y0262951D01*
X0153342Y0263550D02*
X0055842Y0263550D01*
X0055842Y0264148D02*
X0153342Y0264148D01*
X0153342Y0264747D02*
X0055842Y0264747D01*
X0055842Y0265345D02*
X0153342Y0265345D01*
X0153342Y0265944D02*
X0055842Y0265944D01*
X0055842Y0266542D02*
X0153342Y0266542D01*
X0153342Y0267141D02*
X0055842Y0267141D01*
X0055842Y0267739D02*
X0153342Y0267739D01*
X0153342Y0268338D02*
X0055842Y0268338D01*
X0055842Y0268936D02*
X0153342Y0268936D01*
X0153342Y0269535D02*
X0055842Y0269535D01*
X0055842Y0270133D02*
X0153342Y0270133D01*
X0153342Y0270732D02*
X0055842Y0270732D01*
X0055842Y0271330D02*
X0153342Y0271330D01*
X0153342Y0271929D02*
X0055842Y0271929D01*
X0055842Y0272527D02*
X0153342Y0272527D01*
X0153342Y0273126D02*
X0055842Y0273126D01*
X0055842Y0273724D02*
X0153342Y0273724D01*
X0153342Y0274323D02*
X0056231Y0274323D01*
X0056830Y0274921D02*
X0153342Y0274921D01*
X0153342Y0275520D02*
X0057428Y0275520D01*
X0058027Y0276118D02*
X0153342Y0276118D01*
X0153342Y0276717D02*
X0058625Y0276717D01*
X0059224Y0277315D02*
X0153342Y0277315D01*
X0153342Y0277914D02*
X0059823Y0277914D01*
X0060421Y0278512D02*
X0153342Y0278512D01*
X0153342Y0279111D02*
X0061020Y0279111D01*
X0061618Y0279709D02*
X0153342Y0279709D01*
X0153342Y0280308D02*
X0062217Y0280308D01*
X0062815Y0280906D02*
X0153342Y0280906D01*
X0188342Y0280906D02*
X0278869Y0280906D01*
X0278342Y0281433D02*
X0285842Y0273933D01*
X0285842Y0201433D01*
X0188342Y0201433D01*
X0188342Y0226583D01*
X0188431Y0226672D01*
X0188431Y0228403D01*
X0188342Y0228492D01*
X0188342Y0236979D01*
X0189431Y0238068D01*
X0189431Y0239798D01*
X0188342Y0240887D01*
X0188342Y0281433D01*
X0278342Y0281433D01*
X0279467Y0280308D02*
X0188342Y0280308D01*
X0188342Y0279709D02*
X0280066Y0279709D01*
X0280664Y0279111D02*
X0188342Y0279111D01*
X0188342Y0278512D02*
X0281263Y0278512D01*
X0281861Y0277914D02*
X0188342Y0277914D01*
X0188342Y0277315D02*
X0282460Y0277315D01*
X0283058Y0276717D02*
X0188342Y0276717D01*
X0188342Y0276118D02*
X0283657Y0276118D01*
X0284255Y0275520D02*
X0188342Y0275520D01*
X0188342Y0274921D02*
X0284854Y0274921D01*
X0285452Y0274323D02*
X0188342Y0274323D01*
X0188342Y0273724D02*
X0285842Y0273724D01*
X0285842Y0273126D02*
X0188342Y0273126D01*
X0188342Y0272527D02*
X0285842Y0272527D01*
X0285842Y0271929D02*
X0188342Y0271929D01*
X0188342Y0271330D02*
X0285842Y0271330D01*
X0285842Y0270732D02*
X0188342Y0270732D01*
X0188342Y0270133D02*
X0285842Y0270133D01*
X0285842Y0269535D02*
X0188342Y0269535D01*
X0188342Y0268936D02*
X0285842Y0268936D01*
X0285842Y0268338D02*
X0188342Y0268338D01*
X0188342Y0267739D02*
X0285842Y0267739D01*
X0285842Y0267141D02*
X0188342Y0267141D01*
X0188342Y0266542D02*
X0285842Y0266542D01*
X0285842Y0265944D02*
X0188342Y0265944D01*
X0188342Y0265345D02*
X0285842Y0265345D01*
X0285842Y0264747D02*
X0188342Y0264747D01*
X0188342Y0264148D02*
X0285842Y0264148D01*
X0285842Y0263550D02*
X0188342Y0263550D01*
X0188342Y0262951D02*
X0285842Y0262951D01*
X0285842Y0262352D02*
X0188342Y0262352D01*
X0188342Y0261754D02*
X0285842Y0261754D01*
X0285842Y0261155D02*
X0188342Y0261155D01*
X0188342Y0260557D02*
X0285842Y0260557D01*
X0285842Y0259958D02*
X0188342Y0259958D01*
X0188342Y0259360D02*
X0285842Y0259360D01*
X0285842Y0258761D02*
X0188342Y0258761D01*
X0188342Y0258163D02*
X0285842Y0258163D01*
X0285842Y0257564D02*
X0188342Y0257564D01*
X0188342Y0256966D02*
X0285842Y0256966D01*
X0285842Y0256367D02*
X0188342Y0256367D01*
X0188342Y0255769D02*
X0285842Y0255769D01*
X0285842Y0255170D02*
X0188342Y0255170D01*
X0188342Y0254572D02*
X0285842Y0254572D01*
X0285842Y0253973D02*
X0188342Y0253973D01*
X0188342Y0253375D02*
X0285842Y0253375D01*
X0285842Y0252776D02*
X0188342Y0252776D01*
X0188342Y0252178D02*
X0285842Y0252178D01*
X0285842Y0251579D02*
X0188342Y0251579D01*
X0188342Y0250981D02*
X0285842Y0250981D01*
X0285842Y0250382D02*
X0188342Y0250382D01*
X0188342Y0249784D02*
X0285842Y0249784D01*
X0285842Y0249185D02*
X0188342Y0249185D01*
X0188342Y0248587D02*
X0285842Y0248587D01*
X0285842Y0247988D02*
X0188342Y0247988D01*
X0188342Y0247390D02*
X0285842Y0247390D01*
X0285842Y0246791D02*
X0188342Y0246791D01*
X0188342Y0246193D02*
X0285842Y0246193D01*
X0285842Y0245594D02*
X0188342Y0245594D01*
X0188342Y0244996D02*
X0285842Y0244996D01*
X0285842Y0244397D02*
X0188342Y0244397D01*
X0188342Y0243799D02*
X0285842Y0243799D01*
X0285842Y0243200D02*
X0188342Y0243200D01*
X0188342Y0242602D02*
X0285842Y0242602D01*
X0285842Y0242003D02*
X0188342Y0242003D01*
X0188342Y0241405D02*
X0236145Y0241405D01*
X0235264Y0241040D02*
X0233735Y0239511D01*
X0232908Y0237514D01*
X0232908Y0235352D01*
X0233735Y0233355D01*
X0235264Y0231826D01*
X0237261Y0230999D01*
X0239423Y0230999D01*
X0241420Y0231826D01*
X0242948Y0233355D01*
X0243776Y0235352D01*
X0243776Y0237514D01*
X0242948Y0239511D01*
X0241420Y0241040D01*
X0239423Y0241867D01*
X0237261Y0241867D01*
X0235264Y0241040D01*
X0235030Y0240806D02*
X0188423Y0240806D01*
X0189022Y0240208D02*
X0234432Y0240208D01*
X0233833Y0239609D02*
X0189431Y0239609D01*
X0189431Y0239011D02*
X0233528Y0239011D01*
X0233280Y0238412D02*
X0189431Y0238412D01*
X0189177Y0237814D02*
X0233032Y0237814D01*
X0232908Y0237215D02*
X0188578Y0237215D01*
X0188342Y0236616D02*
X0232908Y0236616D01*
X0232908Y0236018D02*
X0188342Y0236018D01*
X0188342Y0235419D02*
X0232908Y0235419D01*
X0233128Y0234821D02*
X0188342Y0234821D01*
X0188342Y0234222D02*
X0233376Y0234222D01*
X0233624Y0233624D02*
X0188342Y0233624D01*
X0188342Y0233025D02*
X0234065Y0233025D01*
X0234663Y0232427D02*
X0188342Y0232427D01*
X0188342Y0231828D02*
X0235262Y0231828D01*
X0236704Y0231230D02*
X0188342Y0231230D01*
X0188342Y0230631D02*
X0285842Y0230631D01*
X0285842Y0230033D02*
X0188342Y0230033D01*
X0188342Y0229434D02*
X0285842Y0229434D01*
X0285842Y0228836D02*
X0188342Y0228836D01*
X0188431Y0228237D02*
X0285842Y0228237D01*
X0285842Y0227639D02*
X0188431Y0227639D01*
X0188431Y0227040D02*
X0285842Y0227040D01*
X0285842Y0226442D02*
X0188342Y0226442D01*
X0188342Y0225843D02*
X0285842Y0225843D01*
X0285842Y0225245D02*
X0188342Y0225245D01*
X0188342Y0224646D02*
X0285842Y0224646D01*
X0285842Y0224048D02*
X0188342Y0224048D01*
X0188342Y0223449D02*
X0285842Y0223449D01*
X0285842Y0222851D02*
X0188342Y0222851D01*
X0188342Y0222252D02*
X0285842Y0222252D01*
X0285842Y0221654D02*
X0188342Y0221654D01*
X0188342Y0221055D02*
X0285842Y0221055D01*
X0285842Y0220457D02*
X0188342Y0220457D01*
X0188342Y0219858D02*
X0285842Y0219858D01*
X0285842Y0219260D02*
X0188342Y0219260D01*
X0188342Y0218661D02*
X0285842Y0218661D01*
X0285842Y0218063D02*
X0188342Y0218063D01*
X0188342Y0217464D02*
X0285842Y0217464D01*
X0285842Y0216866D02*
X0188342Y0216866D01*
X0188342Y0216267D02*
X0285842Y0216267D01*
X0285842Y0215669D02*
X0188342Y0215669D01*
X0188342Y0215070D02*
X0285842Y0215070D01*
X0285842Y0214472D02*
X0188342Y0214472D01*
X0188342Y0213873D02*
X0285842Y0213873D01*
X0285842Y0213275D02*
X0188342Y0213275D01*
X0188342Y0212676D02*
X0285842Y0212676D01*
X0285842Y0212078D02*
X0188342Y0212078D01*
X0188342Y0211479D02*
X0285842Y0211479D01*
X0285842Y0210881D02*
X0188342Y0210881D01*
X0188342Y0210282D02*
X0285842Y0210282D01*
X0285842Y0209683D02*
X0188342Y0209683D01*
X0188342Y0209085D02*
X0285842Y0209085D01*
X0285842Y0208486D02*
X0188342Y0208486D01*
X0188342Y0207888D02*
X0285842Y0207888D01*
X0285842Y0207289D02*
X0188342Y0207289D01*
X0188342Y0206691D02*
X0285842Y0206691D01*
X0285842Y0206092D02*
X0188342Y0206092D01*
X0188342Y0205494D02*
X0285842Y0205494D01*
X0285842Y0204895D02*
X0188342Y0204895D01*
X0188342Y0204297D02*
X0285842Y0204297D01*
X0285842Y0203698D02*
X0188342Y0203698D01*
X0188342Y0203100D02*
X0285842Y0203100D01*
X0285842Y0202501D02*
X0188342Y0202501D01*
X0188342Y0201903D02*
X0285842Y0201903D01*
X0285842Y0231230D02*
X0239980Y0231230D01*
X0241422Y0231828D02*
X0285842Y0231828D01*
X0285842Y0232427D02*
X0242020Y0232427D01*
X0242619Y0233025D02*
X0285842Y0233025D01*
X0285842Y0233624D02*
X0243060Y0233624D01*
X0243308Y0234222D02*
X0285842Y0234222D01*
X0285842Y0234821D02*
X0243556Y0234821D01*
X0243776Y0235419D02*
X0285842Y0235419D01*
X0285842Y0236018D02*
X0243776Y0236018D01*
X0243776Y0236616D02*
X0285842Y0236616D01*
X0285842Y0237215D02*
X0243776Y0237215D01*
X0243652Y0237814D02*
X0285842Y0237814D01*
X0285842Y0238412D02*
X0243404Y0238412D01*
X0243156Y0239011D02*
X0285842Y0239011D01*
X0285842Y0239609D02*
X0242850Y0239609D01*
X0242252Y0240208D02*
X0285842Y0240208D01*
X0285842Y0240806D02*
X0241653Y0240806D01*
X0240539Y0241405D02*
X0285842Y0241405D01*
X0285842Y0131433D02*
X0188342Y0131433D01*
X0188342Y0051433D01*
X0280842Y0051433D01*
X0285842Y0056433D01*
X0285842Y0131433D01*
X0285842Y0131279D02*
X0188342Y0131279D01*
X0188342Y0130680D02*
X0285842Y0130680D01*
X0285842Y0130081D02*
X0188342Y0130081D01*
X0188342Y0129483D02*
X0285842Y0129483D01*
X0285842Y0128884D02*
X0188342Y0128884D01*
X0188342Y0128286D02*
X0285842Y0128286D01*
X0285842Y0127687D02*
X0188342Y0127687D01*
X0188342Y0127089D02*
X0285842Y0127089D01*
X0285842Y0126490D02*
X0188342Y0126490D01*
X0188342Y0125892D02*
X0285842Y0125892D01*
X0285842Y0125293D02*
X0188342Y0125293D01*
X0188342Y0124695D02*
X0285842Y0124695D01*
X0285842Y0124096D02*
X0188342Y0124096D01*
X0188342Y0123498D02*
X0285842Y0123498D01*
X0285842Y0122899D02*
X0188342Y0122899D01*
X0188342Y0122301D02*
X0285842Y0122301D01*
X0285842Y0121702D02*
X0188342Y0121702D01*
X0188342Y0121104D02*
X0285842Y0121104D01*
X0285842Y0120505D02*
X0188342Y0120505D01*
X0188342Y0119907D02*
X0285842Y0119907D01*
X0285842Y0119308D02*
X0188342Y0119308D01*
X0188342Y0118710D02*
X0285842Y0118710D01*
X0285842Y0118111D02*
X0188342Y0118111D01*
X0188342Y0117513D02*
X0285842Y0117513D01*
X0285842Y0116914D02*
X0188342Y0116914D01*
X0188342Y0116316D02*
X0285842Y0116316D01*
X0285842Y0115717D02*
X0188342Y0115717D01*
X0188342Y0115119D02*
X0285842Y0115119D01*
X0285842Y0114520D02*
X0188342Y0114520D01*
X0188342Y0113922D02*
X0285842Y0113922D01*
X0285842Y0113323D02*
X0188342Y0113323D01*
X0188342Y0112725D02*
X0285842Y0112725D01*
X0285842Y0112126D02*
X0188342Y0112126D01*
X0188342Y0111528D02*
X0285842Y0111528D01*
X0285842Y0110929D02*
X0188342Y0110929D01*
X0188342Y0110331D02*
X0285842Y0110331D01*
X0285842Y0109732D02*
X0188342Y0109732D01*
X0188342Y0109134D02*
X0285842Y0109134D01*
X0285842Y0108535D02*
X0188342Y0108535D01*
X0188342Y0107937D02*
X0285842Y0107937D01*
X0285842Y0107338D02*
X0188342Y0107338D01*
X0188342Y0106740D02*
X0285842Y0106740D01*
X0285842Y0106141D02*
X0188342Y0106141D01*
X0188342Y0105543D02*
X0285842Y0105543D01*
X0285842Y0104944D02*
X0188342Y0104944D01*
X0188342Y0104345D02*
X0285842Y0104345D01*
X0285842Y0103747D02*
X0188342Y0103747D01*
X0188342Y0103148D02*
X0285842Y0103148D01*
X0285842Y0102550D02*
X0188342Y0102550D01*
X0188342Y0101951D02*
X0285842Y0101951D01*
X0285842Y0101353D02*
X0240664Y0101353D01*
X0241420Y0101040D02*
X0239423Y0101867D01*
X0237261Y0101867D01*
X0235264Y0101040D01*
X0233735Y0099511D01*
X0232908Y0097514D01*
X0232908Y0095352D01*
X0233735Y0093355D01*
X0235264Y0091826D01*
X0237261Y0090999D01*
X0239423Y0090999D01*
X0241420Y0091826D01*
X0242948Y0093355D01*
X0243776Y0095352D01*
X0243776Y0097514D01*
X0242948Y0099511D01*
X0241420Y0101040D01*
X0241705Y0100754D02*
X0285842Y0100754D01*
X0285842Y0100156D02*
X0242304Y0100156D01*
X0242902Y0099557D02*
X0285842Y0099557D01*
X0285842Y0098959D02*
X0243177Y0098959D01*
X0243425Y0098360D02*
X0285842Y0098360D01*
X0285842Y0097762D02*
X0243673Y0097762D01*
X0243776Y0097163D02*
X0285842Y0097163D01*
X0285842Y0096565D02*
X0243776Y0096565D01*
X0243776Y0095966D02*
X0285842Y0095966D01*
X0285842Y0095368D02*
X0243776Y0095368D01*
X0243534Y0094769D02*
X0285842Y0094769D01*
X0285842Y0094171D02*
X0243286Y0094171D01*
X0243038Y0093572D02*
X0285842Y0093572D01*
X0285842Y0092974D02*
X0242567Y0092974D01*
X0241969Y0092375D02*
X0285842Y0092375D01*
X0285842Y0091777D02*
X0241300Y0091777D01*
X0239855Y0091178D02*
X0285842Y0091178D01*
X0285842Y0090580D02*
X0188342Y0090580D01*
X0188342Y0091178D02*
X0236829Y0091178D01*
X0235384Y0091777D02*
X0188342Y0091777D01*
X0188342Y0092375D02*
X0234715Y0092375D01*
X0234116Y0092974D02*
X0188342Y0092974D01*
X0188342Y0093572D02*
X0233645Y0093572D01*
X0233397Y0094171D02*
X0188342Y0094171D01*
X0188342Y0094769D02*
X0233149Y0094769D01*
X0232908Y0095368D02*
X0188342Y0095368D01*
X0188342Y0095966D02*
X0232908Y0095966D01*
X0232908Y0096565D02*
X0188342Y0096565D01*
X0188342Y0097163D02*
X0232908Y0097163D01*
X0233011Y0097762D02*
X0188342Y0097762D01*
X0188342Y0098360D02*
X0233259Y0098360D01*
X0233506Y0098959D02*
X0188342Y0098959D01*
X0188342Y0099557D02*
X0233782Y0099557D01*
X0234380Y0100156D02*
X0188342Y0100156D01*
X0188342Y0100754D02*
X0234979Y0100754D01*
X0236020Y0101353D02*
X0188342Y0101353D01*
X0188342Y0089981D02*
X0285842Y0089981D01*
X0285842Y0089383D02*
X0188342Y0089383D01*
X0188342Y0088784D02*
X0285842Y0088784D01*
X0285842Y0088186D02*
X0188342Y0088186D01*
X0188342Y0087587D02*
X0285842Y0087587D01*
X0285842Y0086989D02*
X0188342Y0086989D01*
X0188342Y0086390D02*
X0285842Y0086390D01*
X0285842Y0085792D02*
X0188342Y0085792D01*
X0188342Y0085193D02*
X0285842Y0085193D01*
X0285842Y0084595D02*
X0188342Y0084595D01*
X0188342Y0083996D02*
X0285842Y0083996D01*
X0285842Y0083398D02*
X0188342Y0083398D01*
X0188342Y0082799D02*
X0285842Y0082799D01*
X0285842Y0082201D02*
X0188342Y0082201D01*
X0188342Y0081602D02*
X0285842Y0081602D01*
X0285842Y0081004D02*
X0188342Y0081004D01*
X0188342Y0080405D02*
X0285842Y0080405D01*
X0285842Y0079807D02*
X0188342Y0079807D01*
X0188342Y0079208D02*
X0285842Y0079208D01*
X0285842Y0078610D02*
X0188342Y0078610D01*
X0188342Y0078011D02*
X0285842Y0078011D01*
X0285842Y0077412D02*
X0188342Y0077412D01*
X0188342Y0076814D02*
X0285842Y0076814D01*
X0285842Y0076215D02*
X0188342Y0076215D01*
X0188342Y0075617D02*
X0285842Y0075617D01*
X0285842Y0075018D02*
X0188342Y0075018D01*
X0188342Y0074420D02*
X0285842Y0074420D01*
X0285842Y0073821D02*
X0188342Y0073821D01*
X0188342Y0073223D02*
X0285842Y0073223D01*
X0285842Y0072624D02*
X0192105Y0072624D01*
X0191707Y0073022D02*
X0189977Y0073022D01*
X0188753Y0071798D01*
X0188753Y0070068D01*
X0189977Y0068844D01*
X0191707Y0068844D01*
X0192931Y0070068D01*
X0192931Y0071798D01*
X0191707Y0073022D01*
X0192703Y0072026D02*
X0285842Y0072026D01*
X0285842Y0071427D02*
X0192931Y0071427D01*
X0192931Y0070829D02*
X0285842Y0070829D01*
X0285842Y0070230D02*
X0192931Y0070230D01*
X0192495Y0069632D02*
X0285842Y0069632D01*
X0285842Y0069033D02*
X0191896Y0069033D01*
X0189787Y0069033D02*
X0188342Y0069033D01*
X0188342Y0068435D02*
X0285842Y0068435D01*
X0285842Y0067836D02*
X0188342Y0067836D01*
X0188342Y0067238D02*
X0285842Y0067238D01*
X0285842Y0066639D02*
X0188342Y0066639D01*
X0188342Y0066041D02*
X0285842Y0066041D01*
X0285842Y0065442D02*
X0188342Y0065442D01*
X0188342Y0064844D02*
X0285842Y0064844D01*
X0285842Y0064245D02*
X0188342Y0064245D01*
X0188342Y0063647D02*
X0285842Y0063647D01*
X0285842Y0063048D02*
X0188342Y0063048D01*
X0188342Y0062450D02*
X0285842Y0062450D01*
X0285842Y0061851D02*
X0188342Y0061851D01*
X0188342Y0061253D02*
X0285842Y0061253D01*
X0285842Y0060654D02*
X0188342Y0060654D01*
X0188342Y0060056D02*
X0285842Y0060056D01*
X0285842Y0059457D02*
X0188342Y0059457D01*
X0188342Y0058859D02*
X0285842Y0058859D01*
X0285842Y0058260D02*
X0188342Y0058260D01*
X0188342Y0057662D02*
X0285842Y0057662D01*
X0285842Y0057063D02*
X0188342Y0057063D01*
X0188342Y0056465D02*
X0285842Y0056465D01*
X0285275Y0055866D02*
X0188342Y0055866D01*
X0188342Y0055268D02*
X0284676Y0055268D01*
X0284078Y0054669D02*
X0188342Y0054669D01*
X0188342Y0054071D02*
X0283479Y0054071D01*
X0282881Y0053472D02*
X0188342Y0053472D01*
X0188342Y0052874D02*
X0282282Y0052874D01*
X0281684Y0052275D02*
X0188342Y0052275D01*
X0188342Y0051677D02*
X0281085Y0051677D01*
X0189189Y0069632D02*
X0188342Y0069632D01*
X0188342Y0070230D02*
X0188753Y0070230D01*
X0188753Y0070829D02*
X0188342Y0070829D01*
X0188342Y0071427D02*
X0188753Y0071427D01*
X0188980Y0072026D02*
X0188342Y0072026D01*
X0188342Y0072624D02*
X0189579Y0072624D01*
X0153342Y0072624D02*
X0055842Y0072624D01*
X0055842Y0072026D02*
X0153342Y0072026D01*
X0153342Y0071427D02*
X0055842Y0071427D01*
X0055842Y0070829D02*
X0153342Y0070829D01*
X0153342Y0070230D02*
X0055842Y0070230D01*
X0055842Y0069632D02*
X0153342Y0069632D01*
X0153342Y0069033D02*
X0055842Y0069033D01*
X0055842Y0068435D02*
X0153342Y0068435D01*
X0153342Y0067836D02*
X0055842Y0067836D01*
X0055842Y0067238D02*
X0153342Y0067238D01*
X0153342Y0066639D02*
X0055842Y0066639D01*
X0055842Y0066041D02*
X0153342Y0066041D01*
X0153342Y0065442D02*
X0055842Y0065442D01*
X0055842Y0064844D02*
X0153342Y0064844D01*
X0153342Y0064245D02*
X0055842Y0064245D01*
X0055842Y0063647D02*
X0153342Y0063647D01*
X0153342Y0063048D02*
X0055842Y0063048D01*
X0055842Y0062450D02*
X0153342Y0062450D01*
X0153342Y0061851D02*
X0055842Y0061851D01*
X0055842Y0061253D02*
X0153342Y0061253D01*
X0153342Y0060654D02*
X0055842Y0060654D01*
X0055842Y0060056D02*
X0153342Y0060056D01*
X0153342Y0059457D02*
X0055842Y0059457D01*
X0055842Y0058933D02*
X0055842Y0131433D01*
X0153342Y0131433D01*
X0153342Y0051433D01*
X0063342Y0051433D01*
X0055842Y0058933D01*
X0055916Y0058859D02*
X0153342Y0058859D01*
X0153342Y0058260D02*
X0056515Y0058260D01*
X0057113Y0057662D02*
X0153342Y0057662D01*
X0153342Y0057063D02*
X0057712Y0057063D01*
X0058310Y0056465D02*
X0153342Y0056465D01*
X0153342Y0055866D02*
X0058909Y0055866D01*
X0059507Y0055268D02*
X0153342Y0055268D01*
X0153342Y0054669D02*
X0060106Y0054669D01*
X0060704Y0054071D02*
X0153342Y0054071D01*
X0153342Y0053472D02*
X0061303Y0053472D01*
X0061901Y0052874D02*
X0153342Y0052874D01*
X0153342Y0052275D02*
X0062500Y0052275D01*
X0063098Y0051677D02*
X0153342Y0051677D01*
X0153342Y0073223D02*
X0055842Y0073223D01*
X0055842Y0073821D02*
X0153342Y0073821D01*
X0153342Y0074420D02*
X0055842Y0074420D01*
X0055842Y0075018D02*
X0153342Y0075018D01*
X0153342Y0075617D02*
X0055842Y0075617D01*
X0055842Y0076215D02*
X0153342Y0076215D01*
X0153342Y0076814D02*
X0055842Y0076814D01*
X0055842Y0077412D02*
X0153342Y0077412D01*
X0153342Y0078011D02*
X0055842Y0078011D01*
X0055842Y0078610D02*
X0153342Y0078610D01*
X0153342Y0079208D02*
X0055842Y0079208D01*
X0055842Y0079807D02*
X0153342Y0079807D01*
X0153342Y0080405D02*
X0055842Y0080405D01*
X0055842Y0081004D02*
X0153342Y0081004D01*
X0153342Y0081602D02*
X0055842Y0081602D01*
X0055842Y0082201D02*
X0153342Y0082201D01*
X0153342Y0082799D02*
X0055842Y0082799D01*
X0055842Y0083398D02*
X0153342Y0083398D01*
X0153342Y0083996D02*
X0055842Y0083996D01*
X0055842Y0084595D02*
X0153342Y0084595D01*
X0153342Y0085193D02*
X0055842Y0085193D01*
X0055842Y0085792D02*
X0153342Y0085792D01*
X0153342Y0086390D02*
X0055842Y0086390D01*
X0055842Y0086989D02*
X0153342Y0086989D01*
X0153342Y0087587D02*
X0055842Y0087587D01*
X0055842Y0088186D02*
X0153342Y0088186D01*
X0153342Y0088784D02*
X0055842Y0088784D01*
X0055842Y0089383D02*
X0153342Y0089383D01*
X0153342Y0089981D02*
X0055842Y0089981D01*
X0055842Y0090580D02*
X0153342Y0090580D01*
X0153342Y0091178D02*
X0104855Y0091178D01*
X0104423Y0090999D02*
X0106420Y0091826D01*
X0107948Y0093355D01*
X0108776Y0095352D01*
X0108776Y0097514D01*
X0107948Y0099511D01*
X0106420Y0101040D01*
X0104423Y0101867D01*
X0102261Y0101867D01*
X0100264Y0101040D01*
X0098735Y0099511D01*
X0097908Y0097514D01*
X0097908Y0095352D01*
X0098735Y0093355D01*
X0100264Y0091826D01*
X0102261Y0090999D01*
X0104423Y0090999D01*
X0106300Y0091777D02*
X0153342Y0091777D01*
X0153342Y0092375D02*
X0106969Y0092375D01*
X0107567Y0092974D02*
X0153342Y0092974D01*
X0153342Y0093572D02*
X0108038Y0093572D01*
X0108286Y0094171D02*
X0153342Y0094171D01*
X0153342Y0094769D02*
X0108534Y0094769D01*
X0108776Y0095368D02*
X0153342Y0095368D01*
X0153342Y0095966D02*
X0108776Y0095966D01*
X0108776Y0096565D02*
X0153342Y0096565D01*
X0153342Y0097163D02*
X0108776Y0097163D01*
X0108673Y0097762D02*
X0153342Y0097762D01*
X0153342Y0098360D02*
X0108425Y0098360D01*
X0108177Y0098959D02*
X0153342Y0098959D01*
X0153342Y0099557D02*
X0107902Y0099557D01*
X0107304Y0100156D02*
X0153342Y0100156D01*
X0153342Y0100754D02*
X0106705Y0100754D01*
X0105664Y0101353D02*
X0153342Y0101353D01*
X0153342Y0101951D02*
X0055842Y0101951D01*
X0055842Y0101353D02*
X0101020Y0101353D01*
X0099979Y0100754D02*
X0055842Y0100754D01*
X0055842Y0100156D02*
X0099380Y0100156D01*
X0098782Y0099557D02*
X0055842Y0099557D01*
X0055842Y0098959D02*
X0098506Y0098959D01*
X0098259Y0098360D02*
X0055842Y0098360D01*
X0055842Y0097762D02*
X0098011Y0097762D01*
X0097908Y0097163D02*
X0055842Y0097163D01*
X0055842Y0096565D02*
X0097908Y0096565D01*
X0097908Y0095966D02*
X0055842Y0095966D01*
X0055842Y0095368D02*
X0097908Y0095368D01*
X0098149Y0094769D02*
X0055842Y0094769D01*
X0055842Y0094171D02*
X0098397Y0094171D01*
X0098645Y0093572D02*
X0055842Y0093572D01*
X0055842Y0092974D02*
X0099116Y0092974D01*
X0099715Y0092375D02*
X0055842Y0092375D01*
X0055842Y0091777D02*
X0100384Y0091777D01*
X0101829Y0091178D02*
X0055842Y0091178D01*
X0055842Y0102550D02*
X0153342Y0102550D01*
X0153342Y0103148D02*
X0055842Y0103148D01*
X0055842Y0103747D02*
X0153342Y0103747D01*
X0153342Y0104345D02*
X0055842Y0104345D01*
X0055842Y0104944D02*
X0153342Y0104944D01*
X0153342Y0105543D02*
X0055842Y0105543D01*
X0055842Y0106141D02*
X0153342Y0106141D01*
X0153342Y0106740D02*
X0055842Y0106740D01*
X0055842Y0107338D02*
X0153342Y0107338D01*
X0153342Y0107937D02*
X0055842Y0107937D01*
X0055842Y0108535D02*
X0153342Y0108535D01*
X0153342Y0109134D02*
X0055842Y0109134D01*
X0055842Y0109732D02*
X0153342Y0109732D01*
X0153342Y0110331D02*
X0055842Y0110331D01*
X0055842Y0110929D02*
X0153342Y0110929D01*
X0153342Y0111528D02*
X0055842Y0111528D01*
X0055842Y0112126D02*
X0153342Y0112126D01*
X0153342Y0112725D02*
X0055842Y0112725D01*
X0055842Y0113323D02*
X0153342Y0113323D01*
X0153342Y0113922D02*
X0055842Y0113922D01*
X0055842Y0114520D02*
X0153342Y0114520D01*
X0153342Y0115119D02*
X0055842Y0115119D01*
X0055842Y0115717D02*
X0153342Y0115717D01*
X0153342Y0116316D02*
X0055842Y0116316D01*
X0055842Y0116914D02*
X0153342Y0116914D01*
X0153342Y0117513D02*
X0055842Y0117513D01*
X0055842Y0118111D02*
X0153342Y0118111D01*
X0153342Y0118710D02*
X0055842Y0118710D01*
X0055842Y0119308D02*
X0153342Y0119308D01*
X0153342Y0119907D02*
X0055842Y0119907D01*
X0055842Y0120505D02*
X0153342Y0120505D01*
X0153342Y0121104D02*
X0055842Y0121104D01*
X0055842Y0121702D02*
X0153342Y0121702D01*
X0153342Y0122301D02*
X0055842Y0122301D01*
X0055842Y0122899D02*
X0153342Y0122899D01*
X0153342Y0123498D02*
X0055842Y0123498D01*
X0055842Y0124096D02*
X0153342Y0124096D01*
X0153342Y0124695D02*
X0055842Y0124695D01*
X0055842Y0125293D02*
X0153342Y0125293D01*
X0153342Y0125892D02*
X0055842Y0125892D01*
X0055842Y0126490D02*
X0153342Y0126490D01*
X0153342Y0127089D02*
X0055842Y0127089D01*
X0055842Y0127687D02*
X0153342Y0127687D01*
X0153342Y0128286D02*
X0055842Y0128286D01*
X0055842Y0128884D02*
X0153342Y0128884D01*
X0153342Y0129483D02*
X0055842Y0129483D01*
X0055842Y0130081D02*
X0153342Y0130081D01*
X0153342Y0130680D02*
X0055842Y0130680D01*
X0055842Y0131279D02*
X0153342Y0131279D01*
X0153342Y0201903D02*
X0055842Y0201903D01*
X0055842Y0202501D02*
X0153342Y0202501D01*
X0153342Y0203100D02*
X0055842Y0203100D01*
X0055842Y0203698D02*
X0153342Y0203698D01*
X0153342Y0204297D02*
X0055842Y0204297D01*
X0055842Y0204895D02*
X0153342Y0204895D01*
X0153342Y0205494D02*
X0055842Y0205494D01*
X0055842Y0206092D02*
X0153342Y0206092D01*
X0153342Y0206691D02*
X0055842Y0206691D01*
X0055842Y0207289D02*
X0153342Y0207289D01*
X0153342Y0207888D02*
X0055842Y0207888D01*
X0055842Y0208486D02*
X0153342Y0208486D01*
X0153342Y0209085D02*
X0055842Y0209085D01*
X0055842Y0209683D02*
X0153342Y0209683D01*
X0153342Y0210282D02*
X0055842Y0210282D01*
X0055842Y0210881D02*
X0153342Y0210881D01*
X0153342Y0211479D02*
X0055842Y0211479D01*
X0055842Y0212078D02*
X0153342Y0212078D01*
X0153342Y0212676D02*
X0055842Y0212676D01*
X0055842Y0213275D02*
X0153342Y0213275D01*
X0153342Y0213873D02*
X0055842Y0213873D01*
X0055842Y0214472D02*
X0153342Y0214472D01*
X0153342Y0215070D02*
X0055842Y0215070D01*
X0055842Y0216866D02*
X0128455Y0216866D01*
X0128253Y0217464D02*
X0055842Y0217464D01*
X0055842Y0218063D02*
X0128253Y0218063D01*
X0128253Y0218661D02*
X0055842Y0218661D01*
X0055842Y0219260D02*
X0128714Y0219260D01*
X0129313Y0219858D02*
X0055842Y0219858D01*
X0131371Y0219858D02*
X0149813Y0219858D01*
X0149214Y0219260D02*
X0131969Y0219260D01*
X0132431Y0218661D02*
X0148753Y0218661D01*
X0148753Y0218063D02*
X0132431Y0218063D01*
X0132431Y0217464D02*
X0148753Y0217464D01*
X0148955Y0216866D02*
X0132229Y0216866D01*
X0131630Y0216267D02*
X0149553Y0216267D01*
D14*
X0143342Y0186433D02*
X0300842Y0186433D01*
X0300842Y0281433D01*
X0285842Y0296433D01*
X0055842Y0296433D01*
X0040842Y0281433D01*
X0040842Y0186433D01*
X0063342Y0186433D01*
X0108342Y0186433D01*
X0143342Y0186433D01*
X0148342Y0146433D02*
X0298342Y0146433D01*
X0300842Y0146433D02*
X0300842Y0051433D01*
X0285842Y0036433D01*
X0055842Y0036433D01*
X0040842Y0051433D01*
X0040842Y0146433D01*
X0148342Y0146433D01*
D15*
X0147079Y0152783D02*
X0136014Y0152783D01*
X0136481Y0153911D01*
X0136481Y0155955D01*
X0135698Y0157844D01*
X0134253Y0159290D01*
X0132364Y0160072D01*
X0130320Y0160072D01*
X0128431Y0159290D01*
X0126985Y0157844D01*
X0126203Y0155955D01*
X0126203Y0153911D01*
X0126670Y0152783D01*
X0102588Y0152783D01*
X0105302Y0156119D01*
X0107456Y0161078D01*
X0108192Y0166433D01*
X0107456Y0171789D01*
X0105302Y0176747D01*
X0102588Y0180083D01*
X0125114Y0180083D01*
X0125114Y0178911D01*
X0125896Y0177022D01*
X0127342Y0175576D01*
X0129231Y0174794D01*
X0129523Y0174794D01*
X0138542Y0165775D01*
X0138203Y0164955D01*
X0138203Y0162911D01*
X0138815Y0161433D01*
X0138203Y0159955D01*
X0138203Y0157911D01*
X0138985Y0156022D01*
X0140431Y0154576D01*
X0142320Y0153794D01*
X0144364Y0153794D01*
X0146253Y0154576D01*
X0147698Y0156022D01*
X0148221Y0157283D01*
X0175753Y0157283D01*
X0175203Y0155955D01*
X0175203Y0153911D01*
X0175670Y0152783D01*
X0147079Y0152783D01*
X0145842Y0152783D02*
X0145842Y0154406D01*
X0146609Y0154933D02*
X0175203Y0154933D01*
X0172842Y0152783D02*
X0172842Y0157283D01*
X0168342Y0157283D02*
X0168342Y0152783D01*
X0163842Y0152783D02*
X0163842Y0157283D01*
X0159342Y0157283D02*
X0159342Y0152783D01*
X0154842Y0152783D02*
X0154842Y0157283D01*
X0150342Y0157283D02*
X0150342Y0152783D01*
X0141342Y0152783D02*
X0141342Y0154199D01*
X0140074Y0154933D02*
X0136481Y0154933D01*
X0136842Y0152783D02*
X0136842Y0167475D01*
X0135884Y0168433D02*
X0130573Y0168433D01*
X0130597Y0168374D02*
X0129112Y0171959D01*
X0126368Y0174703D01*
X0122782Y0176189D01*
X0118901Y0176189D01*
X0115316Y0174703D01*
X0112571Y0171959D01*
X0111086Y0168374D01*
X0111086Y0164493D01*
X0112571Y0160907D01*
X0115316Y0158163D01*
X0118901Y0156678D01*
X0122782Y0156678D01*
X0126368Y0158163D01*
X0129112Y0160907D01*
X0130597Y0164493D01*
X0130597Y0168374D01*
X0132342Y0171975D02*
X0132342Y0160072D01*
X0133907Y0159433D02*
X0138203Y0159433D01*
X0138203Y0163933D02*
X0130366Y0163933D01*
X0128777Y0159433D02*
X0127638Y0159433D01*
X0127842Y0159637D02*
X0127842Y0158701D01*
X0126203Y0154933D02*
X0104337Y0154933D01*
X0105302Y0156119D02*
X0105302Y0156119D01*
X0105342Y0156211D02*
X0105342Y0152783D01*
X0109842Y0152783D02*
X0109842Y0180083D01*
X0114342Y0180083D02*
X0114342Y0173729D01*
X0113545Y0172933D02*
X0106959Y0172933D01*
X0107456Y0171789D02*
X0107456Y0171789D01*
X0107917Y0168433D02*
X0111111Y0168433D01*
X0111318Y0163933D02*
X0107848Y0163933D01*
X0107456Y0161078D02*
X0107456Y0161078D01*
X0106741Y0159433D02*
X0114045Y0159433D01*
X0114342Y0159137D02*
X0114342Y0152783D01*
X0118842Y0152783D02*
X0118842Y0156702D01*
X0123342Y0156909D02*
X0123342Y0152783D01*
X0123342Y0140083D02*
X0123342Y0135583D01*
X0127842Y0135583D02*
X0127842Y0140083D01*
X0132342Y0140083D02*
X0132342Y0135583D01*
X0136842Y0135583D02*
X0136842Y0140083D01*
X0141342Y0140083D02*
X0141342Y0135583D01*
X0145842Y0135583D02*
X0145842Y0140083D01*
X0150342Y0140083D02*
X0150342Y0135583D01*
X0154167Y0135583D02*
X0154420Y0135479D01*
X0154985Y0136844D01*
X0156431Y0138290D01*
X0158320Y0139072D01*
X0160364Y0139072D01*
X0162253Y0138290D01*
X0163698Y0136844D01*
X0164481Y0134955D01*
X0164481Y0132911D01*
X0163698Y0131022D01*
X0162253Y0129576D01*
X0160364Y0128794D01*
X0158320Y0128794D01*
X0157492Y0129137D01*
X0157492Y0124729D01*
X0158320Y0125072D01*
X0160364Y0125072D01*
X0162253Y0124290D01*
X0163698Y0122844D01*
X0164481Y0120955D01*
X0164481Y0118911D01*
X0163698Y0117022D01*
X0162253Y0115576D01*
X0160364Y0114794D01*
X0158320Y0114794D01*
X0157492Y0115137D01*
X0157492Y0050608D01*
X0156860Y0049082D01*
X0155693Y0047915D01*
X0154167Y0047283D01*
X0062516Y0047283D01*
X0060991Y0047915D01*
X0053491Y0055415D01*
X0052324Y0056582D01*
X0051692Y0058108D01*
X0051692Y0132259D01*
X0052324Y0133784D01*
X0053491Y0134951D01*
X0055016Y0135583D01*
X0154167Y0135583D01*
X0154842Y0136498D02*
X0154842Y0140083D01*
X0155074Y0136933D02*
X0047192Y0136933D01*
X0047192Y0140083D02*
X0166159Y0140083D01*
X0165695Y0138963D01*
X0165695Y0136919D01*
X0166477Y0135030D01*
X0167923Y0133584D01*
X0169812Y0132802D01*
X0171856Y0132802D01*
X0173745Y0133584D01*
X0175191Y0135030D01*
X0175973Y0136919D01*
X0175973Y0138052D01*
X0175985Y0138022D01*
X0177431Y0136576D01*
X0179320Y0135794D01*
X0181364Y0135794D01*
X0183253Y0136576D01*
X0184698Y0138022D01*
X0185481Y0139911D01*
X0185481Y0140083D01*
X0210203Y0140083D01*
X0210203Y0139911D01*
X0210985Y0138022D01*
X0212431Y0136576D01*
X0214320Y0135794D01*
X0216364Y0135794D01*
X0218253Y0136576D01*
X0219698Y0138022D01*
X0220481Y0139911D01*
X0220481Y0140083D01*
X0294492Y0140083D01*
X0294492Y0054063D01*
X0283212Y0042783D01*
X0058472Y0042783D01*
X0047192Y0054063D01*
X0047192Y0140083D01*
X0051342Y0140083D02*
X0051342Y0049913D01*
X0049822Y0051433D02*
X0057473Y0051433D01*
X0055842Y0053064D02*
X0055842Y0045413D01*
X0054322Y0046933D02*
X0287362Y0046933D01*
X0285342Y0044913D02*
X0285342Y0050064D01*
X0286711Y0051433D02*
X0291862Y0051433D01*
X0289842Y0049413D02*
X0289842Y0055245D01*
X0289992Y0055608D02*
X0289992Y0132259D01*
X0289360Y0133784D01*
X0288193Y0134951D01*
X0286667Y0135583D01*
X0187516Y0135583D01*
X0185991Y0134951D01*
X0184824Y0133784D01*
X0184192Y0132259D01*
X0184192Y0101312D01*
X0182931Y0100790D01*
X0181485Y0099344D01*
X0180703Y0097455D01*
X0180703Y0095411D01*
X0181485Y0093522D01*
X0182931Y0092076D01*
X0184192Y0091554D01*
X0184192Y0050608D01*
X0184824Y0049082D01*
X0185991Y0047915D01*
X0187516Y0047283D01*
X0189167Y0047283D01*
X0280016Y0047283D01*
X0281667Y0047283D01*
X0283193Y0047915D01*
X0288193Y0052915D01*
X0289360Y0054082D01*
X0289992Y0055608D01*
X0289992Y0055933D02*
X0294492Y0055933D01*
X0294342Y0053913D02*
X0294342Y0140083D01*
X0294492Y0136933D02*
X0218609Y0136933D01*
X0217842Y0136406D02*
X0217842Y0135583D01*
X0222342Y0135583D02*
X0222342Y0140083D01*
X0226842Y0140083D02*
X0226842Y0135583D01*
X0231342Y0135583D02*
X0231342Y0140083D01*
X0235842Y0140083D02*
X0235842Y0135583D01*
X0240342Y0135583D02*
X0240342Y0140083D01*
X0244842Y0140083D02*
X0244842Y0135583D01*
X0249342Y0135583D02*
X0249342Y0140083D01*
X0253842Y0140083D02*
X0253842Y0135583D01*
X0258342Y0135583D02*
X0258342Y0140083D01*
X0262842Y0140083D02*
X0262842Y0135583D01*
X0267342Y0135583D02*
X0267342Y0140083D01*
X0271842Y0140083D02*
X0271842Y0135583D01*
X0276342Y0135583D02*
X0276342Y0140083D01*
X0280842Y0140083D02*
X0280842Y0135583D01*
X0285342Y0135583D02*
X0285342Y0140083D01*
X0289842Y0140083D02*
X0289842Y0132621D01*
X0289920Y0132433D02*
X0294492Y0132433D01*
X0294492Y0127933D02*
X0289992Y0127933D01*
X0289992Y0123433D02*
X0294492Y0123433D01*
X0294492Y0118933D02*
X0289992Y0118933D01*
X0289992Y0114433D02*
X0294492Y0114433D01*
X0294492Y0109933D02*
X0289992Y0109933D01*
X0289992Y0105433D02*
X0294492Y0105433D01*
X0294492Y0100933D02*
X0289992Y0100933D01*
X0289992Y0096433D02*
X0294492Y0096433D01*
X0294492Y0091933D02*
X0289992Y0091933D01*
X0289992Y0087433D02*
X0294492Y0087433D01*
X0294492Y0082933D02*
X0289992Y0082933D01*
X0289992Y0078433D02*
X0294492Y0078433D01*
X0294492Y0073933D02*
X0289992Y0073933D01*
X0289992Y0069433D02*
X0294492Y0069433D01*
X0294492Y0064933D02*
X0289992Y0064933D01*
X0289992Y0060433D02*
X0294492Y0060433D01*
X0280842Y0047283D02*
X0280842Y0042783D01*
X0276342Y0042783D02*
X0276342Y0047283D01*
X0271842Y0047283D02*
X0271842Y0042783D01*
X0267342Y0042783D02*
X0267342Y0047283D01*
X0262842Y0047283D02*
X0262842Y0042783D01*
X0258342Y0042783D02*
X0258342Y0047283D01*
X0253842Y0047283D02*
X0253842Y0042783D01*
X0249342Y0042783D02*
X0249342Y0047283D01*
X0244842Y0047283D02*
X0244842Y0042783D01*
X0240342Y0042783D02*
X0240342Y0047283D01*
X0235842Y0047283D02*
X0235842Y0042783D01*
X0231342Y0042783D02*
X0231342Y0047283D01*
X0226842Y0047283D02*
X0226842Y0042783D01*
X0222342Y0042783D02*
X0222342Y0047283D01*
X0217842Y0047283D02*
X0217842Y0042783D01*
X0213342Y0042783D02*
X0213342Y0047283D01*
X0208842Y0047283D02*
X0208842Y0042783D01*
X0204342Y0042783D02*
X0204342Y0047283D01*
X0199842Y0047283D02*
X0199842Y0042783D01*
X0195342Y0042783D02*
X0195342Y0047283D01*
X0190842Y0047283D02*
X0190842Y0042783D01*
X0186342Y0042783D02*
X0186342Y0047770D01*
X0184192Y0051433D02*
X0157492Y0051433D01*
X0157492Y0055933D02*
X0184192Y0055933D01*
X0184192Y0060433D02*
X0157492Y0060433D01*
X0157492Y0064933D02*
X0184192Y0064933D01*
X0184192Y0069433D02*
X0157492Y0069433D01*
X0157492Y0073933D02*
X0184192Y0073933D01*
X0184192Y0078433D02*
X0157492Y0078433D01*
X0157492Y0082933D02*
X0184192Y0082933D01*
X0184192Y0087433D02*
X0157492Y0087433D01*
X0157492Y0091933D02*
X0163277Y0091933D01*
X0162931Y0092076D02*
X0164820Y0091294D01*
X0166864Y0091294D01*
X0168753Y0092076D01*
X0170198Y0093522D01*
X0170981Y0095411D01*
X0170981Y0097455D01*
X0170198Y0099344D01*
X0168753Y0100790D01*
X0166864Y0101572D01*
X0164820Y0101572D01*
X0162931Y0100790D01*
X0161485Y0099344D01*
X0160703Y0097455D01*
X0160703Y0095411D01*
X0161485Y0093522D01*
X0162931Y0092076D01*
X0163842Y0091699D02*
X0163842Y0042783D01*
X0159342Y0042783D02*
X0159342Y0114794D01*
X0157492Y0114433D02*
X0184192Y0114433D01*
X0184192Y0118933D02*
X0164481Y0118933D01*
X0163842Y0117368D02*
X0163842Y0101167D01*
X0163277Y0100933D02*
X0157492Y0100933D01*
X0157492Y0105433D02*
X0184192Y0105433D01*
X0184192Y0109933D02*
X0157492Y0109933D01*
X0157492Y0096433D02*
X0160703Y0096433D01*
X0168342Y0091906D02*
X0168342Y0042783D01*
X0172842Y0042783D02*
X0172842Y0133210D01*
X0168342Y0133411D02*
X0168342Y0100960D01*
X0168407Y0100933D02*
X0183277Y0100933D01*
X0181842Y0099701D02*
X0181842Y0135992D01*
X0183609Y0136933D02*
X0212074Y0136933D01*
X0213342Y0136199D02*
X0213342Y0135583D01*
X0208842Y0135583D02*
X0208842Y0140083D01*
X0204342Y0140083D02*
X0204342Y0135583D01*
X0199842Y0135583D02*
X0199842Y0140083D01*
X0195342Y0140083D02*
X0195342Y0135583D01*
X0190842Y0135583D02*
X0190842Y0140083D01*
X0186342Y0140083D02*
X0186342Y0135097D01*
X0184264Y0132433D02*
X0164283Y0132433D01*
X0163842Y0131368D02*
X0163842Y0122498D01*
X0163109Y0123433D02*
X0184192Y0123433D01*
X0184192Y0127933D02*
X0157492Y0127933D01*
X0159342Y0128794D02*
X0159342Y0125072D01*
X0163842Y0136498D02*
X0163842Y0140083D01*
X0163609Y0136933D02*
X0165695Y0136933D01*
X0159342Y0139072D02*
X0159342Y0140083D01*
X0175973Y0136933D02*
X0177074Y0136933D01*
X0177342Y0136665D02*
X0177342Y0042783D01*
X0181842Y0042783D02*
X0181842Y0093165D01*
X0183277Y0091933D02*
X0168407Y0091933D01*
X0170981Y0096433D02*
X0180703Y0096433D01*
X0154842Y0047562D02*
X0154842Y0042783D01*
X0150342Y0042783D02*
X0150342Y0047283D01*
X0145842Y0047283D02*
X0145842Y0042783D01*
X0141342Y0042783D02*
X0141342Y0047283D01*
X0136842Y0047283D02*
X0136842Y0042783D01*
X0132342Y0042783D02*
X0132342Y0047283D01*
X0127842Y0047283D02*
X0127842Y0042783D01*
X0123342Y0042783D02*
X0123342Y0047283D01*
X0118842Y0047283D02*
X0118842Y0042783D01*
X0114342Y0042783D02*
X0114342Y0047283D01*
X0109842Y0047283D02*
X0109842Y0042783D01*
X0105342Y0042783D02*
X0105342Y0047283D01*
X0100842Y0047283D02*
X0100842Y0042783D01*
X0096342Y0042783D02*
X0096342Y0047283D01*
X0091842Y0047283D02*
X0091842Y0042783D01*
X0087342Y0042783D02*
X0087342Y0047283D01*
X0082842Y0047283D02*
X0082842Y0042783D01*
X0078342Y0042783D02*
X0078342Y0047283D01*
X0073842Y0047283D02*
X0073842Y0042783D01*
X0069342Y0042783D02*
X0069342Y0047283D01*
X0064842Y0047283D02*
X0064842Y0042783D01*
X0060342Y0042783D02*
X0060342Y0048564D01*
X0052973Y0055933D02*
X0047192Y0055933D01*
X0047192Y0060433D02*
X0051692Y0060433D01*
X0051692Y0064933D02*
X0047192Y0064933D01*
X0047192Y0069433D02*
X0051692Y0069433D01*
X0051692Y0073933D02*
X0047192Y0073933D01*
X0047192Y0078433D02*
X0051692Y0078433D01*
X0051692Y0082933D02*
X0047192Y0082933D01*
X0047192Y0087433D02*
X0051692Y0087433D01*
X0051692Y0091933D02*
X0047192Y0091933D01*
X0047192Y0096433D02*
X0051692Y0096433D01*
X0051692Y0100933D02*
X0047192Y0100933D01*
X0047192Y0105433D02*
X0051692Y0105433D01*
X0051692Y0109933D02*
X0047192Y0109933D01*
X0047192Y0114433D02*
X0051692Y0114433D01*
X0051692Y0118933D02*
X0047192Y0118933D01*
X0047192Y0123433D02*
X0051692Y0123433D01*
X0051692Y0127933D02*
X0047192Y0127933D01*
X0047192Y0132433D02*
X0051764Y0132433D01*
X0055842Y0135583D02*
X0055842Y0140083D01*
X0060342Y0140083D02*
X0060342Y0135583D01*
X0064842Y0135583D02*
X0064842Y0140083D01*
X0069342Y0140083D02*
X0069342Y0135583D01*
X0073842Y0135583D02*
X0073842Y0140083D01*
X0078342Y0140083D02*
X0078342Y0135583D01*
X0082842Y0135583D02*
X0082842Y0140083D01*
X0087342Y0140083D02*
X0087342Y0135583D01*
X0091842Y0135583D02*
X0091842Y0140083D01*
X0096342Y0140083D02*
X0096342Y0135583D01*
X0100842Y0135583D02*
X0100842Y0140083D01*
X0105342Y0140083D02*
X0105342Y0135583D01*
X0109842Y0135583D02*
X0109842Y0140083D01*
X0114342Y0140083D02*
X0114342Y0135583D01*
X0118842Y0135583D02*
X0118842Y0140083D01*
X0128138Y0172933D02*
X0131384Y0172933D01*
X0127842Y0173229D02*
X0127842Y0175369D01*
X0125726Y0177433D02*
X0104744Y0177433D01*
X0105302Y0176747D02*
X0105302Y0176747D01*
X0105342Y0176655D02*
X0105342Y0180083D01*
X0105342Y0192783D02*
X0105342Y0197283D01*
X0100842Y0197283D02*
X0100842Y0192783D01*
X0096342Y0192783D02*
X0096342Y0197283D01*
X0091842Y0197283D02*
X0091842Y0192783D01*
X0087342Y0192783D02*
X0087342Y0197283D01*
X0082842Y0197283D02*
X0082842Y0192783D01*
X0078342Y0192783D02*
X0078342Y0197283D01*
X0073842Y0197283D02*
X0073842Y0192783D01*
X0069342Y0192783D02*
X0069342Y0197283D01*
X0064842Y0197283D02*
X0064842Y0192783D01*
X0060342Y0192783D02*
X0060342Y0197283D01*
X0055842Y0197283D02*
X0055842Y0192783D01*
X0051342Y0192783D02*
X0051342Y0282953D01*
X0049322Y0280933D02*
X0056973Y0280933D01*
X0055842Y0279802D02*
X0055842Y0287453D01*
X0053822Y0285433D02*
X0062154Y0285433D01*
X0062516Y0285583D02*
X0060991Y0284951D01*
X0052324Y0276284D01*
X0051692Y0274759D01*
X0051692Y0200608D01*
X0052324Y0199082D01*
X0053491Y0197915D01*
X0055016Y0197283D01*
X0154167Y0197283D01*
X0155693Y0197915D01*
X0156860Y0199082D01*
X0157492Y0200608D01*
X0157492Y0213137D01*
X0158320Y0212794D01*
X0158703Y0212794D01*
X0158703Y0210911D01*
X0159485Y0209022D01*
X0160931Y0207576D01*
X0162820Y0206794D01*
X0164864Y0206794D01*
X0166753Y0207576D01*
X0168198Y0209022D01*
X0168981Y0210911D01*
X0168981Y0212955D01*
X0168198Y0214844D01*
X0166753Y0216290D01*
X0164864Y0217072D01*
X0164481Y0217072D01*
X0164481Y0218955D01*
X0163698Y0220844D01*
X0162253Y0222290D01*
X0160364Y0223072D01*
X0158320Y0223072D01*
X0157492Y0222729D01*
X0157492Y0231242D01*
X0157981Y0232422D01*
X0157981Y0233794D01*
X0159364Y0233794D01*
X0161253Y0234576D01*
X0162698Y0236022D01*
X0163481Y0237911D01*
X0163481Y0239955D01*
X0162698Y0241844D01*
X0161253Y0243290D01*
X0159364Y0244072D01*
X0157492Y0244072D01*
X0157492Y0282259D01*
X0156860Y0283784D01*
X0155693Y0284951D01*
X0154167Y0285583D01*
X0062516Y0285583D01*
X0064842Y0285583D02*
X0064842Y0290083D01*
X0060342Y0290083D02*
X0060342Y0284302D01*
X0058322Y0289933D02*
X0283362Y0289933D01*
X0283212Y0290083D02*
X0294492Y0278803D01*
X0294492Y0192783D01*
X0183428Y0192783D01*
X0183481Y0192911D01*
X0183481Y0194955D01*
X0182698Y0196844D01*
X0181253Y0198290D01*
X0179364Y0199072D01*
X0177320Y0199072D01*
X0175842Y0198460D01*
X0174904Y0198848D01*
X0174698Y0199344D01*
X0173253Y0200790D01*
X0171364Y0201572D01*
X0169320Y0201572D01*
X0167431Y0200790D01*
X0167092Y0200451D01*
X0166253Y0201290D01*
X0164364Y0202072D01*
X0162320Y0202072D01*
X0160431Y0201290D01*
X0158985Y0199844D01*
X0158203Y0197955D01*
X0158203Y0195911D01*
X0158985Y0194022D01*
X0160224Y0192783D01*
X0142079Y0192783D01*
X0107079Y0192783D01*
X0047192Y0192783D01*
X0047192Y0278803D01*
X0058472Y0290083D01*
X0283212Y0290083D01*
X0280842Y0290083D02*
X0280842Y0284802D01*
X0280693Y0284951D02*
X0279167Y0285583D01*
X0187516Y0285583D01*
X0185991Y0284951D01*
X0184824Y0283784D01*
X0184192Y0282259D01*
X0184192Y0243051D01*
X0182985Y0241844D01*
X0182597Y0240907D01*
X0182209Y0241844D01*
X0180763Y0243290D01*
X0178874Y0244072D01*
X0176830Y0244072D01*
X0174941Y0243290D01*
X0173795Y0242143D01*
X0172648Y0243290D01*
X0170760Y0244072D01*
X0168715Y0244072D01*
X0166826Y0243290D01*
X0165381Y0241844D01*
X0164598Y0239955D01*
X0164598Y0237911D01*
X0165381Y0236022D01*
X0166826Y0234576D01*
X0168715Y0233794D01*
X0170760Y0233794D01*
X0172648Y0234576D01*
X0173795Y0235723D01*
X0174941Y0234576D01*
X0176830Y0233794D01*
X0178874Y0233794D01*
X0180763Y0234576D01*
X0182209Y0236022D01*
X0182597Y0236959D01*
X0182985Y0236022D01*
X0184192Y0234815D01*
X0184192Y0234646D01*
X0182320Y0234646D01*
X0180431Y0233863D01*
X0178985Y0232418D01*
X0178203Y0230529D01*
X0178203Y0228484D01*
X0178985Y0226596D01*
X0180431Y0225150D01*
X0182191Y0224421D01*
X0183431Y0223181D01*
X0184192Y0222866D01*
X0184192Y0200608D01*
X0184824Y0199082D01*
X0185991Y0197915D01*
X0187516Y0197283D01*
X0286667Y0197283D01*
X0288193Y0197915D01*
X0289360Y0199082D01*
X0289992Y0200608D01*
X0289992Y0274759D01*
X0289360Y0276284D01*
X0281860Y0283784D01*
X0280693Y0284951D01*
X0279529Y0285433D02*
X0287862Y0285433D01*
X0289842Y0283453D02*
X0289842Y0275121D01*
X0289211Y0276433D02*
X0294492Y0276433D01*
X0294342Y0278953D02*
X0294342Y0192783D01*
X0294492Y0195433D02*
X0183283Y0195433D01*
X0181842Y0197701D02*
X0181842Y0224565D01*
X0184192Y0222433D02*
X0161907Y0222433D01*
X0159342Y0223072D02*
X0159342Y0233794D01*
X0157571Y0231433D02*
X0178577Y0231433D01*
X0177342Y0233794D02*
X0177342Y0199072D01*
X0174109Y0199933D02*
X0184471Y0199933D01*
X0186342Y0197770D02*
X0186342Y0192783D01*
X0190842Y0192783D02*
X0190842Y0197283D01*
X0195342Y0197283D02*
X0195342Y0192783D01*
X0199842Y0192783D02*
X0199842Y0197283D01*
X0204342Y0197283D02*
X0204342Y0192783D01*
X0208842Y0192783D02*
X0208842Y0197283D01*
X0213342Y0197283D02*
X0213342Y0192783D01*
X0217842Y0192783D02*
X0217842Y0197283D01*
X0222342Y0197283D02*
X0222342Y0192783D01*
X0226842Y0192783D02*
X0226842Y0197283D01*
X0231342Y0197283D02*
X0231342Y0192783D01*
X0235842Y0192783D02*
X0235842Y0197283D01*
X0240342Y0197283D02*
X0240342Y0192783D01*
X0244842Y0192783D02*
X0244842Y0197283D01*
X0249342Y0197283D02*
X0249342Y0192783D01*
X0253842Y0192783D02*
X0253842Y0197283D01*
X0258342Y0197283D02*
X0258342Y0192783D01*
X0262842Y0192783D02*
X0262842Y0197283D01*
X0267342Y0197283D02*
X0267342Y0192783D01*
X0271842Y0192783D02*
X0271842Y0197283D01*
X0276342Y0197283D02*
X0276342Y0192783D01*
X0280842Y0192783D02*
X0280842Y0197283D01*
X0285342Y0197283D02*
X0285342Y0192783D01*
X0289842Y0192783D02*
X0289842Y0200245D01*
X0289712Y0199933D02*
X0294492Y0199933D01*
X0294492Y0204433D02*
X0289992Y0204433D01*
X0289992Y0208933D02*
X0294492Y0208933D01*
X0294492Y0213433D02*
X0289992Y0213433D01*
X0289992Y0217933D02*
X0294492Y0217933D01*
X0294492Y0222433D02*
X0289992Y0222433D01*
X0289992Y0226933D02*
X0294492Y0226933D01*
X0294492Y0231433D02*
X0289992Y0231433D01*
X0289992Y0235933D02*
X0294492Y0235933D01*
X0294492Y0240433D02*
X0289992Y0240433D01*
X0289992Y0244933D02*
X0294492Y0244933D01*
X0294492Y0249433D02*
X0289992Y0249433D01*
X0289992Y0253933D02*
X0294492Y0253933D01*
X0294492Y0258433D02*
X0289992Y0258433D01*
X0289992Y0262933D02*
X0294492Y0262933D01*
X0294492Y0267433D02*
X0289992Y0267433D01*
X0289992Y0271933D02*
X0294492Y0271933D01*
X0292362Y0280933D02*
X0284711Y0280933D01*
X0285342Y0280302D02*
X0285342Y0287953D01*
X0281860Y0283784D02*
X0281860Y0283784D01*
X0276342Y0285583D02*
X0276342Y0290083D01*
X0271842Y0290083D02*
X0271842Y0285583D01*
X0267342Y0285583D02*
X0267342Y0290083D01*
X0262842Y0290083D02*
X0262842Y0285583D01*
X0258342Y0285583D02*
X0258342Y0290083D01*
X0253842Y0290083D02*
X0253842Y0285583D01*
X0249342Y0285583D02*
X0249342Y0290083D01*
X0244842Y0290083D02*
X0244842Y0285583D01*
X0240342Y0285583D02*
X0240342Y0290083D01*
X0235842Y0290083D02*
X0235842Y0285583D01*
X0231342Y0285583D02*
X0231342Y0290083D01*
X0226842Y0290083D02*
X0226842Y0285583D01*
X0222342Y0285583D02*
X0222342Y0290083D01*
X0217842Y0290083D02*
X0217842Y0285583D01*
X0213342Y0285583D02*
X0213342Y0290083D01*
X0208842Y0290083D02*
X0208842Y0285583D01*
X0204342Y0285583D02*
X0204342Y0290083D01*
X0199842Y0290083D02*
X0199842Y0285583D01*
X0195342Y0285583D02*
X0195342Y0290083D01*
X0190842Y0290083D02*
X0190842Y0285583D01*
X0187154Y0285433D02*
X0154529Y0285433D01*
X0154842Y0285304D02*
X0154842Y0290083D01*
X0150342Y0290083D02*
X0150342Y0285583D01*
X0145842Y0285583D02*
X0145842Y0290083D01*
X0141342Y0290083D02*
X0141342Y0285583D01*
X0136842Y0285583D02*
X0136842Y0290083D01*
X0132342Y0290083D02*
X0132342Y0285583D01*
X0127842Y0285583D02*
X0127842Y0290083D01*
X0123342Y0290083D02*
X0123342Y0285583D01*
X0118842Y0285583D02*
X0118842Y0290083D01*
X0114342Y0290083D02*
X0114342Y0285583D01*
X0109842Y0285583D02*
X0109842Y0290083D01*
X0105342Y0290083D02*
X0105342Y0285583D01*
X0100842Y0285583D02*
X0100842Y0290083D01*
X0096342Y0290083D02*
X0096342Y0285583D01*
X0091842Y0285583D02*
X0091842Y0290083D01*
X0087342Y0290083D02*
X0087342Y0285583D01*
X0082842Y0285583D02*
X0082842Y0290083D01*
X0078342Y0290083D02*
X0078342Y0285583D01*
X0073842Y0285583D02*
X0073842Y0290083D01*
X0069342Y0290083D02*
X0069342Y0285583D01*
X0052473Y0276433D02*
X0047192Y0276433D01*
X0047192Y0271933D02*
X0051692Y0271933D01*
X0051692Y0267433D02*
X0047192Y0267433D01*
X0047192Y0262933D02*
X0051692Y0262933D01*
X0051692Y0258433D02*
X0047192Y0258433D01*
X0047192Y0253933D02*
X0051692Y0253933D01*
X0051692Y0249433D02*
X0047192Y0249433D01*
X0047192Y0244933D02*
X0051692Y0244933D01*
X0051692Y0240433D02*
X0047192Y0240433D01*
X0047192Y0235933D02*
X0051692Y0235933D01*
X0051692Y0231433D02*
X0047192Y0231433D01*
X0047192Y0226933D02*
X0051692Y0226933D01*
X0051692Y0222433D02*
X0047192Y0222433D01*
X0047192Y0217933D02*
X0051692Y0217933D01*
X0051692Y0213433D02*
X0047192Y0213433D01*
X0047192Y0208933D02*
X0051692Y0208933D01*
X0051692Y0204433D02*
X0047192Y0204433D01*
X0047192Y0199933D02*
X0051971Y0199933D01*
X0047192Y0195433D02*
X0158401Y0195433D01*
X0159342Y0193665D02*
X0159342Y0192783D01*
X0154842Y0192783D02*
X0154842Y0197562D01*
X0157212Y0199933D02*
X0159074Y0199933D01*
X0159342Y0200201D02*
X0159342Y0209368D01*
X0159574Y0208933D02*
X0157492Y0208933D01*
X0157492Y0204433D02*
X0184192Y0204433D01*
X0184192Y0208933D02*
X0168109Y0208933D01*
X0168342Y0209368D02*
X0168342Y0201167D01*
X0172842Y0200960D02*
X0172842Y0234770D01*
X0168342Y0233949D02*
X0168342Y0214498D01*
X0168783Y0213433D02*
X0184192Y0213433D01*
X0184192Y0217933D02*
X0164481Y0217933D01*
X0163842Y0220498D02*
X0163842Y0290083D01*
X0159342Y0290083D02*
X0159342Y0244072D01*
X0157492Y0244933D02*
X0184192Y0244933D01*
X0181842Y0242211D02*
X0181842Y0290083D01*
X0186342Y0290083D02*
X0186342Y0285097D01*
X0184192Y0280933D02*
X0157492Y0280933D01*
X0157492Y0276433D02*
X0184192Y0276433D01*
X0184192Y0271933D02*
X0157492Y0271933D01*
X0157492Y0267433D02*
X0184192Y0267433D01*
X0184192Y0262933D02*
X0157492Y0262933D01*
X0157492Y0258433D02*
X0184192Y0258433D01*
X0184192Y0253933D02*
X0157492Y0253933D01*
X0157492Y0249433D02*
X0184192Y0249433D01*
X0177342Y0244072D02*
X0177342Y0290083D01*
X0172842Y0290083D02*
X0172842Y0243096D01*
X0168342Y0243917D02*
X0168342Y0290083D01*
X0164796Y0240433D02*
X0163283Y0240433D01*
X0162609Y0235933D02*
X0165470Y0235933D01*
X0157492Y0226933D02*
X0178845Y0226933D01*
X0181842Y0234448D02*
X0181842Y0235655D01*
X0182120Y0235933D02*
X0183074Y0235933D01*
X0163842Y0206794D02*
X0163842Y0202072D01*
X0150342Y0197283D02*
X0150342Y0192783D01*
X0145842Y0192783D02*
X0145842Y0197283D01*
X0141342Y0197283D02*
X0141342Y0192783D01*
X0136842Y0192783D02*
X0136842Y0197283D01*
X0132342Y0197283D02*
X0132342Y0192783D01*
X0127842Y0192783D02*
X0127842Y0197283D01*
X0123342Y0197283D02*
X0123342Y0192783D01*
X0118842Y0192783D02*
X0118842Y0197283D01*
X0114342Y0197283D02*
X0114342Y0192783D01*
X0109842Y0192783D02*
X0109842Y0197283D01*
X0118842Y0180083D02*
X0118842Y0176164D01*
X0123342Y0175957D02*
X0123342Y0180083D01*
X0074146Y0180083D02*
X0072944Y0178960D01*
X0071062Y0175866D01*
X0070282Y0176189D01*
X0066401Y0176189D01*
X0062816Y0174703D01*
X0060071Y0171959D01*
X0058586Y0168374D01*
X0058586Y0164493D01*
X0060071Y0160907D01*
X0062816Y0158163D01*
X0066401Y0156678D01*
X0070282Y0156678D01*
X0071062Y0157001D01*
X0072944Y0153906D01*
X0074146Y0152783D01*
X0059014Y0152783D01*
X0059481Y0153911D01*
X0059481Y0155955D01*
X0058698Y0157844D01*
X0057253Y0159290D01*
X0055364Y0160072D01*
X0053320Y0160072D01*
X0051431Y0159290D01*
X0049985Y0157844D01*
X0049203Y0155955D01*
X0049203Y0153911D01*
X0049670Y0152783D01*
X0043342Y0152783D01*
X0043342Y0180083D01*
X0074146Y0180083D01*
X0073842Y0180083D02*
X0073842Y0179799D01*
X0072944Y0178960D02*
X0072944Y0178960D01*
X0072015Y0177433D02*
X0043342Y0177433D01*
X0046842Y0180083D02*
X0046842Y0152783D01*
X0049203Y0154933D02*
X0043342Y0154933D01*
X0043342Y0159433D02*
X0051777Y0159433D01*
X0051342Y0159201D02*
X0051342Y0180083D01*
X0055842Y0180083D02*
X0055842Y0159874D01*
X0056907Y0159433D02*
X0061545Y0159433D01*
X0060342Y0160637D02*
X0060342Y0152783D01*
X0059481Y0154933D02*
X0072319Y0154933D01*
X0072944Y0153906D02*
X0072944Y0153906D01*
X0072944Y0153906D01*
X0073842Y0153067D02*
X0073842Y0152783D01*
X0069342Y0152783D02*
X0069342Y0156678D01*
X0064842Y0157324D02*
X0064842Y0152783D01*
X0058818Y0163933D02*
X0043342Y0163933D01*
X0043342Y0168433D02*
X0058611Y0168433D01*
X0060342Y0172229D02*
X0060342Y0180083D01*
X0064842Y0180083D02*
X0064842Y0175543D01*
X0061045Y0172933D02*
X0043342Y0172933D01*
X0069342Y0176189D02*
X0069342Y0180083D01*
X0267588Y0180083D02*
X0270302Y0176747D01*
X0270302Y0176747D01*
X0272456Y0171789D01*
X0272456Y0171789D01*
X0273192Y0166433D01*
X0272456Y0161078D01*
X0272456Y0161078D01*
X0270302Y0156119D01*
X0267588Y0152783D01*
X0298342Y0152783D01*
X0298342Y0180083D01*
X0267588Y0180083D01*
X0269744Y0177433D02*
X0298342Y0177433D01*
X0294342Y0180083D02*
X0294342Y0152783D01*
X0298342Y0154933D02*
X0269337Y0154933D01*
X0270302Y0156119D02*
X0270302Y0156119D01*
X0271741Y0159433D02*
X0298342Y0159433D01*
X0298342Y0163933D02*
X0272848Y0163933D01*
X0272917Y0168433D02*
X0298342Y0168433D01*
X0298342Y0172933D02*
X0271959Y0172933D01*
X0271842Y0173202D02*
X0271842Y0180083D01*
X0276342Y0180083D02*
X0276342Y0152783D01*
X0271842Y0152783D02*
X0271842Y0159664D01*
X0280842Y0152783D02*
X0280842Y0180083D01*
X0285342Y0180083D02*
X0285342Y0152783D01*
X0289842Y0152783D02*
X0289842Y0180083D01*
M02*
