%
M48
M72
T01C0.0138
T02C0.0394
T03C0.0827
T04C0.1181
%
T01
X13334Y12893
X14134Y13693
X14834Y14643
X14334Y15893
X14334Y16393
X14334Y17393
X14334Y17893
X14334Y18643
X13025Y17993
X10534Y15493
X5434Y15493
X4734Y16893
X13034Y23543
X13034Y21793
X13334Y20393
X15084Y21793
X15934Y21793
X16384Y21193
X16334Y19693
X17034Y19643
X17334Y19393
X17834Y19393
X18034Y17593
X19834Y17143
X19834Y16643
X18034Y15493
X17534Y15493
X18034Y14093
X17083Y13794
X15934Y13393
X15934Y11993
X17734Y11893
X19834Y12893
X21534Y14093
X25034Y14093
X25034Y19693
X19834Y20393
X20434Y19693
X18634Y22754
X18334Y22951
X18734Y23893
X17785Y23893
X16974Y23893
X15834Y23893
X15284Y23344
X13134Y15493
X16584Y9643
X18584Y9643
X19084Y7093
X29234Y16893
T02
X21334Y16143
X22334Y16143
X22334Y17143
X21334Y17143
T03
X10334Y23643
X10334Y9643
X23834Y9643
X23834Y23643
T04
X8834Y16643
X6834Y16643
X12084Y16643
X25334Y16643
M30
