G75*
%MOIN*%
%OFA0B0*%
%FSLAX25Y25*%
%IPPOS*%
%LPD*%
%AMOC8*
5,1,8,0,0,1.08239X$1,22.5*
%
%ADD10C,0.00000*%
%ADD11R,0.04000X0.13000*%
%ADD12R,0.01890X0.05512*%
%ADD13R,0.01890X0.06004*%
%ADD14R,0.04724X0.10728*%
%ADD15R,0.03543X0.02756*%
%ADD16R,0.04331X0.07480*%
%ADD17R,0.10000X0.20000*%
%ADD18R,0.02756X0.03543*%
%ADD19R,0.06299X0.04331*%
%ADD20R,0.01772X0.01969*%
%ADD21R,0.01969X0.01772*%
%ADD22R,0.01200X0.02400*%
%ADD23R,0.02400X0.01200*%
%ADD24R,0.13600X0.13600*%
%ADD25R,0.03150X0.01181*%
%ADD26R,0.01181X0.03150*%
%ADD27R,0.10827X0.10827*%
%ADD28R,0.06299X0.05906*%
%ADD29C,0.01200*%
%ADD30C,0.00600*%
%ADD31C,0.02578*%
%ADD32C,0.05906*%
%ADD33C,0.00700*%
D10*
X0033342Y0048933D02*
X0033342Y0283933D01*
X0053342Y0303933D01*
X0058302Y0303894D01*
X0053342Y0303933D02*
X0288342Y0303933D01*
X0308342Y0283933D01*
X0308342Y0048933D01*
X0288342Y0028933D01*
X0053342Y0028933D01*
X0033342Y0048933D01*
X0099208Y0096433D02*
X0099210Y0096561D01*
X0099216Y0096689D01*
X0099226Y0096816D01*
X0099240Y0096944D01*
X0099257Y0097070D01*
X0099279Y0097196D01*
X0099305Y0097322D01*
X0099334Y0097446D01*
X0099367Y0097570D01*
X0099404Y0097692D01*
X0099445Y0097813D01*
X0099490Y0097933D01*
X0099538Y0098052D01*
X0099590Y0098169D01*
X0099646Y0098284D01*
X0099705Y0098398D01*
X0099767Y0098509D01*
X0099833Y0098619D01*
X0099902Y0098726D01*
X0099975Y0098832D01*
X0100051Y0098935D01*
X0100130Y0099035D01*
X0100212Y0099134D01*
X0100297Y0099229D01*
X0100385Y0099322D01*
X0100476Y0099412D01*
X0100569Y0099499D01*
X0100666Y0099584D01*
X0100764Y0099665D01*
X0100866Y0099743D01*
X0100969Y0099818D01*
X0101075Y0099890D01*
X0101183Y0099959D01*
X0101293Y0100024D01*
X0101406Y0100085D01*
X0101520Y0100144D01*
X0101635Y0100198D01*
X0101753Y0100249D01*
X0101871Y0100297D01*
X0101992Y0100340D01*
X0102113Y0100380D01*
X0102236Y0100416D01*
X0102360Y0100449D01*
X0102485Y0100477D01*
X0102610Y0100502D01*
X0102736Y0100522D01*
X0102863Y0100539D01*
X0102991Y0100552D01*
X0103118Y0100561D01*
X0103246Y0100566D01*
X0103374Y0100567D01*
X0103502Y0100564D01*
X0103630Y0100557D01*
X0103757Y0100546D01*
X0103884Y0100531D01*
X0104011Y0100513D01*
X0104137Y0100490D01*
X0104262Y0100463D01*
X0104386Y0100433D01*
X0104509Y0100399D01*
X0104632Y0100361D01*
X0104753Y0100319D01*
X0104872Y0100273D01*
X0104990Y0100224D01*
X0105107Y0100171D01*
X0105222Y0100115D01*
X0105335Y0100055D01*
X0105446Y0099992D01*
X0105555Y0099925D01*
X0105662Y0099855D01*
X0105767Y0099781D01*
X0105869Y0099705D01*
X0105969Y0099625D01*
X0106067Y0099542D01*
X0106162Y0099456D01*
X0106254Y0099367D01*
X0106343Y0099276D01*
X0106430Y0099182D01*
X0106513Y0099085D01*
X0106594Y0098985D01*
X0106671Y0098884D01*
X0106746Y0098779D01*
X0106817Y0098673D01*
X0106884Y0098564D01*
X0106949Y0098454D01*
X0107009Y0098341D01*
X0107067Y0098227D01*
X0107120Y0098111D01*
X0107170Y0097993D01*
X0107217Y0097874D01*
X0107260Y0097753D01*
X0107299Y0097631D01*
X0107334Y0097508D01*
X0107365Y0097384D01*
X0107393Y0097259D01*
X0107416Y0097133D01*
X0107436Y0097007D01*
X0107452Y0096880D01*
X0107464Y0096753D01*
X0107472Y0096625D01*
X0107476Y0096497D01*
X0107476Y0096369D01*
X0107472Y0096241D01*
X0107464Y0096113D01*
X0107452Y0095986D01*
X0107436Y0095859D01*
X0107416Y0095733D01*
X0107393Y0095607D01*
X0107365Y0095482D01*
X0107334Y0095358D01*
X0107299Y0095235D01*
X0107260Y0095113D01*
X0107217Y0094992D01*
X0107170Y0094873D01*
X0107120Y0094755D01*
X0107067Y0094639D01*
X0107009Y0094525D01*
X0106949Y0094412D01*
X0106884Y0094302D01*
X0106817Y0094193D01*
X0106746Y0094087D01*
X0106671Y0093982D01*
X0106594Y0093881D01*
X0106513Y0093781D01*
X0106430Y0093684D01*
X0106343Y0093590D01*
X0106254Y0093499D01*
X0106162Y0093410D01*
X0106067Y0093324D01*
X0105969Y0093241D01*
X0105869Y0093161D01*
X0105767Y0093085D01*
X0105662Y0093011D01*
X0105555Y0092941D01*
X0105446Y0092874D01*
X0105335Y0092811D01*
X0105222Y0092751D01*
X0105107Y0092695D01*
X0104990Y0092642D01*
X0104872Y0092593D01*
X0104753Y0092547D01*
X0104632Y0092505D01*
X0104509Y0092467D01*
X0104386Y0092433D01*
X0104262Y0092403D01*
X0104137Y0092376D01*
X0104011Y0092353D01*
X0103884Y0092335D01*
X0103757Y0092320D01*
X0103630Y0092309D01*
X0103502Y0092302D01*
X0103374Y0092299D01*
X0103246Y0092300D01*
X0103118Y0092305D01*
X0102991Y0092314D01*
X0102863Y0092327D01*
X0102736Y0092344D01*
X0102610Y0092364D01*
X0102485Y0092389D01*
X0102360Y0092417D01*
X0102236Y0092450D01*
X0102113Y0092486D01*
X0101992Y0092526D01*
X0101871Y0092569D01*
X0101753Y0092617D01*
X0101635Y0092668D01*
X0101520Y0092722D01*
X0101406Y0092781D01*
X0101293Y0092842D01*
X0101183Y0092907D01*
X0101075Y0092976D01*
X0100969Y0093048D01*
X0100866Y0093123D01*
X0100764Y0093201D01*
X0100666Y0093282D01*
X0100569Y0093367D01*
X0100476Y0093454D01*
X0100385Y0093544D01*
X0100297Y0093637D01*
X0100212Y0093732D01*
X0100130Y0093831D01*
X0100051Y0093931D01*
X0099975Y0094034D01*
X0099902Y0094140D01*
X0099833Y0094247D01*
X0099767Y0094357D01*
X0099705Y0094468D01*
X0099646Y0094582D01*
X0099590Y0094697D01*
X0099538Y0094814D01*
X0099490Y0094933D01*
X0099445Y0095053D01*
X0099404Y0095174D01*
X0099367Y0095296D01*
X0099334Y0095420D01*
X0099305Y0095544D01*
X0099279Y0095670D01*
X0099257Y0095796D01*
X0099240Y0095922D01*
X0099226Y0096050D01*
X0099216Y0096177D01*
X0099210Y0096305D01*
X0099208Y0096433D01*
X0082436Y0166433D02*
X0082438Y0166586D01*
X0082444Y0166740D01*
X0082454Y0166893D01*
X0082468Y0167045D01*
X0082486Y0167198D01*
X0082508Y0167349D01*
X0082533Y0167500D01*
X0082563Y0167651D01*
X0082597Y0167801D01*
X0082634Y0167949D01*
X0082675Y0168097D01*
X0082720Y0168243D01*
X0082769Y0168389D01*
X0082822Y0168533D01*
X0082878Y0168675D01*
X0082938Y0168816D01*
X0083002Y0168956D01*
X0083069Y0169094D01*
X0083140Y0169230D01*
X0083215Y0169364D01*
X0083292Y0169496D01*
X0083374Y0169626D01*
X0083458Y0169754D01*
X0083546Y0169880D01*
X0083637Y0170003D01*
X0083731Y0170124D01*
X0083829Y0170242D01*
X0083929Y0170358D01*
X0084033Y0170471D01*
X0084139Y0170582D01*
X0084248Y0170690D01*
X0084360Y0170795D01*
X0084474Y0170896D01*
X0084592Y0170995D01*
X0084711Y0171091D01*
X0084833Y0171184D01*
X0084958Y0171273D01*
X0085085Y0171360D01*
X0085214Y0171442D01*
X0085345Y0171522D01*
X0085478Y0171598D01*
X0085613Y0171671D01*
X0085750Y0171740D01*
X0085889Y0171805D01*
X0086029Y0171867D01*
X0086171Y0171925D01*
X0086314Y0171980D01*
X0086459Y0172031D01*
X0086605Y0172078D01*
X0086752Y0172121D01*
X0086900Y0172160D01*
X0087049Y0172196D01*
X0087199Y0172227D01*
X0087350Y0172255D01*
X0087501Y0172279D01*
X0087654Y0172299D01*
X0087806Y0172315D01*
X0087959Y0172327D01*
X0088112Y0172335D01*
X0088265Y0172339D01*
X0088419Y0172339D01*
X0088572Y0172335D01*
X0088725Y0172327D01*
X0088878Y0172315D01*
X0089030Y0172299D01*
X0089183Y0172279D01*
X0089334Y0172255D01*
X0089485Y0172227D01*
X0089635Y0172196D01*
X0089784Y0172160D01*
X0089932Y0172121D01*
X0090079Y0172078D01*
X0090225Y0172031D01*
X0090370Y0171980D01*
X0090513Y0171925D01*
X0090655Y0171867D01*
X0090795Y0171805D01*
X0090934Y0171740D01*
X0091071Y0171671D01*
X0091206Y0171598D01*
X0091339Y0171522D01*
X0091470Y0171442D01*
X0091599Y0171360D01*
X0091726Y0171273D01*
X0091851Y0171184D01*
X0091973Y0171091D01*
X0092092Y0170995D01*
X0092210Y0170896D01*
X0092324Y0170795D01*
X0092436Y0170690D01*
X0092545Y0170582D01*
X0092651Y0170471D01*
X0092755Y0170358D01*
X0092855Y0170242D01*
X0092953Y0170124D01*
X0093047Y0170003D01*
X0093138Y0169880D01*
X0093226Y0169754D01*
X0093310Y0169626D01*
X0093392Y0169496D01*
X0093469Y0169364D01*
X0093544Y0169230D01*
X0093615Y0169094D01*
X0093682Y0168956D01*
X0093746Y0168816D01*
X0093806Y0168675D01*
X0093862Y0168533D01*
X0093915Y0168389D01*
X0093964Y0168243D01*
X0094009Y0168097D01*
X0094050Y0167949D01*
X0094087Y0167801D01*
X0094121Y0167651D01*
X0094151Y0167500D01*
X0094176Y0167349D01*
X0094198Y0167198D01*
X0094216Y0167045D01*
X0094230Y0166893D01*
X0094240Y0166740D01*
X0094246Y0166586D01*
X0094248Y0166433D01*
X0094246Y0166280D01*
X0094240Y0166126D01*
X0094230Y0165973D01*
X0094216Y0165821D01*
X0094198Y0165668D01*
X0094176Y0165517D01*
X0094151Y0165366D01*
X0094121Y0165215D01*
X0094087Y0165065D01*
X0094050Y0164917D01*
X0094009Y0164769D01*
X0093964Y0164623D01*
X0093915Y0164477D01*
X0093862Y0164333D01*
X0093806Y0164191D01*
X0093746Y0164050D01*
X0093682Y0163910D01*
X0093615Y0163772D01*
X0093544Y0163636D01*
X0093469Y0163502D01*
X0093392Y0163370D01*
X0093310Y0163240D01*
X0093226Y0163112D01*
X0093138Y0162986D01*
X0093047Y0162863D01*
X0092953Y0162742D01*
X0092855Y0162624D01*
X0092755Y0162508D01*
X0092651Y0162395D01*
X0092545Y0162284D01*
X0092436Y0162176D01*
X0092324Y0162071D01*
X0092210Y0161970D01*
X0092092Y0161871D01*
X0091973Y0161775D01*
X0091851Y0161682D01*
X0091726Y0161593D01*
X0091599Y0161506D01*
X0091470Y0161424D01*
X0091339Y0161344D01*
X0091206Y0161268D01*
X0091071Y0161195D01*
X0090934Y0161126D01*
X0090795Y0161061D01*
X0090655Y0160999D01*
X0090513Y0160941D01*
X0090370Y0160886D01*
X0090225Y0160835D01*
X0090079Y0160788D01*
X0089932Y0160745D01*
X0089784Y0160706D01*
X0089635Y0160670D01*
X0089485Y0160639D01*
X0089334Y0160611D01*
X0089183Y0160587D01*
X0089030Y0160567D01*
X0088878Y0160551D01*
X0088725Y0160539D01*
X0088572Y0160531D01*
X0088419Y0160527D01*
X0088265Y0160527D01*
X0088112Y0160531D01*
X0087959Y0160539D01*
X0087806Y0160551D01*
X0087654Y0160567D01*
X0087501Y0160587D01*
X0087350Y0160611D01*
X0087199Y0160639D01*
X0087049Y0160670D01*
X0086900Y0160706D01*
X0086752Y0160745D01*
X0086605Y0160788D01*
X0086459Y0160835D01*
X0086314Y0160886D01*
X0086171Y0160941D01*
X0086029Y0160999D01*
X0085889Y0161061D01*
X0085750Y0161126D01*
X0085613Y0161195D01*
X0085478Y0161268D01*
X0085345Y0161344D01*
X0085214Y0161424D01*
X0085085Y0161506D01*
X0084958Y0161593D01*
X0084833Y0161682D01*
X0084711Y0161775D01*
X0084592Y0161871D01*
X0084474Y0161970D01*
X0084360Y0162071D01*
X0084248Y0162176D01*
X0084139Y0162284D01*
X0084033Y0162395D01*
X0083929Y0162508D01*
X0083829Y0162624D01*
X0083731Y0162742D01*
X0083637Y0162863D01*
X0083546Y0162986D01*
X0083458Y0163112D01*
X0083374Y0163240D01*
X0083292Y0163370D01*
X0083215Y0163502D01*
X0083140Y0163636D01*
X0083069Y0163772D01*
X0083002Y0163910D01*
X0082938Y0164050D01*
X0082878Y0164191D01*
X0082822Y0164333D01*
X0082769Y0164477D01*
X0082720Y0164623D01*
X0082675Y0164769D01*
X0082634Y0164917D01*
X0082597Y0165065D01*
X0082563Y0165215D01*
X0082533Y0165366D01*
X0082508Y0165517D01*
X0082486Y0165668D01*
X0082468Y0165821D01*
X0082454Y0165973D01*
X0082444Y0166126D01*
X0082438Y0166280D01*
X0082436Y0166433D01*
X0062436Y0166433D02*
X0062438Y0166586D01*
X0062444Y0166740D01*
X0062454Y0166893D01*
X0062468Y0167045D01*
X0062486Y0167198D01*
X0062508Y0167349D01*
X0062533Y0167500D01*
X0062563Y0167651D01*
X0062597Y0167801D01*
X0062634Y0167949D01*
X0062675Y0168097D01*
X0062720Y0168243D01*
X0062769Y0168389D01*
X0062822Y0168533D01*
X0062878Y0168675D01*
X0062938Y0168816D01*
X0063002Y0168956D01*
X0063069Y0169094D01*
X0063140Y0169230D01*
X0063215Y0169364D01*
X0063292Y0169496D01*
X0063374Y0169626D01*
X0063458Y0169754D01*
X0063546Y0169880D01*
X0063637Y0170003D01*
X0063731Y0170124D01*
X0063829Y0170242D01*
X0063929Y0170358D01*
X0064033Y0170471D01*
X0064139Y0170582D01*
X0064248Y0170690D01*
X0064360Y0170795D01*
X0064474Y0170896D01*
X0064592Y0170995D01*
X0064711Y0171091D01*
X0064833Y0171184D01*
X0064958Y0171273D01*
X0065085Y0171360D01*
X0065214Y0171442D01*
X0065345Y0171522D01*
X0065478Y0171598D01*
X0065613Y0171671D01*
X0065750Y0171740D01*
X0065889Y0171805D01*
X0066029Y0171867D01*
X0066171Y0171925D01*
X0066314Y0171980D01*
X0066459Y0172031D01*
X0066605Y0172078D01*
X0066752Y0172121D01*
X0066900Y0172160D01*
X0067049Y0172196D01*
X0067199Y0172227D01*
X0067350Y0172255D01*
X0067501Y0172279D01*
X0067654Y0172299D01*
X0067806Y0172315D01*
X0067959Y0172327D01*
X0068112Y0172335D01*
X0068265Y0172339D01*
X0068419Y0172339D01*
X0068572Y0172335D01*
X0068725Y0172327D01*
X0068878Y0172315D01*
X0069030Y0172299D01*
X0069183Y0172279D01*
X0069334Y0172255D01*
X0069485Y0172227D01*
X0069635Y0172196D01*
X0069784Y0172160D01*
X0069932Y0172121D01*
X0070079Y0172078D01*
X0070225Y0172031D01*
X0070370Y0171980D01*
X0070513Y0171925D01*
X0070655Y0171867D01*
X0070795Y0171805D01*
X0070934Y0171740D01*
X0071071Y0171671D01*
X0071206Y0171598D01*
X0071339Y0171522D01*
X0071470Y0171442D01*
X0071599Y0171360D01*
X0071726Y0171273D01*
X0071851Y0171184D01*
X0071973Y0171091D01*
X0072092Y0170995D01*
X0072210Y0170896D01*
X0072324Y0170795D01*
X0072436Y0170690D01*
X0072545Y0170582D01*
X0072651Y0170471D01*
X0072755Y0170358D01*
X0072855Y0170242D01*
X0072953Y0170124D01*
X0073047Y0170003D01*
X0073138Y0169880D01*
X0073226Y0169754D01*
X0073310Y0169626D01*
X0073392Y0169496D01*
X0073469Y0169364D01*
X0073544Y0169230D01*
X0073615Y0169094D01*
X0073682Y0168956D01*
X0073746Y0168816D01*
X0073806Y0168675D01*
X0073862Y0168533D01*
X0073915Y0168389D01*
X0073964Y0168243D01*
X0074009Y0168097D01*
X0074050Y0167949D01*
X0074087Y0167801D01*
X0074121Y0167651D01*
X0074151Y0167500D01*
X0074176Y0167349D01*
X0074198Y0167198D01*
X0074216Y0167045D01*
X0074230Y0166893D01*
X0074240Y0166740D01*
X0074246Y0166586D01*
X0074248Y0166433D01*
X0074246Y0166280D01*
X0074240Y0166126D01*
X0074230Y0165973D01*
X0074216Y0165821D01*
X0074198Y0165668D01*
X0074176Y0165517D01*
X0074151Y0165366D01*
X0074121Y0165215D01*
X0074087Y0165065D01*
X0074050Y0164917D01*
X0074009Y0164769D01*
X0073964Y0164623D01*
X0073915Y0164477D01*
X0073862Y0164333D01*
X0073806Y0164191D01*
X0073746Y0164050D01*
X0073682Y0163910D01*
X0073615Y0163772D01*
X0073544Y0163636D01*
X0073469Y0163502D01*
X0073392Y0163370D01*
X0073310Y0163240D01*
X0073226Y0163112D01*
X0073138Y0162986D01*
X0073047Y0162863D01*
X0072953Y0162742D01*
X0072855Y0162624D01*
X0072755Y0162508D01*
X0072651Y0162395D01*
X0072545Y0162284D01*
X0072436Y0162176D01*
X0072324Y0162071D01*
X0072210Y0161970D01*
X0072092Y0161871D01*
X0071973Y0161775D01*
X0071851Y0161682D01*
X0071726Y0161593D01*
X0071599Y0161506D01*
X0071470Y0161424D01*
X0071339Y0161344D01*
X0071206Y0161268D01*
X0071071Y0161195D01*
X0070934Y0161126D01*
X0070795Y0161061D01*
X0070655Y0160999D01*
X0070513Y0160941D01*
X0070370Y0160886D01*
X0070225Y0160835D01*
X0070079Y0160788D01*
X0069932Y0160745D01*
X0069784Y0160706D01*
X0069635Y0160670D01*
X0069485Y0160639D01*
X0069334Y0160611D01*
X0069183Y0160587D01*
X0069030Y0160567D01*
X0068878Y0160551D01*
X0068725Y0160539D01*
X0068572Y0160531D01*
X0068419Y0160527D01*
X0068265Y0160527D01*
X0068112Y0160531D01*
X0067959Y0160539D01*
X0067806Y0160551D01*
X0067654Y0160567D01*
X0067501Y0160587D01*
X0067350Y0160611D01*
X0067199Y0160639D01*
X0067049Y0160670D01*
X0066900Y0160706D01*
X0066752Y0160745D01*
X0066605Y0160788D01*
X0066459Y0160835D01*
X0066314Y0160886D01*
X0066171Y0160941D01*
X0066029Y0160999D01*
X0065889Y0161061D01*
X0065750Y0161126D01*
X0065613Y0161195D01*
X0065478Y0161268D01*
X0065345Y0161344D01*
X0065214Y0161424D01*
X0065085Y0161506D01*
X0064958Y0161593D01*
X0064833Y0161682D01*
X0064711Y0161775D01*
X0064592Y0161871D01*
X0064474Y0161970D01*
X0064360Y0162071D01*
X0064248Y0162176D01*
X0064139Y0162284D01*
X0064033Y0162395D01*
X0063929Y0162508D01*
X0063829Y0162624D01*
X0063731Y0162742D01*
X0063637Y0162863D01*
X0063546Y0162986D01*
X0063458Y0163112D01*
X0063374Y0163240D01*
X0063292Y0163370D01*
X0063215Y0163502D01*
X0063140Y0163636D01*
X0063069Y0163772D01*
X0063002Y0163910D01*
X0062938Y0164050D01*
X0062878Y0164191D01*
X0062822Y0164333D01*
X0062769Y0164477D01*
X0062720Y0164623D01*
X0062675Y0164769D01*
X0062634Y0164917D01*
X0062597Y0165065D01*
X0062563Y0165215D01*
X0062533Y0165366D01*
X0062508Y0165517D01*
X0062486Y0165668D01*
X0062468Y0165821D01*
X0062454Y0165973D01*
X0062444Y0166126D01*
X0062438Y0166280D01*
X0062436Y0166433D01*
X0114936Y0166433D02*
X0114938Y0166586D01*
X0114944Y0166740D01*
X0114954Y0166893D01*
X0114968Y0167045D01*
X0114986Y0167198D01*
X0115008Y0167349D01*
X0115033Y0167500D01*
X0115063Y0167651D01*
X0115097Y0167801D01*
X0115134Y0167949D01*
X0115175Y0168097D01*
X0115220Y0168243D01*
X0115269Y0168389D01*
X0115322Y0168533D01*
X0115378Y0168675D01*
X0115438Y0168816D01*
X0115502Y0168956D01*
X0115569Y0169094D01*
X0115640Y0169230D01*
X0115715Y0169364D01*
X0115792Y0169496D01*
X0115874Y0169626D01*
X0115958Y0169754D01*
X0116046Y0169880D01*
X0116137Y0170003D01*
X0116231Y0170124D01*
X0116329Y0170242D01*
X0116429Y0170358D01*
X0116533Y0170471D01*
X0116639Y0170582D01*
X0116748Y0170690D01*
X0116860Y0170795D01*
X0116974Y0170896D01*
X0117092Y0170995D01*
X0117211Y0171091D01*
X0117333Y0171184D01*
X0117458Y0171273D01*
X0117585Y0171360D01*
X0117714Y0171442D01*
X0117845Y0171522D01*
X0117978Y0171598D01*
X0118113Y0171671D01*
X0118250Y0171740D01*
X0118389Y0171805D01*
X0118529Y0171867D01*
X0118671Y0171925D01*
X0118814Y0171980D01*
X0118959Y0172031D01*
X0119105Y0172078D01*
X0119252Y0172121D01*
X0119400Y0172160D01*
X0119549Y0172196D01*
X0119699Y0172227D01*
X0119850Y0172255D01*
X0120001Y0172279D01*
X0120154Y0172299D01*
X0120306Y0172315D01*
X0120459Y0172327D01*
X0120612Y0172335D01*
X0120765Y0172339D01*
X0120919Y0172339D01*
X0121072Y0172335D01*
X0121225Y0172327D01*
X0121378Y0172315D01*
X0121530Y0172299D01*
X0121683Y0172279D01*
X0121834Y0172255D01*
X0121985Y0172227D01*
X0122135Y0172196D01*
X0122284Y0172160D01*
X0122432Y0172121D01*
X0122579Y0172078D01*
X0122725Y0172031D01*
X0122870Y0171980D01*
X0123013Y0171925D01*
X0123155Y0171867D01*
X0123295Y0171805D01*
X0123434Y0171740D01*
X0123571Y0171671D01*
X0123706Y0171598D01*
X0123839Y0171522D01*
X0123970Y0171442D01*
X0124099Y0171360D01*
X0124226Y0171273D01*
X0124351Y0171184D01*
X0124473Y0171091D01*
X0124592Y0170995D01*
X0124710Y0170896D01*
X0124824Y0170795D01*
X0124936Y0170690D01*
X0125045Y0170582D01*
X0125151Y0170471D01*
X0125255Y0170358D01*
X0125355Y0170242D01*
X0125453Y0170124D01*
X0125547Y0170003D01*
X0125638Y0169880D01*
X0125726Y0169754D01*
X0125810Y0169626D01*
X0125892Y0169496D01*
X0125969Y0169364D01*
X0126044Y0169230D01*
X0126115Y0169094D01*
X0126182Y0168956D01*
X0126246Y0168816D01*
X0126306Y0168675D01*
X0126362Y0168533D01*
X0126415Y0168389D01*
X0126464Y0168243D01*
X0126509Y0168097D01*
X0126550Y0167949D01*
X0126587Y0167801D01*
X0126621Y0167651D01*
X0126651Y0167500D01*
X0126676Y0167349D01*
X0126698Y0167198D01*
X0126716Y0167045D01*
X0126730Y0166893D01*
X0126740Y0166740D01*
X0126746Y0166586D01*
X0126748Y0166433D01*
X0126746Y0166280D01*
X0126740Y0166126D01*
X0126730Y0165973D01*
X0126716Y0165821D01*
X0126698Y0165668D01*
X0126676Y0165517D01*
X0126651Y0165366D01*
X0126621Y0165215D01*
X0126587Y0165065D01*
X0126550Y0164917D01*
X0126509Y0164769D01*
X0126464Y0164623D01*
X0126415Y0164477D01*
X0126362Y0164333D01*
X0126306Y0164191D01*
X0126246Y0164050D01*
X0126182Y0163910D01*
X0126115Y0163772D01*
X0126044Y0163636D01*
X0125969Y0163502D01*
X0125892Y0163370D01*
X0125810Y0163240D01*
X0125726Y0163112D01*
X0125638Y0162986D01*
X0125547Y0162863D01*
X0125453Y0162742D01*
X0125355Y0162624D01*
X0125255Y0162508D01*
X0125151Y0162395D01*
X0125045Y0162284D01*
X0124936Y0162176D01*
X0124824Y0162071D01*
X0124710Y0161970D01*
X0124592Y0161871D01*
X0124473Y0161775D01*
X0124351Y0161682D01*
X0124226Y0161593D01*
X0124099Y0161506D01*
X0123970Y0161424D01*
X0123839Y0161344D01*
X0123706Y0161268D01*
X0123571Y0161195D01*
X0123434Y0161126D01*
X0123295Y0161061D01*
X0123155Y0160999D01*
X0123013Y0160941D01*
X0122870Y0160886D01*
X0122725Y0160835D01*
X0122579Y0160788D01*
X0122432Y0160745D01*
X0122284Y0160706D01*
X0122135Y0160670D01*
X0121985Y0160639D01*
X0121834Y0160611D01*
X0121683Y0160587D01*
X0121530Y0160567D01*
X0121378Y0160551D01*
X0121225Y0160539D01*
X0121072Y0160531D01*
X0120919Y0160527D01*
X0120765Y0160527D01*
X0120612Y0160531D01*
X0120459Y0160539D01*
X0120306Y0160551D01*
X0120154Y0160567D01*
X0120001Y0160587D01*
X0119850Y0160611D01*
X0119699Y0160639D01*
X0119549Y0160670D01*
X0119400Y0160706D01*
X0119252Y0160745D01*
X0119105Y0160788D01*
X0118959Y0160835D01*
X0118814Y0160886D01*
X0118671Y0160941D01*
X0118529Y0160999D01*
X0118389Y0161061D01*
X0118250Y0161126D01*
X0118113Y0161195D01*
X0117978Y0161268D01*
X0117845Y0161344D01*
X0117714Y0161424D01*
X0117585Y0161506D01*
X0117458Y0161593D01*
X0117333Y0161682D01*
X0117211Y0161775D01*
X0117092Y0161871D01*
X0116974Y0161970D01*
X0116860Y0162071D01*
X0116748Y0162176D01*
X0116639Y0162284D01*
X0116533Y0162395D01*
X0116429Y0162508D01*
X0116329Y0162624D01*
X0116231Y0162742D01*
X0116137Y0162863D01*
X0116046Y0162986D01*
X0115958Y0163112D01*
X0115874Y0163240D01*
X0115792Y0163370D01*
X0115715Y0163502D01*
X0115640Y0163636D01*
X0115569Y0163772D01*
X0115502Y0163910D01*
X0115438Y0164050D01*
X0115378Y0164191D01*
X0115322Y0164333D01*
X0115269Y0164477D01*
X0115220Y0164623D01*
X0115175Y0164769D01*
X0115134Y0164917D01*
X0115097Y0165065D01*
X0115063Y0165215D01*
X0115033Y0165366D01*
X0115008Y0165517D01*
X0114986Y0165668D01*
X0114968Y0165821D01*
X0114954Y0165973D01*
X0114944Y0166126D01*
X0114938Y0166280D01*
X0114936Y0166433D01*
X0099208Y0236433D02*
X0099210Y0236561D01*
X0099216Y0236689D01*
X0099226Y0236816D01*
X0099240Y0236944D01*
X0099257Y0237070D01*
X0099279Y0237196D01*
X0099305Y0237322D01*
X0099334Y0237446D01*
X0099367Y0237570D01*
X0099404Y0237692D01*
X0099445Y0237813D01*
X0099490Y0237933D01*
X0099538Y0238052D01*
X0099590Y0238169D01*
X0099646Y0238284D01*
X0099705Y0238398D01*
X0099767Y0238509D01*
X0099833Y0238619D01*
X0099902Y0238726D01*
X0099975Y0238832D01*
X0100051Y0238935D01*
X0100130Y0239035D01*
X0100212Y0239134D01*
X0100297Y0239229D01*
X0100385Y0239322D01*
X0100476Y0239412D01*
X0100569Y0239499D01*
X0100666Y0239584D01*
X0100764Y0239665D01*
X0100866Y0239743D01*
X0100969Y0239818D01*
X0101075Y0239890D01*
X0101183Y0239959D01*
X0101293Y0240024D01*
X0101406Y0240085D01*
X0101520Y0240144D01*
X0101635Y0240198D01*
X0101753Y0240249D01*
X0101871Y0240297D01*
X0101992Y0240340D01*
X0102113Y0240380D01*
X0102236Y0240416D01*
X0102360Y0240449D01*
X0102485Y0240477D01*
X0102610Y0240502D01*
X0102736Y0240522D01*
X0102863Y0240539D01*
X0102991Y0240552D01*
X0103118Y0240561D01*
X0103246Y0240566D01*
X0103374Y0240567D01*
X0103502Y0240564D01*
X0103630Y0240557D01*
X0103757Y0240546D01*
X0103884Y0240531D01*
X0104011Y0240513D01*
X0104137Y0240490D01*
X0104262Y0240463D01*
X0104386Y0240433D01*
X0104509Y0240399D01*
X0104632Y0240361D01*
X0104753Y0240319D01*
X0104872Y0240273D01*
X0104990Y0240224D01*
X0105107Y0240171D01*
X0105222Y0240115D01*
X0105335Y0240055D01*
X0105446Y0239992D01*
X0105555Y0239925D01*
X0105662Y0239855D01*
X0105767Y0239781D01*
X0105869Y0239705D01*
X0105969Y0239625D01*
X0106067Y0239542D01*
X0106162Y0239456D01*
X0106254Y0239367D01*
X0106343Y0239276D01*
X0106430Y0239182D01*
X0106513Y0239085D01*
X0106594Y0238985D01*
X0106671Y0238884D01*
X0106746Y0238779D01*
X0106817Y0238673D01*
X0106884Y0238564D01*
X0106949Y0238454D01*
X0107009Y0238341D01*
X0107067Y0238227D01*
X0107120Y0238111D01*
X0107170Y0237993D01*
X0107217Y0237874D01*
X0107260Y0237753D01*
X0107299Y0237631D01*
X0107334Y0237508D01*
X0107365Y0237384D01*
X0107393Y0237259D01*
X0107416Y0237133D01*
X0107436Y0237007D01*
X0107452Y0236880D01*
X0107464Y0236753D01*
X0107472Y0236625D01*
X0107476Y0236497D01*
X0107476Y0236369D01*
X0107472Y0236241D01*
X0107464Y0236113D01*
X0107452Y0235986D01*
X0107436Y0235859D01*
X0107416Y0235733D01*
X0107393Y0235607D01*
X0107365Y0235482D01*
X0107334Y0235358D01*
X0107299Y0235235D01*
X0107260Y0235113D01*
X0107217Y0234992D01*
X0107170Y0234873D01*
X0107120Y0234755D01*
X0107067Y0234639D01*
X0107009Y0234525D01*
X0106949Y0234412D01*
X0106884Y0234302D01*
X0106817Y0234193D01*
X0106746Y0234087D01*
X0106671Y0233982D01*
X0106594Y0233881D01*
X0106513Y0233781D01*
X0106430Y0233684D01*
X0106343Y0233590D01*
X0106254Y0233499D01*
X0106162Y0233410D01*
X0106067Y0233324D01*
X0105969Y0233241D01*
X0105869Y0233161D01*
X0105767Y0233085D01*
X0105662Y0233011D01*
X0105555Y0232941D01*
X0105446Y0232874D01*
X0105335Y0232811D01*
X0105222Y0232751D01*
X0105107Y0232695D01*
X0104990Y0232642D01*
X0104872Y0232593D01*
X0104753Y0232547D01*
X0104632Y0232505D01*
X0104509Y0232467D01*
X0104386Y0232433D01*
X0104262Y0232403D01*
X0104137Y0232376D01*
X0104011Y0232353D01*
X0103884Y0232335D01*
X0103757Y0232320D01*
X0103630Y0232309D01*
X0103502Y0232302D01*
X0103374Y0232299D01*
X0103246Y0232300D01*
X0103118Y0232305D01*
X0102991Y0232314D01*
X0102863Y0232327D01*
X0102736Y0232344D01*
X0102610Y0232364D01*
X0102485Y0232389D01*
X0102360Y0232417D01*
X0102236Y0232450D01*
X0102113Y0232486D01*
X0101992Y0232526D01*
X0101871Y0232569D01*
X0101753Y0232617D01*
X0101635Y0232668D01*
X0101520Y0232722D01*
X0101406Y0232781D01*
X0101293Y0232842D01*
X0101183Y0232907D01*
X0101075Y0232976D01*
X0100969Y0233048D01*
X0100866Y0233123D01*
X0100764Y0233201D01*
X0100666Y0233282D01*
X0100569Y0233367D01*
X0100476Y0233454D01*
X0100385Y0233544D01*
X0100297Y0233637D01*
X0100212Y0233732D01*
X0100130Y0233831D01*
X0100051Y0233931D01*
X0099975Y0234034D01*
X0099902Y0234140D01*
X0099833Y0234247D01*
X0099767Y0234357D01*
X0099705Y0234468D01*
X0099646Y0234582D01*
X0099590Y0234697D01*
X0099538Y0234814D01*
X0099490Y0234933D01*
X0099445Y0235053D01*
X0099404Y0235174D01*
X0099367Y0235296D01*
X0099334Y0235420D01*
X0099305Y0235544D01*
X0099279Y0235670D01*
X0099257Y0235796D01*
X0099240Y0235922D01*
X0099226Y0236050D01*
X0099216Y0236177D01*
X0099210Y0236305D01*
X0099208Y0236433D01*
X0234208Y0236433D02*
X0234210Y0236561D01*
X0234216Y0236689D01*
X0234226Y0236816D01*
X0234240Y0236944D01*
X0234257Y0237070D01*
X0234279Y0237196D01*
X0234305Y0237322D01*
X0234334Y0237446D01*
X0234367Y0237570D01*
X0234404Y0237692D01*
X0234445Y0237813D01*
X0234490Y0237933D01*
X0234538Y0238052D01*
X0234590Y0238169D01*
X0234646Y0238284D01*
X0234705Y0238398D01*
X0234767Y0238509D01*
X0234833Y0238619D01*
X0234902Y0238726D01*
X0234975Y0238832D01*
X0235051Y0238935D01*
X0235130Y0239035D01*
X0235212Y0239134D01*
X0235297Y0239229D01*
X0235385Y0239322D01*
X0235476Y0239412D01*
X0235569Y0239499D01*
X0235666Y0239584D01*
X0235764Y0239665D01*
X0235866Y0239743D01*
X0235969Y0239818D01*
X0236075Y0239890D01*
X0236183Y0239959D01*
X0236293Y0240024D01*
X0236406Y0240085D01*
X0236520Y0240144D01*
X0236635Y0240198D01*
X0236753Y0240249D01*
X0236871Y0240297D01*
X0236992Y0240340D01*
X0237113Y0240380D01*
X0237236Y0240416D01*
X0237360Y0240449D01*
X0237485Y0240477D01*
X0237610Y0240502D01*
X0237736Y0240522D01*
X0237863Y0240539D01*
X0237991Y0240552D01*
X0238118Y0240561D01*
X0238246Y0240566D01*
X0238374Y0240567D01*
X0238502Y0240564D01*
X0238630Y0240557D01*
X0238757Y0240546D01*
X0238884Y0240531D01*
X0239011Y0240513D01*
X0239137Y0240490D01*
X0239262Y0240463D01*
X0239386Y0240433D01*
X0239509Y0240399D01*
X0239632Y0240361D01*
X0239753Y0240319D01*
X0239872Y0240273D01*
X0239990Y0240224D01*
X0240107Y0240171D01*
X0240222Y0240115D01*
X0240335Y0240055D01*
X0240446Y0239992D01*
X0240555Y0239925D01*
X0240662Y0239855D01*
X0240767Y0239781D01*
X0240869Y0239705D01*
X0240969Y0239625D01*
X0241067Y0239542D01*
X0241162Y0239456D01*
X0241254Y0239367D01*
X0241343Y0239276D01*
X0241430Y0239182D01*
X0241513Y0239085D01*
X0241594Y0238985D01*
X0241671Y0238884D01*
X0241746Y0238779D01*
X0241817Y0238673D01*
X0241884Y0238564D01*
X0241949Y0238454D01*
X0242009Y0238341D01*
X0242067Y0238227D01*
X0242120Y0238111D01*
X0242170Y0237993D01*
X0242217Y0237874D01*
X0242260Y0237753D01*
X0242299Y0237631D01*
X0242334Y0237508D01*
X0242365Y0237384D01*
X0242393Y0237259D01*
X0242416Y0237133D01*
X0242436Y0237007D01*
X0242452Y0236880D01*
X0242464Y0236753D01*
X0242472Y0236625D01*
X0242476Y0236497D01*
X0242476Y0236369D01*
X0242472Y0236241D01*
X0242464Y0236113D01*
X0242452Y0235986D01*
X0242436Y0235859D01*
X0242416Y0235733D01*
X0242393Y0235607D01*
X0242365Y0235482D01*
X0242334Y0235358D01*
X0242299Y0235235D01*
X0242260Y0235113D01*
X0242217Y0234992D01*
X0242170Y0234873D01*
X0242120Y0234755D01*
X0242067Y0234639D01*
X0242009Y0234525D01*
X0241949Y0234412D01*
X0241884Y0234302D01*
X0241817Y0234193D01*
X0241746Y0234087D01*
X0241671Y0233982D01*
X0241594Y0233881D01*
X0241513Y0233781D01*
X0241430Y0233684D01*
X0241343Y0233590D01*
X0241254Y0233499D01*
X0241162Y0233410D01*
X0241067Y0233324D01*
X0240969Y0233241D01*
X0240869Y0233161D01*
X0240767Y0233085D01*
X0240662Y0233011D01*
X0240555Y0232941D01*
X0240446Y0232874D01*
X0240335Y0232811D01*
X0240222Y0232751D01*
X0240107Y0232695D01*
X0239990Y0232642D01*
X0239872Y0232593D01*
X0239753Y0232547D01*
X0239632Y0232505D01*
X0239509Y0232467D01*
X0239386Y0232433D01*
X0239262Y0232403D01*
X0239137Y0232376D01*
X0239011Y0232353D01*
X0238884Y0232335D01*
X0238757Y0232320D01*
X0238630Y0232309D01*
X0238502Y0232302D01*
X0238374Y0232299D01*
X0238246Y0232300D01*
X0238118Y0232305D01*
X0237991Y0232314D01*
X0237863Y0232327D01*
X0237736Y0232344D01*
X0237610Y0232364D01*
X0237485Y0232389D01*
X0237360Y0232417D01*
X0237236Y0232450D01*
X0237113Y0232486D01*
X0236992Y0232526D01*
X0236871Y0232569D01*
X0236753Y0232617D01*
X0236635Y0232668D01*
X0236520Y0232722D01*
X0236406Y0232781D01*
X0236293Y0232842D01*
X0236183Y0232907D01*
X0236075Y0232976D01*
X0235969Y0233048D01*
X0235866Y0233123D01*
X0235764Y0233201D01*
X0235666Y0233282D01*
X0235569Y0233367D01*
X0235476Y0233454D01*
X0235385Y0233544D01*
X0235297Y0233637D01*
X0235212Y0233732D01*
X0235130Y0233831D01*
X0235051Y0233931D01*
X0234975Y0234034D01*
X0234902Y0234140D01*
X0234833Y0234247D01*
X0234767Y0234357D01*
X0234705Y0234468D01*
X0234646Y0234582D01*
X0234590Y0234697D01*
X0234538Y0234814D01*
X0234490Y0234933D01*
X0234445Y0235053D01*
X0234404Y0235174D01*
X0234367Y0235296D01*
X0234334Y0235420D01*
X0234305Y0235544D01*
X0234279Y0235670D01*
X0234257Y0235796D01*
X0234240Y0235922D01*
X0234226Y0236050D01*
X0234216Y0236177D01*
X0234210Y0236305D01*
X0234208Y0236433D01*
X0247436Y0166433D02*
X0247438Y0166586D01*
X0247444Y0166740D01*
X0247454Y0166893D01*
X0247468Y0167045D01*
X0247486Y0167198D01*
X0247508Y0167349D01*
X0247533Y0167500D01*
X0247563Y0167651D01*
X0247597Y0167801D01*
X0247634Y0167949D01*
X0247675Y0168097D01*
X0247720Y0168243D01*
X0247769Y0168389D01*
X0247822Y0168533D01*
X0247878Y0168675D01*
X0247938Y0168816D01*
X0248002Y0168956D01*
X0248069Y0169094D01*
X0248140Y0169230D01*
X0248215Y0169364D01*
X0248292Y0169496D01*
X0248374Y0169626D01*
X0248458Y0169754D01*
X0248546Y0169880D01*
X0248637Y0170003D01*
X0248731Y0170124D01*
X0248829Y0170242D01*
X0248929Y0170358D01*
X0249033Y0170471D01*
X0249139Y0170582D01*
X0249248Y0170690D01*
X0249360Y0170795D01*
X0249474Y0170896D01*
X0249592Y0170995D01*
X0249711Y0171091D01*
X0249833Y0171184D01*
X0249958Y0171273D01*
X0250085Y0171360D01*
X0250214Y0171442D01*
X0250345Y0171522D01*
X0250478Y0171598D01*
X0250613Y0171671D01*
X0250750Y0171740D01*
X0250889Y0171805D01*
X0251029Y0171867D01*
X0251171Y0171925D01*
X0251314Y0171980D01*
X0251459Y0172031D01*
X0251605Y0172078D01*
X0251752Y0172121D01*
X0251900Y0172160D01*
X0252049Y0172196D01*
X0252199Y0172227D01*
X0252350Y0172255D01*
X0252501Y0172279D01*
X0252654Y0172299D01*
X0252806Y0172315D01*
X0252959Y0172327D01*
X0253112Y0172335D01*
X0253265Y0172339D01*
X0253419Y0172339D01*
X0253572Y0172335D01*
X0253725Y0172327D01*
X0253878Y0172315D01*
X0254030Y0172299D01*
X0254183Y0172279D01*
X0254334Y0172255D01*
X0254485Y0172227D01*
X0254635Y0172196D01*
X0254784Y0172160D01*
X0254932Y0172121D01*
X0255079Y0172078D01*
X0255225Y0172031D01*
X0255370Y0171980D01*
X0255513Y0171925D01*
X0255655Y0171867D01*
X0255795Y0171805D01*
X0255934Y0171740D01*
X0256071Y0171671D01*
X0256206Y0171598D01*
X0256339Y0171522D01*
X0256470Y0171442D01*
X0256599Y0171360D01*
X0256726Y0171273D01*
X0256851Y0171184D01*
X0256973Y0171091D01*
X0257092Y0170995D01*
X0257210Y0170896D01*
X0257324Y0170795D01*
X0257436Y0170690D01*
X0257545Y0170582D01*
X0257651Y0170471D01*
X0257755Y0170358D01*
X0257855Y0170242D01*
X0257953Y0170124D01*
X0258047Y0170003D01*
X0258138Y0169880D01*
X0258226Y0169754D01*
X0258310Y0169626D01*
X0258392Y0169496D01*
X0258469Y0169364D01*
X0258544Y0169230D01*
X0258615Y0169094D01*
X0258682Y0168956D01*
X0258746Y0168816D01*
X0258806Y0168675D01*
X0258862Y0168533D01*
X0258915Y0168389D01*
X0258964Y0168243D01*
X0259009Y0168097D01*
X0259050Y0167949D01*
X0259087Y0167801D01*
X0259121Y0167651D01*
X0259151Y0167500D01*
X0259176Y0167349D01*
X0259198Y0167198D01*
X0259216Y0167045D01*
X0259230Y0166893D01*
X0259240Y0166740D01*
X0259246Y0166586D01*
X0259248Y0166433D01*
X0259246Y0166280D01*
X0259240Y0166126D01*
X0259230Y0165973D01*
X0259216Y0165821D01*
X0259198Y0165668D01*
X0259176Y0165517D01*
X0259151Y0165366D01*
X0259121Y0165215D01*
X0259087Y0165065D01*
X0259050Y0164917D01*
X0259009Y0164769D01*
X0258964Y0164623D01*
X0258915Y0164477D01*
X0258862Y0164333D01*
X0258806Y0164191D01*
X0258746Y0164050D01*
X0258682Y0163910D01*
X0258615Y0163772D01*
X0258544Y0163636D01*
X0258469Y0163502D01*
X0258392Y0163370D01*
X0258310Y0163240D01*
X0258226Y0163112D01*
X0258138Y0162986D01*
X0258047Y0162863D01*
X0257953Y0162742D01*
X0257855Y0162624D01*
X0257755Y0162508D01*
X0257651Y0162395D01*
X0257545Y0162284D01*
X0257436Y0162176D01*
X0257324Y0162071D01*
X0257210Y0161970D01*
X0257092Y0161871D01*
X0256973Y0161775D01*
X0256851Y0161682D01*
X0256726Y0161593D01*
X0256599Y0161506D01*
X0256470Y0161424D01*
X0256339Y0161344D01*
X0256206Y0161268D01*
X0256071Y0161195D01*
X0255934Y0161126D01*
X0255795Y0161061D01*
X0255655Y0160999D01*
X0255513Y0160941D01*
X0255370Y0160886D01*
X0255225Y0160835D01*
X0255079Y0160788D01*
X0254932Y0160745D01*
X0254784Y0160706D01*
X0254635Y0160670D01*
X0254485Y0160639D01*
X0254334Y0160611D01*
X0254183Y0160587D01*
X0254030Y0160567D01*
X0253878Y0160551D01*
X0253725Y0160539D01*
X0253572Y0160531D01*
X0253419Y0160527D01*
X0253265Y0160527D01*
X0253112Y0160531D01*
X0252959Y0160539D01*
X0252806Y0160551D01*
X0252654Y0160567D01*
X0252501Y0160587D01*
X0252350Y0160611D01*
X0252199Y0160639D01*
X0252049Y0160670D01*
X0251900Y0160706D01*
X0251752Y0160745D01*
X0251605Y0160788D01*
X0251459Y0160835D01*
X0251314Y0160886D01*
X0251171Y0160941D01*
X0251029Y0160999D01*
X0250889Y0161061D01*
X0250750Y0161126D01*
X0250613Y0161195D01*
X0250478Y0161268D01*
X0250345Y0161344D01*
X0250214Y0161424D01*
X0250085Y0161506D01*
X0249958Y0161593D01*
X0249833Y0161682D01*
X0249711Y0161775D01*
X0249592Y0161871D01*
X0249474Y0161970D01*
X0249360Y0162071D01*
X0249248Y0162176D01*
X0249139Y0162284D01*
X0249033Y0162395D01*
X0248929Y0162508D01*
X0248829Y0162624D01*
X0248731Y0162742D01*
X0248637Y0162863D01*
X0248546Y0162986D01*
X0248458Y0163112D01*
X0248374Y0163240D01*
X0248292Y0163370D01*
X0248215Y0163502D01*
X0248140Y0163636D01*
X0248069Y0163772D01*
X0248002Y0163910D01*
X0247938Y0164050D01*
X0247878Y0164191D01*
X0247822Y0164333D01*
X0247769Y0164477D01*
X0247720Y0164623D01*
X0247675Y0164769D01*
X0247634Y0164917D01*
X0247597Y0165065D01*
X0247563Y0165215D01*
X0247533Y0165366D01*
X0247508Y0165517D01*
X0247486Y0165668D01*
X0247468Y0165821D01*
X0247454Y0165973D01*
X0247444Y0166126D01*
X0247438Y0166280D01*
X0247436Y0166433D01*
X0234208Y0096433D02*
X0234210Y0096561D01*
X0234216Y0096689D01*
X0234226Y0096816D01*
X0234240Y0096944D01*
X0234257Y0097070D01*
X0234279Y0097196D01*
X0234305Y0097322D01*
X0234334Y0097446D01*
X0234367Y0097570D01*
X0234404Y0097692D01*
X0234445Y0097813D01*
X0234490Y0097933D01*
X0234538Y0098052D01*
X0234590Y0098169D01*
X0234646Y0098284D01*
X0234705Y0098398D01*
X0234767Y0098509D01*
X0234833Y0098619D01*
X0234902Y0098726D01*
X0234975Y0098832D01*
X0235051Y0098935D01*
X0235130Y0099035D01*
X0235212Y0099134D01*
X0235297Y0099229D01*
X0235385Y0099322D01*
X0235476Y0099412D01*
X0235569Y0099499D01*
X0235666Y0099584D01*
X0235764Y0099665D01*
X0235866Y0099743D01*
X0235969Y0099818D01*
X0236075Y0099890D01*
X0236183Y0099959D01*
X0236293Y0100024D01*
X0236406Y0100085D01*
X0236520Y0100144D01*
X0236635Y0100198D01*
X0236753Y0100249D01*
X0236871Y0100297D01*
X0236992Y0100340D01*
X0237113Y0100380D01*
X0237236Y0100416D01*
X0237360Y0100449D01*
X0237485Y0100477D01*
X0237610Y0100502D01*
X0237736Y0100522D01*
X0237863Y0100539D01*
X0237991Y0100552D01*
X0238118Y0100561D01*
X0238246Y0100566D01*
X0238374Y0100567D01*
X0238502Y0100564D01*
X0238630Y0100557D01*
X0238757Y0100546D01*
X0238884Y0100531D01*
X0239011Y0100513D01*
X0239137Y0100490D01*
X0239262Y0100463D01*
X0239386Y0100433D01*
X0239509Y0100399D01*
X0239632Y0100361D01*
X0239753Y0100319D01*
X0239872Y0100273D01*
X0239990Y0100224D01*
X0240107Y0100171D01*
X0240222Y0100115D01*
X0240335Y0100055D01*
X0240446Y0099992D01*
X0240555Y0099925D01*
X0240662Y0099855D01*
X0240767Y0099781D01*
X0240869Y0099705D01*
X0240969Y0099625D01*
X0241067Y0099542D01*
X0241162Y0099456D01*
X0241254Y0099367D01*
X0241343Y0099276D01*
X0241430Y0099182D01*
X0241513Y0099085D01*
X0241594Y0098985D01*
X0241671Y0098884D01*
X0241746Y0098779D01*
X0241817Y0098673D01*
X0241884Y0098564D01*
X0241949Y0098454D01*
X0242009Y0098341D01*
X0242067Y0098227D01*
X0242120Y0098111D01*
X0242170Y0097993D01*
X0242217Y0097874D01*
X0242260Y0097753D01*
X0242299Y0097631D01*
X0242334Y0097508D01*
X0242365Y0097384D01*
X0242393Y0097259D01*
X0242416Y0097133D01*
X0242436Y0097007D01*
X0242452Y0096880D01*
X0242464Y0096753D01*
X0242472Y0096625D01*
X0242476Y0096497D01*
X0242476Y0096369D01*
X0242472Y0096241D01*
X0242464Y0096113D01*
X0242452Y0095986D01*
X0242436Y0095859D01*
X0242416Y0095733D01*
X0242393Y0095607D01*
X0242365Y0095482D01*
X0242334Y0095358D01*
X0242299Y0095235D01*
X0242260Y0095113D01*
X0242217Y0094992D01*
X0242170Y0094873D01*
X0242120Y0094755D01*
X0242067Y0094639D01*
X0242009Y0094525D01*
X0241949Y0094412D01*
X0241884Y0094302D01*
X0241817Y0094193D01*
X0241746Y0094087D01*
X0241671Y0093982D01*
X0241594Y0093881D01*
X0241513Y0093781D01*
X0241430Y0093684D01*
X0241343Y0093590D01*
X0241254Y0093499D01*
X0241162Y0093410D01*
X0241067Y0093324D01*
X0240969Y0093241D01*
X0240869Y0093161D01*
X0240767Y0093085D01*
X0240662Y0093011D01*
X0240555Y0092941D01*
X0240446Y0092874D01*
X0240335Y0092811D01*
X0240222Y0092751D01*
X0240107Y0092695D01*
X0239990Y0092642D01*
X0239872Y0092593D01*
X0239753Y0092547D01*
X0239632Y0092505D01*
X0239509Y0092467D01*
X0239386Y0092433D01*
X0239262Y0092403D01*
X0239137Y0092376D01*
X0239011Y0092353D01*
X0238884Y0092335D01*
X0238757Y0092320D01*
X0238630Y0092309D01*
X0238502Y0092302D01*
X0238374Y0092299D01*
X0238246Y0092300D01*
X0238118Y0092305D01*
X0237991Y0092314D01*
X0237863Y0092327D01*
X0237736Y0092344D01*
X0237610Y0092364D01*
X0237485Y0092389D01*
X0237360Y0092417D01*
X0237236Y0092450D01*
X0237113Y0092486D01*
X0236992Y0092526D01*
X0236871Y0092569D01*
X0236753Y0092617D01*
X0236635Y0092668D01*
X0236520Y0092722D01*
X0236406Y0092781D01*
X0236293Y0092842D01*
X0236183Y0092907D01*
X0236075Y0092976D01*
X0235969Y0093048D01*
X0235866Y0093123D01*
X0235764Y0093201D01*
X0235666Y0093282D01*
X0235569Y0093367D01*
X0235476Y0093454D01*
X0235385Y0093544D01*
X0235297Y0093637D01*
X0235212Y0093732D01*
X0235130Y0093831D01*
X0235051Y0093931D01*
X0234975Y0094034D01*
X0234902Y0094140D01*
X0234833Y0094247D01*
X0234767Y0094357D01*
X0234705Y0094468D01*
X0234646Y0094582D01*
X0234590Y0094697D01*
X0234538Y0094814D01*
X0234490Y0094933D01*
X0234445Y0095053D01*
X0234404Y0095174D01*
X0234367Y0095296D01*
X0234334Y0095420D01*
X0234305Y0095544D01*
X0234279Y0095670D01*
X0234257Y0095796D01*
X0234240Y0095922D01*
X0234226Y0096050D01*
X0234216Y0096177D01*
X0234210Y0096305D01*
X0234208Y0096433D01*
D11*
X0190842Y0086433D03*
X0180842Y0086433D03*
X0170842Y0086433D03*
X0160842Y0086433D03*
X0150842Y0086433D03*
X0150842Y0106433D03*
X0160842Y0106433D03*
X0170842Y0106433D03*
X0180842Y0106433D03*
X0190842Y0106433D03*
D12*
X0176747Y0132043D03*
X0164936Y0132043D03*
D13*
X0170842Y0131797D03*
D14*
X0170842Y0123441D03*
D15*
X0155842Y0123874D03*
X0155842Y0128992D03*
X0150842Y0128992D03*
X0150842Y0123874D03*
X0160842Y0143874D03*
X0165842Y0143874D03*
X0165842Y0148992D03*
X0160842Y0148992D03*
X0175842Y0148992D03*
X0175842Y0143874D03*
X0188342Y0128992D03*
X0188342Y0123874D03*
X0238342Y0119839D03*
X0238342Y0114720D03*
X0163342Y0201374D03*
X0163342Y0206492D03*
X0150842Y0221374D03*
X0150842Y0226492D03*
X0158342Y0261374D03*
X0158342Y0266492D03*
X0165842Y0266492D03*
X0165842Y0261374D03*
X0175842Y0261374D03*
X0175842Y0266492D03*
X0183342Y0266492D03*
X0183342Y0261374D03*
X0103342Y0119839D03*
X0103342Y0114720D03*
D16*
X0173421Y0248933D03*
X0183263Y0248933D03*
D17*
X0120842Y0183933D03*
X0120842Y0148933D03*
X0068342Y0148933D03*
X0068342Y0183933D03*
D18*
X0115783Y0228933D03*
X0120901Y0228933D03*
X0148283Y0236433D03*
X0153401Y0236433D03*
X0170783Y0206433D03*
X0170783Y0201433D03*
X0175901Y0201433D03*
X0175901Y0206433D03*
X0153401Y0178933D03*
X0153401Y0173933D03*
X0148283Y0173933D03*
X0148283Y0178933D03*
X0148283Y0163933D03*
X0148283Y0158933D03*
X0153401Y0158933D03*
X0153401Y0163933D03*
X0188283Y0166433D03*
X0193401Y0166433D03*
X0193401Y0171433D03*
X0188283Y0171433D03*
X0219283Y0131433D03*
X0224401Y0131433D03*
X0225901Y0228933D03*
X0220783Y0228933D03*
D19*
X0238342Y0229740D03*
X0238342Y0243126D03*
X0103342Y0243126D03*
X0103342Y0229740D03*
X0103342Y0103126D03*
X0103342Y0089740D03*
X0238342Y0089740D03*
X0238342Y0103126D03*
D20*
X0224795Y0138965D03*
X0224795Y0142902D03*
X0218889Y0142902D03*
X0218889Y0138965D03*
D21*
X0221842Y0137980D03*
X0221842Y0143886D03*
D22*
X0177733Y0217181D03*
X0175764Y0217181D03*
X0173795Y0217181D03*
X0171826Y0217181D03*
X0169857Y0217181D03*
X0167888Y0217181D03*
X0165919Y0217181D03*
X0163950Y0217181D03*
X0163950Y0235685D03*
X0165919Y0235685D03*
X0167888Y0235685D03*
X0169857Y0235685D03*
X0171826Y0235685D03*
X0173795Y0235685D03*
X0175764Y0235685D03*
X0177733Y0235685D03*
D23*
X0180094Y0233325D03*
X0180094Y0231356D03*
X0180094Y0229387D03*
X0180094Y0227418D03*
X0180094Y0225449D03*
X0180094Y0223480D03*
X0180094Y0221511D03*
X0180094Y0219542D03*
X0161590Y0219542D03*
X0161590Y0221511D03*
X0161590Y0223480D03*
X0161590Y0225449D03*
X0161590Y0227418D03*
X0161590Y0229387D03*
X0161590Y0231356D03*
X0161590Y0233325D03*
D24*
X0170842Y0226433D03*
D25*
X0178716Y0171854D03*
X0178716Y0169886D03*
X0178716Y0167917D03*
X0178716Y0165949D03*
X0178716Y0163980D03*
X0178716Y0162012D03*
X0162968Y0162012D03*
X0162968Y0163980D03*
X0162968Y0165949D03*
X0162968Y0167917D03*
X0162968Y0169886D03*
X0162968Y0171854D03*
D26*
X0165921Y0174807D03*
X0167889Y0174807D03*
X0169858Y0174807D03*
X0171826Y0174807D03*
X0173795Y0174807D03*
X0175763Y0174807D03*
X0175763Y0159059D03*
X0173795Y0159059D03*
X0171826Y0159059D03*
X0169858Y0159059D03*
X0167889Y0159059D03*
X0165921Y0159059D03*
D27*
X0170842Y0166933D03*
D28*
X0160763Y0244406D03*
X0160763Y0253461D03*
X0150921Y0253461D03*
X0150921Y0244406D03*
D29*
X0151783Y0239933D02*
X0155842Y0239933D01*
X0155842Y0248539D01*
X0150921Y0253461D01*
X0150921Y0252064D01*
X0140842Y0247933D02*
X0140842Y0260433D01*
X0146901Y0266492D01*
X0153401Y0266492D01*
X0153342Y0266433D01*
X0153401Y0266492D02*
X0158342Y0266492D01*
X0165842Y0266492D01*
X0175842Y0266492D01*
X0183342Y0266492D01*
X0185783Y0266492D01*
X0193342Y0258933D01*
X0193342Y0253992D01*
X0198371Y0248963D01*
X0197371Y0248963D01*
X0187342Y0238933D01*
X0187342Y0237716D01*
X0182950Y0233325D01*
X0180094Y0233325D01*
X0180094Y0231356D01*
X0177733Y0235685D02*
X0177852Y0235804D01*
X0177852Y0238933D01*
X0180852Y0241933D01*
X0185342Y0241933D01*
X0188842Y0245433D01*
X0188842Y0255874D01*
X0183342Y0261374D01*
X0198371Y0248963D02*
X0204208Y0243126D01*
X0238342Y0243126D01*
X0169857Y0238813D02*
X0169857Y0235685D01*
X0169857Y0238813D02*
X0169737Y0238933D01*
X0161342Y0237433D02*
X0159842Y0235933D01*
X0153901Y0235933D01*
X0153401Y0236433D01*
X0152842Y0235874D01*
X0152842Y0233445D01*
X0153401Y0236433D02*
X0153512Y0236544D01*
X0151783Y0239933D02*
X0148283Y0236433D01*
X0155842Y0239933D02*
X0157342Y0239933D01*
X0158342Y0238933D01*
X0161342Y0237433D02*
X0161342Y0243827D01*
X0160763Y0244406D01*
X0140842Y0247933D02*
X0136035Y0243126D01*
X0103342Y0243126D01*
X0150842Y0221374D02*
X0150842Y0217933D01*
X0159342Y0217933D02*
X0160950Y0219542D01*
X0161590Y0219542D01*
X0163950Y0217181D02*
X0163950Y0212042D01*
X0163842Y0211933D01*
X0163842Y0206992D01*
X0163342Y0206492D01*
X0163342Y0211433D02*
X0163842Y0211933D01*
X0170783Y0206433D02*
X0170783Y0201433D01*
X0170783Y0196874D01*
X0170342Y0196433D01*
X0163342Y0196933D02*
X0163342Y0201374D01*
X0173795Y0174807D02*
X0175763Y0174807D01*
X0179216Y0174807D01*
X0180342Y0175933D01*
X0178716Y0167917D02*
X0178716Y0165949D01*
X0178716Y0163980D01*
X0178716Y0162012D01*
X0175763Y0159059D01*
X0179889Y0154933D01*
X0180342Y0154933D01*
X0175763Y0159059D02*
X0173795Y0159059D01*
X0171826Y0159059D01*
X0167889Y0159059D02*
X0167889Y0156945D01*
X0175842Y0148992D01*
X0180342Y0144492D01*
X0180342Y0140933D01*
X0176747Y0137339D01*
X0176747Y0132043D01*
X0185291Y0132043D01*
X0188342Y0128992D01*
X0188342Y0123874D02*
X0187909Y0123441D01*
X0170842Y0123441D01*
X0170842Y0123433D01*
X0163842Y0116433D01*
X0159342Y0116433D01*
X0155842Y0112933D01*
X0155842Y0096433D01*
X0150842Y0091433D01*
X0150842Y0086433D01*
X0160842Y0086433D02*
X0160842Y0091433D01*
X0180842Y0091433D02*
X0180842Y0086433D01*
X0190842Y0086433D02*
X0190842Y0081433D01*
X0190842Y0086433D02*
X0190842Y0070933D01*
X0122149Y0070933D01*
X0103342Y0089740D01*
X0150842Y0123874D02*
X0155842Y0123874D01*
X0159342Y0120374D01*
X0159342Y0119933D01*
X0161885Y0128992D02*
X0155842Y0128992D01*
X0150842Y0128992D01*
X0159342Y0133933D02*
X0160842Y0135433D01*
X0160842Y0143874D01*
X0165842Y0143874D01*
X0170834Y0137941D02*
X0174342Y0134433D01*
X0174342Y0129192D01*
X0177101Y0126433D01*
X0195842Y0126433D01*
X0196842Y0125433D01*
X0218401Y0125433D01*
X0224401Y0131433D01*
X0221842Y0133992D01*
X0221842Y0137980D01*
X0223810Y0137980D01*
X0224795Y0138965D01*
X0218889Y0138965D02*
X0218889Y0131827D01*
X0219283Y0131433D01*
X0218889Y0138965D02*
X0217310Y0138965D01*
X0215342Y0140933D01*
X0175842Y0142949D02*
X0175842Y0143874D01*
X0165921Y0153795D01*
X0165921Y0159059D01*
X0175842Y0142949D02*
X0170834Y0137941D01*
X0164936Y0132043D01*
X0161885Y0128992D01*
X0131342Y0154933D02*
X0125342Y0148933D01*
X0120842Y0148933D01*
X0068342Y0148933D02*
X0060342Y0148933D01*
X0054342Y0154933D01*
X0190842Y0070933D02*
X0219535Y0070933D01*
X0238342Y0089740D01*
D30*
X0238342Y0103126D02*
X0238342Y0114720D01*
X0238342Y0119839D02*
X0231342Y0126839D01*
X0231342Y0200933D01*
X0208795Y0223480D01*
X0180094Y0223480D01*
X0180094Y0225449D02*
X0217298Y0225449D01*
X0220783Y0228933D01*
X0225901Y0228933D02*
X0237535Y0228933D01*
X0238342Y0229740D01*
X0193342Y0193933D02*
X0205842Y0181433D01*
X0205842Y0156433D01*
X0210842Y0151433D01*
X0220842Y0151433D01*
X0224795Y0147480D01*
X0224795Y0142902D01*
X0218889Y0142902D02*
X0218889Y0143386D01*
X0215842Y0146433D01*
X0210842Y0146433D01*
X0203342Y0153933D01*
X0203342Y0178933D01*
X0193342Y0188933D01*
X0175901Y0188933D01*
X0175901Y0183492D01*
X0171826Y0179417D01*
X0171826Y0174807D01*
X0169858Y0174807D02*
X0169842Y0174823D01*
X0169842Y0179933D01*
X0173342Y0183433D01*
X0173342Y0193933D01*
X0173342Y0203874D01*
X0175901Y0206433D01*
X0175901Y0205714D01*
X0175901Y0206433D02*
X0175901Y0206874D01*
X0167888Y0214887D01*
X0167888Y0217181D01*
X0169842Y0217166D02*
X0169842Y0214489D01*
X0175326Y0209005D01*
X0177610Y0209005D01*
X0178079Y0208536D01*
X0178079Y0204330D01*
X0175901Y0202152D01*
X0175901Y0201433D01*
X0175901Y0188933D01*
X0178342Y0193933D02*
X0193342Y0193933D01*
X0213342Y0178433D02*
X0175764Y0216011D01*
X0175764Y0217181D01*
X0177733Y0217181D02*
X0223342Y0171573D01*
X0223342Y0171433D01*
X0213342Y0171433D02*
X0213342Y0178433D01*
X0198342Y0171433D02*
X0193401Y0171433D01*
X0188283Y0171433D02*
X0187861Y0171854D01*
X0178716Y0171854D01*
X0178716Y0169886D02*
X0184830Y0169886D01*
X0188283Y0166433D01*
X0193401Y0166433D02*
X0198342Y0166433D01*
X0187342Y0147933D02*
X0184342Y0147933D01*
X0177342Y0154933D01*
X0175342Y0154933D01*
X0171881Y0154933D01*
X0169858Y0156956D01*
X0169858Y0159059D01*
X0162968Y0162012D02*
X0162968Y0151866D01*
X0165842Y0148992D01*
X0160842Y0148992D02*
X0159842Y0149992D01*
X0159842Y0162933D01*
X0160842Y0163933D01*
X0162921Y0163933D01*
X0162968Y0163980D01*
X0162968Y0165949D02*
X0160417Y0165949D01*
X0153401Y0158933D01*
X0153401Y0163933D02*
X0157385Y0167917D01*
X0162968Y0167917D01*
X0162968Y0169886D02*
X0160889Y0169886D01*
X0156842Y0173933D01*
X0153401Y0173933D01*
X0153401Y0178933D02*
X0155889Y0178933D01*
X0162968Y0171854D01*
X0167889Y0174807D02*
X0167889Y0179386D01*
X0167342Y0179933D01*
X0167342Y0212433D01*
X0165919Y0213856D01*
X0165919Y0217181D01*
X0169842Y0217166D02*
X0169857Y0217181D01*
X0161590Y0227418D02*
X0159326Y0227418D01*
X0155842Y0223933D01*
X0130342Y0223933D01*
X0110342Y0203933D01*
X0110342Y0126839D01*
X0103342Y0119839D01*
X0103342Y0114720D02*
X0103342Y0103126D01*
X0160842Y0091433D02*
X0165842Y0096433D01*
X0180842Y0091433D02*
X0185842Y0096433D01*
X0170842Y0123441D02*
X0170842Y0131797D01*
X0148283Y0158933D02*
X0143342Y0158933D01*
X0143342Y0163933D02*
X0148283Y0163933D01*
X0148283Y0173933D02*
X0143342Y0173933D01*
X0143342Y0178933D02*
X0148283Y0178933D01*
X0130253Y0179933D02*
X0126253Y0183933D01*
X0120842Y0183933D01*
X0120842Y0208433D01*
X0130342Y0217933D01*
X0125842Y0226433D02*
X0083342Y0183933D01*
X0068342Y0183933D01*
X0104149Y0228933D02*
X0103342Y0229740D01*
X0104149Y0228933D02*
X0115783Y0228933D01*
X0120901Y0228933D02*
X0123323Y0231356D01*
X0161590Y0231356D01*
X0161590Y0229387D02*
X0153736Y0229387D01*
X0150842Y0226492D01*
X0150783Y0226433D01*
X0125842Y0226433D01*
X0130342Y0235433D02*
X0138842Y0235433D01*
X0142842Y0239433D01*
X0142842Y0254933D01*
X0149283Y0261374D01*
X0158342Y0261374D01*
X0161783Y0257933D01*
X0167842Y0257933D01*
X0169842Y0255933D01*
X0169842Y0243433D01*
X0171826Y0241449D01*
X0171826Y0235685D01*
X0173795Y0235685D02*
X0173795Y0248558D01*
X0173421Y0248933D01*
X0173342Y0249012D01*
X0173342Y0256433D01*
X0168401Y0261374D01*
X0165842Y0261374D01*
X0163314Y0253461D02*
X0160763Y0253461D01*
X0163314Y0253461D02*
X0166842Y0249933D01*
X0166842Y0238433D01*
X0167888Y0237387D01*
X0167888Y0235685D01*
X0175764Y0235685D02*
X0175764Y0238067D01*
X0175763Y0238068D01*
X0175763Y0241433D01*
X0183263Y0248933D01*
X0175842Y0256354D01*
X0175842Y0261374D01*
X0173421Y0251295D02*
X0173421Y0248933D01*
X0183263Y0248933D02*
X0183263Y0251453D01*
X0183342Y0229507D02*
X0183222Y0229387D01*
X0180094Y0229387D01*
X0180094Y0227418D02*
X0186222Y0227418D01*
X0186342Y0227538D01*
X0218889Y0138965D02*
X0219283Y0138571D01*
X0237436Y0119839D02*
X0238342Y0119839D01*
D31*
X0250342Y0140933D03*
X0215342Y0140933D03*
X0198342Y0128933D03*
X0180342Y0140933D03*
X0170834Y0137941D03*
X0159342Y0133933D03*
X0159342Y0119933D03*
X0177342Y0118933D03*
X0185842Y0096433D03*
X0165842Y0096433D03*
X0190842Y0070933D03*
X0133342Y0128933D03*
X0141342Y0136933D03*
X0148342Y0146433D03*
X0143342Y0158933D03*
X0143342Y0163933D03*
X0143342Y0173933D03*
X0143342Y0178933D03*
X0143342Y0186433D03*
X0130253Y0179933D03*
X0133342Y0203933D03*
X0130342Y0217933D03*
X0130342Y0235433D03*
X0150842Y0217933D03*
X0159342Y0217933D03*
X0163842Y0211933D03*
X0163342Y0196933D03*
X0170342Y0196433D03*
X0173342Y0193933D03*
X0178342Y0193933D03*
X0180342Y0175933D03*
X0198342Y0171433D03*
X0198342Y0166433D03*
X0180342Y0154933D03*
X0175342Y0154933D03*
X0204342Y0196933D03*
X0198342Y0203933D03*
X0186342Y0227538D03*
X0183342Y0229507D03*
X0187342Y0238933D03*
X0177852Y0238933D03*
X0169737Y0238933D03*
X0158342Y0238933D03*
X0152842Y0233445D03*
X0131342Y0154933D03*
X0105342Y0154933D03*
X0054342Y0154933D03*
X0047342Y0168933D03*
X0250342Y0196933D03*
X0292342Y0168933D03*
D32*
X0223342Y0171433D03*
X0223342Y0161433D03*
X0213342Y0161433D03*
X0213342Y0171433D03*
D33*
X0296897Y0042933D02*
X0044787Y0042933D01*
X0047342Y0040378D02*
X0047342Y0292488D01*
X0049787Y0294933D02*
X0291897Y0294933D01*
X0292342Y0294488D02*
X0292342Y0038378D01*
X0289897Y0035933D02*
X0051787Y0035933D01*
X0054342Y0033378D02*
X0054342Y0148640D01*
X0055049Y0147933D02*
X0037192Y0147933D01*
X0037192Y0140933D02*
X0059492Y0140933D01*
X0059492Y0138167D02*
X0060078Y0136752D01*
X0061161Y0135669D01*
X0062576Y0135083D01*
X0074108Y0135083D01*
X0075523Y0135669D01*
X0076606Y0136752D01*
X0077192Y0138167D01*
X0077192Y0150062D01*
X0081694Y0147729D01*
X0081694Y0147729D01*
X0086987Y0146629D01*
X0086987Y0146629D01*
X0092380Y0146998D01*
X0092380Y0146998D01*
X0097474Y0148809D01*
X0101890Y0151926D01*
X0101890Y0151926D01*
X0105302Y0156119D01*
X0105302Y0156119D01*
X0106192Y0158168D01*
X0106192Y0128558D01*
X0102701Y0125067D01*
X0100804Y0125067D01*
X0099389Y0124480D01*
X0098306Y0123397D01*
X0097720Y0121982D01*
X0097720Y0117695D01*
X0097892Y0117280D01*
X0097720Y0116864D01*
X0097720Y0112577D01*
X0098306Y0111162D01*
X0099192Y0110276D01*
X0099192Y0109044D01*
X0098011Y0108555D01*
X0096928Y0107472D01*
X0096342Y0106057D01*
X0096342Y0100397D01*
X0095358Y0098021D01*
X0095358Y0094845D01*
X0096342Y0092469D01*
X0096342Y0086809D01*
X0096928Y0085394D01*
X0098011Y0084311D01*
X0099426Y0083725D01*
X0103064Y0083725D01*
X0118376Y0068412D01*
X0119628Y0067161D01*
X0121264Y0066483D01*
X0188156Y0066483D01*
X0189820Y0065794D01*
X0191864Y0065794D01*
X0193527Y0066483D01*
X0220420Y0066483D01*
X0222055Y0067161D01*
X0223307Y0068412D01*
X0238620Y0083725D01*
X0242257Y0083725D01*
X0243672Y0084311D01*
X0244755Y0085394D01*
X0245341Y0086809D01*
X0245341Y0092469D01*
X0246326Y0094845D01*
X0246326Y0098021D01*
X0245341Y0100397D01*
X0245341Y0106057D01*
X0244755Y0107472D01*
X0243672Y0108555D01*
X0242492Y0109044D01*
X0242492Y0110276D01*
X0243377Y0111162D01*
X0243963Y0112577D01*
X0243963Y0116864D01*
X0243791Y0117280D01*
X0243963Y0117695D01*
X0243963Y0121982D01*
X0243377Y0123397D01*
X0242294Y0124480D01*
X0240879Y0125067D01*
X0238983Y0125067D01*
X0235492Y0128558D01*
X0235492Y0157938D01*
X0237944Y0153906D01*
X0241895Y0150216D01*
X0246694Y0147729D01*
X0246694Y0147729D01*
X0251987Y0146629D01*
X0251987Y0146629D01*
X0257380Y0146998D01*
X0257380Y0146998D01*
X0262474Y0148809D01*
X0266890Y0151926D01*
X0266890Y0151926D01*
X0270302Y0156119D01*
X0270302Y0156119D01*
X0272456Y0161078D01*
X0273192Y0166433D01*
X0272456Y0171789D01*
X0270302Y0176747D01*
X0266890Y0180940D01*
X0262474Y0184058D01*
X0257380Y0185868D01*
X0251987Y0186237D01*
X0246694Y0185137D01*
X0241895Y0182650D01*
X0237944Y0178960D01*
X0235492Y0174928D01*
X0235492Y0201759D01*
X0234860Y0203284D01*
X0233693Y0204451D01*
X0216845Y0221299D01*
X0218124Y0221299D01*
X0219649Y0221930D01*
X0221030Y0223311D01*
X0222927Y0223311D01*
X0223342Y0223483D01*
X0223757Y0223311D01*
X0228045Y0223311D01*
X0229460Y0223898D01*
X0230345Y0224783D01*
X0232539Y0224783D01*
X0233011Y0224311D01*
X0234426Y0223725D01*
X0242257Y0223725D01*
X0243672Y0224311D01*
X0244755Y0225394D01*
X0245341Y0226809D01*
X0245341Y0232469D01*
X0246326Y0234845D01*
X0246326Y0238021D01*
X0245341Y0240397D01*
X0245341Y0246057D01*
X0244755Y0247472D01*
X0243672Y0248555D01*
X0242257Y0249141D01*
X0234426Y0249141D01*
X0233011Y0248555D01*
X0232032Y0247576D01*
X0206051Y0247576D01*
X0202144Y0251483D01*
X0202144Y0251483D01*
X0200892Y0252735D01*
X0197792Y0255835D01*
X0197792Y0259818D01*
X0197114Y0261454D01*
X0189555Y0269013D01*
X0188303Y0270265D01*
X0188065Y0270364D01*
X0187294Y0271134D01*
X0185879Y0271720D01*
X0180804Y0271720D01*
X0179592Y0271218D01*
X0178379Y0271720D01*
X0173304Y0271720D01*
X0171889Y0271134D01*
X0171697Y0270942D01*
X0169986Y0270942D01*
X0169794Y0271134D01*
X0168379Y0271720D01*
X0163304Y0271720D01*
X0162092Y0271218D01*
X0160879Y0271720D01*
X0155804Y0271720D01*
X0154389Y0271134D01*
X0154197Y0270942D01*
X0146016Y0270942D01*
X0144380Y0270265D01*
X0138321Y0264206D01*
X0137069Y0262954D01*
X0136392Y0261318D01*
X0136392Y0249776D01*
X0134191Y0247576D01*
X0109651Y0247576D01*
X0108672Y0248555D01*
X0107257Y0249141D01*
X0099426Y0249141D01*
X0098011Y0248555D01*
X0096928Y0247472D01*
X0096342Y0246057D01*
X0096342Y0240397D01*
X0095358Y0238021D01*
X0095358Y0234845D01*
X0096342Y0232469D01*
X0096342Y0226809D01*
X0096928Y0225394D01*
X0098011Y0224311D01*
X0099426Y0223725D01*
X0107257Y0223725D01*
X0108672Y0224311D01*
X0109144Y0224783D01*
X0111338Y0224783D01*
X0112224Y0223898D01*
X0113639Y0223311D01*
X0116851Y0223311D01*
X0081623Y0188083D01*
X0077192Y0188083D01*
X0077192Y0194699D01*
X0076606Y0196114D01*
X0075523Y0197197D01*
X0074108Y0197783D01*
X0062576Y0197783D01*
X0061161Y0197197D01*
X0060078Y0196114D01*
X0059492Y0194699D01*
X0059492Y0173167D01*
X0060032Y0171863D01*
X0058586Y0168374D01*
X0058586Y0164493D01*
X0060032Y0161003D01*
X0059492Y0159699D01*
X0059492Y0156076D01*
X0059387Y0156181D01*
X0058698Y0157844D01*
X0057253Y0159290D01*
X0055364Y0160072D01*
X0053320Y0160072D01*
X0051431Y0159290D01*
X0049985Y0157844D01*
X0049203Y0155955D01*
X0049203Y0153911D01*
X0049985Y0152022D01*
X0051431Y0150576D01*
X0053094Y0149887D01*
X0057821Y0145161D01*
X0059457Y0144483D01*
X0059492Y0144483D01*
X0059492Y0138167D01*
X0061342Y0135594D02*
X0061342Y0032783D01*
X0054937Y0032783D02*
X0037192Y0050528D01*
X0037192Y0282338D01*
X0054924Y0300070D01*
X0059038Y0300038D01*
X0059150Y0300083D01*
X0286747Y0300083D01*
X0304492Y0282338D01*
X0304492Y0050528D01*
X0286747Y0032783D01*
X0054937Y0032783D01*
X0068342Y0032783D02*
X0068342Y0135083D01*
X0075342Y0135594D02*
X0075342Y0032783D01*
X0082342Y0032783D02*
X0082342Y0147595D01*
X0081301Y0147933D02*
X0077192Y0147933D01*
X0077192Y0140933D02*
X0106192Y0140933D01*
X0106192Y0133933D02*
X0037192Y0133933D01*
X0037192Y0126933D02*
X0104567Y0126933D01*
X0103342Y0125708D02*
X0103342Y0153710D01*
X0104337Y0154933D02*
X0106192Y0154933D01*
X0101890Y0151926D02*
X0101890Y0151926D01*
X0097474Y0148809D02*
X0097474Y0148809D01*
X0096342Y0148406D02*
X0096342Y0100396D01*
X0095736Y0098933D02*
X0037192Y0098933D01*
X0037192Y0091933D02*
X0096342Y0091933D01*
X0096342Y0092470D02*
X0096342Y0032783D01*
X0103342Y0032783D02*
X0103342Y0083447D01*
X0097389Y0084933D02*
X0037192Y0084933D01*
X0037192Y0077933D02*
X0108856Y0077933D01*
X0110342Y0076447D02*
X0110342Y0032783D01*
X0117342Y0032783D02*
X0117342Y0069447D01*
X0115856Y0070933D02*
X0037192Y0070933D01*
X0037192Y0063933D02*
X0304492Y0063933D01*
X0304492Y0056933D02*
X0037192Y0056933D01*
X0037787Y0049933D02*
X0303897Y0049933D01*
X0299342Y0045378D02*
X0299342Y0287488D01*
X0298897Y0287933D02*
X0042787Y0287933D01*
X0040342Y0285488D02*
X0040342Y0047378D01*
X0089342Y0032783D02*
X0089342Y0146790D01*
X0095011Y0147933D02*
X0106192Y0147933D01*
X0114492Y0135325D02*
X0115076Y0135083D01*
X0126608Y0135083D01*
X0128023Y0135669D01*
X0129106Y0136752D01*
X0129692Y0138167D01*
X0129692Y0146990D01*
X0132589Y0149887D01*
X0134253Y0150576D01*
X0135698Y0152022D01*
X0136481Y0153911D01*
X0136481Y0155955D01*
X0135698Y0157844D01*
X0134253Y0159290D01*
X0132364Y0160072D01*
X0130320Y0160072D01*
X0129652Y0159795D01*
X0129152Y0161003D01*
X0130597Y0164493D01*
X0130597Y0168374D01*
X0129152Y0171863D01*
X0129692Y0173167D01*
X0129692Y0174794D01*
X0131275Y0174794D01*
X0133164Y0175576D01*
X0134609Y0177022D01*
X0135392Y0178911D01*
X0135392Y0180955D01*
X0134609Y0182844D01*
X0133164Y0184290D01*
X0131275Y0185072D01*
X0130983Y0185072D01*
X0129771Y0186284D01*
X0129692Y0186363D01*
X0129692Y0194699D01*
X0129106Y0196114D01*
X0128023Y0197197D01*
X0126608Y0197783D01*
X0124992Y0197783D01*
X0124992Y0206714D01*
X0131072Y0212794D01*
X0131364Y0212794D01*
X0133253Y0213576D01*
X0134698Y0215022D01*
X0135481Y0216911D01*
X0135481Y0218955D01*
X0135138Y0219783D01*
X0145220Y0219783D01*
X0145220Y0219230D01*
X0145703Y0218065D01*
X0145703Y0216911D01*
X0146485Y0215022D01*
X0147931Y0213576D01*
X0149820Y0212794D01*
X0151864Y0212794D01*
X0153753Y0213576D01*
X0155092Y0214915D01*
X0156431Y0213576D01*
X0158320Y0212794D01*
X0158703Y0212794D01*
X0158703Y0210911D01*
X0158839Y0210583D01*
X0158306Y0210051D01*
X0157720Y0208636D01*
X0157720Y0204348D01*
X0157892Y0203933D01*
X0138481Y0203933D01*
X0138481Y0202911D02*
X0137698Y0201022D01*
X0136253Y0199576D01*
X0134364Y0198794D01*
X0132320Y0198794D01*
X0130431Y0199576D01*
X0128985Y0201022D01*
X0128203Y0202911D01*
X0128203Y0204955D01*
X0128985Y0206844D01*
X0130431Y0208290D01*
X0132320Y0209072D01*
X0134364Y0209072D01*
X0136253Y0208290D01*
X0137698Y0206844D01*
X0138481Y0204955D01*
X0138481Y0202911D01*
X0138342Y0202575D02*
X0138342Y0187791D01*
X0138203Y0187455D02*
X0138203Y0185411D01*
X0138985Y0183522D01*
X0139824Y0182683D01*
X0138985Y0181844D01*
X0138203Y0179955D01*
X0138203Y0177911D01*
X0138815Y0176433D01*
X0138203Y0174955D01*
X0138203Y0172911D01*
X0138985Y0171022D01*
X0140431Y0169576D01*
X0141984Y0168933D01*
X0130366Y0168933D01*
X0131342Y0174822D02*
X0131342Y0160072D01*
X0129537Y0161933D02*
X0138608Y0161933D01*
X0138815Y0161433D02*
X0138203Y0159955D01*
X0138203Y0157911D01*
X0138985Y0156022D01*
X0140431Y0154576D01*
X0142320Y0153794D01*
X0144364Y0153794D01*
X0144692Y0153930D01*
X0144724Y0153898D01*
X0146139Y0153311D01*
X0150427Y0153311D01*
X0150842Y0153483D01*
X0151257Y0153311D01*
X0155545Y0153311D01*
X0155692Y0153372D01*
X0155692Y0152275D01*
X0155220Y0151136D01*
X0155220Y0146848D01*
X0155392Y0146433D01*
X0155220Y0146018D01*
X0155220Y0141730D01*
X0155806Y0140315D01*
X0156392Y0139730D01*
X0156392Y0138251D01*
X0154985Y0136844D01*
X0154203Y0134955D01*
X0154203Y0134220D01*
X0148304Y0134220D01*
X0146889Y0133634D01*
X0145806Y0132551D01*
X0145220Y0131136D01*
X0145220Y0126848D01*
X0145392Y0126433D01*
X0145220Y0126018D01*
X0145220Y0121730D01*
X0145806Y0120315D01*
X0146889Y0119232D01*
X0148304Y0118646D01*
X0154313Y0118646D01*
X0154590Y0117975D01*
X0153399Y0116783D01*
X0148076Y0116783D01*
X0146661Y0116197D01*
X0145578Y0115114D01*
X0144992Y0113699D01*
X0144992Y0099167D01*
X0145578Y0097752D01*
X0146661Y0096669D01*
X0147231Y0096433D01*
X0146661Y0096197D01*
X0145578Y0095114D01*
X0144992Y0093699D01*
X0144992Y0079167D01*
X0145578Y0077752D01*
X0146661Y0076669D01*
X0148076Y0076083D01*
X0153608Y0076083D01*
X0155023Y0076669D01*
X0155842Y0077488D01*
X0156661Y0076669D01*
X0158076Y0076083D01*
X0163608Y0076083D01*
X0165023Y0076669D01*
X0165842Y0077488D01*
X0166661Y0076669D01*
X0168076Y0076083D01*
X0173608Y0076083D01*
X0175023Y0076669D01*
X0175842Y0077488D01*
X0176661Y0076669D01*
X0178076Y0076083D01*
X0183608Y0076083D01*
X0185023Y0076669D01*
X0185842Y0077488D01*
X0186392Y0076938D01*
X0186392Y0075383D01*
X0123992Y0075383D01*
X0110341Y0089034D01*
X0110341Y0092469D01*
X0111326Y0094845D01*
X0111326Y0098021D01*
X0110341Y0100397D01*
X0110341Y0106057D01*
X0109755Y0107472D01*
X0108672Y0108555D01*
X0107492Y0109044D01*
X0107492Y0110276D01*
X0108377Y0111162D01*
X0108963Y0112577D01*
X0108963Y0116864D01*
X0108791Y0117280D01*
X0108963Y0117695D01*
X0108963Y0119591D01*
X0112693Y0123320D01*
X0113860Y0124488D01*
X0114492Y0126013D01*
X0114492Y0135325D01*
X0114492Y0133933D02*
X0131984Y0133933D01*
X0132320Y0134072D02*
X0130431Y0133290D01*
X0128985Y0131844D01*
X0128203Y0129955D01*
X0128203Y0127911D01*
X0128985Y0126022D01*
X0130431Y0124576D01*
X0132320Y0123794D01*
X0134364Y0123794D01*
X0136253Y0124576D01*
X0137698Y0126022D01*
X0138481Y0127911D01*
X0138481Y0129955D01*
X0137698Y0131844D01*
X0136253Y0133290D01*
X0134364Y0134072D01*
X0132320Y0134072D01*
X0131342Y0133667D02*
X0131342Y0148640D01*
X0130635Y0147933D02*
X0143401Y0147933D01*
X0143203Y0147455D02*
X0143203Y0145411D01*
X0143985Y0143522D01*
X0145431Y0142076D01*
X0147320Y0141294D01*
X0149364Y0141294D01*
X0151253Y0142076D01*
X0152698Y0143522D01*
X0153481Y0145411D01*
X0153481Y0147455D01*
X0152698Y0149344D01*
X0151253Y0150790D01*
X0149364Y0151572D01*
X0147320Y0151572D01*
X0145431Y0150790D01*
X0143985Y0149344D01*
X0143203Y0147455D01*
X0145342Y0150701D02*
X0145342Y0153642D01*
X0140074Y0154933D02*
X0136481Y0154933D01*
X0138342Y0157575D02*
X0138342Y0130291D01*
X0138342Y0127575D02*
X0138342Y0075383D01*
X0131342Y0075383D02*
X0131342Y0124199D01*
X0128608Y0126933D02*
X0114492Y0126933D01*
X0110342Y0120970D02*
X0110342Y0100396D01*
X0110948Y0098933D02*
X0145089Y0098933D01*
X0145342Y0098322D02*
X0145342Y0094544D01*
X0144992Y0091933D02*
X0110341Y0091933D01*
X0110342Y0092470D02*
X0110342Y0089033D01*
X0114442Y0084933D02*
X0144992Y0084933D01*
X0145342Y0078322D02*
X0145342Y0075383D01*
X0145503Y0077933D02*
X0121442Y0077933D01*
X0124342Y0075383D02*
X0124342Y0135083D01*
X0117342Y0135083D02*
X0117342Y0082033D01*
X0124342Y0066483D02*
X0124342Y0032783D01*
X0131342Y0032783D02*
X0131342Y0066483D01*
X0138342Y0066483D02*
X0138342Y0032783D01*
X0145342Y0032783D02*
X0145342Y0066483D01*
X0152342Y0066483D02*
X0152342Y0032783D01*
X0159342Y0032783D02*
X0159342Y0066483D01*
X0166342Y0066483D02*
X0166342Y0032783D01*
X0173342Y0032783D02*
X0173342Y0066483D01*
X0180342Y0066483D02*
X0180342Y0032783D01*
X0187342Y0032783D02*
X0187342Y0066483D01*
X0194342Y0066483D02*
X0194342Y0032783D01*
X0201342Y0032783D02*
X0201342Y0066483D01*
X0208342Y0066483D02*
X0208342Y0032783D01*
X0215342Y0032783D02*
X0215342Y0066483D01*
X0222342Y0067447D02*
X0222342Y0032783D01*
X0229342Y0032783D02*
X0229342Y0074447D01*
X0232828Y0077933D02*
X0304492Y0077933D01*
X0304492Y0070933D02*
X0225828Y0070933D01*
X0220241Y0077933D02*
X0196181Y0077933D01*
X0196106Y0077752D02*
X0196692Y0079167D01*
X0196692Y0093699D01*
X0196106Y0095114D01*
X0195023Y0096197D01*
X0194453Y0096433D01*
X0195023Y0096669D01*
X0196106Y0097752D01*
X0196692Y0099167D01*
X0196692Y0113699D01*
X0196106Y0115114D01*
X0195023Y0116197D01*
X0193608Y0116783D01*
X0188076Y0116783D01*
X0186661Y0116197D01*
X0185842Y0115378D01*
X0185023Y0116197D01*
X0183608Y0116783D01*
X0178076Y0116783D01*
X0176661Y0116197D01*
X0176544Y0116080D01*
X0177054Y0117311D01*
X0177054Y0118991D01*
X0184972Y0118991D01*
X0185804Y0118646D01*
X0190879Y0118646D01*
X0192294Y0119232D01*
X0193377Y0120315D01*
X0193963Y0121730D01*
X0193963Y0121983D01*
X0193999Y0121983D01*
X0194321Y0121661D01*
X0195957Y0120983D01*
X0219286Y0120983D01*
X0220922Y0121661D01*
X0225072Y0125811D01*
X0226545Y0125811D01*
X0227192Y0126079D01*
X0227192Y0126013D01*
X0227824Y0124488D01*
X0228991Y0123320D01*
X0232720Y0119591D01*
X0232720Y0117695D01*
X0232892Y0117280D01*
X0232720Y0116864D01*
X0232720Y0112577D01*
X0233306Y0111162D01*
X0234192Y0110276D01*
X0234192Y0109044D01*
X0233011Y0108555D01*
X0231928Y0107472D01*
X0231342Y0106057D01*
X0231342Y0100397D01*
X0230358Y0098021D01*
X0230358Y0094845D01*
X0231342Y0092469D01*
X0231342Y0089034D01*
X0217691Y0075383D01*
X0195292Y0075383D01*
X0195292Y0076938D01*
X0196106Y0077752D01*
X0201342Y0075383D02*
X0201342Y0120983D01*
X0208342Y0120983D02*
X0208342Y0075383D01*
X0215342Y0075383D02*
X0215342Y0120983D01*
X0222342Y0123081D02*
X0222342Y0080033D01*
X0227241Y0084933D02*
X0196692Y0084933D01*
X0196692Y0091933D02*
X0231342Y0091933D01*
X0229342Y0087033D02*
X0229342Y0122970D01*
X0232378Y0119933D02*
X0192995Y0119933D01*
X0194342Y0121652D02*
X0194342Y0116479D01*
X0196692Y0112933D02*
X0232720Y0112933D01*
X0231342Y0105933D02*
X0196692Y0105933D01*
X0196595Y0098933D02*
X0230736Y0098933D01*
X0243342Y0108692D02*
X0243342Y0111126D01*
X0243963Y0112933D02*
X0304492Y0112933D01*
X0304492Y0105933D02*
X0245341Y0105933D01*
X0245948Y0098933D02*
X0304492Y0098933D01*
X0304492Y0091933D02*
X0245341Y0091933D01*
X0244294Y0084933D02*
X0304492Y0084933D01*
X0304492Y0119933D02*
X0243963Y0119933D01*
X0243342Y0123433D02*
X0243342Y0149466D01*
X0241895Y0150216D02*
X0241895Y0150216D01*
X0246301Y0147933D02*
X0235492Y0147933D01*
X0237944Y0153906D02*
X0237944Y0153906D01*
X0237319Y0154933D02*
X0235492Y0154933D01*
X0236342Y0156541D02*
X0236342Y0127708D01*
X0237116Y0126933D02*
X0304492Y0126933D01*
X0304492Y0133933D02*
X0235492Y0133933D01*
X0235492Y0140933D02*
X0304492Y0140933D01*
X0304492Y0147933D02*
X0260011Y0147933D01*
X0262474Y0148809D02*
X0262474Y0148809D01*
X0264342Y0150127D02*
X0264342Y0032783D01*
X0271342Y0032783D02*
X0271342Y0158513D01*
X0272456Y0161078D02*
X0272456Y0161078D01*
X0272573Y0161933D02*
X0304492Y0161933D01*
X0304492Y0154933D02*
X0269337Y0154933D01*
X0266890Y0151926D02*
X0266890Y0151926D01*
X0257342Y0146996D02*
X0257342Y0032783D01*
X0250342Y0032783D02*
X0250342Y0146971D01*
X0272848Y0168933D02*
X0304492Y0168933D01*
X0304492Y0175933D02*
X0270655Y0175933D01*
X0270302Y0176747D02*
X0270302Y0176747D01*
X0271342Y0174353D02*
X0271342Y0300083D01*
X0278342Y0300083D02*
X0278342Y0032783D01*
X0285342Y0032783D02*
X0285342Y0300083D01*
X0264342Y0300083D02*
X0264342Y0182739D01*
X0264067Y0182933D02*
X0304492Y0182933D01*
X0304492Y0189933D02*
X0235492Y0189933D01*
X0235492Y0182933D02*
X0242441Y0182933D01*
X0241895Y0182650D02*
X0241895Y0182650D01*
X0243342Y0183400D02*
X0243342Y0224174D01*
X0244294Y0224933D02*
X0304492Y0224933D01*
X0304492Y0217933D02*
X0220211Y0217933D01*
X0222342Y0215802D02*
X0222342Y0223311D01*
X0229342Y0223849D02*
X0229342Y0208802D01*
X0227211Y0210933D02*
X0304492Y0210933D01*
X0304492Y0203933D02*
X0234211Y0203933D01*
X0235492Y0196933D02*
X0304492Y0196933D01*
X0272456Y0171789D02*
X0272456Y0171789D01*
X0266890Y0180940D02*
X0266890Y0180940D01*
X0262474Y0184058D02*
X0262474Y0184058D01*
X0257380Y0185868D02*
X0257380Y0185868D01*
X0257342Y0185871D02*
X0257342Y0300083D01*
X0250342Y0300083D02*
X0250342Y0185895D01*
X0251987Y0186237D02*
X0251987Y0186237D01*
X0246694Y0185137D02*
X0246694Y0185137D01*
X0237944Y0178960D02*
X0237944Y0178960D01*
X0236342Y0176326D02*
X0236342Y0223725D01*
X0245341Y0231933D02*
X0304492Y0231933D01*
X0304492Y0238933D02*
X0245948Y0238933D01*
X0245341Y0245933D02*
X0304492Y0245933D01*
X0304492Y0252933D02*
X0200694Y0252933D01*
X0200892Y0252735D02*
X0200892Y0252735D01*
X0201342Y0252285D02*
X0201342Y0300083D01*
X0208342Y0300083D02*
X0208342Y0247576D01*
X0215342Y0247576D02*
X0215342Y0300083D01*
X0222342Y0300083D02*
X0222342Y0247576D01*
X0229342Y0247576D02*
X0229342Y0300083D01*
X0236342Y0300083D02*
X0236342Y0249141D01*
X0243342Y0248692D02*
X0243342Y0300083D01*
X0197744Y0259933D02*
X0304492Y0259933D01*
X0304492Y0266933D02*
X0191635Y0266933D01*
X0194342Y0264226D02*
X0194342Y0300083D01*
X0187342Y0300083D02*
X0187342Y0271086D01*
X0180342Y0271528D02*
X0180342Y0300083D01*
X0173342Y0300083D02*
X0173342Y0271720D01*
X0166342Y0271720D02*
X0166342Y0300083D01*
X0159342Y0300083D02*
X0159342Y0271720D01*
X0152342Y0270942D02*
X0152342Y0300083D01*
X0145342Y0300083D02*
X0145342Y0270663D01*
X0141049Y0266933D02*
X0037192Y0266933D01*
X0037192Y0259933D02*
X0136392Y0259933D01*
X0138342Y0264226D02*
X0138342Y0300083D01*
X0131342Y0300083D02*
X0131342Y0247576D01*
X0124342Y0247576D02*
X0124342Y0300083D01*
X0117342Y0300083D02*
X0117342Y0247576D01*
X0110342Y0247576D02*
X0110342Y0300083D01*
X0103342Y0300083D02*
X0103342Y0249141D01*
X0096342Y0245933D02*
X0037192Y0245933D01*
X0037192Y0252933D02*
X0136392Y0252933D01*
X0110342Y0224783D02*
X0110342Y0216802D01*
X0111473Y0217933D02*
X0037192Y0217933D01*
X0037192Y0224933D02*
X0097389Y0224933D01*
X0103342Y0223725D02*
X0103342Y0209802D01*
X0104473Y0210933D02*
X0037192Y0210933D01*
X0037192Y0203933D02*
X0097473Y0203933D01*
X0096342Y0202802D02*
X0096342Y0232470D01*
X0096342Y0231933D02*
X0037192Y0231933D01*
X0037192Y0238933D02*
X0095736Y0238933D01*
X0096342Y0240396D02*
X0096342Y0300083D01*
X0089342Y0300083D02*
X0089342Y0195802D01*
X0090473Y0196933D02*
X0075787Y0196933D01*
X0075342Y0197272D02*
X0075342Y0300083D01*
X0082342Y0300083D02*
X0082342Y0188802D01*
X0083473Y0189933D02*
X0077192Y0189933D01*
X0068342Y0197783D02*
X0068342Y0300083D01*
X0061342Y0300083D02*
X0061342Y0197272D01*
X0060897Y0196933D02*
X0037192Y0196933D01*
X0037192Y0189933D02*
X0059492Y0189933D01*
X0059492Y0182933D02*
X0037192Y0182933D01*
X0037192Y0175933D02*
X0059492Y0175933D01*
X0058818Y0168933D02*
X0037192Y0168933D01*
X0037192Y0161933D02*
X0059646Y0161933D01*
X0054342Y0160072D02*
X0054342Y0299488D01*
X0037192Y0280933D02*
X0304492Y0280933D01*
X0304492Y0273933D02*
X0037192Y0273933D01*
X0124992Y0203933D02*
X0128203Y0203933D01*
X0131342Y0199199D02*
X0131342Y0185044D01*
X0134520Y0182933D02*
X0139574Y0182933D01*
X0138342Y0185075D02*
X0138342Y0180291D01*
X0138342Y0177575D02*
X0138342Y0175291D01*
X0138608Y0175933D02*
X0133520Y0175933D01*
X0138342Y0172575D02*
X0138342Y0165291D01*
X0138203Y0164955D02*
X0138203Y0162911D01*
X0138815Y0161433D01*
X0138342Y0160291D02*
X0138342Y0162575D01*
X0138203Y0164955D02*
X0138985Y0166844D01*
X0140431Y0168290D01*
X0141984Y0168933D01*
X0158219Y0182460D02*
X0158043Y0182886D01*
X0156960Y0183969D01*
X0155545Y0184555D01*
X0151257Y0184555D01*
X0150842Y0184383D01*
X0150427Y0184555D01*
X0148126Y0184555D01*
X0148481Y0185411D01*
X0148481Y0187455D01*
X0147698Y0189344D01*
X0146253Y0190790D01*
X0144364Y0191572D01*
X0142320Y0191572D01*
X0140431Y0190790D01*
X0138985Y0189344D01*
X0138203Y0187455D01*
X0139574Y0189933D02*
X0129692Y0189933D01*
X0128287Y0196933D02*
X0158203Y0196933D01*
X0158203Y0195911D02*
X0158985Y0194022D01*
X0160431Y0192576D01*
X0162320Y0191794D01*
X0163192Y0191794D01*
X0163192Y0179663D01*
X0163149Y0179646D01*
X0162097Y0178594D01*
X0159407Y0181284D01*
X0158240Y0182451D01*
X0158219Y0182460D01*
X0157995Y0182933D02*
X0163192Y0182933D01*
X0159342Y0181349D02*
X0159342Y0193665D01*
X0158203Y0195911D02*
X0158203Y0197955D01*
X0158226Y0198010D01*
X0157720Y0199230D01*
X0157720Y0203518D01*
X0157892Y0203933D01*
X0158703Y0210933D02*
X0129211Y0210933D01*
X0131342Y0212794D02*
X0131342Y0208667D01*
X0138342Y0205291D02*
X0138342Y0219783D01*
X0135481Y0217933D02*
X0145703Y0217933D01*
X0145342Y0218937D02*
X0145342Y0191167D01*
X0147109Y0189933D02*
X0163192Y0189933D01*
X0152342Y0184555D02*
X0152342Y0212992D01*
X0184290Y0216493D02*
X0184558Y0216761D01*
X0185144Y0218176D01*
X0185144Y0219330D01*
X0207076Y0219330D01*
X0227192Y0199214D01*
X0227192Y0177202D01*
X0224695Y0178236D01*
X0222548Y0178236D01*
X0201220Y0199563D01*
X0201253Y0199576D01*
X0202698Y0201022D01*
X0203481Y0202911D01*
X0203481Y0204955D01*
X0202698Y0206844D01*
X0201253Y0208290D01*
X0199364Y0209072D01*
X0197320Y0209072D01*
X0195431Y0208290D01*
X0193985Y0206844D01*
X0193972Y0206812D01*
X0184290Y0216493D01*
X0185043Y0217933D02*
X0208473Y0217933D01*
X0208342Y0218064D02*
X0208342Y0192442D01*
X0210850Y0189933D02*
X0227192Y0189933D01*
X0227192Y0182933D02*
X0217850Y0182933D01*
X0215342Y0185442D02*
X0215342Y0211064D01*
X0215473Y0210933D02*
X0189850Y0210933D01*
X0187342Y0213442D02*
X0187342Y0219330D01*
X0194342Y0219330D02*
X0194342Y0207201D01*
X0201342Y0208201D02*
X0201342Y0219330D01*
X0203481Y0203933D02*
X0222473Y0203933D01*
X0222342Y0204064D02*
X0222342Y0178442D01*
X0235492Y0175933D02*
X0236103Y0175933D01*
X0227192Y0196933D02*
X0203850Y0196933D01*
X0201342Y0199442D02*
X0201342Y0199665D01*
X0199192Y0161294D02*
X0197320Y0161294D01*
X0196992Y0161430D01*
X0196960Y0161398D01*
X0195545Y0160811D01*
X0191257Y0160811D01*
X0190842Y0160983D01*
X0190427Y0160811D01*
X0186139Y0160811D01*
X0184724Y0161398D01*
X0184141Y0161981D01*
X0184141Y0160655D01*
X0183554Y0159240D01*
X0183428Y0159114D01*
X0184698Y0157844D01*
X0185481Y0155955D01*
X0185481Y0153911D01*
X0184698Y0152022D01*
X0183253Y0150576D01*
X0181463Y0149835D01*
X0181463Y0149664D01*
X0182863Y0148265D01*
X0184114Y0147013D01*
X0184792Y0145377D01*
X0184792Y0143619D01*
X0185481Y0141955D01*
X0185481Y0139911D01*
X0184698Y0138022D01*
X0183253Y0136576D01*
X0183052Y0136493D01*
X0186176Y0136493D01*
X0187811Y0135816D01*
X0189407Y0134220D01*
X0190879Y0134220D01*
X0192294Y0133634D01*
X0193377Y0132551D01*
X0193828Y0131464D01*
X0193985Y0131844D01*
X0195431Y0133290D01*
X0197320Y0134072D01*
X0199364Y0134072D01*
X0201253Y0133290D01*
X0202698Y0131844D01*
X0203481Y0129955D01*
X0203481Y0129883D01*
X0214055Y0129883D01*
X0214055Y0133971D01*
X0214439Y0134898D01*
X0214439Y0135543D01*
X0214094Y0135887D01*
X0212431Y0136576D01*
X0210985Y0138022D01*
X0210203Y0139911D01*
X0210203Y0141955D01*
X0210339Y0142283D01*
X0210016Y0142283D01*
X0208491Y0142915D01*
X0207324Y0144082D01*
X0199824Y0151582D01*
X0199192Y0153108D01*
X0199192Y0161294D01*
X0194342Y0160811D02*
X0194342Y0132201D01*
X0196984Y0133933D02*
X0191572Y0133933D01*
X0187342Y0136010D02*
X0187342Y0160811D01*
X0184188Y0161933D02*
X0184141Y0161933D01*
X0185481Y0154933D02*
X0199192Y0154933D01*
X0201342Y0150064D02*
X0201342Y0133201D01*
X0199700Y0133933D02*
X0214055Y0133933D01*
X0208342Y0129883D02*
X0208342Y0143064D01*
X0210203Y0140933D02*
X0185481Y0140933D01*
X0183194Y0147933D02*
X0203473Y0147933D01*
X0187342Y0118646D02*
X0187342Y0116479D01*
X0180342Y0116783D02*
X0180342Y0118991D01*
X0155550Y0140933D02*
X0129692Y0140933D01*
X0134700Y0133933D02*
X0147611Y0133933D01*
X0145342Y0131430D02*
X0145342Y0142165D01*
X0152342Y0143165D02*
X0152342Y0134220D01*
X0145220Y0126933D02*
X0138076Y0126933D01*
X0145342Y0126555D02*
X0145342Y0126311D01*
X0145342Y0121437D02*
X0145342Y0114544D01*
X0144992Y0112933D02*
X0108963Y0112933D01*
X0110341Y0105933D02*
X0144992Y0105933D01*
X0152342Y0116783D02*
X0152342Y0118646D01*
X0146188Y0119933D02*
X0109305Y0119933D01*
X0097720Y0119933D02*
X0037192Y0119933D01*
X0037192Y0112933D02*
X0097720Y0112933D01*
X0096342Y0105933D02*
X0037192Y0105933D01*
X0037192Y0154933D02*
X0049203Y0154933D01*
X0152342Y0153311D02*
X0152342Y0149701D01*
X0153283Y0147933D02*
X0155220Y0147933D01*
X0166342Y0076988D02*
X0166342Y0075383D01*
X0173342Y0075383D02*
X0173342Y0076083D01*
X0180342Y0076083D02*
X0180342Y0075383D01*
X0159342Y0075383D02*
X0159342Y0076083D01*
X0152342Y0076083D02*
X0152342Y0075383D01*
X0236342Y0081447D02*
X0236342Y0032783D01*
X0243342Y0032783D02*
X0243342Y0084174D01*
M02*
