G04 EAGLE Gerber X2 export*
%TF.Part,Single*%
%TF.FileFunction,Copper,L3,Inr,Mixed*%
%TF.FilePolarity,Positive*%
%TF.GenerationSoftware,Autodesk,EAGLE,8.6.0*%
%TF.CreationDate,2018-05-27T13:35:38Z*%
G75*
%MOMM*%
%FSLAX34Y34*%
%LPD*%
%AMOC8*
5,1,8,0,0,1.08239X$1,22.5*%
G01*
%ADD10C,0.654800*%
%ADD11C,1.500000*%
%ADD12C,0.152400*%


D10*
X381000Y509457D03*
X336550Y171450D03*
X388620Y504455D03*
X387350Y171450D03*
X320040Y231140D03*
X373380Y284480D03*
X400050Y106680D03*
X373380Y320040D03*
X53340Y320040D03*
X248920Y320040D03*
X320040Y266700D03*
X320040Y480060D03*
X330200Y426720D03*
D11*
X482600Y336550D03*
D10*
X373380Y373380D03*
X391160Y533400D03*
X462280Y284480D03*
X303530Y519459D03*
X346445Y533400D03*
X331470Y464820D03*
X367056Y533400D03*
X347980Y425450D03*
X349230Y276880D03*
X298450Y480060D03*
X317500Y533400D03*
X246380Y524510D03*
X246380Y480060D03*
D11*
X457200Y336550D03*
D10*
X246154Y383540D03*
X279400Y381000D03*
D12*
X279400Y400050D01*
D10*
X279400Y400050D03*
X419100Y361950D03*
D12*
X419100Y444500D01*
D10*
X419100Y444500D03*
X279400Y342900D03*
D12*
X254000Y368300D01*
X254000Y444500D01*
D10*
X254000Y444500D03*
X279400Y330200D03*
D12*
X254000Y304800D01*
X254000Y254000D01*
D10*
X254000Y254000D03*
X279400Y368300D03*
D12*
X279400Y355600D01*
X292100Y342900D01*
X292100Y298450D01*
D10*
X292100Y298450D03*
X419100Y349250D03*
D12*
X419100Y254000D01*
D10*
X419100Y254000D03*
X355600Y419100D03*
X368300Y419100D03*
D11*
X457200Y361950D03*
X482600Y361950D03*
D10*
X360680Y320040D03*
X182880Y320040D03*
X551180Y284480D03*
X551180Y426720D03*
X274320Y274320D03*
X434340Y426720D03*
X657860Y355600D03*
X35560Y355600D03*
X365760Y228600D03*
M02*
