G04 EAGLE Gerber X2 export*
%TF.Part,Single*%
%TF.FileFunction,Copper,L4,Bot,Mixed*%
%TF.FilePolarity,Positive*%
%TF.GenerationSoftware,Autodesk,EAGLE,8.6.0*%
%TF.CreationDate,2018-05-27T13:35:38Z*%
G75*
%MOMM*%
%FSLAX34Y34*%
%LPD*%
%AMOC8*
5,1,8,0,0,1.08239X$1,22.5*%
G01*
%ADD10C,0.654800*%
%ADD11C,1.500000*%
%ADD12C,0.152400*%
%ADD13C,1.270000*%
%ADD14C,0.177800*%

G36*
X628740Y56404D02*
X628740Y56404D01*
X628831Y56411D01*
X628861Y56423D01*
X628893Y56429D01*
X628973Y56471D01*
X629057Y56507D01*
X629089Y56533D01*
X629110Y56544D01*
X629132Y56567D01*
X629188Y56612D01*
X641888Y69312D01*
X641941Y69386D01*
X642001Y69455D01*
X642013Y69485D01*
X642032Y69511D01*
X642059Y69598D01*
X642093Y69683D01*
X642097Y69724D01*
X642104Y69747D01*
X642103Y69779D01*
X642111Y69850D01*
X642111Y260350D01*
X642108Y260370D01*
X642110Y260389D01*
X642088Y260491D01*
X642072Y260593D01*
X642062Y260610D01*
X642058Y260630D01*
X642005Y260719D01*
X641956Y260810D01*
X641942Y260824D01*
X641932Y260841D01*
X641853Y260908D01*
X641778Y260980D01*
X641760Y260988D01*
X641745Y261001D01*
X641649Y261040D01*
X641555Y261083D01*
X641535Y261085D01*
X641517Y261093D01*
X641350Y261111D01*
X393700Y261111D01*
X393680Y261108D01*
X393661Y261110D01*
X393559Y261088D01*
X393457Y261072D01*
X393440Y261062D01*
X393420Y261058D01*
X393331Y261005D01*
X393240Y260956D01*
X393226Y260942D01*
X393209Y260932D01*
X393142Y260853D01*
X393071Y260778D01*
X393062Y260760D01*
X393049Y260745D01*
X393010Y260649D01*
X392967Y260555D01*
X392965Y260535D01*
X392957Y260517D01*
X392939Y260350D01*
X392939Y57150D01*
X392942Y57130D01*
X392940Y57111D01*
X392962Y57009D01*
X392979Y56907D01*
X392988Y56890D01*
X392992Y56870D01*
X393045Y56781D01*
X393094Y56690D01*
X393108Y56676D01*
X393118Y56659D01*
X393197Y56592D01*
X393272Y56521D01*
X393290Y56512D01*
X393305Y56499D01*
X393401Y56460D01*
X393495Y56417D01*
X393515Y56415D01*
X393533Y56407D01*
X393700Y56389D01*
X628650Y56389D01*
X628740Y56404D01*
G37*
G36*
X304820Y56392D02*
X304820Y56392D01*
X304839Y56390D01*
X304941Y56412D01*
X305043Y56429D01*
X305060Y56438D01*
X305080Y56442D01*
X305169Y56495D01*
X305260Y56544D01*
X305274Y56558D01*
X305291Y56568D01*
X305358Y56647D01*
X305430Y56722D01*
X305438Y56740D01*
X305451Y56755D01*
X305490Y56851D01*
X305533Y56945D01*
X305535Y56965D01*
X305543Y56983D01*
X305561Y57150D01*
X305561Y260350D01*
X305558Y260370D01*
X305560Y260389D01*
X305538Y260491D01*
X305522Y260593D01*
X305512Y260610D01*
X305508Y260630D01*
X305455Y260719D01*
X305406Y260810D01*
X305392Y260824D01*
X305382Y260841D01*
X305303Y260908D01*
X305228Y260980D01*
X305210Y260988D01*
X305195Y261001D01*
X305099Y261040D01*
X305005Y261083D01*
X304985Y261085D01*
X304967Y261093D01*
X304800Y261111D01*
X57150Y261111D01*
X57130Y261108D01*
X57111Y261110D01*
X57009Y261088D01*
X56907Y261072D01*
X56890Y261062D01*
X56870Y261058D01*
X56781Y261005D01*
X56690Y260956D01*
X56676Y260942D01*
X56659Y260932D01*
X56592Y260853D01*
X56521Y260778D01*
X56512Y260760D01*
X56499Y260745D01*
X56460Y260649D01*
X56417Y260555D01*
X56415Y260535D01*
X56407Y260517D01*
X56389Y260350D01*
X56389Y76200D01*
X56404Y76110D01*
X56411Y76019D01*
X56423Y75989D01*
X56429Y75957D01*
X56471Y75877D01*
X56507Y75793D01*
X56533Y75761D01*
X56544Y75740D01*
X56567Y75718D01*
X56582Y75699D01*
X56587Y75690D01*
X56593Y75685D01*
X56612Y75662D01*
X75662Y56612D01*
X75736Y56559D01*
X75805Y56499D01*
X75835Y56487D01*
X75861Y56468D01*
X75948Y56441D01*
X76033Y56407D01*
X76074Y56403D01*
X76097Y56396D01*
X76129Y56397D01*
X76200Y56389D01*
X304800Y56389D01*
X304820Y56392D01*
G37*
G36*
X641370Y437392D02*
X641370Y437392D01*
X641389Y437390D01*
X641491Y437412D01*
X641593Y437429D01*
X641610Y437438D01*
X641630Y437442D01*
X641719Y437495D01*
X641810Y437544D01*
X641824Y437558D01*
X641841Y437568D01*
X641908Y437647D01*
X641980Y437722D01*
X641988Y437740D01*
X642001Y437755D01*
X642040Y437851D01*
X642083Y437945D01*
X642085Y437965D01*
X642093Y437983D01*
X642111Y438150D01*
X642111Y622300D01*
X642097Y622390D01*
X642089Y622481D01*
X642077Y622511D01*
X642072Y622543D01*
X642029Y622623D01*
X641993Y622707D01*
X641967Y622739D01*
X641956Y622760D01*
X641933Y622782D01*
X641888Y622838D01*
X622838Y641888D01*
X622764Y641941D01*
X622695Y642001D01*
X622665Y642013D01*
X622639Y642032D01*
X622552Y642059D01*
X622467Y642093D01*
X622426Y642097D01*
X622403Y642104D01*
X622371Y642103D01*
X622300Y642111D01*
X393700Y642111D01*
X393680Y642108D01*
X393661Y642110D01*
X393559Y642088D01*
X393457Y642072D01*
X393440Y642062D01*
X393420Y642058D01*
X393331Y642005D01*
X393240Y641956D01*
X393226Y641942D01*
X393209Y641932D01*
X393142Y641853D01*
X393071Y641778D01*
X393062Y641760D01*
X393049Y641745D01*
X393010Y641649D01*
X392967Y641555D01*
X392965Y641535D01*
X392957Y641517D01*
X392939Y641350D01*
X392939Y538364D01*
X392954Y538274D01*
X392961Y538183D01*
X392973Y538153D01*
X392979Y538121D01*
X393021Y538040D01*
X393057Y537956D01*
X393083Y537924D01*
X393094Y537904D01*
X393117Y537881D01*
X393162Y537826D01*
X395705Y535283D01*
X395705Y531517D01*
X393162Y528974D01*
X393109Y528901D01*
X393049Y528831D01*
X393037Y528801D01*
X393018Y528775D01*
X392991Y528688D01*
X392957Y528603D01*
X392953Y528562D01*
X392946Y528540D01*
X392947Y528507D01*
X392939Y528436D01*
X392939Y506879D01*
X392954Y506789D01*
X392961Y506698D01*
X392973Y506668D01*
X392979Y506636D01*
X393021Y506556D01*
X393057Y506472D01*
X393083Y506440D01*
X393094Y506419D01*
X393117Y506397D01*
X393162Y506341D01*
X393165Y506338D01*
X393165Y502573D01*
X393162Y502570D01*
X393109Y502496D01*
X393049Y502426D01*
X393037Y502396D01*
X393018Y502370D01*
X392991Y502283D01*
X392957Y502198D01*
X392953Y502157D01*
X392946Y502135D01*
X392947Y502103D01*
X392939Y502032D01*
X392939Y438150D01*
X392942Y438130D01*
X392940Y438111D01*
X392962Y438009D01*
X392979Y437907D01*
X392988Y437890D01*
X392992Y437870D01*
X393045Y437781D01*
X393094Y437690D01*
X393108Y437676D01*
X393118Y437659D01*
X393197Y437592D01*
X393272Y437521D01*
X393290Y437512D01*
X393305Y437499D01*
X393401Y437460D01*
X393495Y437417D01*
X393515Y437415D01*
X393533Y437407D01*
X393700Y437389D01*
X641350Y437389D01*
X641370Y437392D01*
G37*
G36*
X304820Y437392D02*
X304820Y437392D01*
X304839Y437390D01*
X304941Y437412D01*
X305043Y437429D01*
X305060Y437438D01*
X305080Y437442D01*
X305169Y437495D01*
X305260Y437544D01*
X305274Y437558D01*
X305291Y437568D01*
X305358Y437647D01*
X305430Y437722D01*
X305438Y437740D01*
X305451Y437755D01*
X305490Y437851D01*
X305533Y437945D01*
X305535Y437965D01*
X305543Y437983D01*
X305561Y438150D01*
X305561Y514153D01*
X305558Y514173D01*
X305560Y514193D01*
X305538Y514294D01*
X305522Y514396D01*
X305512Y514414D01*
X305508Y514433D01*
X305455Y514522D01*
X305406Y514613D01*
X305392Y514627D01*
X305382Y514644D01*
X305303Y514712D01*
X305228Y514783D01*
X305210Y514791D01*
X305195Y514804D01*
X305099Y514843D01*
X305005Y514886D01*
X304985Y514889D01*
X304967Y514896D01*
X304800Y514915D01*
X301647Y514915D01*
X298985Y517577D01*
X298985Y521342D01*
X301647Y524004D01*
X304800Y524004D01*
X304820Y524007D01*
X304839Y524005D01*
X304941Y524027D01*
X305043Y524044D01*
X305060Y524053D01*
X305080Y524057D01*
X305169Y524110D01*
X305260Y524159D01*
X305274Y524173D01*
X305291Y524183D01*
X305358Y524262D01*
X305430Y524337D01*
X305438Y524355D01*
X305451Y524370D01*
X305490Y524467D01*
X305533Y524560D01*
X305535Y524580D01*
X305543Y524599D01*
X305561Y524765D01*
X305561Y641350D01*
X305558Y641370D01*
X305560Y641389D01*
X305538Y641491D01*
X305522Y641593D01*
X305512Y641610D01*
X305508Y641630D01*
X305455Y641719D01*
X305406Y641810D01*
X305392Y641824D01*
X305382Y641841D01*
X305303Y641908D01*
X305228Y641980D01*
X305210Y641988D01*
X305195Y642001D01*
X305099Y642040D01*
X305005Y642083D01*
X304985Y642085D01*
X304967Y642093D01*
X304800Y642111D01*
X76200Y642111D01*
X76110Y642097D01*
X76019Y642089D01*
X75989Y642077D01*
X75957Y642072D01*
X75877Y642029D01*
X75793Y641993D01*
X75761Y641967D01*
X75740Y641956D01*
X75718Y641933D01*
X75662Y641888D01*
X56612Y622838D01*
X56559Y622764D01*
X56499Y622695D01*
X56487Y622665D01*
X56468Y622639D01*
X56441Y622552D01*
X56407Y622467D01*
X56403Y622426D01*
X56396Y622403D01*
X56397Y622371D01*
X56389Y622300D01*
X56389Y438150D01*
X56392Y438130D01*
X56390Y438111D01*
X56412Y438009D01*
X56429Y437907D01*
X56438Y437890D01*
X56442Y437870D01*
X56495Y437781D01*
X56544Y437690D01*
X56558Y437676D01*
X56568Y437659D01*
X56647Y437592D01*
X56722Y437521D01*
X56740Y437512D01*
X56755Y437499D01*
X56851Y437460D01*
X56945Y437417D01*
X56965Y437415D01*
X56983Y437407D01*
X57150Y437389D01*
X304800Y437389D01*
X304820Y437392D01*
G37*
%LPC*%
G36*
X175206Y514009D02*
X175206Y514009D01*
X170413Y515995D01*
X166745Y519663D01*
X164759Y524456D01*
X164759Y529644D01*
X166745Y534437D01*
X170413Y538105D01*
X175206Y540091D01*
X180394Y540091D01*
X185187Y538105D01*
X188855Y534437D01*
X190841Y529644D01*
X190841Y524456D01*
X188855Y519663D01*
X185187Y515995D01*
X180394Y514009D01*
X175206Y514009D01*
G37*
%LPD*%
%LPC*%
G36*
X518106Y514009D02*
X518106Y514009D01*
X513313Y515995D01*
X509645Y519663D01*
X507659Y524456D01*
X507659Y529644D01*
X509645Y534437D01*
X513313Y538105D01*
X518106Y540091D01*
X523294Y540091D01*
X528087Y538105D01*
X531755Y534437D01*
X533741Y529644D01*
X533741Y524456D01*
X531755Y519663D01*
X528087Y515995D01*
X523294Y514009D01*
X518106Y514009D01*
G37*
%LPD*%
%LPC*%
G36*
X518106Y158409D02*
X518106Y158409D01*
X513313Y160395D01*
X509645Y164063D01*
X507659Y168856D01*
X507659Y174044D01*
X509645Y178837D01*
X513313Y182505D01*
X518106Y184491D01*
X523294Y184491D01*
X528087Y182505D01*
X531755Y178837D01*
X533741Y174044D01*
X533741Y168856D01*
X531755Y164063D01*
X528087Y160395D01*
X523294Y158409D01*
X518106Y158409D01*
G37*
%LPD*%
%LPC*%
G36*
X175206Y158409D02*
X175206Y158409D01*
X170413Y160395D01*
X166745Y164063D01*
X164759Y168856D01*
X164759Y174044D01*
X166745Y178837D01*
X170413Y182505D01*
X175206Y184491D01*
X180394Y184491D01*
X185187Y182505D01*
X188855Y178837D01*
X190841Y174044D01*
X190841Y168856D01*
X188855Y164063D01*
X185187Y160395D01*
X180394Y158409D01*
X175206Y158409D01*
G37*
%LPD*%
%LPC*%
G36*
X244497Y519965D02*
X244497Y519965D01*
X241835Y522627D01*
X241835Y526393D01*
X244497Y529055D01*
X248263Y529055D01*
X250925Y526393D01*
X250925Y522627D01*
X248263Y519965D01*
X244497Y519965D01*
G37*
%LPD*%
%LPC*%
G36*
X296567Y475515D02*
X296567Y475515D01*
X293905Y478177D01*
X293905Y481943D01*
X296567Y484605D01*
X300333Y484605D01*
X302995Y481943D01*
X302995Y478177D01*
X300333Y475515D01*
X296567Y475515D01*
G37*
%LPD*%
%LPC*%
G36*
X244497Y475515D02*
X244497Y475515D01*
X241835Y478177D01*
X241835Y481943D01*
X244497Y484605D01*
X248263Y484605D01*
X250925Y481943D01*
X250925Y478177D01*
X248263Y475515D01*
X244497Y475515D01*
G37*
%LPD*%
%LPC*%
G36*
X398167Y102135D02*
X398167Y102135D01*
X395505Y104797D01*
X395505Y108563D01*
X398167Y111225D01*
X401933Y111225D01*
X404595Y108563D01*
X404595Y104797D01*
X401933Y102135D01*
X398167Y102135D01*
G37*
%LPD*%
D10*
X381000Y509457D03*
X336550Y171450D03*
X388620Y504455D03*
X387350Y171450D03*
X320040Y231140D03*
X373380Y284480D03*
X400050Y106680D03*
X373380Y320040D03*
X53340Y320040D03*
X248920Y320040D03*
X320040Y266700D03*
X320040Y480060D03*
X330200Y426720D03*
D11*
X482600Y336550D03*
D10*
X373380Y373380D03*
X391160Y533400D03*
X462280Y284480D03*
X303530Y519459D03*
X346445Y533400D03*
X331470Y464820D03*
X367056Y533400D03*
X347980Y425450D03*
X349230Y276880D03*
X298450Y480060D03*
X317500Y533400D03*
X246380Y524510D03*
X246380Y480060D03*
D11*
X457200Y336550D03*
D10*
X246154Y383540D03*
D12*
X281488Y348206D02*
X281598Y348206D01*
X281488Y348206D02*
X246154Y383540D01*
X293254Y336550D02*
X457200Y336550D01*
X293254Y336550D02*
X281598Y348206D01*
D13*
X57150Y679450D02*
X641350Y679450D01*
X679450Y641350D01*
X57150Y679450D02*
X19050Y641350D01*
X19050Y400050D01*
X76200Y400050D01*
X190500Y400050D01*
X279400Y400050D01*
X679450Y400050D01*
X679450Y641350D01*
D12*
X190500Y400050D02*
X189865Y399415D01*
X190500Y398780D01*
D10*
X279400Y381000D03*
X279400Y400050D03*
X419100Y361950D03*
X419100Y444500D03*
X279400Y342900D03*
X254000Y444500D03*
X279400Y330200D03*
X254000Y254000D03*
D13*
X57150Y19050D02*
X641350Y19050D01*
X57150Y19050D02*
X19050Y57150D01*
X19050Y298450D01*
X292100Y298450D01*
X673100Y298450D01*
X679450Y298450D02*
X679450Y57150D01*
X641350Y19050D01*
D10*
X279400Y368300D03*
X292100Y298450D03*
X419100Y349250D03*
X419100Y254000D03*
X355600Y419100D03*
X368300Y419100D03*
D11*
X457200Y361950D03*
X482600Y361950D03*
D14*
X475333Y282321D02*
X475333Y281884D01*
X475333Y282321D02*
X663321Y282321D01*
X663321Y63831D01*
X634669Y35179D01*
X63831Y35179D01*
X35179Y63831D01*
X35179Y282321D01*
X337355Y282321D01*
X336177Y279476D01*
X336177Y274284D01*
X338164Y269486D01*
X341836Y265814D01*
X346634Y263827D01*
X351826Y263827D01*
X356624Y265814D01*
X360296Y269486D01*
X362283Y274284D01*
X362283Y277161D01*
X362314Y277086D01*
X365986Y273414D01*
X370784Y271427D01*
X375976Y271427D01*
X380774Y273414D01*
X384446Y277086D01*
X386433Y281884D01*
X386433Y282321D01*
X449227Y282321D01*
X449227Y281884D01*
X451214Y277086D01*
X454886Y273414D01*
X459684Y271427D01*
X464876Y271427D01*
X469674Y273414D01*
X473346Y277086D01*
X475333Y281884D01*
X333093Y269296D02*
X333093Y264104D01*
X333093Y269296D02*
X331106Y274094D01*
X327434Y277766D01*
X322636Y279753D01*
X317444Y279753D01*
X312646Y277766D01*
X308974Y274094D01*
X307538Y270626D01*
X306897Y270891D01*
X55053Y270891D01*
X51179Y269286D01*
X48214Y266321D01*
X46609Y262447D01*
X46609Y74103D01*
X48214Y70229D01*
X51179Y67264D01*
X70229Y48214D01*
X74103Y46609D01*
X306897Y46609D01*
X310771Y48214D01*
X313736Y51179D01*
X315341Y55053D01*
X315341Y218958D01*
X317444Y218087D01*
X322636Y218087D01*
X327434Y220074D01*
X331106Y223746D01*
X333093Y228544D01*
X333093Y233736D01*
X331106Y238534D01*
X327434Y242206D01*
X322636Y244193D01*
X317444Y244193D01*
X315341Y243322D01*
X315341Y254518D01*
X317444Y253647D01*
X322636Y253647D01*
X327434Y255634D01*
X331106Y259306D01*
X333093Y264104D01*
X349603Y174046D02*
X349603Y168854D01*
X349603Y174046D02*
X347616Y178844D01*
X343944Y182516D01*
X339146Y184503D01*
X333954Y184503D01*
X329156Y182516D01*
X325484Y178844D01*
X323497Y174046D01*
X323497Y168854D01*
X325484Y164056D01*
X329156Y160384D01*
X333954Y158397D01*
X339146Y158397D01*
X343944Y160384D01*
X347616Y164056D01*
X349603Y168854D01*
X626553Y46609D02*
X630747Y46609D01*
X634621Y48214D01*
X647321Y60914D01*
X650286Y63879D01*
X651891Y67753D01*
X651891Y262447D01*
X650286Y266321D01*
X647321Y269286D01*
X643447Y270891D01*
X391603Y270891D01*
X387729Y269286D01*
X384764Y266321D01*
X383159Y262447D01*
X383159Y183842D01*
X379956Y182516D01*
X376284Y178844D01*
X374297Y174046D01*
X374297Y168854D01*
X376284Y164056D01*
X379956Y160384D01*
X383159Y159058D01*
X383159Y55053D01*
X384764Y51179D01*
X387729Y48214D01*
X391603Y46609D01*
X395797Y46609D01*
X626553Y46609D01*
X260786Y314579D02*
X261973Y317444D01*
X261973Y322636D01*
X259986Y327434D01*
X256314Y331106D01*
X251516Y333093D01*
X246324Y333093D01*
X241526Y331106D01*
X237854Y327434D01*
X235867Y322636D01*
X235867Y317444D01*
X237054Y314579D01*
X175885Y314579D01*
X182779Y323053D01*
X182779Y323053D01*
X188249Y335647D01*
X188249Y335647D01*
X190119Y349250D01*
X188249Y362853D01*
X188249Y362853D01*
X182779Y375447D01*
X182779Y375447D01*
X175885Y383921D01*
X233101Y383921D01*
X233101Y380944D01*
X235088Y376146D01*
X238760Y372474D01*
X243558Y370487D01*
X244300Y370487D01*
X267209Y347578D01*
X266347Y345496D01*
X266347Y340304D01*
X267902Y336550D01*
X266347Y332796D01*
X266347Y327604D01*
X268334Y322806D01*
X272006Y319134D01*
X276804Y317147D01*
X281996Y317147D01*
X286794Y319134D01*
X290466Y322806D01*
X291792Y326009D01*
X361724Y326009D01*
X360327Y322636D01*
X360327Y317444D01*
X361514Y314579D01*
X288892Y314579D01*
X260786Y314579D01*
X247029Y344321D02*
X247029Y354179D01*
X243257Y363286D01*
X236286Y370257D01*
X227179Y374029D01*
X217321Y374029D01*
X208214Y370257D01*
X201243Y363286D01*
X197471Y354179D01*
X197471Y344321D01*
X201243Y335214D01*
X208214Y328243D01*
X217321Y324471D01*
X227179Y324471D01*
X236286Y328243D01*
X243257Y335214D01*
X247029Y344321D01*
X601879Y323053D02*
X601879Y323053D01*
X607349Y335647D01*
X607349Y335647D01*
X609219Y349250D01*
X607349Y362853D01*
X607349Y362853D01*
X601879Y375447D01*
X601879Y375447D01*
X594985Y383921D01*
X673100Y383921D01*
X673100Y314579D01*
X594985Y314579D01*
X601879Y323053D01*
X187292Y416179D02*
X35179Y416179D01*
X35179Y634669D01*
X63831Y663321D01*
X634669Y663321D01*
X663321Y634669D01*
X663321Y416179D01*
X381219Y416179D01*
X381353Y416504D01*
X381353Y421696D01*
X379366Y426494D01*
X375694Y430166D01*
X370896Y432153D01*
X365704Y432153D01*
X361950Y430598D01*
X359567Y431585D01*
X359046Y432844D01*
X355374Y436516D01*
X350576Y438503D01*
X345384Y438503D01*
X340586Y436516D01*
X339725Y435655D01*
X337594Y437786D01*
X332796Y439773D01*
X327604Y439773D01*
X322806Y437786D01*
X319134Y434114D01*
X317147Y429316D01*
X317147Y424124D01*
X319134Y419326D01*
X322281Y416179D01*
X276192Y416179D01*
X187292Y416179D01*
X373606Y520522D02*
X378404Y522510D01*
X373606Y520522D02*
X369934Y516851D01*
X367947Y512053D01*
X367947Y506860D01*
X369934Y502063D01*
X373606Y498391D01*
X378077Y496539D01*
X381226Y493390D01*
X383159Y492589D01*
X383159Y436053D01*
X384764Y432179D01*
X387729Y429214D01*
X391603Y427609D01*
X643447Y427609D01*
X647321Y429214D01*
X650286Y432179D01*
X651891Y436053D01*
X651891Y624397D01*
X650286Y628271D01*
X631236Y647321D01*
X631236Y647321D01*
X628271Y650286D01*
X624397Y651891D01*
X391603Y651891D01*
X387729Y650286D01*
X384764Y647321D01*
X383159Y643447D01*
X383159Y543859D01*
X380094Y540794D01*
X379108Y538413D01*
X378122Y540794D01*
X374450Y544466D01*
X369652Y546453D01*
X364460Y546453D01*
X359662Y544466D01*
X356750Y541554D01*
X353839Y544466D01*
X349041Y546453D01*
X343848Y546453D01*
X339051Y544466D01*
X335379Y540794D01*
X333392Y535996D01*
X333392Y530804D01*
X335379Y526006D01*
X339051Y522334D01*
X343848Y520347D01*
X349041Y520347D01*
X353839Y522334D01*
X356750Y525246D01*
X359662Y522334D01*
X364460Y520347D01*
X369652Y520347D01*
X374450Y522334D01*
X378122Y526006D01*
X379108Y528387D01*
X380094Y526006D01*
X383159Y522941D01*
X383159Y522510D01*
X378404Y522510D01*
X316583Y520347D02*
X316583Y516863D01*
X316583Y520347D02*
X320096Y520347D01*
X324894Y522334D01*
X328566Y526006D01*
X330553Y530804D01*
X330553Y535996D01*
X328566Y540794D01*
X324894Y544466D01*
X320096Y546453D01*
X315341Y546453D01*
X315341Y643447D01*
X313736Y647321D01*
X310771Y650286D01*
X306897Y651891D01*
X74103Y651891D01*
X70229Y650286D01*
X48214Y628271D01*
X46609Y624397D01*
X46609Y436053D01*
X48214Y432179D01*
X51179Y429214D01*
X55053Y427609D01*
X306897Y427609D01*
X310771Y429214D01*
X313736Y432179D01*
X315341Y436053D01*
X315341Y467878D01*
X317444Y467007D01*
X318417Y467007D01*
X318417Y462224D01*
X320404Y457426D01*
X324076Y453754D01*
X328874Y451767D01*
X334066Y451767D01*
X338864Y453754D01*
X342536Y457426D01*
X344523Y462224D01*
X344523Y467416D01*
X342536Y472214D01*
X338864Y475886D01*
X334066Y477873D01*
X333093Y477873D01*
X333093Y482656D01*
X331106Y487454D01*
X327434Y491126D01*
X322636Y493113D01*
X317444Y493113D01*
X315341Y492242D01*
X315341Y513864D01*
X316583Y516863D01*
X103643Y383921D02*
X25400Y383921D01*
X100589Y381069D02*
X103643Y383921D01*
X100589Y381069D02*
X100589Y381069D01*
X95810Y373209D01*
X93829Y374029D01*
X83971Y374029D01*
X74864Y370257D01*
X67893Y363286D01*
X64121Y354179D01*
X64121Y344321D01*
X67893Y335214D01*
X74864Y328243D01*
X83971Y324471D01*
X93829Y324471D01*
X95810Y325291D01*
X100589Y317431D01*
X100589Y317431D01*
X100589Y317431D01*
X103643Y314579D01*
X65206Y314579D01*
X66393Y317444D01*
X66393Y322636D01*
X64406Y327434D01*
X60734Y331106D01*
X55936Y333093D01*
X50744Y333093D01*
X45946Y331106D01*
X42274Y327434D01*
X40287Y322636D01*
X40287Y317444D01*
X41474Y314579D01*
X25400Y314579D01*
X25400Y383921D01*
X53290Y45720D02*
X645210Y45720D01*
X61293Y57150D02*
X41860Y57150D01*
X315341Y57150D02*
X383159Y57150D01*
X643557Y57150D02*
X656640Y57150D01*
X49863Y68580D02*
X35179Y68580D01*
X315341Y68580D02*
X383159Y68580D01*
X651891Y68580D02*
X663321Y68580D01*
X46609Y80010D02*
X35179Y80010D01*
X315341Y80010D02*
X383159Y80010D01*
X651891Y80010D02*
X663321Y80010D01*
X46609Y91440D02*
X35179Y91440D01*
X315341Y91440D02*
X383159Y91440D01*
X651891Y91440D02*
X663321Y91440D01*
X46609Y102870D02*
X35179Y102870D01*
X315341Y102870D02*
X383159Y102870D01*
X651891Y102870D02*
X663321Y102870D01*
X46609Y114300D02*
X35179Y114300D01*
X315341Y114300D02*
X383159Y114300D01*
X651891Y114300D02*
X663321Y114300D01*
X46609Y125730D02*
X35179Y125730D01*
X315341Y125730D02*
X383159Y125730D01*
X651891Y125730D02*
X663321Y125730D01*
X46609Y137160D02*
X35179Y137160D01*
X315341Y137160D02*
X383159Y137160D01*
X651891Y137160D02*
X663321Y137160D01*
X46609Y148590D02*
X35179Y148590D01*
X315341Y148590D02*
X383159Y148590D01*
X651891Y148590D02*
X663321Y148590D01*
X46609Y160020D02*
X35179Y160020D01*
X315341Y160020D02*
X330035Y160020D01*
X343065Y160020D02*
X380835Y160020D01*
X651891Y160020D02*
X663321Y160020D01*
X46609Y171450D02*
X35179Y171450D01*
X315341Y171450D02*
X323497Y171450D01*
X349603Y171450D02*
X374297Y171450D01*
X651891Y171450D02*
X663321Y171450D01*
X46609Y182880D02*
X35179Y182880D01*
X315341Y182880D02*
X330035Y182880D01*
X343065Y182880D02*
X380835Y182880D01*
X651891Y182880D02*
X663321Y182880D01*
X46609Y194310D02*
X35179Y194310D01*
X315341Y194310D02*
X383159Y194310D01*
X651891Y194310D02*
X663321Y194310D01*
X46609Y205740D02*
X35179Y205740D01*
X315341Y205740D02*
X383159Y205740D01*
X651891Y205740D02*
X663321Y205740D01*
X46609Y217170D02*
X35179Y217170D01*
X315341Y217170D02*
X383159Y217170D01*
X651891Y217170D02*
X663321Y217170D01*
X46609Y228600D02*
X35179Y228600D01*
X333093Y228600D02*
X383159Y228600D01*
X651891Y228600D02*
X663321Y228600D01*
X46609Y240030D02*
X35179Y240030D01*
X329610Y240030D02*
X383159Y240030D01*
X651891Y240030D02*
X663321Y240030D01*
X46609Y251460D02*
X35179Y251460D01*
X315341Y251460D02*
X383159Y251460D01*
X651891Y251460D02*
X663321Y251460D01*
X46793Y262890D02*
X35179Y262890D01*
X332590Y262890D02*
X383343Y262890D01*
X651707Y262890D02*
X663321Y262890D01*
X309200Y274320D02*
X35179Y274320D01*
X330880Y274320D02*
X336177Y274320D01*
X362283Y274320D02*
X365080Y274320D01*
X381680Y274320D02*
X453980Y274320D01*
X470580Y274320D02*
X663321Y274320D01*
X40287Y320040D02*
X25400Y320040D01*
X66393Y320040D02*
X99003Y320040D01*
X180328Y320040D02*
X235867Y320040D01*
X261973Y320040D02*
X271100Y320040D01*
X287700Y320040D02*
X360327Y320040D01*
X599428Y320040D02*
X673100Y320040D01*
X46825Y331470D02*
X25400Y331470D01*
X59855Y331470D02*
X71637Y331470D01*
X186435Y331470D02*
X204987Y331470D01*
X239513Y331470D02*
X242405Y331470D01*
X255435Y331470D02*
X266347Y331470D01*
X605535Y331470D02*
X673100Y331470D01*
X64710Y342900D02*
X25400Y342900D01*
X189246Y342900D02*
X198060Y342900D01*
X246440Y342900D02*
X266347Y342900D01*
X608346Y342900D02*
X673100Y342900D01*
X64184Y354330D02*
X25400Y354330D01*
X189421Y354330D02*
X197534Y354330D01*
X246966Y354330D02*
X260457Y354330D01*
X608521Y354330D02*
X673100Y354330D01*
X70367Y365760D02*
X25400Y365760D01*
X186987Y365760D02*
X203717Y365760D01*
X240783Y365760D02*
X249027Y365760D01*
X606087Y365760D02*
X673100Y365760D01*
X98231Y377190D02*
X25400Y377190D01*
X181361Y377190D02*
X234656Y377190D01*
X600461Y377190D02*
X673100Y377190D01*
X317650Y422910D02*
X35179Y422910D01*
X380850Y422910D02*
X663321Y422910D01*
X47319Y434340D02*
X35179Y434340D01*
X314631Y434340D02*
X319360Y434340D01*
X357550Y434340D02*
X383869Y434340D01*
X651181Y434340D02*
X663321Y434340D01*
X46609Y445770D02*
X35179Y445770D01*
X315341Y445770D02*
X383159Y445770D01*
X651891Y445770D02*
X663321Y445770D01*
X46609Y457200D02*
X35179Y457200D01*
X315341Y457200D02*
X320630Y457200D01*
X342310Y457200D02*
X383159Y457200D01*
X651891Y457200D02*
X663321Y457200D01*
X46609Y468630D02*
X35179Y468630D01*
X344020Y468630D02*
X383159Y468630D01*
X651891Y468630D02*
X663321Y468630D01*
X46609Y480060D02*
X35179Y480060D01*
X333093Y480060D02*
X383159Y480060D01*
X651891Y480060D02*
X663321Y480060D01*
X46609Y491490D02*
X35179Y491490D01*
X326555Y491490D02*
X383159Y491490D01*
X651891Y491490D02*
X663321Y491490D01*
X46609Y502920D02*
X35179Y502920D01*
X315341Y502920D02*
X369579Y502920D01*
X651891Y502920D02*
X663321Y502920D01*
X46609Y514350D02*
X35179Y514350D01*
X315542Y514350D02*
X368898Y514350D01*
X651891Y514350D02*
X663321Y514350D01*
X46609Y525780D02*
X35179Y525780D01*
X328340Y525780D02*
X335605Y525780D01*
X377896Y525780D02*
X380320Y525780D01*
X651891Y525780D02*
X663321Y525780D01*
X46609Y537210D02*
X35179Y537210D01*
X330050Y537210D02*
X333894Y537210D01*
X651891Y537210D02*
X663321Y537210D01*
X46609Y548640D02*
X35179Y548640D01*
X315341Y548640D02*
X383159Y548640D01*
X651891Y548640D02*
X663321Y548640D01*
X46609Y560070D02*
X35179Y560070D01*
X315341Y560070D02*
X383159Y560070D01*
X651891Y560070D02*
X663321Y560070D01*
X46609Y571500D02*
X35179Y571500D01*
X315341Y571500D02*
X383159Y571500D01*
X651891Y571500D02*
X663321Y571500D01*
X46609Y582930D02*
X35179Y582930D01*
X315341Y582930D02*
X383159Y582930D01*
X651891Y582930D02*
X663321Y582930D01*
X46609Y594360D02*
X35179Y594360D01*
X315341Y594360D02*
X383159Y594360D01*
X651891Y594360D02*
X663321Y594360D01*
X46609Y605790D02*
X35179Y605790D01*
X315341Y605790D02*
X383159Y605790D01*
X651891Y605790D02*
X663321Y605790D01*
X46609Y617220D02*
X35179Y617220D01*
X315341Y617220D02*
X383159Y617220D01*
X651891Y617220D02*
X663321Y617220D01*
X48593Y628650D02*
X35179Y628650D01*
X315341Y628650D02*
X383159Y628650D01*
X649907Y628650D02*
X663321Y628650D01*
X60023Y640080D02*
X40590Y640080D01*
X315341Y640080D02*
X383159Y640080D01*
X638477Y640080D02*
X657910Y640080D01*
X73184Y651510D02*
X52020Y651510D01*
X307816Y651510D02*
X390684Y651510D01*
X625316Y651510D02*
X646480Y651510D01*
X635050Y662940D02*
X63450Y662940D01*
X34290Y383921D02*
X34290Y314579D01*
X45720Y282321D02*
X45720Y53290D01*
X45720Y330880D02*
X45720Y383921D01*
X45720Y416179D02*
X45720Y645210D01*
X57150Y61293D02*
X57150Y41860D01*
X57150Y270891D02*
X57150Y282321D01*
X57150Y332590D02*
X57150Y383921D01*
X57150Y416179D02*
X57150Y427609D01*
X57150Y637207D02*
X57150Y656640D01*
X68580Y49863D02*
X68580Y35179D01*
X68580Y270891D02*
X68580Y282321D01*
X68580Y314579D02*
X68580Y334527D01*
X68580Y363973D02*
X68580Y383921D01*
X68580Y416179D02*
X68580Y427609D01*
X68580Y648637D02*
X68580Y663321D01*
X80010Y46609D02*
X80010Y35179D01*
X80010Y270891D02*
X80010Y282321D01*
X80010Y314579D02*
X80010Y326112D01*
X80010Y372388D02*
X80010Y383921D01*
X80010Y416179D02*
X80010Y427609D01*
X80010Y651891D02*
X80010Y663321D01*
X91440Y46609D02*
X91440Y35179D01*
X91440Y270891D02*
X91440Y282321D01*
X91440Y314579D02*
X91440Y324471D01*
X91440Y374029D02*
X91440Y383921D01*
X91440Y416179D02*
X91440Y427609D01*
X91440Y651891D02*
X91440Y663321D01*
X102870Y46609D02*
X102870Y35179D01*
X102870Y270891D02*
X102870Y282321D01*
X102870Y314579D02*
X102870Y315301D01*
X102870Y383199D02*
X102870Y383921D01*
X102870Y416179D02*
X102870Y427609D01*
X102870Y651891D02*
X102870Y663321D01*
X114300Y46609D02*
X114300Y35179D01*
X114300Y270891D02*
X114300Y282321D01*
X114300Y416179D02*
X114300Y427609D01*
X114300Y651891D02*
X114300Y663321D01*
X125730Y46609D02*
X125730Y35179D01*
X125730Y270891D02*
X125730Y282321D01*
X125730Y416179D02*
X125730Y427609D01*
X125730Y651891D02*
X125730Y663321D01*
X137160Y46609D02*
X137160Y35179D01*
X137160Y270891D02*
X137160Y282321D01*
X137160Y416179D02*
X137160Y427609D01*
X137160Y651891D02*
X137160Y663321D01*
X148590Y46609D02*
X148590Y35179D01*
X148590Y270891D02*
X148590Y282321D01*
X148590Y416179D02*
X148590Y427609D01*
X148590Y651891D02*
X148590Y663321D01*
X160020Y46609D02*
X160020Y35179D01*
X160020Y270891D02*
X160020Y282321D01*
X160020Y416179D02*
X160020Y427609D01*
X160020Y651891D02*
X160020Y663321D01*
X171450Y46609D02*
X171450Y35179D01*
X171450Y270891D02*
X171450Y282321D01*
X171450Y416179D02*
X171450Y427609D01*
X171450Y651891D02*
X171450Y663321D01*
X182880Y46609D02*
X182880Y35179D01*
X182880Y270891D02*
X182880Y282321D01*
X182880Y314579D02*
X182880Y323286D01*
X182880Y375214D02*
X182880Y383921D01*
X182880Y416179D02*
X182880Y427609D01*
X182880Y651891D02*
X182880Y663321D01*
X194310Y46609D02*
X194310Y35179D01*
X194310Y270891D02*
X194310Y282321D01*
X194310Y314579D02*
X194310Y383921D01*
X194310Y416179D02*
X194310Y427609D01*
X194310Y651891D02*
X194310Y663321D01*
X205740Y46609D02*
X205740Y35179D01*
X205740Y270891D02*
X205740Y282321D01*
X205740Y314579D02*
X205740Y330717D01*
X205740Y367783D02*
X205740Y383921D01*
X205740Y416179D02*
X205740Y427609D01*
X205740Y651891D02*
X205740Y663321D01*
X217170Y46609D02*
X217170Y35179D01*
X217170Y270891D02*
X217170Y282321D01*
X217170Y314579D02*
X217170Y324534D01*
X217170Y373966D02*
X217170Y383921D01*
X217170Y416179D02*
X217170Y427609D01*
X217170Y651891D02*
X217170Y663321D01*
X228600Y46609D02*
X228600Y35179D01*
X228600Y270891D02*
X228600Y282321D01*
X228600Y314579D02*
X228600Y325060D01*
X228600Y373440D02*
X228600Y383921D01*
X228600Y416179D02*
X228600Y427609D01*
X228600Y651891D02*
X228600Y663321D01*
X240030Y46609D02*
X240030Y35179D01*
X240030Y270891D02*
X240030Y282321D01*
X240030Y329610D02*
X240030Y331987D01*
X240030Y366513D02*
X240030Y371948D01*
X240030Y416179D02*
X240030Y427609D01*
X240030Y651891D02*
X240030Y663321D01*
X251460Y46609D02*
X251460Y35179D01*
X251460Y270891D02*
X251460Y282321D01*
X251460Y333093D02*
X251460Y363327D01*
X251460Y416179D02*
X251460Y427609D01*
X251460Y651891D02*
X251460Y663321D01*
X262890Y46609D02*
X262890Y35179D01*
X262890Y270891D02*
X262890Y282321D01*
X262890Y314579D02*
X262890Y351897D01*
X262890Y416179D02*
X262890Y427609D01*
X262890Y651891D02*
X262890Y663321D01*
X274320Y46609D02*
X274320Y35179D01*
X274320Y270891D02*
X274320Y282321D01*
X274320Y314579D02*
X274320Y318176D01*
X274320Y416179D02*
X274320Y427609D01*
X274320Y651891D02*
X274320Y663321D01*
X285750Y46609D02*
X285750Y35179D01*
X285750Y270891D02*
X285750Y282321D01*
X285750Y314579D02*
X285750Y318702D01*
X285750Y416179D02*
X285750Y427609D01*
X285750Y651891D02*
X285750Y663321D01*
X297180Y46609D02*
X297180Y35179D01*
X297180Y270891D02*
X297180Y282321D01*
X297180Y314579D02*
X297180Y326009D01*
X297180Y416179D02*
X297180Y427609D01*
X297180Y651891D02*
X297180Y663321D01*
X308610Y47319D02*
X308610Y35179D01*
X308610Y273215D02*
X308610Y282321D01*
X308610Y314579D02*
X308610Y326009D01*
X308610Y416179D02*
X308610Y428319D01*
X308610Y651181D02*
X308610Y663321D01*
X320040Y218087D02*
X320040Y35179D01*
X320040Y244193D02*
X320040Y253647D01*
X320040Y279753D02*
X320040Y282321D01*
X320040Y314579D02*
X320040Y326009D01*
X320040Y416179D02*
X320040Y418420D01*
X320040Y435020D02*
X320040Y458305D01*
X320040Y493113D02*
X320040Y520347D01*
X320040Y546453D02*
X320040Y663321D01*
X331470Y159426D02*
X331470Y35179D01*
X331470Y183474D02*
X331470Y224625D01*
X331470Y237655D02*
X331470Y260185D01*
X331470Y273215D02*
X331470Y282321D01*
X331470Y314579D02*
X331470Y326009D01*
X331470Y439773D02*
X331470Y451767D01*
X331470Y486575D02*
X331470Y663321D01*
X342900Y159952D02*
X342900Y35179D01*
X342900Y182948D02*
X342900Y265374D01*
X342900Y314579D02*
X342900Y326009D01*
X342900Y437474D02*
X342900Y458305D01*
X342900Y471335D02*
X342900Y520740D01*
X342900Y546060D02*
X342900Y663321D01*
X354330Y264864D02*
X354330Y35179D01*
X354330Y314579D02*
X354330Y326009D01*
X354330Y436948D02*
X354330Y522826D01*
X354330Y543974D02*
X354330Y663321D01*
X365760Y273640D02*
X365760Y35179D01*
X365760Y432153D02*
X365760Y520347D01*
X365760Y546453D02*
X365760Y663321D01*
X377190Y163150D02*
X377190Y35179D01*
X377190Y179750D02*
X377190Y271930D01*
X377190Y428670D02*
X377190Y496906D01*
X377190Y522007D02*
X377190Y525074D01*
X377190Y541726D02*
X377190Y663321D01*
X388620Y47845D02*
X388620Y35179D01*
X388620Y269655D02*
X388620Y282321D01*
X388620Y416179D02*
X388620Y428845D01*
X388620Y650655D02*
X388620Y663321D01*
X400050Y46609D02*
X400050Y35179D01*
X400050Y270891D02*
X400050Y282321D01*
X400050Y416179D02*
X400050Y427609D01*
X400050Y651891D02*
X400050Y663321D01*
X411480Y46609D02*
X411480Y35179D01*
X411480Y270891D02*
X411480Y282321D01*
X411480Y416179D02*
X411480Y427609D01*
X411480Y651891D02*
X411480Y663321D01*
X422910Y46609D02*
X422910Y35179D01*
X422910Y270891D02*
X422910Y282321D01*
X422910Y416179D02*
X422910Y427609D01*
X422910Y651891D02*
X422910Y663321D01*
X434340Y46609D02*
X434340Y35179D01*
X434340Y270891D02*
X434340Y282321D01*
X434340Y416179D02*
X434340Y427609D01*
X434340Y651891D02*
X434340Y663321D01*
X445770Y46609D02*
X445770Y35179D01*
X445770Y270891D02*
X445770Y282321D01*
X445770Y416179D02*
X445770Y427609D01*
X445770Y651891D02*
X445770Y663321D01*
X457200Y46609D02*
X457200Y35179D01*
X457200Y270891D02*
X457200Y272456D01*
X457200Y416179D02*
X457200Y427609D01*
X457200Y651891D02*
X457200Y663321D01*
X468630Y46609D02*
X468630Y35179D01*
X468630Y270891D02*
X468630Y272982D01*
X468630Y416179D02*
X468630Y427609D01*
X468630Y651891D02*
X468630Y663321D01*
X480060Y46609D02*
X480060Y35179D01*
X480060Y270891D02*
X480060Y282321D01*
X480060Y416179D02*
X480060Y427609D01*
X480060Y651891D02*
X480060Y663321D01*
X491490Y46609D02*
X491490Y35179D01*
X491490Y270891D02*
X491490Y282321D01*
X491490Y416179D02*
X491490Y427609D01*
X491490Y651891D02*
X491490Y663321D01*
X502920Y46609D02*
X502920Y35179D01*
X502920Y270891D02*
X502920Y282321D01*
X502920Y416179D02*
X502920Y427609D01*
X502920Y651891D02*
X502920Y663321D01*
X514350Y46609D02*
X514350Y35179D01*
X514350Y270891D02*
X514350Y282321D01*
X514350Y416179D02*
X514350Y427609D01*
X514350Y651891D02*
X514350Y663321D01*
X525780Y46609D02*
X525780Y35179D01*
X525780Y270891D02*
X525780Y282321D01*
X525780Y416179D02*
X525780Y427609D01*
X525780Y651891D02*
X525780Y663321D01*
X537210Y46609D02*
X537210Y35179D01*
X537210Y270891D02*
X537210Y282321D01*
X537210Y416179D02*
X537210Y427609D01*
X537210Y651891D02*
X537210Y663321D01*
X548640Y46609D02*
X548640Y35179D01*
X548640Y270891D02*
X548640Y282321D01*
X548640Y416179D02*
X548640Y427609D01*
X548640Y651891D02*
X548640Y663321D01*
X560070Y46609D02*
X560070Y35179D01*
X560070Y270891D02*
X560070Y282321D01*
X560070Y416179D02*
X560070Y427609D01*
X560070Y651891D02*
X560070Y663321D01*
X571500Y46609D02*
X571500Y35179D01*
X571500Y270891D02*
X571500Y282321D01*
X571500Y416179D02*
X571500Y427609D01*
X571500Y651891D02*
X571500Y663321D01*
X582930Y46609D02*
X582930Y35179D01*
X582930Y270891D02*
X582930Y282321D01*
X582930Y416179D02*
X582930Y427609D01*
X582930Y651891D02*
X582930Y663321D01*
X594360Y46609D02*
X594360Y35179D01*
X594360Y270891D02*
X594360Y282321D01*
X594360Y416179D02*
X594360Y427609D01*
X594360Y651891D02*
X594360Y663321D01*
X605790Y46609D02*
X605790Y35179D01*
X605790Y270891D02*
X605790Y282321D01*
X605790Y314579D02*
X605790Y332057D01*
X605790Y366443D02*
X605790Y383921D01*
X605790Y416179D02*
X605790Y427609D01*
X605790Y651891D02*
X605790Y663321D01*
X617220Y46609D02*
X617220Y35179D01*
X617220Y270891D02*
X617220Y282321D01*
X617220Y314579D02*
X617220Y383921D01*
X617220Y416179D02*
X617220Y427609D01*
X617220Y651891D02*
X617220Y663321D01*
X628650Y46609D02*
X628650Y35179D01*
X628650Y270891D02*
X628650Y282321D01*
X628650Y314579D02*
X628650Y383921D01*
X628650Y416179D02*
X628650Y427609D01*
X628650Y649907D02*
X628650Y663321D01*
X640080Y53673D02*
X640080Y40590D01*
X640080Y270891D02*
X640080Y282321D01*
X640080Y314579D02*
X640080Y383921D01*
X640080Y416179D02*
X640080Y427609D01*
X640080Y638477D02*
X640080Y657910D01*
X651510Y66834D02*
X651510Y52020D01*
X651510Y263366D02*
X651510Y282321D01*
X651510Y314579D02*
X651510Y383921D01*
X651510Y416179D02*
X651510Y435134D01*
X651510Y625316D02*
X651510Y646480D01*
X662940Y282321D02*
X662940Y63450D01*
X662940Y314579D02*
X662940Y383921D01*
X662940Y416179D02*
X662940Y635050D01*
D10*
X360680Y320040D03*
X182880Y320040D03*
X551180Y284480D03*
X551180Y426720D03*
X274320Y274320D03*
X434340Y426720D03*
X657860Y355600D03*
X35560Y355600D03*
X365760Y228600D03*
M02*
