G04 EAGLE Gerber X2 export*
%TF.Part,Single*%
%TF.FileFunction,Copper,L2,Inr,Mixed*%
%TF.FilePolarity,Positive*%
%TF.GenerationSoftware,Autodesk,EAGLE,8.6.0*%
%TF.CreationDate,2018-05-27T13:35:38Z*%
G75*
%MOMM*%
%FSLAX34Y34*%
%LPD*%
%AMOC8*
5,1,8,0,0,1.08239X$1,22.5*%
G01*
%ADD10C,0.654800*%
%ADD11C,0.152400*%
%ADD12C,0.304800*%
%ADD13C,0.177800*%
%ADD14C,1.500000*%


D10*
X381000Y509457D03*
D11*
X381000Y215900D01*
X336550Y171450D01*
D10*
X336550Y171450D03*
X388620Y504455D03*
D11*
X388620Y172720D01*
D12*
X387350Y171450D01*
D10*
X387350Y171450D03*
D13*
X635000Y685800D02*
X63500Y685800D01*
X635000Y685800D02*
X685800Y635000D01*
X685800Y63500D01*
X635000Y12700D01*
X63500Y12700D01*
X12700Y63500D01*
X12700Y635000D01*
X63500Y685800D01*
X425803Y255333D02*
X425803Y252667D01*
X425803Y255333D02*
X424783Y257797D01*
X422897Y259683D01*
X420433Y260703D01*
X417767Y260703D01*
X415303Y259683D01*
X413417Y257797D01*
X412397Y255333D01*
X412397Y252667D01*
X413417Y250203D01*
X415303Y248317D01*
X417767Y247297D01*
X420433Y247297D01*
X422897Y248317D01*
X424783Y250203D01*
X425803Y252667D01*
X260703Y252667D02*
X260703Y255333D01*
X259683Y257797D01*
X257797Y259683D01*
X255333Y260703D01*
X252667Y260703D01*
X250203Y259683D01*
X248317Y257797D01*
X247297Y255333D01*
X247297Y252667D01*
X248317Y250203D01*
X250203Y248317D01*
X252667Y247297D01*
X255333Y247297D01*
X257797Y248317D01*
X259683Y250203D01*
X260703Y252667D01*
X321297Y539083D02*
X318833Y540103D01*
X316167Y540103D01*
X313703Y539083D01*
X311817Y537197D01*
X310797Y534733D01*
X310797Y532067D01*
X311817Y529603D01*
X313703Y527717D01*
X316167Y526697D01*
X318833Y526697D01*
X321297Y527717D01*
X322026Y528447D01*
X341492Y528447D01*
X341492Y481846D01*
X331168Y471523D01*
X330137Y471523D01*
X327673Y470503D01*
X326944Y469773D01*
X315742Y469773D01*
X305153Y480362D01*
X305153Y481393D01*
X304133Y483857D01*
X302247Y485743D01*
X299783Y486763D01*
X297117Y486763D01*
X294653Y485743D01*
X292767Y483857D01*
X291747Y481393D01*
X291747Y478727D01*
X292767Y476263D01*
X294653Y474377D01*
X297117Y473357D01*
X298148Y473357D01*
X308737Y462768D01*
X308737Y462768D01*
X311638Y459867D01*
X326517Y459867D01*
X326517Y439908D01*
X341277Y425148D01*
X341277Y424117D01*
X342297Y421653D01*
X343027Y420924D01*
X343027Y279420D01*
X342527Y278213D01*
X342527Y275547D01*
X343547Y273083D01*
X345433Y271197D01*
X347897Y270177D01*
X350563Y270177D01*
X353027Y271197D01*
X354913Y273083D01*
X355933Y275547D01*
X355933Y278213D01*
X354913Y280677D01*
X353027Y282563D01*
X352933Y282601D01*
X352933Y412949D01*
X354267Y412397D01*
X356933Y412397D01*
X359397Y413417D01*
X360888Y414909D01*
X363012Y414909D01*
X364503Y413417D01*
X366967Y412397D01*
X369633Y412397D01*
X372097Y413417D01*
X373983Y415303D01*
X375003Y417767D01*
X375003Y420433D01*
X373983Y422897D01*
X372097Y424783D01*
X369633Y425803D01*
X366967Y425803D01*
X364503Y424783D01*
X363012Y423291D01*
X360888Y423291D01*
X359397Y424783D01*
X356933Y425803D01*
X354683Y425803D01*
X354683Y426783D01*
X353663Y429247D01*
X351777Y431133D01*
X349313Y432153D01*
X348282Y432153D01*
X336423Y444012D01*
X336423Y460294D01*
X337153Y461023D01*
X338173Y463487D01*
X338173Y464518D01*
X351398Y477743D01*
X351398Y528447D01*
X362530Y528447D01*
X363259Y527717D01*
X365723Y526697D01*
X368389Y526697D01*
X370853Y527717D01*
X372739Y529603D01*
X373759Y532067D01*
X373759Y534733D01*
X372739Y537197D01*
X370853Y539083D01*
X368389Y540103D01*
X365723Y540103D01*
X363259Y539083D01*
X362530Y538353D01*
X350971Y538353D01*
X350242Y539083D01*
X347778Y540103D01*
X345111Y540103D01*
X342648Y539083D01*
X341918Y538353D01*
X322026Y538353D01*
X321297Y539083D01*
X384797Y515139D02*
X386683Y513254D01*
X384797Y515139D02*
X382333Y516160D01*
X379667Y516160D01*
X377203Y515139D01*
X375317Y513254D01*
X374297Y510790D01*
X374297Y508123D01*
X375317Y505660D01*
X376809Y504168D01*
X376809Y217636D01*
X337326Y178153D01*
X335217Y178153D01*
X332753Y177133D01*
X330867Y175247D01*
X329847Y172783D01*
X329847Y170117D01*
X330867Y167653D01*
X332753Y165767D01*
X335217Y164747D01*
X337883Y164747D01*
X340347Y165767D01*
X342233Y167653D01*
X343253Y170117D01*
X343253Y172226D01*
X384429Y213402D01*
X384429Y177495D01*
X383553Y177133D01*
X381667Y175247D01*
X380647Y172783D01*
X380647Y170117D01*
X381667Y167653D01*
X383553Y165767D01*
X386017Y164747D01*
X388683Y164747D01*
X391147Y165767D01*
X393033Y167653D01*
X394053Y170117D01*
X394053Y172783D01*
X393573Y173942D01*
X393573Y174772D01*
X392811Y175534D01*
X392811Y499167D01*
X394303Y500658D01*
X395323Y503122D01*
X395323Y505789D01*
X394303Y508252D01*
X392417Y510138D01*
X389953Y511158D01*
X387550Y511158D01*
X386683Y513254D01*
X191729Y174221D02*
X191729Y168679D01*
X191729Y174221D02*
X189608Y179340D01*
X185690Y183258D01*
X180571Y185379D01*
X175029Y185379D01*
X169910Y183258D01*
X165992Y179340D01*
X163871Y174221D01*
X163871Y168679D01*
X165992Y163560D01*
X169910Y159642D01*
X175029Y157521D01*
X180571Y157521D01*
X185690Y159642D01*
X189608Y163560D01*
X191729Y168679D01*
X534629Y168679D02*
X534629Y174221D01*
X532508Y179340D01*
X528590Y183258D01*
X523471Y185379D01*
X517929Y185379D01*
X512810Y183258D01*
X508892Y179340D01*
X506771Y174221D01*
X506771Y168679D01*
X508892Y163560D01*
X512810Y159642D01*
X517929Y157521D01*
X523471Y157521D01*
X528590Y159642D01*
X532508Y163560D01*
X534629Y168679D01*
X191729Y524279D02*
X191729Y529821D01*
X189608Y534940D01*
X185690Y538858D01*
X180571Y540979D01*
X175029Y540979D01*
X169910Y538858D01*
X165992Y534940D01*
X163871Y529821D01*
X163871Y524279D01*
X165992Y519160D01*
X169910Y515242D01*
X175029Y513121D01*
X180571Y513121D01*
X185690Y515242D01*
X189608Y519160D01*
X191729Y524279D01*
X534629Y524279D02*
X534629Y529821D01*
X532508Y534940D01*
X528590Y538858D01*
X523471Y540979D01*
X517929Y540979D01*
X512810Y538858D01*
X508892Y534940D01*
X506771Y529821D01*
X506771Y524279D01*
X508892Y519160D01*
X512810Y515242D01*
X517929Y513121D01*
X523471Y513121D01*
X528590Y515242D01*
X532508Y519160D01*
X534629Y524279D01*
X158129Y352916D02*
X158129Y345584D01*
X158129Y352916D02*
X155323Y359689D01*
X150139Y364873D01*
X143366Y367679D01*
X136034Y367679D01*
X129261Y364873D01*
X124077Y359689D01*
X121271Y352916D01*
X121271Y345584D01*
X124077Y338811D01*
X129261Y333627D01*
X136034Y330821D01*
X143366Y330821D01*
X150139Y333627D01*
X155323Y338811D01*
X158129Y345584D01*
X577229Y345584D02*
X577229Y352916D01*
X574423Y359689D01*
X569239Y364873D01*
X562466Y367679D01*
X555134Y367679D01*
X548361Y364873D01*
X543177Y359689D01*
X540371Y352916D01*
X540371Y345584D01*
X543177Y338811D01*
X548361Y333627D01*
X555134Y330821D01*
X562466Y330821D01*
X569239Y333627D01*
X574423Y338811D01*
X577229Y345584D01*
X240679Y345584D02*
X240679Y352916D01*
X237873Y359689D01*
X232689Y364873D01*
X225916Y367679D01*
X218584Y367679D01*
X211811Y364873D01*
X206627Y359689D01*
X203821Y352916D01*
X203821Y345584D01*
X206627Y338811D01*
X211811Y333627D01*
X218584Y330821D01*
X225916Y330821D01*
X232689Y333627D01*
X237873Y338811D01*
X240679Y345584D01*
X107329Y345584D02*
X107329Y352916D01*
X104523Y359689D01*
X99339Y364873D01*
X92566Y367679D01*
X85234Y367679D01*
X78461Y364873D01*
X73277Y359689D01*
X70471Y352916D01*
X70471Y345584D01*
X73277Y338811D01*
X78461Y333627D01*
X85234Y330821D01*
X92566Y330821D01*
X99339Y333627D01*
X104523Y338811D01*
X107329Y345584D01*
X253083Y523177D02*
X253083Y525843D01*
X252063Y528307D01*
X250177Y530193D01*
X247713Y531213D01*
X245047Y531213D01*
X242583Y530193D01*
X240697Y528307D01*
X239677Y525843D01*
X239677Y523177D01*
X240697Y520713D01*
X242189Y519222D01*
X242189Y485348D01*
X240697Y483857D01*
X239677Y481393D01*
X239677Y478727D01*
X240697Y476263D01*
X242583Y474377D01*
X245047Y473357D01*
X247713Y473357D01*
X250177Y474377D01*
X252063Y476263D01*
X253083Y478727D01*
X253083Y481393D01*
X252063Y483857D01*
X250571Y485348D01*
X250571Y519222D01*
X252063Y520713D01*
X253083Y523177D01*
X468129Y338724D02*
X468129Y334376D01*
X468129Y338724D02*
X466465Y342741D01*
X463391Y345815D01*
X459374Y347479D01*
X455026Y347479D01*
X451009Y345815D01*
X447935Y342741D01*
X446271Y338724D01*
X446271Y334376D01*
X447935Y330359D01*
X451009Y327285D01*
X455026Y325621D01*
X459374Y325621D01*
X463391Y327285D01*
X466465Y330359D01*
X468129Y334376D01*
X252857Y382207D02*
X252857Y384873D01*
X251837Y387337D01*
X249951Y389223D01*
X247487Y390243D01*
X244821Y390243D01*
X242357Y389223D01*
X240471Y387337D01*
X239451Y384873D01*
X239451Y382207D01*
X240471Y379743D01*
X242357Y377857D01*
X244821Y376837D01*
X247487Y376837D01*
X249951Y377857D01*
X251837Y379743D01*
X252857Y382207D01*
X286103Y382333D02*
X286103Y379667D01*
X286103Y382333D02*
X285083Y384797D01*
X283197Y386683D01*
X280733Y387703D01*
X278067Y387703D01*
X275603Y386683D01*
X273717Y384797D01*
X272697Y382333D01*
X272697Y379667D01*
X273717Y377203D01*
X275603Y375317D01*
X277215Y374650D01*
X275603Y373983D01*
X273717Y372097D01*
X272697Y369633D01*
X272697Y366967D01*
X273717Y364503D01*
X275603Y362617D01*
X278067Y361597D01*
X280733Y361597D01*
X283197Y362617D01*
X285083Y364503D01*
X286103Y366967D01*
X286103Y369633D01*
X285083Y372097D01*
X283197Y373983D01*
X281585Y374650D01*
X283197Y375317D01*
X285083Y377203D01*
X286103Y379667D01*
X286103Y398717D02*
X286103Y401383D01*
X285083Y403847D01*
X283197Y405733D01*
X280733Y406753D01*
X278067Y406753D01*
X275603Y405733D01*
X273717Y403847D01*
X272697Y401383D01*
X272697Y398717D01*
X273717Y396253D01*
X275603Y394367D01*
X278067Y393347D01*
X280733Y393347D01*
X283197Y394367D01*
X285083Y396253D01*
X286103Y398717D01*
X425803Y363283D02*
X425803Y360617D01*
X425803Y363283D02*
X424783Y365747D01*
X422897Y367633D01*
X420433Y368653D01*
X417767Y368653D01*
X415303Y367633D01*
X413417Y365747D01*
X412397Y363283D01*
X412397Y360617D01*
X413417Y358153D01*
X415303Y356267D01*
X416915Y355600D01*
X415303Y354933D01*
X413417Y353047D01*
X412397Y350583D01*
X412397Y347917D01*
X413417Y345453D01*
X415303Y343567D01*
X417767Y342547D01*
X420433Y342547D01*
X422897Y343567D01*
X424783Y345453D01*
X425803Y347917D01*
X425803Y350583D01*
X424783Y353047D01*
X422897Y354933D01*
X421285Y355600D01*
X422897Y356267D01*
X424783Y358153D01*
X425803Y360617D01*
X425803Y443167D02*
X425803Y445833D01*
X424783Y448297D01*
X422897Y450183D01*
X420433Y451203D01*
X417767Y451203D01*
X415303Y450183D01*
X413417Y448297D01*
X412397Y445833D01*
X412397Y443167D01*
X413417Y440703D01*
X415303Y438817D01*
X417767Y437797D01*
X420433Y437797D01*
X422897Y438817D01*
X424783Y440703D01*
X425803Y443167D01*
X286103Y344233D02*
X286103Y341567D01*
X286103Y344233D02*
X285083Y346697D01*
X283197Y348583D01*
X280733Y349603D01*
X278067Y349603D01*
X275603Y348583D01*
X273717Y346697D01*
X272697Y344233D01*
X272697Y341567D01*
X273717Y339103D01*
X275603Y337217D01*
X277215Y336550D01*
X275603Y335883D01*
X273717Y333997D01*
X272697Y331533D01*
X272697Y328867D01*
X273717Y326403D01*
X275603Y324517D01*
X278067Y323497D01*
X280733Y323497D01*
X283197Y324517D01*
X285083Y326403D01*
X286103Y328867D01*
X286103Y331533D01*
X285083Y333997D01*
X283197Y335883D01*
X281585Y336550D01*
X283197Y337217D01*
X285083Y339103D01*
X286103Y341567D01*
X260703Y443167D02*
X260703Y445833D01*
X259683Y448297D01*
X257797Y450183D01*
X255333Y451203D01*
X252667Y451203D01*
X250203Y450183D01*
X248317Y448297D01*
X247297Y445833D01*
X247297Y443167D01*
X248317Y440703D01*
X250203Y438817D01*
X252667Y437797D01*
X255333Y437797D01*
X257797Y438817D01*
X259683Y440703D01*
X260703Y443167D01*
X298803Y299783D02*
X298803Y297117D01*
X298803Y299783D02*
X297783Y302247D01*
X295897Y304133D01*
X293433Y305153D01*
X290767Y305153D01*
X288303Y304133D01*
X286417Y302247D01*
X285397Y299783D01*
X285397Y297117D01*
X286417Y294653D01*
X288303Y292767D01*
X290767Y291747D01*
X293433Y291747D01*
X295897Y292767D01*
X297783Y294653D01*
X298803Y297117D01*
X468129Y359776D02*
X468129Y364124D01*
X466465Y368141D01*
X463391Y371215D01*
X459374Y372879D01*
X455026Y372879D01*
X451009Y371215D01*
X447935Y368141D01*
X446271Y364124D01*
X446271Y359776D01*
X447935Y355759D01*
X451009Y352685D01*
X455026Y351021D01*
X459374Y351021D01*
X463391Y352685D01*
X466465Y355759D01*
X468129Y359776D01*
X493529Y359776D02*
X493529Y364124D01*
X491865Y368141D01*
X488791Y371215D01*
X484774Y372879D01*
X480426Y372879D01*
X476409Y371215D01*
X473335Y368141D01*
X471671Y364124D01*
X471671Y359776D01*
X473335Y355759D01*
X476409Y352685D01*
X480426Y351021D01*
X484774Y351021D01*
X488791Y352685D01*
X491865Y355759D01*
X493529Y359776D01*
X367383Y321373D02*
X367383Y318707D01*
X367383Y321373D02*
X366363Y323837D01*
X364477Y325723D01*
X362013Y326743D01*
X359347Y326743D01*
X356883Y325723D01*
X354997Y323837D01*
X353977Y321373D01*
X353977Y318707D01*
X354997Y316243D01*
X356883Y314357D01*
X359347Y313337D01*
X362013Y313337D01*
X364477Y314357D01*
X366363Y316243D01*
X367383Y318707D01*
X189583Y318707D02*
X189583Y321373D01*
X188563Y323837D01*
X186677Y325723D01*
X184213Y326743D01*
X181547Y326743D01*
X179083Y325723D01*
X177197Y323837D01*
X176177Y321373D01*
X176177Y318707D01*
X177197Y316243D01*
X179083Y314357D01*
X181547Y313337D01*
X184213Y313337D01*
X186677Y314357D01*
X188563Y316243D01*
X189583Y318707D01*
X557883Y285813D02*
X557883Y283147D01*
X557883Y285813D02*
X556863Y288277D01*
X554977Y290163D01*
X552513Y291183D01*
X549847Y291183D01*
X547383Y290163D01*
X545497Y288277D01*
X544477Y285813D01*
X544477Y283147D01*
X545497Y280683D01*
X547383Y278797D01*
X549847Y277777D01*
X552513Y277777D01*
X554977Y278797D01*
X556863Y280683D01*
X557883Y283147D01*
X557883Y425387D02*
X557883Y428053D01*
X556863Y430517D01*
X554977Y432403D01*
X552513Y433423D01*
X549847Y433423D01*
X547383Y432403D01*
X545497Y430517D01*
X544477Y428053D01*
X544477Y425387D01*
X545497Y422923D01*
X547383Y421037D01*
X549847Y420017D01*
X552513Y420017D01*
X554977Y421037D01*
X556863Y422923D01*
X557883Y425387D01*
X441043Y425387D02*
X441043Y428053D01*
X440023Y430517D01*
X438137Y432403D01*
X435673Y433423D01*
X433007Y433423D01*
X430543Y432403D01*
X428657Y430517D01*
X427637Y428053D01*
X427637Y425387D01*
X428657Y422923D01*
X430543Y421037D01*
X433007Y420017D01*
X435673Y420017D01*
X438137Y421037D01*
X440023Y422923D01*
X441043Y425387D01*
X664563Y356933D02*
X664563Y354267D01*
X664563Y356933D02*
X663543Y359397D01*
X661657Y361283D01*
X659193Y362303D01*
X656527Y362303D01*
X654063Y361283D01*
X652177Y359397D01*
X651157Y356933D01*
X651157Y354267D01*
X652177Y351803D01*
X654063Y349917D01*
X656527Y348897D01*
X659193Y348897D01*
X661657Y349917D01*
X663543Y351803D01*
X664563Y354267D01*
X42263Y354267D02*
X42263Y356933D01*
X41243Y359397D01*
X39357Y361283D01*
X36893Y362303D01*
X34227Y362303D01*
X31763Y361283D01*
X29877Y359397D01*
X28857Y356933D01*
X28857Y354267D01*
X29877Y351803D01*
X31763Y349917D01*
X34227Y348897D01*
X36893Y348897D01*
X39357Y349917D01*
X41243Y351803D01*
X42263Y354267D01*
X372463Y229933D02*
X372463Y227267D01*
X372463Y229933D02*
X371443Y232397D01*
X369557Y234283D01*
X367093Y235303D01*
X364427Y235303D01*
X361963Y234283D01*
X360077Y232397D01*
X359057Y229933D01*
X359057Y227267D01*
X360077Y224803D01*
X361963Y222917D01*
X364427Y221897D01*
X367093Y221897D01*
X369557Y222917D01*
X371443Y224803D01*
X372463Y227267D01*
X640080Y17780D02*
X58420Y17780D01*
X40640Y35560D02*
X657860Y35560D01*
X675640Y53340D02*
X22860Y53340D01*
X12700Y71120D02*
X685800Y71120D01*
X685800Y88900D02*
X12700Y88900D01*
X12700Y106680D02*
X685800Y106680D01*
X685800Y124460D02*
X12700Y124460D01*
X12700Y142240D02*
X685800Y142240D01*
X169531Y160020D02*
X12700Y160020D01*
X186069Y160020D02*
X512431Y160020D01*
X528969Y160020D02*
X685800Y160020D01*
X165354Y177800D02*
X12700Y177800D01*
X190246Y177800D02*
X334365Y177800D01*
X348827Y177800D02*
X384429Y177800D01*
X392811Y177800D02*
X508254Y177800D01*
X533146Y177800D02*
X685800Y177800D01*
X354753Y195580D02*
X12700Y195580D01*
X366607Y195580D02*
X384429Y195580D01*
X392811Y195580D02*
X685800Y195580D01*
X372533Y213360D02*
X12700Y213360D01*
X384387Y213360D02*
X384429Y213360D01*
X392811Y213360D02*
X685800Y213360D01*
X359557Y231140D02*
X12700Y231140D01*
X371963Y231140D02*
X376809Y231140D01*
X392811Y231140D02*
X685800Y231140D01*
X249601Y248920D02*
X12700Y248920D01*
X258399Y248920D02*
X376809Y248920D01*
X392811Y248920D02*
X414701Y248920D01*
X423499Y248920D02*
X685800Y248920D01*
X376809Y266700D02*
X12700Y266700D01*
X392811Y266700D02*
X685800Y266700D01*
X343027Y284480D02*
X12700Y284480D01*
X352933Y284480D02*
X376809Y284480D01*
X392811Y284480D02*
X544477Y284480D01*
X557883Y284480D02*
X685800Y284480D01*
X286431Y302260D02*
X12700Y302260D01*
X297769Y302260D02*
X343027Y302260D01*
X352933Y302260D02*
X376809Y302260D01*
X392811Y302260D02*
X685800Y302260D01*
X176177Y320040D02*
X12700Y320040D01*
X189583Y320040D02*
X343027Y320040D01*
X352933Y320040D02*
X353977Y320040D01*
X367383Y320040D02*
X376809Y320040D01*
X392811Y320040D02*
X685800Y320040D01*
X74267Y337820D02*
X12700Y337820D01*
X103533Y337820D02*
X125067Y337820D01*
X154333Y337820D02*
X207617Y337820D01*
X236883Y337820D02*
X275001Y337820D01*
X283799Y337820D02*
X343027Y337820D01*
X352933Y337820D02*
X376809Y337820D01*
X392811Y337820D02*
X446271Y337820D01*
X468129Y337820D02*
X544167Y337820D01*
X573433Y337820D02*
X685800Y337820D01*
X28857Y355600D02*
X12700Y355600D01*
X42263Y355600D02*
X71583Y355600D01*
X106217Y355600D02*
X122383Y355600D01*
X157017Y355600D02*
X204933Y355600D01*
X239567Y355600D02*
X343027Y355600D01*
X352933Y355600D02*
X376809Y355600D01*
X392811Y355600D02*
X416915Y355600D01*
X421285Y355600D02*
X448094Y355600D01*
X466306Y355600D02*
X473494Y355600D01*
X491706Y355600D02*
X541483Y355600D01*
X576117Y355600D02*
X651157Y355600D01*
X664563Y355600D02*
X685800Y355600D01*
X275001Y373380D02*
X12700Y373380D01*
X283799Y373380D02*
X343027Y373380D01*
X352933Y373380D02*
X376809Y373380D01*
X392811Y373380D02*
X685800Y373380D01*
X343027Y391160D02*
X12700Y391160D01*
X352933Y391160D02*
X376809Y391160D01*
X392811Y391160D02*
X685800Y391160D01*
X343027Y408940D02*
X12700Y408940D01*
X352933Y408940D02*
X376809Y408940D01*
X392811Y408940D02*
X685800Y408940D01*
X339705Y426720D02*
X12700Y426720D01*
X354683Y426720D02*
X376809Y426720D01*
X392811Y426720D02*
X427637Y426720D01*
X441043Y426720D02*
X544477Y426720D01*
X557883Y426720D02*
X685800Y426720D01*
X247297Y444500D02*
X12700Y444500D01*
X260703Y444500D02*
X326517Y444500D01*
X336423Y444500D02*
X376809Y444500D01*
X392811Y444500D02*
X412397Y444500D01*
X425803Y444500D02*
X685800Y444500D01*
X309225Y462280D02*
X12700Y462280D01*
X337673Y462280D02*
X376809Y462280D01*
X392811Y462280D02*
X685800Y462280D01*
X239677Y480060D02*
X12700Y480060D01*
X253083Y480060D02*
X291747Y480060D01*
X305455Y480060D02*
X339705Y480060D01*
X351398Y480060D02*
X376809Y480060D01*
X392811Y480060D02*
X685800Y480060D01*
X242189Y497840D02*
X12700Y497840D01*
X250571Y497840D02*
X341492Y497840D01*
X351398Y497840D02*
X376809Y497840D01*
X392811Y497840D02*
X685800Y497840D01*
X169531Y515620D02*
X12700Y515620D01*
X186069Y515620D02*
X242189Y515620D01*
X250571Y515620D02*
X341492Y515620D01*
X351398Y515620D02*
X378364Y515620D01*
X383636Y515620D02*
X512431Y515620D01*
X528969Y515620D02*
X685800Y515620D01*
X165354Y533400D02*
X12700Y533400D01*
X190246Y533400D02*
X310797Y533400D01*
X373759Y533400D02*
X508254Y533400D01*
X533146Y533400D02*
X685800Y533400D01*
X685800Y551180D02*
X12700Y551180D01*
X12700Y568960D02*
X685800Y568960D01*
X685800Y586740D02*
X12700Y586740D01*
X12700Y604520D02*
X685800Y604520D01*
X685800Y622300D02*
X12700Y622300D01*
X17780Y640080D02*
X680720Y640080D01*
X662940Y657860D02*
X35560Y657860D01*
X53340Y675640D02*
X645160Y675640D01*
X17780Y640080D02*
X17780Y58420D01*
X35560Y40640D02*
X35560Y348897D01*
X35560Y362303D02*
X35560Y657860D01*
X53340Y675640D02*
X53340Y22860D01*
X71120Y12700D02*
X71120Y344017D01*
X71120Y354483D02*
X71120Y685800D01*
X88900Y330821D02*
X88900Y12700D01*
X88900Y367679D02*
X88900Y685800D01*
X106680Y344017D02*
X106680Y12700D01*
X106680Y354482D02*
X106680Y685800D01*
X124460Y338427D02*
X124460Y12700D01*
X124460Y360073D02*
X124460Y685800D01*
X142240Y330821D02*
X142240Y12700D01*
X142240Y367679D02*
X142240Y685800D01*
X160020Y685800D02*
X160020Y12700D01*
X177800Y12700D02*
X177800Y157521D01*
X177800Y185379D02*
X177800Y315641D01*
X177800Y324439D02*
X177800Y513121D01*
X177800Y540979D02*
X177800Y685800D01*
X195580Y685800D02*
X195580Y12700D01*
X213360Y12700D02*
X213360Y332985D01*
X213360Y365515D02*
X213360Y685800D01*
X231140Y332985D02*
X231140Y12700D01*
X231140Y365515D02*
X231140Y685800D01*
X248920Y249601D02*
X248920Y12700D01*
X248920Y258399D02*
X248920Y377430D01*
X248920Y389650D02*
X248920Y440101D01*
X248920Y448899D02*
X248920Y473857D01*
X248920Y530713D02*
X248920Y685800D01*
X266700Y685800D02*
X266700Y12700D01*
X284480Y12700D02*
X284480Y325801D01*
X284480Y334599D02*
X284480Y338501D01*
X284480Y347299D02*
X284480Y363901D01*
X284480Y372699D02*
X284480Y376601D01*
X284480Y385399D02*
X284480Y395651D01*
X284480Y404449D02*
X284480Y685800D01*
X302260Y469245D02*
X302260Y12700D01*
X302260Y485729D02*
X302260Y685800D01*
X320040Y459867D02*
X320040Y12700D01*
X320040Y469773D02*
X320040Y527197D01*
X320040Y539603D02*
X320040Y685800D01*
X337820Y164747D02*
X337820Y12700D01*
X337820Y178647D02*
X337820Y428605D01*
X337820Y442615D02*
X337820Y462635D01*
X337820Y478175D02*
X337820Y528447D01*
X337820Y538353D02*
X337820Y685800D01*
X355600Y184573D02*
X355600Y12700D01*
X355600Y196427D02*
X355600Y274743D01*
X355600Y279017D02*
X355600Y315641D01*
X355600Y324439D02*
X355600Y412397D01*
X355600Y425803D02*
X355600Y528447D01*
X355600Y538353D02*
X355600Y685800D01*
X373380Y202353D02*
X373380Y12700D01*
X373380Y214207D02*
X373380Y414701D01*
X373380Y423499D02*
X373380Y531152D01*
X373380Y535648D02*
X373380Y685800D01*
X391160Y165781D02*
X391160Y12700D01*
X391160Y510659D02*
X391160Y685800D01*
X408940Y685800D02*
X408940Y12700D01*
X426720Y12700D02*
X426720Y685800D01*
X444500Y685800D02*
X444500Y12700D01*
X462280Y12700D02*
X462280Y326825D01*
X462280Y346275D02*
X462280Y352225D01*
X462280Y371675D02*
X462280Y685800D01*
X480060Y351173D02*
X480060Y12700D01*
X480060Y372727D02*
X480060Y685800D01*
X497840Y685800D02*
X497840Y12700D01*
X515620Y12700D02*
X515620Y158478D01*
X515620Y184422D02*
X515620Y514078D01*
X515620Y540022D02*
X515620Y685800D01*
X533400Y165712D02*
X533400Y12700D01*
X533400Y177188D02*
X533400Y521312D01*
X533400Y532788D02*
X533400Y685800D01*
X551180Y277777D02*
X551180Y12700D01*
X551180Y291183D02*
X551180Y332459D01*
X551180Y366041D02*
X551180Y420017D01*
X551180Y433423D02*
X551180Y685800D01*
X568960Y333511D02*
X568960Y12700D01*
X568960Y364989D02*
X568960Y685800D01*
X586740Y685800D02*
X586740Y12700D01*
X604520Y12700D02*
X604520Y685800D01*
X622300Y685800D02*
X622300Y12700D01*
X640080Y17780D02*
X640080Y680720D01*
X657860Y348897D02*
X657860Y35560D01*
X657860Y362303D02*
X657860Y662940D01*
X675640Y645160D02*
X675640Y53340D01*
D10*
X320040Y231140D03*
X373380Y284480D03*
X400050Y106680D03*
X373380Y320040D03*
X53340Y320040D03*
X248920Y320040D03*
X320040Y266700D03*
X320040Y480060D03*
X330200Y426720D03*
D12*
X330200Y431800D01*
D14*
X482600Y336550D03*
D10*
X373380Y373380D03*
X391160Y533400D03*
X462280Y284480D03*
X303530Y519459D03*
X346445Y533400D03*
D12*
X346445Y479795D01*
X331470Y464820D01*
D10*
X331470Y464820D03*
X367056Y533400D03*
D12*
X346445Y533400D01*
D10*
X347980Y425450D03*
D12*
X347980Y278130D01*
X349230Y276880D01*
D10*
X349230Y276880D03*
D12*
X347980Y425450D02*
X331470Y441960D01*
D10*
X298450Y480060D03*
D12*
X313690Y464820D01*
X331470Y464820D01*
X331470Y441960D01*
D10*
X317500Y533400D03*
D12*
X346445Y533400D01*
D10*
X246380Y524510D03*
D11*
X246380Y480060D01*
D10*
X246380Y480060D03*
D14*
X457200Y336550D03*
D10*
X246154Y383540D03*
X279400Y381000D03*
X279400Y400050D03*
X419100Y361950D03*
X419100Y444500D03*
X279400Y342900D03*
X254000Y444500D03*
X279400Y330200D03*
X254000Y254000D03*
X279400Y368300D03*
X292100Y298450D03*
X419100Y349250D03*
X419100Y254000D03*
X355600Y419100D03*
D11*
X368300Y419100D01*
D10*
X368300Y419100D03*
D14*
X457200Y361950D03*
X482600Y361950D03*
D10*
X360680Y320040D03*
X182880Y320040D03*
X551180Y284480D03*
X551180Y426720D03*
X274320Y274320D03*
X434340Y426720D03*
X657860Y355600D03*
X35560Y355600D03*
X365760Y228600D03*
M02*
