G04 EAGLE Gerber X2 export*
%TF.Part,Single*%
%TF.FileFunction,Copper,L1,Top,Mixed*%
%TF.FilePolarity,Positive*%
%TF.GenerationSoftware,Autodesk,EAGLE,8.6.0*%
%TF.CreationDate,2018-05-27T13:35:38Z*%
G75*
%MOMM*%
%FSLAX34Y34*%
%LPD*%
%AMOC8*
5,1,8,0,0,1.08239X$1,22.5*%
G01*
%ADD10R,1.016000X3.302000*%
%ADD11R,0.480000X1.400000*%
%ADD12R,0.480000X1.525000*%
%ADD13R,1.200000X2.725000*%
%ADD14R,0.900000X0.700000*%
%ADD15R,1.100000X1.900000*%
%ADD16R,2.540000X5.080000*%
%ADD17R,0.700000X0.900000*%
%ADD18R,1.600000X1.100000*%
%ADD19R,0.450000X0.500000*%
%ADD20R,0.500000X0.450000*%
%ADD21R,0.304800X0.609600*%
%ADD22R,0.609600X0.304800*%
%ADD23R,3.454400X3.454400*%
%ADD24R,0.800000X0.300000*%
%ADD25R,0.300000X0.800000*%
%ADD26R,2.750000X2.750000*%
%ADD27R,1.600000X1.500000*%
%ADD28C,0.304800*%
%ADD29C,0.152400*%
%ADD30C,0.654800*%
%ADD31C,1.500000*%
%ADD32C,0.177800*%


D10*
X298450Y146050D03*
X298450Y196850D03*
X323850Y146050D03*
X323850Y196850D03*
X349250Y146050D03*
X349250Y196850D03*
X374650Y146050D03*
X374650Y196850D03*
X400050Y146050D03*
X400050Y196850D03*
D11*
X364250Y261900D03*
D12*
X349250Y261275D03*
D11*
X334250Y261900D03*
D13*
X349250Y240050D03*
D14*
X393700Y254150D03*
X393700Y241150D03*
X298450Y254150D03*
X298450Y241150D03*
D15*
X380800Y558800D03*
X355800Y558800D03*
D14*
X361950Y603400D03*
X361950Y590400D03*
X336550Y603400D03*
X336550Y590400D03*
X317500Y590400D03*
X317500Y603400D03*
D16*
X222250Y393700D03*
X88900Y304800D03*
D17*
X222400Y508000D03*
X209400Y508000D03*
X476100Y508000D03*
X489100Y508000D03*
D14*
X177800Y230900D03*
X177800Y217900D03*
X520700Y230900D03*
X520700Y217900D03*
D18*
X520700Y544050D03*
X520700Y510050D03*
X177800Y544050D03*
X177800Y510050D03*
X520700Y154450D03*
X520700Y188450D03*
X177800Y154450D03*
X177800Y188450D03*
D17*
X406550Y349250D03*
X393550Y349250D03*
X291950Y342900D03*
X304950Y342900D03*
X406550Y361950D03*
X393550Y361950D03*
X291950Y330200D03*
X304950Y330200D03*
X291950Y381000D03*
X304950Y381000D03*
X291950Y368300D03*
X304950Y368300D03*
D16*
X88900Y393700D03*
X222250Y304800D03*
D14*
X298450Y488800D03*
X298450Y501800D03*
D19*
X486290Y279480D03*
X486290Y289480D03*
D20*
X478790Y291980D03*
D19*
X471290Y289480D03*
X471290Y279480D03*
D20*
X478790Y276980D03*
D17*
X472290Y260350D03*
X485290Y260350D03*
D21*
X366754Y525150D03*
X361753Y525150D03*
X356752Y525150D03*
X351751Y525150D03*
X346749Y525150D03*
X341748Y525150D03*
X336747Y525150D03*
X331746Y525150D03*
D22*
X325750Y519154D03*
X325750Y514153D03*
X325750Y509152D03*
X325750Y504151D03*
X325750Y499149D03*
X325750Y494148D03*
X325750Y489147D03*
X325750Y484146D03*
D21*
X331746Y478150D03*
X336747Y478150D03*
X341748Y478150D03*
X346749Y478150D03*
X351751Y478150D03*
X356752Y478150D03*
X361753Y478150D03*
X366754Y478150D03*
D22*
X372750Y484146D03*
X372750Y489147D03*
X372750Y494148D03*
X372750Y499149D03*
X372750Y504151D03*
X372750Y509152D03*
X372750Y514153D03*
X372750Y519154D03*
D23*
X349250Y501650D03*
D24*
X329250Y363020D03*
X329250Y358020D03*
X329250Y353020D03*
X329250Y348020D03*
X329250Y343020D03*
X329250Y338020D03*
D25*
X336750Y330520D03*
X341750Y330520D03*
X346750Y330520D03*
X351750Y330520D03*
X356750Y330520D03*
X361750Y330520D03*
D24*
X369250Y338020D03*
X369250Y343020D03*
X369250Y348020D03*
X369250Y353020D03*
X369250Y358020D03*
X369250Y363020D03*
D25*
X361750Y370520D03*
X356750Y370520D03*
X351750Y370520D03*
X346750Y370520D03*
X341750Y370520D03*
X336750Y370520D03*
D26*
X349250Y350520D03*
D14*
X361950Y304950D03*
X361950Y291950D03*
X381000Y590400D03*
X381000Y603400D03*
X330200Y438000D03*
X330200Y451000D03*
X323850Y304950D03*
X323850Y291950D03*
X336550Y304950D03*
X336550Y291950D03*
D17*
X362100Y438150D03*
X349100Y438150D03*
X362100Y450850D03*
X349100Y450850D03*
D14*
X311150Y254150D03*
X311150Y241150D03*
D27*
X298650Y547300D03*
X323650Y547300D03*
X323650Y570300D03*
X298650Y570300D03*
D17*
X291950Y527050D03*
X304950Y527050D03*
D28*
X349250Y240050D02*
X392600Y240050D01*
X393700Y241150D01*
X298450Y158750D02*
X298450Y146050D01*
X298450Y158750D02*
X311150Y171450D01*
X311150Y213360D01*
X320040Y222250D02*
X331470Y222250D01*
X349250Y240030D01*
X349250Y240050D01*
X320040Y222250D02*
X311150Y213360D01*
D29*
X349250Y240050D02*
X349250Y261275D01*
X372750Y509152D02*
X380695Y509152D01*
X381000Y509457D01*
D30*
X381000Y509457D03*
X336550Y171450D03*
D29*
X323850Y158750D01*
D28*
X323850Y146050D01*
D29*
X372750Y504151D02*
X388315Y504151D01*
X388620Y504455D01*
D30*
X388620Y504455D03*
X387350Y171450D03*
D29*
X374650Y158750D01*
D28*
X374650Y146050D01*
X361750Y370520D02*
X356750Y370520D01*
X369250Y338020D02*
X361750Y330520D01*
X369250Y338020D02*
X369250Y343020D01*
X369250Y348020D01*
X369250Y353020D01*
X361750Y330520D02*
X356750Y330520D01*
X351750Y330520D01*
X364250Y261900D02*
X385950Y261900D01*
X393700Y254150D01*
X336550Y291950D02*
X323850Y291950D01*
X311150Y241150D02*
X298450Y241150D01*
X311150Y241150D02*
X320040Y232260D01*
X320040Y231140D01*
D30*
X320040Y231140D03*
D28*
X364250Y275350D02*
X373380Y284480D01*
D30*
X373380Y284480D03*
D28*
X364250Y275350D02*
X364250Y261900D01*
X373380Y293520D02*
X361950Y304950D01*
X373380Y293520D02*
X373380Y284480D01*
X341750Y325150D02*
X341750Y330520D01*
X341750Y325150D02*
X361950Y304950D01*
X400050Y146050D02*
X400050Y133350D01*
D30*
X400050Y106680D03*
D28*
X372230Y320040D02*
X361750Y330520D01*
X372230Y320040D02*
X373380Y320040D01*
D30*
X373380Y320040D03*
D28*
X381000Y603400D02*
X361950Y603400D01*
X434000Y544050D02*
X520700Y544050D01*
X336550Y603400D02*
X317500Y603400D01*
X372750Y519154D02*
X372750Y514153D01*
X88900Y304800D02*
X68580Y304800D01*
X53340Y320040D01*
D30*
X53340Y320040D03*
D28*
X222250Y304800D02*
X233680Y304800D01*
X248920Y320040D01*
D30*
X248920Y320040D03*
D28*
X372750Y519154D02*
X380006Y519154D01*
X323850Y291950D02*
X323850Y270510D01*
X320040Y266700D01*
D30*
X320040Y266700D03*
D28*
X324126Y484146D02*
X325750Y484146D01*
X324126Y484146D02*
X320040Y480060D01*
D30*
X320040Y480060D03*
D28*
X330200Y438000D02*
X330200Y426720D01*
D30*
X330200Y426720D03*
D28*
X520700Y154450D02*
X472930Y106680D01*
X400050Y106680D01*
X225570Y106680D02*
X177800Y154450D01*
X225570Y106680D02*
X400050Y106680D01*
D31*
X482600Y336550D03*
D28*
X370520Y370520D02*
X361750Y370520D01*
X370520Y370520D02*
X373380Y373380D01*
D30*
X373380Y373380D03*
D28*
X380006Y519154D02*
X391160Y530309D01*
X391160Y533400D01*
D30*
X391160Y533400D03*
D28*
X400050Y146050D02*
X400050Y106680D01*
D29*
X472290Y278480D02*
X471290Y279480D01*
D28*
X467280Y279480D01*
X462280Y284480D01*
D30*
X462280Y284480D03*
D28*
X471290Y279480D02*
X471290Y261350D01*
X472290Y260350D01*
X361950Y603400D02*
X336550Y603400D01*
X419175Y558875D02*
X434000Y544050D01*
X419175Y558875D02*
X406400Y571650D01*
X406400Y584200D01*
X387200Y603400D01*
X381000Y603400D01*
X416635Y558875D02*
X391160Y533400D01*
X416635Y558875D02*
X419175Y558875D01*
X317500Y603400D02*
X304950Y603400D01*
X304800Y603250D01*
X305232Y527332D02*
X304950Y527050D01*
X260840Y544050D02*
X177800Y544050D01*
X260840Y544050D02*
X273050Y556260D01*
X288440Y603400D02*
X304950Y603400D01*
X288440Y603400D02*
X273050Y588010D01*
X273050Y556260D01*
X304950Y527050D02*
X306220Y525780D01*
X321310Y525780D01*
X325120Y529590D01*
X325120Y545830D01*
X323650Y547300D01*
X304950Y527050D02*
X303530Y525630D01*
X303530Y519459D01*
D30*
X303530Y519459D03*
D28*
X336750Y330520D02*
X336750Y317150D01*
X361950Y291950D01*
X349230Y276880D02*
X334250Y261900D01*
X349230Y276880D02*
X361950Y289600D01*
X361950Y291950D01*
X326500Y254150D02*
X311150Y254150D01*
X326500Y254150D02*
X334250Y261900D01*
X311150Y254150D02*
X298450Y254150D01*
X346749Y525150D02*
X346749Y533095D01*
X346445Y533400D01*
D30*
X346445Y533400D03*
X331470Y464820D03*
D28*
X330200Y463550D01*
X366754Y525150D02*
X367056Y525452D01*
X367056Y533400D01*
D30*
X367056Y533400D03*
D28*
X331746Y465096D02*
X331470Y464820D01*
X349100Y450850D02*
X349100Y438150D01*
X349100Y426570D01*
X347980Y425450D01*
D30*
X347980Y425450D03*
X349230Y276880D03*
D28*
X298450Y480060D02*
X298450Y488800D01*
D30*
X298450Y480060D03*
D28*
X331746Y478150D02*
X331746Y465096D01*
X331470Y452270D02*
X330200Y451000D01*
X331470Y452270D02*
X331470Y464820D01*
X478790Y276980D02*
X478790Y266850D01*
X485290Y260350D01*
X483790Y276980D02*
X478790Y276980D01*
X483790Y276980D02*
X486290Y279480D01*
X358140Y267970D02*
X349230Y276880D01*
X358140Y267970D02*
X358140Y254659D01*
X365149Y247650D01*
X412750Y247650D01*
X415290Y245110D01*
X470050Y245110D01*
X485290Y260350D01*
X367056Y533400D02*
X374676Y541020D01*
X386080Y541020D01*
X394970Y549910D01*
X394970Y576430D02*
X381000Y590400D01*
X394970Y576430D02*
X394970Y549910D01*
D30*
X317500Y533400D03*
D28*
X298650Y566751D02*
X298650Y570300D01*
X314960Y535940D02*
X317500Y533400D01*
X300840Y535940D02*
X291950Y527050D01*
X300840Y535940D02*
X311150Y535940D01*
X314960Y535940D01*
X311150Y557800D02*
X298650Y570300D01*
X311150Y557800D02*
X311150Y535940D01*
D29*
X361753Y531199D02*
X361753Y525150D01*
X361753Y531199D02*
X361750Y531202D01*
X361750Y539750D01*
X380800Y558800D01*
X380800Y565200D01*
X380800Y558800D02*
X361950Y577650D01*
X361950Y590400D01*
X356752Y557848D02*
X356752Y525150D01*
X356752Y557848D02*
X355800Y558800D01*
X355800Y564800D01*
X355600Y559000D02*
X355800Y558800D01*
X355600Y559000D02*
X355600Y577850D01*
X343050Y590400D01*
X336550Y590400D01*
D30*
X246380Y524510D03*
X246380Y480060D03*
D29*
X222250Y455930D01*
X222250Y393700D01*
D31*
X457200Y336550D03*
D30*
X246154Y383540D03*
D29*
X235994Y393700D01*
X222250Y393700D01*
X351751Y525150D02*
X351751Y539789D01*
X346710Y544830D01*
X326240Y581660D02*
X317500Y590400D01*
X326240Y581660D02*
X341630Y581660D01*
X346710Y576580D01*
X346710Y544830D01*
X317500Y590400D02*
X294490Y590400D01*
X278130Y574040D02*
X278130Y534670D01*
X267970Y524510D01*
X246380Y524510D01*
X278130Y574040D02*
X294490Y590400D01*
X291950Y381000D02*
X279400Y381000D01*
D30*
X279400Y381000D03*
X279400Y400050D03*
D29*
X372750Y499149D02*
X467249Y499149D01*
X476100Y508000D01*
X325750Y514153D02*
X228553Y514153D01*
X222400Y508000D01*
X320001Y504151D02*
X325750Y504151D01*
X320001Y504151D02*
X311150Y495300D01*
X195580Y248680D02*
X177800Y230900D01*
X246380Y495300D02*
X311150Y495300D01*
X246380Y495300D02*
X195580Y444500D01*
X195580Y248680D01*
X489100Y508000D02*
X518650Y508000D01*
X520700Y510050D01*
X209400Y508000D02*
X179850Y508000D01*
X177800Y510050D01*
X520700Y217900D02*
X520700Y188450D01*
X177800Y188450D02*
X177800Y217900D01*
X406550Y361950D02*
X419100Y361950D01*
D30*
X419100Y361950D03*
X419100Y444500D03*
D29*
X291950Y342900D02*
X279400Y342900D01*
D30*
X279400Y342900D03*
X254000Y444500D03*
D29*
X279400Y330200D02*
X291950Y330200D01*
D30*
X279400Y330200D03*
X254000Y254000D03*
D29*
X369250Y358020D02*
X384780Y358020D01*
X393550Y349250D01*
X392480Y363020D02*
X369250Y363020D01*
X392480Y363020D02*
X393550Y361950D01*
X325750Y509152D02*
X305802Y509152D01*
X298450Y501800D01*
X298300Y501650D01*
X234950Y501650D01*
X127000Y393700D01*
X88900Y393700D01*
X311270Y381000D02*
X329250Y363020D01*
X311270Y381000D02*
X304950Y381000D01*
X323970Y358020D02*
X329250Y358020D01*
X323970Y358020D02*
X313690Y368300D01*
X304950Y368300D01*
X518400Y230900D02*
X520700Y230900D01*
X445652Y494148D02*
X372750Y494148D01*
X445652Y494148D02*
X502920Y436880D01*
X502920Y248680D02*
X520700Y230900D01*
X502920Y248680D02*
X502920Y436880D01*
X315070Y353020D02*
X304950Y342900D01*
X315070Y353020D02*
X329250Y353020D01*
X322770Y348020D02*
X304950Y330200D01*
X322770Y348020D02*
X329250Y348020D01*
X291950Y368300D02*
X279400Y368300D01*
D30*
X279400Y368300D03*
X292100Y298450D03*
D29*
X406550Y349250D02*
X419100Y349250D01*
D30*
X419100Y349250D03*
X419100Y254000D03*
D29*
X341748Y525150D02*
X341748Y529472D01*
X339090Y532130D01*
X339090Y561340D01*
X330130Y570300D01*
X323650Y570300D01*
X329250Y338020D02*
X329250Y312250D01*
X336550Y304950D01*
X341748Y472322D02*
X341748Y478150D01*
X362100Y451970D02*
X362100Y450850D01*
X362100Y451970D02*
X341748Y472322D01*
X362100Y450850D02*
X362100Y449024D01*
X346710Y383540D02*
X346710Y370560D01*
X346750Y370520D01*
X355600Y444350D02*
X362100Y450850D01*
X355600Y392430D02*
X346710Y383540D01*
X355600Y419100D02*
X355600Y444350D01*
X355600Y419100D02*
X355600Y392430D01*
D30*
X355600Y419100D03*
X368300Y419100D03*
D29*
X406400Y419100D01*
X438150Y387350D01*
X438150Y323850D01*
X450850Y311150D01*
X476250Y311150D01*
X486290Y301110D01*
X486290Y289480D01*
X346710Y478111D02*
X346749Y478150D01*
X346710Y478111D02*
X346710Y471311D01*
X360639Y457382D02*
X366442Y457382D01*
X367632Y456192D01*
X367632Y445508D01*
X362100Y439976D02*
X362100Y438150D01*
X362100Y439976D02*
X367632Y445508D01*
X360639Y457382D02*
X346710Y471311D01*
X362100Y438150D02*
X362100Y406400D01*
X362100Y392580D01*
X351750Y382230D02*
X351750Y370520D01*
X351750Y382230D02*
X362100Y392580D01*
X362100Y406400D02*
X406400Y406400D01*
X431800Y381000D01*
X431800Y317500D02*
X450850Y298450D01*
X463550Y298450D01*
X471290Y290710D01*
X471290Y289480D01*
X431800Y317500D02*
X431800Y381000D01*
X336747Y469703D02*
X336747Y478150D01*
X340360Y383540D02*
X341750Y382150D01*
X341750Y370520D01*
X340360Y466090D02*
X336747Y469703D01*
X340360Y466090D02*
X340360Y383540D01*
X329250Y343020D02*
X329130Y342900D01*
X323850Y342900D01*
X321310Y340360D01*
X321310Y307490D01*
X323850Y304950D01*
D31*
X457200Y361950D03*
D29*
X361753Y475177D02*
X361753Y478150D01*
X457200Y379730D02*
X457200Y361950D01*
X457200Y379730D02*
X361753Y475177D01*
D31*
X482600Y361950D03*
D29*
X482600Y362304D02*
X366754Y478150D01*
X482600Y362304D02*
X482600Y361950D01*
D30*
X360680Y320040D03*
D29*
X346750Y325179D02*
X346750Y330520D01*
X346750Y325179D02*
X351889Y320040D01*
X360680Y320040D01*
X365760Y320040D01*
X383540Y302260D01*
X391160Y302260D01*
D30*
X182880Y320040D03*
X551180Y284480D03*
X551180Y426720D03*
X274320Y274320D03*
X434340Y426720D03*
D32*
X506421Y225455D02*
X506858Y224400D01*
X506421Y223345D01*
X506421Y212455D01*
X507910Y208861D01*
X510159Y206611D01*
X510159Y203482D01*
X507161Y202240D01*
X504410Y199489D01*
X502921Y195895D01*
X502921Y181519D01*
X500421Y175484D01*
X500421Y167416D01*
X502921Y161381D01*
X502921Y152656D01*
X468248Y117983D01*
X411353Y117983D01*
X411353Y121933D01*
X413420Y124001D01*
X414909Y127595D01*
X414909Y164505D01*
X413420Y168099D01*
X410669Y170850D01*
X409221Y171450D01*
X410669Y172050D01*
X413420Y174801D01*
X414909Y178395D01*
X414909Y215305D01*
X413420Y218899D01*
X410669Y221650D01*
X407075Y223139D01*
X393025Y223139D01*
X389431Y221650D01*
X387350Y219570D01*
X385269Y221650D01*
X381675Y223139D01*
X367625Y223139D01*
X364031Y221650D01*
X363734Y221354D01*
X365029Y224480D01*
X365029Y228747D01*
X385140Y228747D01*
X387255Y227871D01*
X400145Y227871D01*
X403739Y229360D01*
X406490Y232111D01*
X407979Y235705D01*
X407979Y236347D01*
X408068Y236347D01*
X408887Y235528D01*
X413042Y233807D01*
X472298Y233807D01*
X476453Y235528D01*
X486996Y246071D01*
X490735Y246071D01*
X492379Y246752D01*
X492379Y246583D01*
X493984Y242709D01*
X496949Y239744D01*
X506421Y230272D01*
X506421Y225455D01*
X449227Y281884D02*
X449227Y287076D01*
X449227Y281884D02*
X451214Y277086D01*
X454886Y273414D01*
X459111Y271664D01*
X459987Y270788D01*
X459987Y269151D01*
X459011Y266795D01*
X459011Y256413D01*
X432153Y256413D01*
X432153Y256596D01*
X430166Y261394D01*
X426494Y265066D01*
X421696Y267053D01*
X416504Y267053D01*
X411706Y265066D01*
X408034Y261394D01*
X407634Y260428D01*
X406490Y263189D01*
X403739Y265940D01*
X400145Y267429D01*
X396406Y267429D01*
X392353Y271482D01*
X388198Y273203D01*
X380264Y273203D01*
X380774Y273414D01*
X384446Y277086D01*
X386433Y281884D01*
X386433Y287076D01*
X384683Y291301D01*
X384683Y295768D01*
X382962Y299923D01*
X379783Y303102D01*
X376229Y306656D01*
X376229Y307092D01*
X380774Y308974D01*
X384446Y312646D01*
X386433Y317444D01*
X386433Y322636D01*
X384446Y327434D01*
X381220Y330660D01*
X381540Y330981D01*
X383029Y334575D01*
X383029Y337941D01*
X384511Y336460D01*
X388105Y334971D01*
X398995Y334971D01*
X400050Y335408D01*
X401105Y334971D01*
X411995Y334971D01*
X415589Y336460D01*
X415671Y336542D01*
X416504Y336197D01*
X421259Y336197D01*
X421259Y315403D01*
X422864Y311529D01*
X441914Y292479D01*
X444879Y289514D01*
X448753Y287909D01*
X449572Y287909D01*
X449227Y287076D01*
X192079Y230272D02*
X192079Y225455D01*
X192079Y230272D02*
X201551Y239744D01*
X204516Y242709D01*
X206121Y246583D01*
X206121Y270236D01*
X207605Y269621D01*
X236895Y269621D01*
X240489Y271110D01*
X243240Y273861D01*
X244729Y277455D01*
X244729Y299864D01*
X252089Y307224D01*
X256314Y308974D01*
X259986Y312646D01*
X261973Y317444D01*
X261973Y322636D01*
X259986Y327434D01*
X256314Y331106D01*
X251516Y333093D01*
X246324Y333093D01*
X244627Y332390D01*
X243357Y335457D01*
X247029Y344321D01*
X247029Y354179D01*
X243357Y363043D01*
X244729Y366355D01*
X244729Y370487D01*
X248750Y370487D01*
X253548Y372474D01*
X257220Y376146D01*
X259207Y380944D01*
X259207Y386136D01*
X257220Y390934D01*
X253548Y394606D01*
X248750Y396593D01*
X248008Y396593D01*
X244930Y399671D01*
X244729Y399872D01*
X244729Y421045D01*
X243240Y424639D01*
X240489Y427390D01*
X236895Y428879D01*
X232791Y428879D01*
X232791Y451564D01*
X248234Y467007D01*
X248976Y467007D01*
X253774Y468994D01*
X257446Y472666D01*
X259433Y477464D01*
X259433Y482656D01*
X258562Y484759D01*
X284171Y484759D01*
X284171Y483355D01*
X285397Y480395D01*
X285397Y477464D01*
X287384Y472666D01*
X291056Y468994D01*
X295854Y467007D01*
X301046Y467007D01*
X305844Y468994D01*
X309245Y472395D01*
X312646Y468994D01*
X317444Y467007D01*
X318417Y467007D01*
X318417Y462224D01*
X318762Y461391D01*
X317410Y460039D01*
X315921Y456445D01*
X315921Y445555D01*
X316358Y444500D01*
X315921Y443445D01*
X315921Y432555D01*
X317205Y429456D01*
X317147Y429316D01*
X317147Y424124D01*
X319134Y419326D01*
X322806Y415654D01*
X327604Y413667D01*
X329819Y413667D01*
X329819Y382855D01*
X329711Y382810D01*
X327039Y380138D01*
X320206Y386971D01*
X317241Y389936D01*
X317188Y389958D01*
X316740Y391039D01*
X313989Y393790D01*
X310395Y395279D01*
X299505Y395279D01*
X298450Y394842D01*
X297395Y395279D01*
X291552Y395279D01*
X292453Y397454D01*
X292453Y402646D01*
X290466Y407444D01*
X286794Y411116D01*
X281996Y413103D01*
X276804Y413103D01*
X272006Y411116D01*
X268334Y407444D01*
X266347Y402646D01*
X266347Y397454D01*
X268334Y392656D01*
X270465Y390525D01*
X268334Y388394D01*
X266347Y383596D01*
X266347Y378404D01*
X267902Y374650D01*
X266347Y370896D01*
X266347Y365704D01*
X268334Y360906D01*
X272006Y357234D01*
X275951Y355600D01*
X272006Y353966D01*
X268334Y350294D01*
X266347Y345496D01*
X266347Y340304D01*
X267902Y336550D01*
X266347Y332796D01*
X266347Y327604D01*
X268334Y322806D01*
X272006Y319134D01*
X276804Y317147D01*
X281996Y317147D01*
X282829Y317492D01*
X282911Y317410D01*
X286505Y315921D01*
X297395Y315921D01*
X298450Y316358D01*
X299505Y315921D01*
X310395Y315921D01*
X310769Y316076D01*
X310769Y313287D01*
X309571Y310395D01*
X309571Y299505D01*
X310008Y298450D01*
X309571Y297395D01*
X309571Y286505D01*
X311060Y282911D01*
X312547Y281423D01*
X312547Y277667D01*
X308974Y274094D01*
X306987Y269296D01*
X306987Y267429D01*
X292005Y267429D01*
X288411Y265940D01*
X285660Y263189D01*
X284171Y259595D01*
X284171Y248705D01*
X284608Y247650D01*
X284171Y246595D01*
X284171Y235705D01*
X285660Y232111D01*
X288411Y229360D01*
X292005Y227871D01*
X307266Y227871D01*
X307972Y226166D01*
X304944Y223139D01*
X291425Y223139D01*
X287831Y221650D01*
X285080Y218899D01*
X283591Y215305D01*
X283591Y178395D01*
X285080Y174801D01*
X287831Y172050D01*
X289279Y171450D01*
X287831Y170850D01*
X285080Y168099D01*
X283591Y164505D01*
X283591Y127595D01*
X285080Y124001D01*
X287831Y121250D01*
X291425Y119761D01*
X305475Y119761D01*
X309069Y121250D01*
X311150Y123330D01*
X313231Y121250D01*
X316825Y119761D01*
X330875Y119761D01*
X334469Y121250D01*
X336550Y123330D01*
X338631Y121250D01*
X342225Y119761D01*
X356275Y119761D01*
X359869Y121250D01*
X361950Y123330D01*
X364031Y121250D01*
X367625Y119761D01*
X381675Y119761D01*
X385269Y121250D01*
X387350Y123330D01*
X388747Y121933D01*
X388747Y117983D01*
X230252Y117983D01*
X195579Y152656D01*
X195579Y161381D01*
X198079Y167416D01*
X198079Y175484D01*
X195579Y181519D01*
X195579Y195895D01*
X194090Y199489D01*
X191339Y202240D01*
X188341Y203482D01*
X188341Y206611D01*
X190590Y208861D01*
X192079Y212455D01*
X192079Y223345D01*
X191642Y224400D01*
X192079Y225455D01*
X267053Y441904D02*
X267053Y447096D01*
X265066Y451894D01*
X261394Y455566D01*
X256596Y457553D01*
X251404Y457553D01*
X246606Y455566D01*
X242934Y451894D01*
X240947Y447096D01*
X240947Y441904D01*
X242934Y437106D01*
X246606Y433434D01*
X251404Y431447D01*
X256596Y431447D01*
X261394Y433434D01*
X265066Y437106D01*
X267053Y441904D01*
X267053Y256596D02*
X267053Y251404D01*
X267053Y256596D02*
X265066Y261394D01*
X261394Y265066D01*
X256596Y267053D01*
X251404Y267053D01*
X246606Y265066D01*
X242934Y261394D01*
X240947Y256596D01*
X240947Y251404D01*
X242934Y246606D01*
X246606Y242934D01*
X251404Y240947D01*
X256596Y240947D01*
X261394Y242934D01*
X265066Y246606D01*
X267053Y251404D01*
X305153Y295854D02*
X305153Y301046D01*
X303166Y305844D01*
X299494Y309516D01*
X294696Y311503D01*
X289504Y311503D01*
X284706Y309516D01*
X281034Y305844D01*
X279047Y301046D01*
X279047Y295854D01*
X281034Y291056D01*
X284706Y287384D01*
X289504Y285397D01*
X294696Y285397D01*
X299494Y287384D01*
X303166Y291056D01*
X305153Y295854D01*
X432153Y441904D02*
X432153Y447096D01*
X430166Y451894D01*
X426494Y455566D01*
X421696Y457553D01*
X416504Y457553D01*
X411706Y455566D01*
X408034Y451894D01*
X408000Y451811D01*
X383409Y476403D01*
X384088Y477082D01*
X385577Y480676D01*
X385577Y483607D01*
X441286Y483607D01*
X492379Y432514D01*
X492379Y376602D01*
X486037Y379229D01*
X480583Y379229D01*
X426411Y433400D01*
X426494Y433434D01*
X430166Y437106D01*
X432153Y441904D01*
X65552Y688721D02*
X65268Y688606D01*
X65552Y688721D02*
X643649Y688721D01*
X688721Y643649D01*
X688721Y54851D01*
X643649Y9779D01*
X54851Y9779D01*
X9779Y54851D01*
X9779Y643649D01*
X54818Y688689D01*
X65268Y688606D01*
X466099Y488608D02*
X469346Y488608D01*
X473220Y490213D01*
X476728Y493721D01*
X481545Y493721D01*
X482600Y494158D01*
X483655Y493721D01*
X494545Y493721D01*
X498139Y495210D01*
X500389Y497459D01*
X505961Y497459D01*
X507161Y496260D01*
X510755Y494771D01*
X530645Y494771D01*
X534239Y496260D01*
X536990Y499011D01*
X538479Y502605D01*
X538479Y516981D01*
X540979Y523016D01*
X540979Y531084D01*
X538479Y537119D01*
X538479Y551495D01*
X536990Y555089D01*
X534239Y557840D01*
X530645Y559329D01*
X510755Y559329D01*
X507161Y557840D01*
X504673Y555353D01*
X438682Y555353D01*
X428757Y565278D01*
X428757Y565278D01*
X425578Y568457D01*
X425578Y568457D01*
X417703Y576332D01*
X417703Y586448D01*
X415982Y590603D01*
X396782Y609803D01*
X393603Y612982D01*
X392996Y613233D01*
X391039Y615190D01*
X387445Y616679D01*
X374555Y616679D01*
X371475Y615403D01*
X368395Y616679D01*
X355505Y616679D01*
X351911Y615190D01*
X351423Y614703D01*
X347077Y614703D01*
X346589Y615190D01*
X342995Y616679D01*
X330105Y616679D01*
X327025Y615403D01*
X323945Y616679D01*
X311055Y616679D01*
X307461Y615190D01*
X306973Y614703D01*
X286192Y614703D01*
X282037Y612982D01*
X266647Y597592D01*
X263468Y594413D01*
X261747Y590258D01*
X261747Y560942D01*
X256158Y555353D01*
X193827Y555353D01*
X191339Y557840D01*
X187745Y559329D01*
X167855Y559329D01*
X164261Y557840D01*
X161510Y555089D01*
X160021Y551495D01*
X160021Y537119D01*
X157521Y531084D01*
X157521Y523016D01*
X160021Y516981D01*
X160021Y502605D01*
X161510Y499011D01*
X164261Y496260D01*
X167855Y494771D01*
X187745Y494771D01*
X191339Y496260D01*
X192539Y497459D01*
X198111Y497459D01*
X200361Y495210D01*
X203955Y493721D01*
X212114Y493721D01*
X122634Y404241D01*
X111379Y404241D01*
X111379Y421045D01*
X109890Y424639D01*
X107139Y427390D01*
X103545Y428879D01*
X74255Y428879D01*
X70661Y427390D01*
X67910Y424639D01*
X66421Y421045D01*
X66421Y366355D01*
X67793Y363043D01*
X64121Y354179D01*
X64121Y344321D01*
X67793Y335457D01*
X66421Y332145D01*
X66421Y322944D01*
X66156Y323209D01*
X64406Y327434D01*
X60734Y331106D01*
X55936Y333093D01*
X50744Y333093D01*
X45946Y331106D01*
X42274Y327434D01*
X40287Y322636D01*
X40287Y317444D01*
X42274Y312646D01*
X45946Y308974D01*
X50171Y307224D01*
X62177Y295218D01*
X66332Y293497D01*
X66421Y293497D01*
X66421Y277455D01*
X67910Y273861D01*
X70661Y271110D01*
X74255Y269621D01*
X103545Y269621D01*
X107139Y271110D01*
X109890Y273861D01*
X111379Y277455D01*
X111379Y307668D01*
X122816Y301742D01*
X122816Y301742D01*
X136259Y298949D01*
X136259Y298949D01*
X149958Y299886D01*
X149958Y299886D01*
X162896Y304484D01*
X162896Y304484D01*
X174114Y312402D01*
X174114Y312402D01*
X174114Y312402D01*
X182779Y323053D01*
X182779Y323053D01*
X185039Y328256D01*
X185039Y253046D01*
X176172Y244179D01*
X171355Y244179D01*
X167761Y242690D01*
X165010Y239939D01*
X163521Y236345D01*
X163521Y225455D01*
X163958Y224400D01*
X163521Y223345D01*
X163521Y212455D01*
X165010Y208861D01*
X167259Y206611D01*
X167259Y203482D01*
X164261Y202240D01*
X161510Y199489D01*
X160021Y195895D01*
X160021Y181519D01*
X157521Y175484D01*
X157521Y167416D01*
X160021Y161381D01*
X160021Y147005D01*
X161510Y143411D01*
X164261Y140660D01*
X167855Y139171D01*
X177094Y139171D01*
X215988Y100277D01*
X219167Y97098D01*
X223322Y95377D01*
X393229Y95377D01*
X397454Y93627D01*
X402646Y93627D01*
X406871Y95377D01*
X475178Y95377D01*
X479333Y97098D01*
X482512Y100277D01*
X521406Y139171D01*
X530645Y139171D01*
X534239Y140660D01*
X536990Y143411D01*
X538479Y147005D01*
X538479Y161381D01*
X540979Y167416D01*
X540979Y175484D01*
X538479Y181519D01*
X538479Y195895D01*
X536990Y199489D01*
X534239Y202240D01*
X531241Y203482D01*
X531241Y206611D01*
X533490Y208861D01*
X534979Y212455D01*
X534979Y223345D01*
X534542Y224400D01*
X534979Y225455D01*
X534979Y236345D01*
X533490Y239939D01*
X530739Y242690D01*
X527145Y244179D01*
X522328Y244179D01*
X513461Y253046D01*
X513461Y327673D01*
X519689Y317431D01*
X519689Y317431D01*
X529724Y308059D01*
X529724Y308059D01*
X541916Y301742D01*
X541916Y301742D01*
X555359Y298949D01*
X555359Y298949D01*
X569058Y299886D01*
X569058Y299886D01*
X581996Y304484D01*
X581996Y304484D01*
X593214Y312402D01*
X593214Y312402D01*
X593214Y312402D01*
X601879Y323053D01*
X601879Y323053D01*
X607349Y335647D01*
X607349Y335647D01*
X609219Y349250D01*
X607349Y362853D01*
X607349Y362853D01*
X601879Y375447D01*
X601879Y375447D01*
X593214Y386098D01*
X593214Y386098D01*
X581996Y394016D01*
X581996Y394016D01*
X569058Y398614D01*
X569058Y398614D01*
X555359Y399551D01*
X555359Y399551D01*
X541916Y396758D01*
X541916Y396758D01*
X529724Y390441D01*
X529724Y390441D01*
X519689Y381069D01*
X519689Y381069D01*
X513461Y370827D01*
X513461Y438977D01*
X511856Y442851D01*
X508891Y445816D01*
X466099Y488608D01*
X651650Y17780D02*
X46850Y17780D01*
X29070Y35560D02*
X669430Y35560D01*
X687210Y53340D02*
X11290Y53340D01*
X9779Y71120D02*
X688721Y71120D01*
X688721Y88900D02*
X9779Y88900D01*
X9779Y106680D02*
X209585Y106680D01*
X488915Y106680D02*
X688721Y106680D01*
X191805Y124460D02*
X9779Y124460D01*
X223775Y124460D02*
X284889Y124460D01*
X413610Y124460D02*
X474725Y124460D01*
X506695Y124460D02*
X688721Y124460D01*
X162680Y142240D02*
X9779Y142240D01*
X205995Y142240D02*
X283591Y142240D01*
X414909Y142240D02*
X492505Y142240D01*
X535820Y142240D02*
X688721Y142240D01*
X160021Y160020D02*
X9779Y160020D01*
X195579Y160020D02*
X283591Y160020D01*
X414909Y160020D02*
X502921Y160020D01*
X538479Y160020D02*
X688721Y160020D01*
X158480Y177800D02*
X9779Y177800D01*
X197120Y177800D02*
X283837Y177800D01*
X414663Y177800D02*
X501380Y177800D01*
X540020Y177800D02*
X688721Y177800D01*
X160021Y195580D02*
X9779Y195580D01*
X195579Y195580D02*
X283591Y195580D01*
X414909Y195580D02*
X502921Y195580D01*
X538479Y195580D02*
X688721Y195580D01*
X163521Y213360D02*
X9779Y213360D01*
X192079Y213360D02*
X283591Y213360D01*
X414909Y213360D02*
X506421Y213360D01*
X534979Y213360D02*
X688721Y213360D01*
X163521Y231140D02*
X9779Y231140D01*
X192947Y231140D02*
X286630Y231140D01*
X405520Y231140D02*
X505553Y231140D01*
X534979Y231140D02*
X688721Y231140D01*
X180913Y248920D02*
X9779Y248920D01*
X206121Y248920D02*
X241976Y248920D01*
X266024Y248920D02*
X284171Y248920D01*
X517587Y248920D02*
X688721Y248920D01*
X185039Y266700D02*
X9779Y266700D01*
X206121Y266700D02*
X250551Y266700D01*
X257449Y266700D02*
X290245Y266700D01*
X401905Y266700D02*
X415651Y266700D01*
X422549Y266700D02*
X459011Y266700D01*
X513461Y266700D02*
X688721Y266700D01*
X66421Y284480D02*
X9779Y284480D01*
X111379Y284480D02*
X185039Y284480D01*
X244729Y284480D02*
X310410Y284480D01*
X386433Y284480D02*
X449227Y284480D01*
X513461Y284480D02*
X688721Y284480D01*
X55135Y302260D02*
X9779Y302260D01*
X111379Y302260D02*
X121816Y302260D01*
X156639Y302260D02*
X185039Y302260D01*
X247125Y302260D02*
X279550Y302260D01*
X304650Y302260D02*
X309571Y302260D01*
X380625Y302260D02*
X432133Y302260D01*
X513461Y302260D02*
X540916Y302260D01*
X575739Y302260D02*
X688721Y302260D01*
X40287Y320040D02*
X9779Y320040D01*
X180328Y320040D02*
X185039Y320040D01*
X261973Y320040D02*
X271100Y320040D01*
X386433Y320040D02*
X421259Y320040D01*
X513461Y320040D02*
X518103Y320040D01*
X599428Y320040D02*
X688721Y320040D01*
X66814Y337820D02*
X9779Y337820D01*
X244336Y337820D02*
X267376Y337820D01*
X383029Y337820D02*
X383150Y337820D01*
X607648Y337820D02*
X688721Y337820D01*
X64710Y355600D02*
X9779Y355600D01*
X246440Y355600D02*
X275951Y355600D01*
X608346Y355600D02*
X688721Y355600D01*
X66421Y373380D02*
X9779Y373380D01*
X254454Y373380D02*
X267376Y373380D01*
X513461Y373380D02*
X515014Y373380D01*
X602777Y373380D02*
X688721Y373380D01*
X66421Y391160D02*
X9779Y391160D01*
X256994Y391160D02*
X269830Y391160D01*
X316620Y391160D02*
X329819Y391160D01*
X468652Y391160D02*
X492379Y391160D01*
X513461Y391160D02*
X531112Y391160D01*
X586042Y391160D02*
X688721Y391160D01*
X66421Y408940D02*
X9779Y408940D01*
X111379Y408940D02*
X127333Y408940D01*
X244729Y408940D02*
X269830Y408940D01*
X288970Y408940D02*
X329819Y408940D01*
X450872Y408940D02*
X492379Y408940D01*
X513461Y408940D02*
X688721Y408940D01*
X69990Y426720D02*
X9779Y426720D01*
X107810Y426720D02*
X145113Y426720D01*
X241160Y426720D02*
X317147Y426720D01*
X433092Y426720D02*
X492379Y426720D01*
X513461Y426720D02*
X688721Y426720D01*
X162893Y444500D02*
X9779Y444500D01*
X232791Y444500D02*
X240947Y444500D01*
X267053Y444500D02*
X316358Y444500D01*
X432153Y444500D02*
X480393Y444500D01*
X510207Y444500D02*
X688721Y444500D01*
X180673Y462280D02*
X9779Y462280D01*
X243507Y462280D02*
X318417Y462280D01*
X397532Y462280D02*
X462613Y462280D01*
X492427Y462280D02*
X688721Y462280D01*
X198453Y480060D02*
X9779Y480060D01*
X259433Y480060D02*
X285397Y480060D01*
X385322Y480060D02*
X444833Y480060D01*
X474647Y480060D02*
X688721Y480060D01*
X162680Y497840D02*
X9779Y497840D01*
X535820Y497840D02*
X688721Y497840D01*
X160021Y515620D02*
X9779Y515620D01*
X538479Y515620D02*
X688721Y515620D01*
X158480Y533400D02*
X9779Y533400D01*
X540020Y533400D02*
X688721Y533400D01*
X160021Y551180D02*
X9779Y551180D01*
X538479Y551180D02*
X688721Y551180D01*
X261747Y568960D02*
X9779Y568960D01*
X425075Y568960D02*
X688721Y568960D01*
X261747Y586740D02*
X9779Y586740D01*
X417582Y586740D02*
X688721Y586740D01*
X273575Y604520D02*
X9779Y604520D01*
X402065Y604520D02*
X688721Y604520D01*
X688721Y622300D02*
X9779Y622300D01*
X9779Y640080D02*
X688721Y640080D01*
X674510Y657860D02*
X23990Y657860D01*
X41770Y675640D02*
X656730Y675640D01*
X17780Y651650D02*
X17780Y46850D01*
X35560Y29070D02*
X35560Y669430D01*
X53340Y304055D02*
X53340Y11290D01*
X53340Y333093D02*
X53340Y687210D01*
X71120Y270920D02*
X71120Y9779D01*
X71120Y427581D02*
X71120Y688721D01*
X88900Y269621D02*
X88900Y9779D01*
X88900Y428879D02*
X88900Y688721D01*
X106680Y270919D02*
X106680Y9779D01*
X106680Y427580D02*
X106680Y688721D01*
X124460Y301400D02*
X124460Y9779D01*
X124460Y406067D02*
X124460Y688721D01*
X142240Y299358D02*
X142240Y9779D01*
X142240Y423847D02*
X142240Y688721D01*
X160020Y161383D02*
X160020Y9779D01*
X160020Y181517D02*
X160020Y303462D01*
X160020Y441627D02*
X160020Y516983D01*
X160020Y537117D02*
X160020Y688721D01*
X177800Y138465D02*
X177800Y9779D01*
X177800Y245807D02*
X177800Y316933D01*
X177800Y459407D02*
X177800Y494771D01*
X177800Y559329D02*
X177800Y688721D01*
X195580Y120685D02*
X195580Y9779D01*
X195580Y152655D02*
X195580Y161383D01*
X195580Y181517D02*
X195580Y233773D01*
X195580Y477187D02*
X195580Y497459D01*
X195580Y555353D02*
X195580Y688721D01*
X213360Y102905D02*
X213360Y9779D01*
X213360Y134875D02*
X213360Y269621D01*
X213360Y555353D02*
X213360Y688721D01*
X231140Y95377D02*
X231140Y9779D01*
X231140Y117983D02*
X231140Y269621D01*
X231140Y555353D02*
X231140Y688721D01*
X248920Y95377D02*
X248920Y9779D01*
X248920Y117983D02*
X248920Y241976D01*
X248920Y266024D02*
X248920Y304055D01*
X248920Y333093D02*
X248920Y370557D01*
X248920Y396523D02*
X248920Y432476D01*
X248920Y456524D02*
X248920Y467007D01*
X248920Y555353D02*
X248920Y688721D01*
X266700Y95377D02*
X266700Y9779D01*
X266700Y117983D02*
X266700Y250551D01*
X266700Y257449D02*
X266700Y326751D01*
X266700Y333649D02*
X266700Y339451D01*
X266700Y346349D02*
X266700Y364851D01*
X266700Y371749D02*
X266700Y377551D01*
X266700Y384449D02*
X266700Y396601D01*
X266700Y403499D02*
X266700Y441051D01*
X266700Y447949D02*
X266700Y484759D01*
X266700Y597645D02*
X266700Y688721D01*
X284480Y95377D02*
X284480Y9779D01*
X284480Y117983D02*
X284480Y125449D01*
X284480Y166651D02*
X284480Y176249D01*
X284480Y217451D02*
X284480Y234959D01*
X284480Y247341D02*
X284480Y247959D01*
X284480Y260341D02*
X284480Y287610D01*
X284480Y309290D02*
X284480Y316760D01*
X284480Y412074D02*
X284480Y482609D01*
X284480Y613994D02*
X284480Y688721D01*
X302260Y95377D02*
X302260Y9779D01*
X302260Y117983D02*
X302260Y119761D01*
X302260Y223139D02*
X302260Y227871D01*
X302260Y267429D02*
X302260Y290150D01*
X302260Y306750D02*
X302260Y315921D01*
X302260Y395279D02*
X302260Y467510D01*
X302260Y614703D02*
X302260Y688721D01*
X320040Y95377D02*
X320040Y9779D01*
X320040Y117983D02*
X320040Y119761D01*
X320040Y387137D02*
X320040Y418420D01*
X320040Y616679D02*
X320040Y688721D01*
X337820Y95377D02*
X337820Y9779D01*
X337820Y117983D02*
X337820Y122060D01*
X337820Y616679D02*
X337820Y688721D01*
X355600Y95377D02*
X355600Y9779D01*
X355600Y117983D02*
X355600Y119761D01*
X355600Y616679D02*
X355600Y688721D01*
X373380Y95377D02*
X373380Y9779D01*
X373380Y117983D02*
X373380Y119761D01*
X373380Y223139D02*
X373380Y228747D01*
X373380Y616192D02*
X373380Y688721D01*
X391160Y95377D02*
X391160Y9779D01*
X391160Y222367D02*
X391160Y227871D01*
X391160Y271976D02*
X391160Y334971D01*
X391160Y468652D02*
X391160Y483607D01*
X391160Y615070D02*
X391160Y688721D01*
X408940Y95377D02*
X408940Y9779D01*
X408940Y222367D02*
X408940Y235506D01*
X408940Y262300D02*
X408940Y334971D01*
X408940Y452800D02*
X408940Y483607D01*
X408940Y597645D02*
X408940Y688721D01*
X426720Y95377D02*
X426720Y9779D01*
X426720Y117983D02*
X426720Y233807D01*
X426720Y264840D02*
X426720Y307673D01*
X426720Y433092D02*
X426720Y433660D01*
X426720Y455340D02*
X426720Y483607D01*
X426720Y567315D02*
X426720Y688721D01*
X444500Y95377D02*
X444500Y9779D01*
X444500Y117983D02*
X444500Y233807D01*
X444500Y256413D02*
X444500Y289893D01*
X444500Y415312D02*
X444500Y480393D01*
X444500Y555353D02*
X444500Y688721D01*
X462280Y95377D02*
X462280Y9779D01*
X462280Y117983D02*
X462280Y233807D01*
X462280Y397532D02*
X462280Y462613D01*
X462280Y555353D02*
X462280Y688721D01*
X480060Y97825D02*
X480060Y9779D01*
X480060Y129795D02*
X480060Y239135D01*
X480060Y379752D02*
X480060Y444833D01*
X480060Y474647D02*
X480060Y493721D01*
X480060Y555353D02*
X480060Y688721D01*
X497840Y115605D02*
X497840Y9779D01*
X497840Y147575D02*
X497840Y238853D01*
X497840Y456867D02*
X497840Y495086D01*
X497840Y555353D02*
X497840Y688721D01*
X515620Y133385D02*
X515620Y9779D01*
X515620Y250887D02*
X515620Y324123D01*
X515620Y374377D02*
X515620Y494771D01*
X515620Y559329D02*
X515620Y688721D01*
X533400Y140312D02*
X533400Y9779D01*
X533400Y202588D02*
X533400Y208770D01*
X533400Y240030D02*
X533400Y306155D01*
X533400Y392345D02*
X533400Y495912D01*
X533400Y558188D02*
X533400Y688721D01*
X551180Y299817D02*
X551180Y9779D01*
X551180Y398683D02*
X551180Y688721D01*
X568960Y299879D02*
X568960Y9779D01*
X568960Y398621D02*
X568960Y688721D01*
X586740Y307832D02*
X586740Y9779D01*
X586740Y390668D02*
X586740Y688721D01*
X604520Y329133D02*
X604520Y9779D01*
X604520Y369367D02*
X604520Y688721D01*
X622300Y688721D02*
X622300Y9779D01*
X640080Y9779D02*
X640080Y688721D01*
X657860Y674510D02*
X657860Y23990D01*
X675640Y41770D02*
X675640Y656730D01*
D30*
X657860Y355600D03*
X35560Y355600D03*
X365760Y228600D03*
M02*
