M48
;GenerationSoftware,Autodesk,EAGLE,8.6.0*%
;CreationDate,2018-05-27T13:35:38Z*%
FMAT,2
ICI,OFF
METRIC,TZ,000.000
T4C0.350
T3C1.000
T2C2.100
T1C3.000
%
G90
M71
T1
X22225Y34925
X55880Y34925
X13970Y34925
X8890Y34925
T2
X52070Y52705
X17780Y52705
X52070Y17145
X17780Y17145
T3
X48260Y33655
X45720Y33655
X45720Y36195
X48260Y36195
T4
X32004Y26670
X32004Y48006
X33020Y42672
X37338Y37338
X39116Y53340
X46228Y28448
X30353Y51946
X34644Y53340
X33147Y46482
X36706Y53340
X34798Y42545
X34923Y27688
X29845Y48006
X31750Y53340
X24638Y52451
X24638Y48006
X24615Y38354
X27940Y38100
X27940Y40005
X37338Y32004
X41910Y44450
X27940Y34290
X25400Y44450
X27940Y33020
X25400Y25400
X27940Y36830
X29210Y29845
X41910Y34925
X41910Y25400
X35560Y41910
X36830Y41910
X38100Y50946
X33655Y17145
X36068Y32004
X18288Y32004
X38862Y50446
X55118Y42672
X27432Y27432
X43434Y42672
X65786Y35560
X3556Y35560
X36576Y22860
X41910Y36195
X38735Y17145
X32004Y23114
X37338Y28448
X40005Y10668
X5334Y32004
X24892Y32004
X55118Y28448
M30