G04 EAGLE Gerber X2 export*
%TF.Part,Single*%
%TF.FileFunction,Profile,NP*%
%TF.FilePolarity,Positive*%
%TF.GenerationSoftware,Autodesk,EAGLE,8.6.0*%
%TF.CreationDate,2018-05-27T13:35:38Z*%
G75*
%MOMM*%
%FSLAX34Y34*%
%LPD*%
%AMOC8*
5,1,8,0,0,1.08239X$1,22.5*%
G01*
%ADD10C,0.000000*%
%ADD11C,0.254000*%


D10*
X0Y50800D02*
X50800Y0D01*
X647700Y0D01*
X698500Y50800D01*
X698500Y647700D01*
X647700Y698500D01*
X50800Y698500D01*
X63400Y698400D01*
X50800Y698500D02*
X0Y647700D01*
X0Y50800D01*
X73900Y349250D02*
X73905Y349618D01*
X73918Y349986D01*
X73941Y350353D01*
X73972Y350720D01*
X74013Y351086D01*
X74062Y351451D01*
X74121Y351814D01*
X74188Y352176D01*
X74264Y352537D01*
X74350Y352895D01*
X74443Y353251D01*
X74546Y353604D01*
X74657Y353955D01*
X74777Y354303D01*
X74905Y354648D01*
X75042Y354990D01*
X75187Y355329D01*
X75340Y355663D01*
X75502Y355994D01*
X75671Y356321D01*
X75849Y356643D01*
X76034Y356962D01*
X76227Y357275D01*
X76428Y357584D01*
X76636Y357887D01*
X76852Y358185D01*
X77075Y358478D01*
X77305Y358766D01*
X77542Y359048D01*
X77786Y359323D01*
X78036Y359593D01*
X78293Y359857D01*
X78557Y360114D01*
X78827Y360364D01*
X79102Y360608D01*
X79384Y360845D01*
X79672Y361075D01*
X79965Y361298D01*
X80263Y361514D01*
X80566Y361722D01*
X80875Y361923D01*
X81188Y362116D01*
X81507Y362301D01*
X81829Y362479D01*
X82156Y362648D01*
X82487Y362810D01*
X82821Y362963D01*
X83160Y363108D01*
X83502Y363245D01*
X83847Y363373D01*
X84195Y363493D01*
X84546Y363604D01*
X84899Y363707D01*
X85255Y363800D01*
X85613Y363886D01*
X85974Y363962D01*
X86336Y364029D01*
X86699Y364088D01*
X87064Y364137D01*
X87430Y364178D01*
X87797Y364209D01*
X88164Y364232D01*
X88532Y364245D01*
X88900Y364250D01*
X89268Y364245D01*
X89636Y364232D01*
X90003Y364209D01*
X90370Y364178D01*
X90736Y364137D01*
X91101Y364088D01*
X91464Y364029D01*
X91826Y363962D01*
X92187Y363886D01*
X92545Y363800D01*
X92901Y363707D01*
X93254Y363604D01*
X93605Y363493D01*
X93953Y363373D01*
X94298Y363245D01*
X94640Y363108D01*
X94979Y362963D01*
X95313Y362810D01*
X95644Y362648D01*
X95971Y362479D01*
X96293Y362301D01*
X96612Y362116D01*
X96925Y361923D01*
X97234Y361722D01*
X97537Y361514D01*
X97835Y361298D01*
X98128Y361075D01*
X98416Y360845D01*
X98698Y360608D01*
X98973Y360364D01*
X99243Y360114D01*
X99507Y359857D01*
X99764Y359593D01*
X100014Y359323D01*
X100258Y359048D01*
X100495Y358766D01*
X100725Y358478D01*
X100948Y358185D01*
X101164Y357887D01*
X101372Y357584D01*
X101573Y357275D01*
X101766Y356962D01*
X101951Y356643D01*
X102129Y356321D01*
X102298Y355994D01*
X102460Y355663D01*
X102613Y355329D01*
X102758Y354990D01*
X102895Y354648D01*
X103023Y354303D01*
X103143Y353955D01*
X103254Y353604D01*
X103357Y353251D01*
X103450Y352895D01*
X103536Y352537D01*
X103612Y352176D01*
X103679Y351814D01*
X103738Y351451D01*
X103787Y351086D01*
X103828Y350720D01*
X103859Y350353D01*
X103882Y349986D01*
X103895Y349618D01*
X103900Y349250D01*
X103895Y348882D01*
X103882Y348514D01*
X103859Y348147D01*
X103828Y347780D01*
X103787Y347414D01*
X103738Y347049D01*
X103679Y346686D01*
X103612Y346324D01*
X103536Y345963D01*
X103450Y345605D01*
X103357Y345249D01*
X103254Y344896D01*
X103143Y344545D01*
X103023Y344197D01*
X102895Y343852D01*
X102758Y343510D01*
X102613Y343171D01*
X102460Y342837D01*
X102298Y342506D01*
X102129Y342179D01*
X101951Y341857D01*
X101766Y341538D01*
X101573Y341225D01*
X101372Y340916D01*
X101164Y340613D01*
X100948Y340315D01*
X100725Y340022D01*
X100495Y339734D01*
X100258Y339452D01*
X100014Y339177D01*
X99764Y338907D01*
X99507Y338643D01*
X99243Y338386D01*
X98973Y338136D01*
X98698Y337892D01*
X98416Y337655D01*
X98128Y337425D01*
X97835Y337202D01*
X97537Y336986D01*
X97234Y336778D01*
X96925Y336577D01*
X96612Y336384D01*
X96293Y336199D01*
X95971Y336021D01*
X95644Y335852D01*
X95313Y335690D01*
X94979Y335537D01*
X94640Y335392D01*
X94298Y335255D01*
X93953Y335127D01*
X93605Y335007D01*
X93254Y334896D01*
X92901Y334793D01*
X92545Y334700D01*
X92187Y334614D01*
X91826Y334538D01*
X91464Y334471D01*
X91101Y334412D01*
X90736Y334363D01*
X90370Y334322D01*
X90003Y334291D01*
X89636Y334268D01*
X89268Y334255D01*
X88900Y334250D01*
X88532Y334255D01*
X88164Y334268D01*
X87797Y334291D01*
X87430Y334322D01*
X87064Y334363D01*
X86699Y334412D01*
X86336Y334471D01*
X85974Y334538D01*
X85613Y334614D01*
X85255Y334700D01*
X84899Y334793D01*
X84546Y334896D01*
X84195Y335007D01*
X83847Y335127D01*
X83502Y335255D01*
X83160Y335392D01*
X82821Y335537D01*
X82487Y335690D01*
X82156Y335852D01*
X81829Y336021D01*
X81507Y336199D01*
X81188Y336384D01*
X80875Y336577D01*
X80566Y336778D01*
X80263Y336986D01*
X79965Y337202D01*
X79672Y337425D01*
X79384Y337655D01*
X79102Y337892D01*
X78827Y338136D01*
X78557Y338386D01*
X78293Y338643D01*
X78036Y338907D01*
X77786Y339177D01*
X77542Y339452D01*
X77305Y339734D01*
X77075Y340022D01*
X76852Y340315D01*
X76636Y340613D01*
X76428Y340916D01*
X76227Y341225D01*
X76034Y341538D01*
X75849Y341857D01*
X75671Y342179D01*
X75502Y342506D01*
X75340Y342837D01*
X75187Y343171D01*
X75042Y343510D01*
X74905Y343852D01*
X74777Y344197D01*
X74657Y344545D01*
X74546Y344896D01*
X74443Y345249D01*
X74350Y345605D01*
X74264Y345963D01*
X74188Y346324D01*
X74121Y346686D01*
X74062Y347049D01*
X74013Y347414D01*
X73972Y347780D01*
X73941Y348147D01*
X73918Y348514D01*
X73905Y348882D01*
X73900Y349250D01*
X207250Y349250D02*
X207255Y349618D01*
X207268Y349986D01*
X207291Y350353D01*
X207322Y350720D01*
X207363Y351086D01*
X207412Y351451D01*
X207471Y351814D01*
X207538Y352176D01*
X207614Y352537D01*
X207700Y352895D01*
X207793Y353251D01*
X207896Y353604D01*
X208007Y353955D01*
X208127Y354303D01*
X208255Y354648D01*
X208392Y354990D01*
X208537Y355329D01*
X208690Y355663D01*
X208852Y355994D01*
X209021Y356321D01*
X209199Y356643D01*
X209384Y356962D01*
X209577Y357275D01*
X209778Y357584D01*
X209986Y357887D01*
X210202Y358185D01*
X210425Y358478D01*
X210655Y358766D01*
X210892Y359048D01*
X211136Y359323D01*
X211386Y359593D01*
X211643Y359857D01*
X211907Y360114D01*
X212177Y360364D01*
X212452Y360608D01*
X212734Y360845D01*
X213022Y361075D01*
X213315Y361298D01*
X213613Y361514D01*
X213916Y361722D01*
X214225Y361923D01*
X214538Y362116D01*
X214857Y362301D01*
X215179Y362479D01*
X215506Y362648D01*
X215837Y362810D01*
X216171Y362963D01*
X216510Y363108D01*
X216852Y363245D01*
X217197Y363373D01*
X217545Y363493D01*
X217896Y363604D01*
X218249Y363707D01*
X218605Y363800D01*
X218963Y363886D01*
X219324Y363962D01*
X219686Y364029D01*
X220049Y364088D01*
X220414Y364137D01*
X220780Y364178D01*
X221147Y364209D01*
X221514Y364232D01*
X221882Y364245D01*
X222250Y364250D01*
X222618Y364245D01*
X222986Y364232D01*
X223353Y364209D01*
X223720Y364178D01*
X224086Y364137D01*
X224451Y364088D01*
X224814Y364029D01*
X225176Y363962D01*
X225537Y363886D01*
X225895Y363800D01*
X226251Y363707D01*
X226604Y363604D01*
X226955Y363493D01*
X227303Y363373D01*
X227648Y363245D01*
X227990Y363108D01*
X228329Y362963D01*
X228663Y362810D01*
X228994Y362648D01*
X229321Y362479D01*
X229643Y362301D01*
X229962Y362116D01*
X230275Y361923D01*
X230584Y361722D01*
X230887Y361514D01*
X231185Y361298D01*
X231478Y361075D01*
X231766Y360845D01*
X232048Y360608D01*
X232323Y360364D01*
X232593Y360114D01*
X232857Y359857D01*
X233114Y359593D01*
X233364Y359323D01*
X233608Y359048D01*
X233845Y358766D01*
X234075Y358478D01*
X234298Y358185D01*
X234514Y357887D01*
X234722Y357584D01*
X234923Y357275D01*
X235116Y356962D01*
X235301Y356643D01*
X235479Y356321D01*
X235648Y355994D01*
X235810Y355663D01*
X235963Y355329D01*
X236108Y354990D01*
X236245Y354648D01*
X236373Y354303D01*
X236493Y353955D01*
X236604Y353604D01*
X236707Y353251D01*
X236800Y352895D01*
X236886Y352537D01*
X236962Y352176D01*
X237029Y351814D01*
X237088Y351451D01*
X237137Y351086D01*
X237178Y350720D01*
X237209Y350353D01*
X237232Y349986D01*
X237245Y349618D01*
X237250Y349250D01*
X237245Y348882D01*
X237232Y348514D01*
X237209Y348147D01*
X237178Y347780D01*
X237137Y347414D01*
X237088Y347049D01*
X237029Y346686D01*
X236962Y346324D01*
X236886Y345963D01*
X236800Y345605D01*
X236707Y345249D01*
X236604Y344896D01*
X236493Y344545D01*
X236373Y344197D01*
X236245Y343852D01*
X236108Y343510D01*
X235963Y343171D01*
X235810Y342837D01*
X235648Y342506D01*
X235479Y342179D01*
X235301Y341857D01*
X235116Y341538D01*
X234923Y341225D01*
X234722Y340916D01*
X234514Y340613D01*
X234298Y340315D01*
X234075Y340022D01*
X233845Y339734D01*
X233608Y339452D01*
X233364Y339177D01*
X233114Y338907D01*
X232857Y338643D01*
X232593Y338386D01*
X232323Y338136D01*
X232048Y337892D01*
X231766Y337655D01*
X231478Y337425D01*
X231185Y337202D01*
X230887Y336986D01*
X230584Y336778D01*
X230275Y336577D01*
X229962Y336384D01*
X229643Y336199D01*
X229321Y336021D01*
X228994Y335852D01*
X228663Y335690D01*
X228329Y335537D01*
X227990Y335392D01*
X227648Y335255D01*
X227303Y335127D01*
X226955Y335007D01*
X226604Y334896D01*
X226251Y334793D01*
X225895Y334700D01*
X225537Y334614D01*
X225176Y334538D01*
X224814Y334471D01*
X224451Y334412D01*
X224086Y334363D01*
X223720Y334322D01*
X223353Y334291D01*
X222986Y334268D01*
X222618Y334255D01*
X222250Y334250D01*
X221882Y334255D01*
X221514Y334268D01*
X221147Y334291D01*
X220780Y334322D01*
X220414Y334363D01*
X220049Y334412D01*
X219686Y334471D01*
X219324Y334538D01*
X218963Y334614D01*
X218605Y334700D01*
X218249Y334793D01*
X217896Y334896D01*
X217545Y335007D01*
X217197Y335127D01*
X216852Y335255D01*
X216510Y335392D01*
X216171Y335537D01*
X215837Y335690D01*
X215506Y335852D01*
X215179Y336021D01*
X214857Y336199D01*
X214538Y336384D01*
X214225Y336577D01*
X213916Y336778D01*
X213613Y336986D01*
X213315Y337202D01*
X213022Y337425D01*
X212734Y337655D01*
X212452Y337892D01*
X212177Y338136D01*
X211907Y338386D01*
X211643Y338643D01*
X211386Y338907D01*
X211136Y339177D01*
X210892Y339452D01*
X210655Y339734D01*
X210425Y340022D01*
X210202Y340315D01*
X209986Y340613D01*
X209778Y340916D01*
X209577Y341225D01*
X209384Y341538D01*
X209199Y341857D01*
X209021Y342179D01*
X208852Y342506D01*
X208690Y342837D01*
X208537Y343171D01*
X208392Y343510D01*
X208255Y343852D01*
X208127Y344197D01*
X208007Y344545D01*
X207896Y344896D01*
X207793Y345249D01*
X207700Y345605D01*
X207614Y345963D01*
X207538Y346324D01*
X207471Y346686D01*
X207412Y347049D01*
X207363Y347414D01*
X207322Y347780D01*
X207291Y348147D01*
X207268Y348514D01*
X207255Y348882D01*
X207250Y349250D01*
X543800Y349250D02*
X543805Y349618D01*
X543818Y349986D01*
X543841Y350353D01*
X543872Y350720D01*
X543913Y351086D01*
X543962Y351451D01*
X544021Y351814D01*
X544088Y352176D01*
X544164Y352537D01*
X544250Y352895D01*
X544343Y353251D01*
X544446Y353604D01*
X544557Y353955D01*
X544677Y354303D01*
X544805Y354648D01*
X544942Y354990D01*
X545087Y355329D01*
X545240Y355663D01*
X545402Y355994D01*
X545571Y356321D01*
X545749Y356643D01*
X545934Y356962D01*
X546127Y357275D01*
X546328Y357584D01*
X546536Y357887D01*
X546752Y358185D01*
X546975Y358478D01*
X547205Y358766D01*
X547442Y359048D01*
X547686Y359323D01*
X547936Y359593D01*
X548193Y359857D01*
X548457Y360114D01*
X548727Y360364D01*
X549002Y360608D01*
X549284Y360845D01*
X549572Y361075D01*
X549865Y361298D01*
X550163Y361514D01*
X550466Y361722D01*
X550775Y361923D01*
X551088Y362116D01*
X551407Y362301D01*
X551729Y362479D01*
X552056Y362648D01*
X552387Y362810D01*
X552721Y362963D01*
X553060Y363108D01*
X553402Y363245D01*
X553747Y363373D01*
X554095Y363493D01*
X554446Y363604D01*
X554799Y363707D01*
X555155Y363800D01*
X555513Y363886D01*
X555874Y363962D01*
X556236Y364029D01*
X556599Y364088D01*
X556964Y364137D01*
X557330Y364178D01*
X557697Y364209D01*
X558064Y364232D01*
X558432Y364245D01*
X558800Y364250D01*
X559168Y364245D01*
X559536Y364232D01*
X559903Y364209D01*
X560270Y364178D01*
X560636Y364137D01*
X561001Y364088D01*
X561364Y364029D01*
X561726Y363962D01*
X562087Y363886D01*
X562445Y363800D01*
X562801Y363707D01*
X563154Y363604D01*
X563505Y363493D01*
X563853Y363373D01*
X564198Y363245D01*
X564540Y363108D01*
X564879Y362963D01*
X565213Y362810D01*
X565544Y362648D01*
X565871Y362479D01*
X566193Y362301D01*
X566512Y362116D01*
X566825Y361923D01*
X567134Y361722D01*
X567437Y361514D01*
X567735Y361298D01*
X568028Y361075D01*
X568316Y360845D01*
X568598Y360608D01*
X568873Y360364D01*
X569143Y360114D01*
X569407Y359857D01*
X569664Y359593D01*
X569914Y359323D01*
X570158Y359048D01*
X570395Y358766D01*
X570625Y358478D01*
X570848Y358185D01*
X571064Y357887D01*
X571272Y357584D01*
X571473Y357275D01*
X571666Y356962D01*
X571851Y356643D01*
X572029Y356321D01*
X572198Y355994D01*
X572360Y355663D01*
X572513Y355329D01*
X572658Y354990D01*
X572795Y354648D01*
X572923Y354303D01*
X573043Y353955D01*
X573154Y353604D01*
X573257Y353251D01*
X573350Y352895D01*
X573436Y352537D01*
X573512Y352176D01*
X573579Y351814D01*
X573638Y351451D01*
X573687Y351086D01*
X573728Y350720D01*
X573759Y350353D01*
X573782Y349986D01*
X573795Y349618D01*
X573800Y349250D01*
X573795Y348882D01*
X573782Y348514D01*
X573759Y348147D01*
X573728Y347780D01*
X573687Y347414D01*
X573638Y347049D01*
X573579Y346686D01*
X573512Y346324D01*
X573436Y345963D01*
X573350Y345605D01*
X573257Y345249D01*
X573154Y344896D01*
X573043Y344545D01*
X572923Y344197D01*
X572795Y343852D01*
X572658Y343510D01*
X572513Y343171D01*
X572360Y342837D01*
X572198Y342506D01*
X572029Y342179D01*
X571851Y341857D01*
X571666Y341538D01*
X571473Y341225D01*
X571272Y340916D01*
X571064Y340613D01*
X570848Y340315D01*
X570625Y340022D01*
X570395Y339734D01*
X570158Y339452D01*
X569914Y339177D01*
X569664Y338907D01*
X569407Y338643D01*
X569143Y338386D01*
X568873Y338136D01*
X568598Y337892D01*
X568316Y337655D01*
X568028Y337425D01*
X567735Y337202D01*
X567437Y336986D01*
X567134Y336778D01*
X566825Y336577D01*
X566512Y336384D01*
X566193Y336199D01*
X565871Y336021D01*
X565544Y335852D01*
X565213Y335690D01*
X564879Y335537D01*
X564540Y335392D01*
X564198Y335255D01*
X563853Y335127D01*
X563505Y335007D01*
X563154Y334896D01*
X562801Y334793D01*
X562445Y334700D01*
X562087Y334614D01*
X561726Y334538D01*
X561364Y334471D01*
X561001Y334412D01*
X560636Y334363D01*
X560270Y334322D01*
X559903Y334291D01*
X559536Y334268D01*
X559168Y334255D01*
X558800Y334250D01*
X558432Y334255D01*
X558064Y334268D01*
X557697Y334291D01*
X557330Y334322D01*
X556964Y334363D01*
X556599Y334412D01*
X556236Y334471D01*
X555874Y334538D01*
X555513Y334614D01*
X555155Y334700D01*
X554799Y334793D01*
X554446Y334896D01*
X554095Y335007D01*
X553747Y335127D01*
X553402Y335255D01*
X553060Y335392D01*
X552721Y335537D01*
X552387Y335690D01*
X552056Y335852D01*
X551729Y336021D01*
X551407Y336199D01*
X551088Y336384D01*
X550775Y336577D01*
X550466Y336778D01*
X550163Y336986D01*
X549865Y337202D01*
X549572Y337425D01*
X549284Y337655D01*
X549002Y337892D01*
X548727Y338136D01*
X548457Y338386D01*
X548193Y338643D01*
X547936Y338907D01*
X547686Y339177D01*
X547442Y339452D01*
X547205Y339734D01*
X546975Y340022D01*
X546752Y340315D01*
X546536Y340613D01*
X546328Y340916D01*
X546127Y341225D01*
X545934Y341538D01*
X545749Y341857D01*
X545571Y342179D01*
X545402Y342506D01*
X545240Y342837D01*
X545087Y343171D01*
X544942Y343510D01*
X544805Y343852D01*
X544677Y344197D01*
X544557Y344545D01*
X544446Y344896D01*
X544343Y345249D01*
X544250Y345605D01*
X544164Y345963D01*
X544088Y346324D01*
X544021Y346686D01*
X543962Y347049D01*
X543913Y347414D01*
X543872Y347780D01*
X543841Y348147D01*
X543818Y348514D01*
X543805Y348882D01*
X543800Y349250D01*
X124700Y349250D02*
X124705Y349618D01*
X124718Y349986D01*
X124741Y350353D01*
X124772Y350720D01*
X124813Y351086D01*
X124862Y351451D01*
X124921Y351814D01*
X124988Y352176D01*
X125064Y352537D01*
X125150Y352895D01*
X125243Y353251D01*
X125346Y353604D01*
X125457Y353955D01*
X125577Y354303D01*
X125705Y354648D01*
X125842Y354990D01*
X125987Y355329D01*
X126140Y355663D01*
X126302Y355994D01*
X126471Y356321D01*
X126649Y356643D01*
X126834Y356962D01*
X127027Y357275D01*
X127228Y357584D01*
X127436Y357887D01*
X127652Y358185D01*
X127875Y358478D01*
X128105Y358766D01*
X128342Y359048D01*
X128586Y359323D01*
X128836Y359593D01*
X129093Y359857D01*
X129357Y360114D01*
X129627Y360364D01*
X129902Y360608D01*
X130184Y360845D01*
X130472Y361075D01*
X130765Y361298D01*
X131063Y361514D01*
X131366Y361722D01*
X131675Y361923D01*
X131988Y362116D01*
X132307Y362301D01*
X132629Y362479D01*
X132956Y362648D01*
X133287Y362810D01*
X133621Y362963D01*
X133960Y363108D01*
X134302Y363245D01*
X134647Y363373D01*
X134995Y363493D01*
X135346Y363604D01*
X135699Y363707D01*
X136055Y363800D01*
X136413Y363886D01*
X136774Y363962D01*
X137136Y364029D01*
X137499Y364088D01*
X137864Y364137D01*
X138230Y364178D01*
X138597Y364209D01*
X138964Y364232D01*
X139332Y364245D01*
X139700Y364250D01*
X140068Y364245D01*
X140436Y364232D01*
X140803Y364209D01*
X141170Y364178D01*
X141536Y364137D01*
X141901Y364088D01*
X142264Y364029D01*
X142626Y363962D01*
X142987Y363886D01*
X143345Y363800D01*
X143701Y363707D01*
X144054Y363604D01*
X144405Y363493D01*
X144753Y363373D01*
X145098Y363245D01*
X145440Y363108D01*
X145779Y362963D01*
X146113Y362810D01*
X146444Y362648D01*
X146771Y362479D01*
X147093Y362301D01*
X147412Y362116D01*
X147725Y361923D01*
X148034Y361722D01*
X148337Y361514D01*
X148635Y361298D01*
X148928Y361075D01*
X149216Y360845D01*
X149498Y360608D01*
X149773Y360364D01*
X150043Y360114D01*
X150307Y359857D01*
X150564Y359593D01*
X150814Y359323D01*
X151058Y359048D01*
X151295Y358766D01*
X151525Y358478D01*
X151748Y358185D01*
X151964Y357887D01*
X152172Y357584D01*
X152373Y357275D01*
X152566Y356962D01*
X152751Y356643D01*
X152929Y356321D01*
X153098Y355994D01*
X153260Y355663D01*
X153413Y355329D01*
X153558Y354990D01*
X153695Y354648D01*
X153823Y354303D01*
X153943Y353955D01*
X154054Y353604D01*
X154157Y353251D01*
X154250Y352895D01*
X154336Y352537D01*
X154412Y352176D01*
X154479Y351814D01*
X154538Y351451D01*
X154587Y351086D01*
X154628Y350720D01*
X154659Y350353D01*
X154682Y349986D01*
X154695Y349618D01*
X154700Y349250D01*
X154695Y348882D01*
X154682Y348514D01*
X154659Y348147D01*
X154628Y347780D01*
X154587Y347414D01*
X154538Y347049D01*
X154479Y346686D01*
X154412Y346324D01*
X154336Y345963D01*
X154250Y345605D01*
X154157Y345249D01*
X154054Y344896D01*
X153943Y344545D01*
X153823Y344197D01*
X153695Y343852D01*
X153558Y343510D01*
X153413Y343171D01*
X153260Y342837D01*
X153098Y342506D01*
X152929Y342179D01*
X152751Y341857D01*
X152566Y341538D01*
X152373Y341225D01*
X152172Y340916D01*
X151964Y340613D01*
X151748Y340315D01*
X151525Y340022D01*
X151295Y339734D01*
X151058Y339452D01*
X150814Y339177D01*
X150564Y338907D01*
X150307Y338643D01*
X150043Y338386D01*
X149773Y338136D01*
X149498Y337892D01*
X149216Y337655D01*
X148928Y337425D01*
X148635Y337202D01*
X148337Y336986D01*
X148034Y336778D01*
X147725Y336577D01*
X147412Y336384D01*
X147093Y336199D01*
X146771Y336021D01*
X146444Y335852D01*
X146113Y335690D01*
X145779Y335537D01*
X145440Y335392D01*
X145098Y335255D01*
X144753Y335127D01*
X144405Y335007D01*
X144054Y334896D01*
X143701Y334793D01*
X143345Y334700D01*
X142987Y334614D01*
X142626Y334538D01*
X142264Y334471D01*
X141901Y334412D01*
X141536Y334363D01*
X141170Y334322D01*
X140803Y334291D01*
X140436Y334268D01*
X140068Y334255D01*
X139700Y334250D01*
X139332Y334255D01*
X138964Y334268D01*
X138597Y334291D01*
X138230Y334322D01*
X137864Y334363D01*
X137499Y334412D01*
X137136Y334471D01*
X136774Y334538D01*
X136413Y334614D01*
X136055Y334700D01*
X135699Y334793D01*
X135346Y334896D01*
X134995Y335007D01*
X134647Y335127D01*
X134302Y335255D01*
X133960Y335392D01*
X133621Y335537D01*
X133287Y335690D01*
X132956Y335852D01*
X132629Y336021D01*
X132307Y336199D01*
X131988Y336384D01*
X131675Y336577D01*
X131366Y336778D01*
X131063Y336986D01*
X130765Y337202D01*
X130472Y337425D01*
X130184Y337655D01*
X129902Y337892D01*
X129627Y338136D01*
X129357Y338386D01*
X129093Y338643D01*
X128836Y338907D01*
X128586Y339177D01*
X128342Y339452D01*
X128105Y339734D01*
X127875Y340022D01*
X127652Y340315D01*
X127436Y340613D01*
X127228Y340916D01*
X127027Y341225D01*
X126834Y341538D01*
X126649Y341857D01*
X126471Y342179D01*
X126302Y342506D01*
X126140Y342837D01*
X125987Y343171D01*
X125842Y343510D01*
X125705Y343852D01*
X125577Y344197D01*
X125457Y344545D01*
X125346Y344896D01*
X125243Y345249D01*
X125150Y345605D01*
X125064Y345963D01*
X124988Y346324D01*
X124921Y346686D01*
X124862Y347049D01*
X124813Y347414D01*
X124772Y347780D01*
X124741Y348147D01*
X124718Y348514D01*
X124705Y348882D01*
X124700Y349250D01*
X510200Y527050D02*
X510203Y527308D01*
X510213Y527565D01*
X510228Y527822D01*
X510251Y528079D01*
X510279Y528335D01*
X510314Y528591D01*
X510355Y528845D01*
X510402Y529098D01*
X510455Y529351D01*
X510515Y529601D01*
X510580Y529850D01*
X510652Y530098D01*
X510730Y530344D01*
X510814Y530587D01*
X510904Y530829D01*
X510999Y531068D01*
X511101Y531305D01*
X511208Y531539D01*
X511321Y531771D01*
X511440Y532000D01*
X511564Y532225D01*
X511694Y532448D01*
X511829Y532667D01*
X511970Y532883D01*
X512115Y533096D01*
X512266Y533305D01*
X512422Y533510D01*
X512583Y533711D01*
X512749Y533908D01*
X512920Y534101D01*
X513095Y534290D01*
X513275Y534475D01*
X513460Y534655D01*
X513649Y534830D01*
X513842Y535001D01*
X514039Y535167D01*
X514240Y535328D01*
X514445Y535484D01*
X514654Y535635D01*
X514867Y535780D01*
X515083Y535921D01*
X515302Y536056D01*
X515525Y536186D01*
X515750Y536310D01*
X515979Y536429D01*
X516211Y536542D01*
X516445Y536649D01*
X516682Y536751D01*
X516921Y536846D01*
X517163Y536936D01*
X517406Y537020D01*
X517652Y537098D01*
X517900Y537170D01*
X518149Y537235D01*
X518399Y537295D01*
X518652Y537348D01*
X518905Y537395D01*
X519159Y537436D01*
X519415Y537471D01*
X519671Y537499D01*
X519928Y537522D01*
X520185Y537537D01*
X520442Y537547D01*
X520700Y537550D01*
X520958Y537547D01*
X521215Y537537D01*
X521472Y537522D01*
X521729Y537499D01*
X521985Y537471D01*
X522241Y537436D01*
X522495Y537395D01*
X522748Y537348D01*
X523001Y537295D01*
X523251Y537235D01*
X523500Y537170D01*
X523748Y537098D01*
X523994Y537020D01*
X524237Y536936D01*
X524479Y536846D01*
X524718Y536751D01*
X524955Y536649D01*
X525189Y536542D01*
X525421Y536429D01*
X525650Y536310D01*
X525875Y536186D01*
X526098Y536056D01*
X526317Y535921D01*
X526533Y535780D01*
X526746Y535635D01*
X526955Y535484D01*
X527160Y535328D01*
X527361Y535167D01*
X527558Y535001D01*
X527751Y534830D01*
X527940Y534655D01*
X528125Y534475D01*
X528305Y534290D01*
X528480Y534101D01*
X528651Y533908D01*
X528817Y533711D01*
X528978Y533510D01*
X529134Y533305D01*
X529285Y533096D01*
X529430Y532883D01*
X529571Y532667D01*
X529706Y532448D01*
X529836Y532225D01*
X529960Y532000D01*
X530079Y531771D01*
X530192Y531539D01*
X530299Y531305D01*
X530401Y531068D01*
X530496Y530829D01*
X530586Y530587D01*
X530670Y530344D01*
X530748Y530098D01*
X530820Y529850D01*
X530885Y529601D01*
X530945Y529351D01*
X530998Y529098D01*
X531045Y528845D01*
X531086Y528591D01*
X531121Y528335D01*
X531149Y528079D01*
X531172Y527822D01*
X531187Y527565D01*
X531197Y527308D01*
X531200Y527050D01*
X531197Y526792D01*
X531187Y526535D01*
X531172Y526278D01*
X531149Y526021D01*
X531121Y525765D01*
X531086Y525509D01*
X531045Y525255D01*
X530998Y525002D01*
X530945Y524749D01*
X530885Y524499D01*
X530820Y524250D01*
X530748Y524002D01*
X530670Y523756D01*
X530586Y523513D01*
X530496Y523271D01*
X530401Y523032D01*
X530299Y522795D01*
X530192Y522561D01*
X530079Y522329D01*
X529960Y522100D01*
X529836Y521875D01*
X529706Y521652D01*
X529571Y521433D01*
X529430Y521217D01*
X529285Y521004D01*
X529134Y520795D01*
X528978Y520590D01*
X528817Y520389D01*
X528651Y520192D01*
X528480Y519999D01*
X528305Y519810D01*
X528125Y519625D01*
X527940Y519445D01*
X527751Y519270D01*
X527558Y519099D01*
X527361Y518933D01*
X527160Y518772D01*
X526955Y518616D01*
X526746Y518465D01*
X526533Y518320D01*
X526317Y518179D01*
X526098Y518044D01*
X525875Y517914D01*
X525650Y517790D01*
X525421Y517671D01*
X525189Y517558D01*
X524955Y517451D01*
X524718Y517349D01*
X524479Y517254D01*
X524237Y517164D01*
X523994Y517080D01*
X523748Y517002D01*
X523500Y516930D01*
X523251Y516865D01*
X523001Y516805D01*
X522748Y516752D01*
X522495Y516705D01*
X522241Y516664D01*
X521985Y516629D01*
X521729Y516601D01*
X521472Y516578D01*
X521215Y516563D01*
X520958Y516553D01*
X520700Y516550D01*
X520442Y516553D01*
X520185Y516563D01*
X519928Y516578D01*
X519671Y516601D01*
X519415Y516629D01*
X519159Y516664D01*
X518905Y516705D01*
X518652Y516752D01*
X518399Y516805D01*
X518149Y516865D01*
X517900Y516930D01*
X517652Y517002D01*
X517406Y517080D01*
X517163Y517164D01*
X516921Y517254D01*
X516682Y517349D01*
X516445Y517451D01*
X516211Y517558D01*
X515979Y517671D01*
X515750Y517790D01*
X515525Y517914D01*
X515302Y518044D01*
X515083Y518179D01*
X514867Y518320D01*
X514654Y518465D01*
X514445Y518616D01*
X514240Y518772D01*
X514039Y518933D01*
X513842Y519099D01*
X513649Y519270D01*
X513460Y519445D01*
X513275Y519625D01*
X513095Y519810D01*
X512920Y519999D01*
X512749Y520192D01*
X512583Y520389D01*
X512422Y520590D01*
X512266Y520795D01*
X512115Y521004D01*
X511970Y521217D01*
X511829Y521433D01*
X511694Y521652D01*
X511564Y521875D01*
X511440Y522100D01*
X511321Y522329D01*
X511208Y522561D01*
X511101Y522795D01*
X510999Y523032D01*
X510904Y523271D01*
X510814Y523513D01*
X510730Y523756D01*
X510652Y524002D01*
X510580Y524250D01*
X510515Y524499D01*
X510455Y524749D01*
X510402Y525002D01*
X510355Y525255D01*
X510314Y525509D01*
X510279Y525765D01*
X510251Y526021D01*
X510228Y526278D01*
X510213Y526535D01*
X510203Y526792D01*
X510200Y527050D01*
X167300Y527050D02*
X167303Y527308D01*
X167313Y527565D01*
X167328Y527822D01*
X167351Y528079D01*
X167379Y528335D01*
X167414Y528591D01*
X167455Y528845D01*
X167502Y529098D01*
X167555Y529351D01*
X167615Y529601D01*
X167680Y529850D01*
X167752Y530098D01*
X167830Y530344D01*
X167914Y530587D01*
X168004Y530829D01*
X168099Y531068D01*
X168201Y531305D01*
X168308Y531539D01*
X168421Y531771D01*
X168540Y532000D01*
X168664Y532225D01*
X168794Y532448D01*
X168929Y532667D01*
X169070Y532883D01*
X169215Y533096D01*
X169366Y533305D01*
X169522Y533510D01*
X169683Y533711D01*
X169849Y533908D01*
X170020Y534101D01*
X170195Y534290D01*
X170375Y534475D01*
X170560Y534655D01*
X170749Y534830D01*
X170942Y535001D01*
X171139Y535167D01*
X171340Y535328D01*
X171545Y535484D01*
X171754Y535635D01*
X171967Y535780D01*
X172183Y535921D01*
X172402Y536056D01*
X172625Y536186D01*
X172850Y536310D01*
X173079Y536429D01*
X173311Y536542D01*
X173545Y536649D01*
X173782Y536751D01*
X174021Y536846D01*
X174263Y536936D01*
X174506Y537020D01*
X174752Y537098D01*
X175000Y537170D01*
X175249Y537235D01*
X175499Y537295D01*
X175752Y537348D01*
X176005Y537395D01*
X176259Y537436D01*
X176515Y537471D01*
X176771Y537499D01*
X177028Y537522D01*
X177285Y537537D01*
X177542Y537547D01*
X177800Y537550D01*
X178058Y537547D01*
X178315Y537537D01*
X178572Y537522D01*
X178829Y537499D01*
X179085Y537471D01*
X179341Y537436D01*
X179595Y537395D01*
X179848Y537348D01*
X180101Y537295D01*
X180351Y537235D01*
X180600Y537170D01*
X180848Y537098D01*
X181094Y537020D01*
X181337Y536936D01*
X181579Y536846D01*
X181818Y536751D01*
X182055Y536649D01*
X182289Y536542D01*
X182521Y536429D01*
X182750Y536310D01*
X182975Y536186D01*
X183198Y536056D01*
X183417Y535921D01*
X183633Y535780D01*
X183846Y535635D01*
X184055Y535484D01*
X184260Y535328D01*
X184461Y535167D01*
X184658Y535001D01*
X184851Y534830D01*
X185040Y534655D01*
X185225Y534475D01*
X185405Y534290D01*
X185580Y534101D01*
X185751Y533908D01*
X185917Y533711D01*
X186078Y533510D01*
X186234Y533305D01*
X186385Y533096D01*
X186530Y532883D01*
X186671Y532667D01*
X186806Y532448D01*
X186936Y532225D01*
X187060Y532000D01*
X187179Y531771D01*
X187292Y531539D01*
X187399Y531305D01*
X187501Y531068D01*
X187596Y530829D01*
X187686Y530587D01*
X187770Y530344D01*
X187848Y530098D01*
X187920Y529850D01*
X187985Y529601D01*
X188045Y529351D01*
X188098Y529098D01*
X188145Y528845D01*
X188186Y528591D01*
X188221Y528335D01*
X188249Y528079D01*
X188272Y527822D01*
X188287Y527565D01*
X188297Y527308D01*
X188300Y527050D01*
X188297Y526792D01*
X188287Y526535D01*
X188272Y526278D01*
X188249Y526021D01*
X188221Y525765D01*
X188186Y525509D01*
X188145Y525255D01*
X188098Y525002D01*
X188045Y524749D01*
X187985Y524499D01*
X187920Y524250D01*
X187848Y524002D01*
X187770Y523756D01*
X187686Y523513D01*
X187596Y523271D01*
X187501Y523032D01*
X187399Y522795D01*
X187292Y522561D01*
X187179Y522329D01*
X187060Y522100D01*
X186936Y521875D01*
X186806Y521652D01*
X186671Y521433D01*
X186530Y521217D01*
X186385Y521004D01*
X186234Y520795D01*
X186078Y520590D01*
X185917Y520389D01*
X185751Y520192D01*
X185580Y519999D01*
X185405Y519810D01*
X185225Y519625D01*
X185040Y519445D01*
X184851Y519270D01*
X184658Y519099D01*
X184461Y518933D01*
X184260Y518772D01*
X184055Y518616D01*
X183846Y518465D01*
X183633Y518320D01*
X183417Y518179D01*
X183198Y518044D01*
X182975Y517914D01*
X182750Y517790D01*
X182521Y517671D01*
X182289Y517558D01*
X182055Y517451D01*
X181818Y517349D01*
X181579Y517254D01*
X181337Y517164D01*
X181094Y517080D01*
X180848Y517002D01*
X180600Y516930D01*
X180351Y516865D01*
X180101Y516805D01*
X179848Y516752D01*
X179595Y516705D01*
X179341Y516664D01*
X179085Y516629D01*
X178829Y516601D01*
X178572Y516578D01*
X178315Y516563D01*
X178058Y516553D01*
X177800Y516550D01*
X177542Y516553D01*
X177285Y516563D01*
X177028Y516578D01*
X176771Y516601D01*
X176515Y516629D01*
X176259Y516664D01*
X176005Y516705D01*
X175752Y516752D01*
X175499Y516805D01*
X175249Y516865D01*
X175000Y516930D01*
X174752Y517002D01*
X174506Y517080D01*
X174263Y517164D01*
X174021Y517254D01*
X173782Y517349D01*
X173545Y517451D01*
X173311Y517558D01*
X173079Y517671D01*
X172850Y517790D01*
X172625Y517914D01*
X172402Y518044D01*
X172183Y518179D01*
X171967Y518320D01*
X171754Y518465D01*
X171545Y518616D01*
X171340Y518772D01*
X171139Y518933D01*
X170942Y519099D01*
X170749Y519270D01*
X170560Y519445D01*
X170375Y519625D01*
X170195Y519810D01*
X170020Y519999D01*
X169849Y520192D01*
X169683Y520389D01*
X169522Y520590D01*
X169366Y520795D01*
X169215Y521004D01*
X169070Y521217D01*
X168929Y521433D01*
X168794Y521652D01*
X168664Y521875D01*
X168540Y522100D01*
X168421Y522329D01*
X168308Y522561D01*
X168201Y522795D01*
X168099Y523032D01*
X168004Y523271D01*
X167914Y523513D01*
X167830Y523756D01*
X167752Y524002D01*
X167680Y524250D01*
X167615Y524499D01*
X167555Y524749D01*
X167502Y525002D01*
X167455Y525255D01*
X167414Y525509D01*
X167379Y525765D01*
X167351Y526021D01*
X167328Y526278D01*
X167313Y526535D01*
X167303Y526792D01*
X167300Y527050D01*
X510200Y171450D02*
X510203Y171708D01*
X510213Y171965D01*
X510228Y172222D01*
X510251Y172479D01*
X510279Y172735D01*
X510314Y172991D01*
X510355Y173245D01*
X510402Y173498D01*
X510455Y173751D01*
X510515Y174001D01*
X510580Y174250D01*
X510652Y174498D01*
X510730Y174744D01*
X510814Y174987D01*
X510904Y175229D01*
X510999Y175468D01*
X511101Y175705D01*
X511208Y175939D01*
X511321Y176171D01*
X511440Y176400D01*
X511564Y176625D01*
X511694Y176848D01*
X511829Y177067D01*
X511970Y177283D01*
X512115Y177496D01*
X512266Y177705D01*
X512422Y177910D01*
X512583Y178111D01*
X512749Y178308D01*
X512920Y178501D01*
X513095Y178690D01*
X513275Y178875D01*
X513460Y179055D01*
X513649Y179230D01*
X513842Y179401D01*
X514039Y179567D01*
X514240Y179728D01*
X514445Y179884D01*
X514654Y180035D01*
X514867Y180180D01*
X515083Y180321D01*
X515302Y180456D01*
X515525Y180586D01*
X515750Y180710D01*
X515979Y180829D01*
X516211Y180942D01*
X516445Y181049D01*
X516682Y181151D01*
X516921Y181246D01*
X517163Y181336D01*
X517406Y181420D01*
X517652Y181498D01*
X517900Y181570D01*
X518149Y181635D01*
X518399Y181695D01*
X518652Y181748D01*
X518905Y181795D01*
X519159Y181836D01*
X519415Y181871D01*
X519671Y181899D01*
X519928Y181922D01*
X520185Y181937D01*
X520442Y181947D01*
X520700Y181950D01*
X520958Y181947D01*
X521215Y181937D01*
X521472Y181922D01*
X521729Y181899D01*
X521985Y181871D01*
X522241Y181836D01*
X522495Y181795D01*
X522748Y181748D01*
X523001Y181695D01*
X523251Y181635D01*
X523500Y181570D01*
X523748Y181498D01*
X523994Y181420D01*
X524237Y181336D01*
X524479Y181246D01*
X524718Y181151D01*
X524955Y181049D01*
X525189Y180942D01*
X525421Y180829D01*
X525650Y180710D01*
X525875Y180586D01*
X526098Y180456D01*
X526317Y180321D01*
X526533Y180180D01*
X526746Y180035D01*
X526955Y179884D01*
X527160Y179728D01*
X527361Y179567D01*
X527558Y179401D01*
X527751Y179230D01*
X527940Y179055D01*
X528125Y178875D01*
X528305Y178690D01*
X528480Y178501D01*
X528651Y178308D01*
X528817Y178111D01*
X528978Y177910D01*
X529134Y177705D01*
X529285Y177496D01*
X529430Y177283D01*
X529571Y177067D01*
X529706Y176848D01*
X529836Y176625D01*
X529960Y176400D01*
X530079Y176171D01*
X530192Y175939D01*
X530299Y175705D01*
X530401Y175468D01*
X530496Y175229D01*
X530586Y174987D01*
X530670Y174744D01*
X530748Y174498D01*
X530820Y174250D01*
X530885Y174001D01*
X530945Y173751D01*
X530998Y173498D01*
X531045Y173245D01*
X531086Y172991D01*
X531121Y172735D01*
X531149Y172479D01*
X531172Y172222D01*
X531187Y171965D01*
X531197Y171708D01*
X531200Y171450D01*
X531197Y171192D01*
X531187Y170935D01*
X531172Y170678D01*
X531149Y170421D01*
X531121Y170165D01*
X531086Y169909D01*
X531045Y169655D01*
X530998Y169402D01*
X530945Y169149D01*
X530885Y168899D01*
X530820Y168650D01*
X530748Y168402D01*
X530670Y168156D01*
X530586Y167913D01*
X530496Y167671D01*
X530401Y167432D01*
X530299Y167195D01*
X530192Y166961D01*
X530079Y166729D01*
X529960Y166500D01*
X529836Y166275D01*
X529706Y166052D01*
X529571Y165833D01*
X529430Y165617D01*
X529285Y165404D01*
X529134Y165195D01*
X528978Y164990D01*
X528817Y164789D01*
X528651Y164592D01*
X528480Y164399D01*
X528305Y164210D01*
X528125Y164025D01*
X527940Y163845D01*
X527751Y163670D01*
X527558Y163499D01*
X527361Y163333D01*
X527160Y163172D01*
X526955Y163016D01*
X526746Y162865D01*
X526533Y162720D01*
X526317Y162579D01*
X526098Y162444D01*
X525875Y162314D01*
X525650Y162190D01*
X525421Y162071D01*
X525189Y161958D01*
X524955Y161851D01*
X524718Y161749D01*
X524479Y161654D01*
X524237Y161564D01*
X523994Y161480D01*
X523748Y161402D01*
X523500Y161330D01*
X523251Y161265D01*
X523001Y161205D01*
X522748Y161152D01*
X522495Y161105D01*
X522241Y161064D01*
X521985Y161029D01*
X521729Y161001D01*
X521472Y160978D01*
X521215Y160963D01*
X520958Y160953D01*
X520700Y160950D01*
X520442Y160953D01*
X520185Y160963D01*
X519928Y160978D01*
X519671Y161001D01*
X519415Y161029D01*
X519159Y161064D01*
X518905Y161105D01*
X518652Y161152D01*
X518399Y161205D01*
X518149Y161265D01*
X517900Y161330D01*
X517652Y161402D01*
X517406Y161480D01*
X517163Y161564D01*
X516921Y161654D01*
X516682Y161749D01*
X516445Y161851D01*
X516211Y161958D01*
X515979Y162071D01*
X515750Y162190D01*
X515525Y162314D01*
X515302Y162444D01*
X515083Y162579D01*
X514867Y162720D01*
X514654Y162865D01*
X514445Y163016D01*
X514240Y163172D01*
X514039Y163333D01*
X513842Y163499D01*
X513649Y163670D01*
X513460Y163845D01*
X513275Y164025D01*
X513095Y164210D01*
X512920Y164399D01*
X512749Y164592D01*
X512583Y164789D01*
X512422Y164990D01*
X512266Y165195D01*
X512115Y165404D01*
X511970Y165617D01*
X511829Y165833D01*
X511694Y166052D01*
X511564Y166275D01*
X511440Y166500D01*
X511321Y166729D01*
X511208Y166961D01*
X511101Y167195D01*
X510999Y167432D01*
X510904Y167671D01*
X510814Y167913D01*
X510730Y168156D01*
X510652Y168402D01*
X510580Y168650D01*
X510515Y168899D01*
X510455Y169149D01*
X510402Y169402D01*
X510355Y169655D01*
X510314Y169909D01*
X510279Y170165D01*
X510251Y170421D01*
X510228Y170678D01*
X510213Y170935D01*
X510203Y171192D01*
X510200Y171450D01*
X167300Y171450D02*
X167303Y171708D01*
X167313Y171965D01*
X167328Y172222D01*
X167351Y172479D01*
X167379Y172735D01*
X167414Y172991D01*
X167455Y173245D01*
X167502Y173498D01*
X167555Y173751D01*
X167615Y174001D01*
X167680Y174250D01*
X167752Y174498D01*
X167830Y174744D01*
X167914Y174987D01*
X168004Y175229D01*
X168099Y175468D01*
X168201Y175705D01*
X168308Y175939D01*
X168421Y176171D01*
X168540Y176400D01*
X168664Y176625D01*
X168794Y176848D01*
X168929Y177067D01*
X169070Y177283D01*
X169215Y177496D01*
X169366Y177705D01*
X169522Y177910D01*
X169683Y178111D01*
X169849Y178308D01*
X170020Y178501D01*
X170195Y178690D01*
X170375Y178875D01*
X170560Y179055D01*
X170749Y179230D01*
X170942Y179401D01*
X171139Y179567D01*
X171340Y179728D01*
X171545Y179884D01*
X171754Y180035D01*
X171967Y180180D01*
X172183Y180321D01*
X172402Y180456D01*
X172625Y180586D01*
X172850Y180710D01*
X173079Y180829D01*
X173311Y180942D01*
X173545Y181049D01*
X173782Y181151D01*
X174021Y181246D01*
X174263Y181336D01*
X174506Y181420D01*
X174752Y181498D01*
X175000Y181570D01*
X175249Y181635D01*
X175499Y181695D01*
X175752Y181748D01*
X176005Y181795D01*
X176259Y181836D01*
X176515Y181871D01*
X176771Y181899D01*
X177028Y181922D01*
X177285Y181937D01*
X177542Y181947D01*
X177800Y181950D01*
X178058Y181947D01*
X178315Y181937D01*
X178572Y181922D01*
X178829Y181899D01*
X179085Y181871D01*
X179341Y181836D01*
X179595Y181795D01*
X179848Y181748D01*
X180101Y181695D01*
X180351Y181635D01*
X180600Y181570D01*
X180848Y181498D01*
X181094Y181420D01*
X181337Y181336D01*
X181579Y181246D01*
X181818Y181151D01*
X182055Y181049D01*
X182289Y180942D01*
X182521Y180829D01*
X182750Y180710D01*
X182975Y180586D01*
X183198Y180456D01*
X183417Y180321D01*
X183633Y180180D01*
X183846Y180035D01*
X184055Y179884D01*
X184260Y179728D01*
X184461Y179567D01*
X184658Y179401D01*
X184851Y179230D01*
X185040Y179055D01*
X185225Y178875D01*
X185405Y178690D01*
X185580Y178501D01*
X185751Y178308D01*
X185917Y178111D01*
X186078Y177910D01*
X186234Y177705D01*
X186385Y177496D01*
X186530Y177283D01*
X186671Y177067D01*
X186806Y176848D01*
X186936Y176625D01*
X187060Y176400D01*
X187179Y176171D01*
X187292Y175939D01*
X187399Y175705D01*
X187501Y175468D01*
X187596Y175229D01*
X187686Y174987D01*
X187770Y174744D01*
X187848Y174498D01*
X187920Y174250D01*
X187985Y174001D01*
X188045Y173751D01*
X188098Y173498D01*
X188145Y173245D01*
X188186Y172991D01*
X188221Y172735D01*
X188249Y172479D01*
X188272Y172222D01*
X188287Y171965D01*
X188297Y171708D01*
X188300Y171450D01*
X188297Y171192D01*
X188287Y170935D01*
X188272Y170678D01*
X188249Y170421D01*
X188221Y170165D01*
X188186Y169909D01*
X188145Y169655D01*
X188098Y169402D01*
X188045Y169149D01*
X187985Y168899D01*
X187920Y168650D01*
X187848Y168402D01*
X187770Y168156D01*
X187686Y167913D01*
X187596Y167671D01*
X187501Y167432D01*
X187399Y167195D01*
X187292Y166961D01*
X187179Y166729D01*
X187060Y166500D01*
X186936Y166275D01*
X186806Y166052D01*
X186671Y165833D01*
X186530Y165617D01*
X186385Y165404D01*
X186234Y165195D01*
X186078Y164990D01*
X185917Y164789D01*
X185751Y164592D01*
X185580Y164399D01*
X185405Y164210D01*
X185225Y164025D01*
X185040Y163845D01*
X184851Y163670D01*
X184658Y163499D01*
X184461Y163333D01*
X184260Y163172D01*
X184055Y163016D01*
X183846Y162865D01*
X183633Y162720D01*
X183417Y162579D01*
X183198Y162444D01*
X182975Y162314D01*
X182750Y162190D01*
X182521Y162071D01*
X182289Y161958D01*
X182055Y161851D01*
X181818Y161749D01*
X181579Y161654D01*
X181337Y161564D01*
X181094Y161480D01*
X180848Y161402D01*
X180600Y161330D01*
X180351Y161265D01*
X180101Y161205D01*
X179848Y161152D01*
X179595Y161105D01*
X179341Y161064D01*
X179085Y161029D01*
X178829Y161001D01*
X178572Y160978D01*
X178315Y160963D01*
X178058Y160953D01*
X177800Y160950D01*
X177542Y160953D01*
X177285Y160963D01*
X177028Y160978D01*
X176771Y161001D01*
X176515Y161029D01*
X176259Y161064D01*
X176005Y161105D01*
X175752Y161152D01*
X175499Y161205D01*
X175249Y161265D01*
X175000Y161330D01*
X174752Y161402D01*
X174506Y161480D01*
X174263Y161564D01*
X174021Y161654D01*
X173782Y161749D01*
X173545Y161851D01*
X173311Y161958D01*
X173079Y162071D01*
X172850Y162190D01*
X172625Y162314D01*
X172402Y162444D01*
X172183Y162579D01*
X171967Y162720D01*
X171754Y162865D01*
X171545Y163016D01*
X171340Y163172D01*
X171139Y163333D01*
X170942Y163499D01*
X170749Y163670D01*
X170560Y163845D01*
X170375Y164025D01*
X170195Y164210D01*
X170020Y164399D01*
X169849Y164592D01*
X169683Y164789D01*
X169522Y164990D01*
X169366Y165195D01*
X169215Y165404D01*
X169070Y165617D01*
X168929Y165833D01*
X168794Y166052D01*
X168664Y166275D01*
X168540Y166500D01*
X168421Y166729D01*
X168308Y166961D01*
X168201Y167195D01*
X168099Y167432D01*
X168004Y167671D01*
X167914Y167913D01*
X167830Y168156D01*
X167752Y168402D01*
X167680Y168650D01*
X167615Y168899D01*
X167555Y169149D01*
X167502Y169402D01*
X167455Y169655D01*
X167414Y169909D01*
X167379Y170165D01*
X167351Y170421D01*
X167328Y170678D01*
X167313Y170935D01*
X167303Y171192D01*
X167300Y171450D01*
D11*
X0Y50800D02*
X50800Y0D01*
X647700Y0D01*
X698500Y50800D01*
X698500Y647700D01*
X647700Y698500D01*
X50800Y698500D01*
X0Y647700D01*
X0Y50800D01*
X103900Y348714D02*
X103824Y347646D01*
X103671Y346585D01*
X103443Y345538D01*
X103141Y344510D01*
X102767Y343506D01*
X102322Y342531D01*
X101808Y341591D01*
X101229Y340690D01*
X100587Y339832D01*
X99885Y339022D01*
X99128Y338265D01*
X98318Y337563D01*
X97460Y336921D01*
X96559Y336342D01*
X95619Y335828D01*
X94644Y335383D01*
X93640Y335009D01*
X92612Y334707D01*
X91565Y334479D01*
X90504Y334326D01*
X89436Y334250D01*
X88364Y334250D01*
X87296Y334326D01*
X86235Y334479D01*
X85188Y334707D01*
X84160Y335009D01*
X83156Y335383D01*
X82181Y335828D01*
X81241Y336342D01*
X80340Y336921D01*
X79482Y337563D01*
X78672Y338265D01*
X77915Y339022D01*
X77213Y339832D01*
X76571Y340690D01*
X75992Y341591D01*
X75478Y342531D01*
X75033Y343506D01*
X74659Y344510D01*
X74357Y345538D01*
X74129Y346585D01*
X73976Y347646D01*
X73900Y348714D01*
X73900Y349786D01*
X73976Y350854D01*
X74129Y351915D01*
X74357Y352962D01*
X74659Y353990D01*
X75033Y354994D01*
X75478Y355969D01*
X75992Y356909D01*
X76571Y357810D01*
X77213Y358668D01*
X77915Y359478D01*
X78672Y360235D01*
X79482Y360937D01*
X80340Y361579D01*
X81241Y362158D01*
X82181Y362672D01*
X83156Y363117D01*
X84160Y363491D01*
X85188Y363793D01*
X86235Y364021D01*
X87296Y364174D01*
X88364Y364250D01*
X89436Y364250D01*
X90504Y364174D01*
X91565Y364021D01*
X92612Y363793D01*
X93640Y363491D01*
X94644Y363117D01*
X95619Y362672D01*
X96559Y362158D01*
X97460Y361579D01*
X98318Y360937D01*
X99128Y360235D01*
X99885Y359478D01*
X100587Y358668D01*
X101229Y357810D01*
X101808Y356909D01*
X102322Y355969D01*
X102767Y354994D01*
X103141Y353990D01*
X103443Y352962D01*
X103671Y351915D01*
X103824Y350854D01*
X103900Y349786D01*
X103900Y348714D01*
X237250Y348714D02*
X237174Y347646D01*
X237021Y346585D01*
X236793Y345538D01*
X236491Y344510D01*
X236117Y343506D01*
X235672Y342531D01*
X235158Y341591D01*
X234579Y340690D01*
X233937Y339832D01*
X233235Y339022D01*
X232478Y338265D01*
X231668Y337563D01*
X230810Y336921D01*
X229909Y336342D01*
X228969Y335828D01*
X227994Y335383D01*
X226990Y335009D01*
X225962Y334707D01*
X224915Y334479D01*
X223854Y334326D01*
X222786Y334250D01*
X221714Y334250D01*
X220646Y334326D01*
X219585Y334479D01*
X218538Y334707D01*
X217510Y335009D01*
X216506Y335383D01*
X215531Y335828D01*
X214591Y336342D01*
X213690Y336921D01*
X212832Y337563D01*
X212022Y338265D01*
X211265Y339022D01*
X210563Y339832D01*
X209921Y340690D01*
X209342Y341591D01*
X208828Y342531D01*
X208383Y343506D01*
X208009Y344510D01*
X207707Y345538D01*
X207479Y346585D01*
X207326Y347646D01*
X207250Y348714D01*
X207250Y349786D01*
X207326Y350854D01*
X207479Y351915D01*
X207707Y352962D01*
X208009Y353990D01*
X208383Y354994D01*
X208828Y355969D01*
X209342Y356909D01*
X209921Y357810D01*
X210563Y358668D01*
X211265Y359478D01*
X212022Y360235D01*
X212832Y360937D01*
X213690Y361579D01*
X214591Y362158D01*
X215531Y362672D01*
X216506Y363117D01*
X217510Y363491D01*
X218538Y363793D01*
X219585Y364021D01*
X220646Y364174D01*
X221714Y364250D01*
X222786Y364250D01*
X223854Y364174D01*
X224915Y364021D01*
X225962Y363793D01*
X226990Y363491D01*
X227994Y363117D01*
X228969Y362672D01*
X229909Y362158D01*
X230810Y361579D01*
X231668Y360937D01*
X232478Y360235D01*
X233235Y359478D01*
X233937Y358668D01*
X234579Y357810D01*
X235158Y356909D01*
X235672Y355969D01*
X236117Y354994D01*
X236491Y353990D01*
X236793Y352962D01*
X237021Y351915D01*
X237174Y350854D01*
X237250Y349786D01*
X237250Y348714D01*
X103900Y348714D02*
X103824Y347646D01*
X103671Y346585D01*
X103443Y345538D01*
X103141Y344510D01*
X102767Y343506D01*
X102322Y342531D01*
X101808Y341591D01*
X101229Y340690D01*
X100587Y339832D01*
X99885Y339022D01*
X99128Y338265D01*
X98318Y337563D01*
X97460Y336921D01*
X96559Y336342D01*
X95619Y335828D01*
X94644Y335383D01*
X93640Y335009D01*
X92612Y334707D01*
X91565Y334479D01*
X90504Y334326D01*
X89436Y334250D01*
X88364Y334250D01*
X87296Y334326D01*
X86235Y334479D01*
X85188Y334707D01*
X84160Y335009D01*
X83156Y335383D01*
X82181Y335828D01*
X81241Y336342D01*
X80340Y336921D01*
X79482Y337563D01*
X78672Y338265D01*
X77915Y339022D01*
X77213Y339832D01*
X76571Y340690D01*
X75992Y341591D01*
X75478Y342531D01*
X75033Y343506D01*
X74659Y344510D01*
X74357Y345538D01*
X74129Y346585D01*
X73976Y347646D01*
X73900Y348714D01*
X73900Y349786D01*
X73976Y350854D01*
X74129Y351915D01*
X74357Y352962D01*
X74659Y353990D01*
X75033Y354994D01*
X75478Y355969D01*
X75992Y356909D01*
X76571Y357810D01*
X77213Y358668D01*
X77915Y359478D01*
X78672Y360235D01*
X79482Y360937D01*
X80340Y361579D01*
X81241Y362158D01*
X82181Y362672D01*
X83156Y363117D01*
X84160Y363491D01*
X85188Y363793D01*
X86235Y364021D01*
X87296Y364174D01*
X88364Y364250D01*
X89436Y364250D01*
X90504Y364174D01*
X91565Y364021D01*
X92612Y363793D01*
X93640Y363491D01*
X94644Y363117D01*
X95619Y362672D01*
X96559Y362158D01*
X97460Y361579D01*
X98318Y360937D01*
X99128Y360235D01*
X99885Y359478D01*
X100587Y358668D01*
X101229Y357810D01*
X101808Y356909D01*
X102322Y355969D01*
X102767Y354994D01*
X103141Y353990D01*
X103443Y352962D01*
X103671Y351915D01*
X103824Y350854D01*
X103900Y349786D01*
X103900Y348714D01*
X237250Y348714D02*
X237174Y347646D01*
X237021Y346585D01*
X236793Y345538D01*
X236491Y344510D01*
X236117Y343506D01*
X235672Y342531D01*
X235158Y341591D01*
X234579Y340690D01*
X233937Y339832D01*
X233235Y339022D01*
X232478Y338265D01*
X231668Y337563D01*
X230810Y336921D01*
X229909Y336342D01*
X228969Y335828D01*
X227994Y335383D01*
X226990Y335009D01*
X225962Y334707D01*
X224915Y334479D01*
X223854Y334326D01*
X222786Y334250D01*
X221714Y334250D01*
X220646Y334326D01*
X219585Y334479D01*
X218538Y334707D01*
X217510Y335009D01*
X216506Y335383D01*
X215531Y335828D01*
X214591Y336342D01*
X213690Y336921D01*
X212832Y337563D01*
X212022Y338265D01*
X211265Y339022D01*
X210563Y339832D01*
X209921Y340690D01*
X209342Y341591D01*
X208828Y342531D01*
X208383Y343506D01*
X208009Y344510D01*
X207707Y345538D01*
X207479Y346585D01*
X207326Y347646D01*
X207250Y348714D01*
X207250Y349786D01*
X207326Y350854D01*
X207479Y351915D01*
X207707Y352962D01*
X208009Y353990D01*
X208383Y354994D01*
X208828Y355969D01*
X209342Y356909D01*
X209921Y357810D01*
X210563Y358668D01*
X211265Y359478D01*
X212022Y360235D01*
X212832Y360937D01*
X213690Y361579D01*
X214591Y362158D01*
X215531Y362672D01*
X216506Y363117D01*
X217510Y363491D01*
X218538Y363793D01*
X219585Y364021D01*
X220646Y364174D01*
X221714Y364250D01*
X222786Y364250D01*
X223854Y364174D01*
X224915Y364021D01*
X225962Y363793D01*
X226990Y363491D01*
X227994Y363117D01*
X228969Y362672D01*
X229909Y362158D01*
X230810Y361579D01*
X231668Y360937D01*
X232478Y360235D01*
X233235Y359478D01*
X233937Y358668D01*
X234579Y357810D01*
X235158Y356909D01*
X235672Y355969D01*
X236117Y354994D01*
X236491Y353990D01*
X236793Y352962D01*
X237021Y351915D01*
X237174Y350854D01*
X237250Y349786D01*
X237250Y348714D01*
X573800Y348714D02*
X573724Y347646D01*
X573571Y346585D01*
X573343Y345538D01*
X573041Y344510D01*
X572667Y343506D01*
X572222Y342531D01*
X571708Y341591D01*
X571129Y340690D01*
X570487Y339832D01*
X569785Y339022D01*
X569028Y338265D01*
X568218Y337563D01*
X567360Y336921D01*
X566459Y336342D01*
X565519Y335828D01*
X564544Y335383D01*
X563540Y335009D01*
X562512Y334707D01*
X561465Y334479D01*
X560404Y334326D01*
X559336Y334250D01*
X558264Y334250D01*
X557196Y334326D01*
X556135Y334479D01*
X555088Y334707D01*
X554060Y335009D01*
X553056Y335383D01*
X552081Y335828D01*
X551141Y336342D01*
X550240Y336921D01*
X549382Y337563D01*
X548572Y338265D01*
X547815Y339022D01*
X547113Y339832D01*
X546471Y340690D01*
X545892Y341591D01*
X545378Y342531D01*
X544933Y343506D01*
X544559Y344510D01*
X544257Y345538D01*
X544029Y346585D01*
X543876Y347646D01*
X543800Y348714D01*
X543800Y349786D01*
X543876Y350854D01*
X544029Y351915D01*
X544257Y352962D01*
X544559Y353990D01*
X544933Y354994D01*
X545378Y355969D01*
X545892Y356909D01*
X546471Y357810D01*
X547113Y358668D01*
X547815Y359478D01*
X548572Y360235D01*
X549382Y360937D01*
X550240Y361579D01*
X551141Y362158D01*
X552081Y362672D01*
X553056Y363117D01*
X554060Y363491D01*
X555088Y363793D01*
X556135Y364021D01*
X557196Y364174D01*
X558264Y364250D01*
X559336Y364250D01*
X560404Y364174D01*
X561465Y364021D01*
X562512Y363793D01*
X563540Y363491D01*
X564544Y363117D01*
X565519Y362672D01*
X566459Y362158D01*
X567360Y361579D01*
X568218Y360937D01*
X569028Y360235D01*
X569785Y359478D01*
X570487Y358668D01*
X571129Y357810D01*
X571708Y356909D01*
X572222Y355969D01*
X572667Y354994D01*
X573041Y353990D01*
X573343Y352962D01*
X573571Y351915D01*
X573724Y350854D01*
X573800Y349786D01*
X573800Y348714D01*
X154700Y348714D02*
X154624Y347646D01*
X154471Y346585D01*
X154243Y345538D01*
X153941Y344510D01*
X153567Y343506D01*
X153122Y342531D01*
X152608Y341591D01*
X152029Y340690D01*
X151387Y339832D01*
X150685Y339022D01*
X149928Y338265D01*
X149118Y337563D01*
X148260Y336921D01*
X147359Y336342D01*
X146419Y335828D01*
X145444Y335383D01*
X144440Y335009D01*
X143412Y334707D01*
X142365Y334479D01*
X141304Y334326D01*
X140236Y334250D01*
X139164Y334250D01*
X138096Y334326D01*
X137035Y334479D01*
X135988Y334707D01*
X134960Y335009D01*
X133956Y335383D01*
X132981Y335828D01*
X132041Y336342D01*
X131140Y336921D01*
X130282Y337563D01*
X129472Y338265D01*
X128715Y339022D01*
X128013Y339832D01*
X127371Y340690D01*
X126792Y341591D01*
X126278Y342531D01*
X125833Y343506D01*
X125459Y344510D01*
X125157Y345538D01*
X124929Y346585D01*
X124776Y347646D01*
X124700Y348714D01*
X124700Y349786D01*
X124776Y350854D01*
X124929Y351915D01*
X125157Y352962D01*
X125459Y353990D01*
X125833Y354994D01*
X126278Y355969D01*
X126792Y356909D01*
X127371Y357810D01*
X128013Y358668D01*
X128715Y359478D01*
X129472Y360235D01*
X130282Y360937D01*
X131140Y361579D01*
X132041Y362158D01*
X132981Y362672D01*
X133956Y363117D01*
X134960Y363491D01*
X135988Y363793D01*
X137035Y364021D01*
X138096Y364174D01*
X139164Y364250D01*
X140236Y364250D01*
X141304Y364174D01*
X142365Y364021D01*
X143412Y363793D01*
X144440Y363491D01*
X145444Y363117D01*
X146419Y362672D01*
X147359Y362158D01*
X148260Y361579D01*
X149118Y360937D01*
X149928Y360235D01*
X150685Y359478D01*
X151387Y358668D01*
X152029Y357810D01*
X152608Y356909D01*
X153122Y355969D01*
X153567Y354994D01*
X153941Y353990D01*
X154243Y352962D01*
X154471Y351915D01*
X154624Y350854D01*
X154700Y349786D01*
X154700Y348714D01*
X520287Y516550D02*
X519465Y516615D01*
X518650Y516744D01*
X517848Y516936D01*
X517063Y517191D01*
X516301Y517507D01*
X515566Y517882D01*
X514862Y518313D01*
X514195Y518798D01*
X513567Y519334D01*
X512984Y519917D01*
X512448Y520545D01*
X511963Y521212D01*
X511532Y521916D01*
X511157Y522651D01*
X510841Y523413D01*
X510586Y524198D01*
X510394Y525000D01*
X510265Y525815D01*
X510200Y526637D01*
X510200Y527463D01*
X510265Y528285D01*
X510394Y529100D01*
X510586Y529902D01*
X510841Y530687D01*
X511157Y531449D01*
X511532Y532184D01*
X511963Y532888D01*
X512448Y533556D01*
X512984Y534183D01*
X513567Y534766D01*
X514195Y535302D01*
X514862Y535787D01*
X515566Y536218D01*
X516301Y536593D01*
X517063Y536909D01*
X517848Y537164D01*
X518650Y537356D01*
X519465Y537485D01*
X520287Y537550D01*
X521113Y537550D01*
X521935Y537485D01*
X522750Y537356D01*
X523552Y537164D01*
X524337Y536909D01*
X525099Y536593D01*
X525834Y536218D01*
X526538Y535787D01*
X527206Y535302D01*
X527833Y534766D01*
X528416Y534183D01*
X528952Y533556D01*
X529437Y532888D01*
X529868Y532184D01*
X530243Y531449D01*
X530559Y530687D01*
X530814Y529902D01*
X531006Y529100D01*
X531135Y528285D01*
X531200Y527463D01*
X531200Y526637D01*
X531135Y525815D01*
X531006Y525000D01*
X530814Y524198D01*
X530559Y523413D01*
X530243Y522651D01*
X529868Y521916D01*
X529437Y521212D01*
X528952Y520545D01*
X528416Y519917D01*
X527833Y519334D01*
X527206Y518798D01*
X526538Y518313D01*
X525834Y517882D01*
X525099Y517507D01*
X524337Y517191D01*
X523552Y516936D01*
X522750Y516744D01*
X521935Y516615D01*
X521113Y516550D01*
X520287Y516550D01*
X177387Y516550D02*
X176565Y516615D01*
X175750Y516744D01*
X174948Y516936D01*
X174163Y517191D01*
X173401Y517507D01*
X172666Y517882D01*
X171962Y518313D01*
X171295Y518798D01*
X170667Y519334D01*
X170084Y519917D01*
X169548Y520545D01*
X169063Y521212D01*
X168632Y521916D01*
X168257Y522651D01*
X167941Y523413D01*
X167686Y524198D01*
X167494Y525000D01*
X167365Y525815D01*
X167300Y526637D01*
X167300Y527463D01*
X167365Y528285D01*
X167494Y529100D01*
X167686Y529902D01*
X167941Y530687D01*
X168257Y531449D01*
X168632Y532184D01*
X169063Y532888D01*
X169548Y533556D01*
X170084Y534183D01*
X170667Y534766D01*
X171295Y535302D01*
X171962Y535787D01*
X172666Y536218D01*
X173401Y536593D01*
X174163Y536909D01*
X174948Y537164D01*
X175750Y537356D01*
X176565Y537485D01*
X177387Y537550D01*
X178213Y537550D01*
X179035Y537485D01*
X179850Y537356D01*
X180652Y537164D01*
X181437Y536909D01*
X182199Y536593D01*
X182934Y536218D01*
X183638Y535787D01*
X184306Y535302D01*
X184933Y534766D01*
X185516Y534183D01*
X186052Y533556D01*
X186537Y532888D01*
X186968Y532184D01*
X187343Y531449D01*
X187659Y530687D01*
X187914Y529902D01*
X188106Y529100D01*
X188235Y528285D01*
X188300Y527463D01*
X188300Y526637D01*
X188235Y525815D01*
X188106Y525000D01*
X187914Y524198D01*
X187659Y523413D01*
X187343Y522651D01*
X186968Y521916D01*
X186537Y521212D01*
X186052Y520545D01*
X185516Y519917D01*
X184933Y519334D01*
X184306Y518798D01*
X183638Y518313D01*
X182934Y517882D01*
X182199Y517507D01*
X181437Y517191D01*
X180652Y516936D01*
X179850Y516744D01*
X179035Y516615D01*
X178213Y516550D01*
X177387Y516550D01*
X521113Y181950D02*
X521935Y181885D01*
X522750Y181756D01*
X523552Y181564D01*
X524337Y181309D01*
X525099Y180993D01*
X525834Y180618D01*
X526538Y180187D01*
X527206Y179702D01*
X527833Y179166D01*
X528416Y178583D01*
X528952Y177956D01*
X529437Y177288D01*
X529868Y176584D01*
X530243Y175849D01*
X530559Y175087D01*
X530814Y174302D01*
X531006Y173500D01*
X531135Y172685D01*
X531200Y171863D01*
X531200Y171037D01*
X531135Y170215D01*
X531006Y169400D01*
X530814Y168598D01*
X530559Y167813D01*
X530243Y167051D01*
X529868Y166316D01*
X529437Y165612D01*
X528952Y164945D01*
X528416Y164317D01*
X527833Y163734D01*
X527206Y163198D01*
X526538Y162713D01*
X525834Y162282D01*
X525099Y161907D01*
X524337Y161591D01*
X523552Y161336D01*
X522750Y161144D01*
X521935Y161015D01*
X521113Y160950D01*
X520287Y160950D01*
X519465Y161015D01*
X518650Y161144D01*
X517848Y161336D01*
X517063Y161591D01*
X516301Y161907D01*
X515566Y162282D01*
X514862Y162713D01*
X514195Y163198D01*
X513567Y163734D01*
X512984Y164317D01*
X512448Y164945D01*
X511963Y165612D01*
X511532Y166316D01*
X511157Y167051D01*
X510841Y167813D01*
X510586Y168598D01*
X510394Y169400D01*
X510265Y170215D01*
X510200Y171037D01*
X510200Y171863D01*
X510265Y172685D01*
X510394Y173500D01*
X510586Y174302D01*
X510841Y175087D01*
X511157Y175849D01*
X511532Y176584D01*
X511963Y177288D01*
X512448Y177956D01*
X512984Y178583D01*
X513567Y179166D01*
X514195Y179702D01*
X514862Y180187D01*
X515566Y180618D01*
X516301Y180993D01*
X517063Y181309D01*
X517848Y181564D01*
X518650Y181756D01*
X519465Y181885D01*
X520287Y181950D01*
X521113Y181950D01*
X178213Y181950D02*
X179035Y181885D01*
X179850Y181756D01*
X180652Y181564D01*
X181437Y181309D01*
X182199Y180993D01*
X182934Y180618D01*
X183638Y180187D01*
X184306Y179702D01*
X184933Y179166D01*
X185516Y178583D01*
X186052Y177956D01*
X186537Y177288D01*
X186968Y176584D01*
X187343Y175849D01*
X187659Y175087D01*
X187914Y174302D01*
X188106Y173500D01*
X188235Y172685D01*
X188300Y171863D01*
X188300Y171037D01*
X188235Y170215D01*
X188106Y169400D01*
X187914Y168598D01*
X187659Y167813D01*
X187343Y167051D01*
X186968Y166316D01*
X186537Y165612D01*
X186052Y164945D01*
X185516Y164317D01*
X184933Y163734D01*
X184306Y163198D01*
X183638Y162713D01*
X182934Y162282D01*
X182199Y161907D01*
X181437Y161591D01*
X180652Y161336D01*
X179850Y161144D01*
X179035Y161015D01*
X178213Y160950D01*
X177387Y160950D01*
X176565Y161015D01*
X175750Y161144D01*
X174948Y161336D01*
X174163Y161591D01*
X173401Y161907D01*
X172666Y162282D01*
X171962Y162713D01*
X171295Y163198D01*
X170667Y163734D01*
X170084Y164317D01*
X169548Y164945D01*
X169063Y165612D01*
X168632Y166316D01*
X168257Y167051D01*
X167941Y167813D01*
X167686Y168598D01*
X167494Y169400D01*
X167365Y170215D01*
X167300Y171037D01*
X167300Y171863D01*
X167365Y172685D01*
X167494Y173500D01*
X167686Y174302D01*
X167941Y175087D01*
X168257Y175849D01*
X168632Y176584D01*
X169063Y177288D01*
X169548Y177956D01*
X170084Y178583D01*
X170667Y179166D01*
X171295Y179702D01*
X171962Y180187D01*
X172666Y180618D01*
X173401Y180993D01*
X174163Y181309D01*
X174948Y181564D01*
X175750Y181756D01*
X176565Y181885D01*
X177387Y181950D01*
X178213Y181950D01*
M02*
