G04 EAGLE Gerber X2 export*
%TF.Part,Single*%
%TF.FileFunction,Legend,Bot,1*%
%TF.FilePolarity,Positive*%
%TF.GenerationSoftware,Autodesk,EAGLE,8.6.0*%
%TF.CreationDate,2018-05-27T13:35:38Z*%
G75*
%MOMM*%
%FSLAX34Y34*%
%LPD*%
%AMOC8*
5,1,8,0,0,1.08239X$1,22.5*%
G01*
%ADD10C,0.152400*%
%ADD11C,0.076200*%


D10*
X480766Y93218D02*
X484378Y80574D01*
X475347Y80574D01*
X478056Y84187D02*
X478056Y76962D01*
X469407Y76962D02*
X462182Y87799D01*
X469407Y87799D02*
X462182Y76962D01*
X452768Y76962D02*
X452768Y93218D01*
X448253Y93218D02*
X457284Y93218D01*
X442834Y84187D02*
X442834Y80574D01*
X442833Y84187D02*
X442831Y84306D01*
X442825Y84426D01*
X442815Y84545D01*
X442801Y84663D01*
X442784Y84782D01*
X442762Y84899D01*
X442737Y85016D01*
X442707Y85131D01*
X442674Y85246D01*
X442637Y85360D01*
X442597Y85472D01*
X442552Y85583D01*
X442504Y85692D01*
X442453Y85800D01*
X442398Y85906D01*
X442339Y86010D01*
X442277Y86112D01*
X442212Y86212D01*
X442143Y86310D01*
X442071Y86406D01*
X441996Y86499D01*
X441919Y86589D01*
X441838Y86677D01*
X441754Y86762D01*
X441667Y86844D01*
X441578Y86924D01*
X441486Y87000D01*
X441392Y87074D01*
X441295Y87144D01*
X441197Y87211D01*
X441096Y87275D01*
X440992Y87335D01*
X440887Y87392D01*
X440780Y87445D01*
X440672Y87495D01*
X440562Y87541D01*
X440450Y87583D01*
X440337Y87622D01*
X440223Y87657D01*
X440108Y87688D01*
X439991Y87716D01*
X439874Y87739D01*
X439757Y87759D01*
X439638Y87775D01*
X439519Y87787D01*
X439400Y87795D01*
X439281Y87799D01*
X439161Y87799D01*
X439042Y87795D01*
X438923Y87787D01*
X438804Y87775D01*
X438685Y87759D01*
X438568Y87739D01*
X438451Y87716D01*
X438334Y87688D01*
X438219Y87657D01*
X438105Y87622D01*
X437992Y87583D01*
X437880Y87541D01*
X437770Y87495D01*
X437662Y87445D01*
X437555Y87392D01*
X437450Y87335D01*
X437346Y87275D01*
X437245Y87211D01*
X437147Y87144D01*
X437050Y87074D01*
X436956Y87000D01*
X436864Y86924D01*
X436775Y86844D01*
X436688Y86762D01*
X436604Y86677D01*
X436523Y86589D01*
X436446Y86499D01*
X436371Y86406D01*
X436299Y86310D01*
X436230Y86212D01*
X436165Y86112D01*
X436103Y86010D01*
X436044Y85906D01*
X435989Y85800D01*
X435938Y85692D01*
X435890Y85583D01*
X435845Y85472D01*
X435805Y85360D01*
X435768Y85246D01*
X435735Y85131D01*
X435705Y85016D01*
X435680Y84899D01*
X435658Y84782D01*
X435641Y84663D01*
X435627Y84545D01*
X435617Y84426D01*
X435611Y84306D01*
X435609Y84187D01*
X435609Y80574D01*
X435611Y80455D01*
X435617Y80335D01*
X435627Y80216D01*
X435641Y80098D01*
X435658Y79979D01*
X435680Y79862D01*
X435705Y79745D01*
X435735Y79630D01*
X435768Y79515D01*
X435805Y79401D01*
X435845Y79289D01*
X435890Y79178D01*
X435938Y79069D01*
X435989Y78961D01*
X436044Y78855D01*
X436103Y78751D01*
X436165Y78649D01*
X436230Y78549D01*
X436299Y78451D01*
X436371Y78355D01*
X436446Y78262D01*
X436523Y78172D01*
X436604Y78084D01*
X436688Y77999D01*
X436775Y77917D01*
X436864Y77837D01*
X436956Y77761D01*
X437050Y77687D01*
X437147Y77617D01*
X437245Y77550D01*
X437346Y77486D01*
X437450Y77426D01*
X437555Y77369D01*
X437662Y77316D01*
X437770Y77266D01*
X437880Y77220D01*
X437992Y77178D01*
X438105Y77139D01*
X438219Y77104D01*
X438334Y77073D01*
X438451Y77045D01*
X438568Y77022D01*
X438685Y77002D01*
X438804Y76986D01*
X438923Y76974D01*
X439042Y76966D01*
X439161Y76962D01*
X439281Y76962D01*
X439400Y76966D01*
X439519Y76974D01*
X439638Y76986D01*
X439757Y77002D01*
X439874Y77022D01*
X439991Y77045D01*
X440108Y77073D01*
X440223Y77104D01*
X440337Y77139D01*
X440450Y77178D01*
X440562Y77220D01*
X440672Y77266D01*
X440780Y77316D01*
X440887Y77369D01*
X440992Y77426D01*
X441096Y77486D01*
X441197Y77550D01*
X441295Y77617D01*
X441392Y77687D01*
X441486Y77761D01*
X441578Y77837D01*
X441667Y77917D01*
X441754Y77999D01*
X441838Y78084D01*
X441919Y78172D01*
X441996Y78262D01*
X442071Y78355D01*
X442143Y78451D01*
X442212Y78549D01*
X442277Y78649D01*
X442339Y78751D01*
X442398Y78855D01*
X442453Y78961D01*
X442504Y79069D01*
X442552Y79178D01*
X442597Y79289D01*
X442637Y79401D01*
X442674Y79515D01*
X442707Y79630D01*
X442737Y79745D01*
X442762Y79862D01*
X442784Y79979D01*
X442801Y80098D01*
X442815Y80216D01*
X442825Y80335D01*
X442831Y80455D01*
X442833Y80574D01*
X428766Y79671D02*
X428766Y87799D01*
X428765Y79671D02*
X428763Y79570D01*
X428757Y79469D01*
X428748Y79368D01*
X428735Y79267D01*
X428718Y79167D01*
X428697Y79068D01*
X428673Y78970D01*
X428645Y78873D01*
X428613Y78776D01*
X428578Y78681D01*
X428539Y78588D01*
X428497Y78496D01*
X428451Y78405D01*
X428402Y78316D01*
X428350Y78230D01*
X428294Y78145D01*
X428236Y78062D01*
X428174Y77982D01*
X428109Y77904D01*
X428042Y77828D01*
X427972Y77755D01*
X427899Y77685D01*
X427823Y77618D01*
X427745Y77553D01*
X427665Y77491D01*
X427582Y77433D01*
X427497Y77377D01*
X427411Y77325D01*
X427322Y77276D01*
X427231Y77230D01*
X427139Y77188D01*
X427046Y77149D01*
X426951Y77114D01*
X426854Y77082D01*
X426757Y77054D01*
X426659Y77030D01*
X426560Y77009D01*
X426460Y76992D01*
X426359Y76979D01*
X426258Y76970D01*
X426157Y76964D01*
X426056Y76962D01*
X421541Y76962D01*
X421541Y87799D01*
X411971Y76962D02*
X408358Y76962D01*
X411971Y76962D02*
X412072Y76964D01*
X412173Y76970D01*
X412274Y76979D01*
X412375Y76992D01*
X412475Y77009D01*
X412574Y77030D01*
X412672Y77054D01*
X412769Y77082D01*
X412866Y77114D01*
X412961Y77149D01*
X413054Y77188D01*
X413146Y77230D01*
X413237Y77276D01*
X413326Y77325D01*
X413412Y77377D01*
X413497Y77433D01*
X413580Y77491D01*
X413660Y77553D01*
X413738Y77618D01*
X413814Y77685D01*
X413887Y77755D01*
X413957Y77828D01*
X414024Y77904D01*
X414089Y77982D01*
X414151Y78062D01*
X414209Y78145D01*
X414265Y78230D01*
X414317Y78316D01*
X414366Y78405D01*
X414412Y78496D01*
X414454Y78588D01*
X414493Y78681D01*
X414528Y78776D01*
X414560Y78873D01*
X414588Y78970D01*
X414612Y79068D01*
X414633Y79167D01*
X414650Y79267D01*
X414663Y79368D01*
X414672Y79469D01*
X414678Y79570D01*
X414680Y79671D01*
X414680Y85090D01*
X414678Y85191D01*
X414672Y85292D01*
X414663Y85393D01*
X414650Y85494D01*
X414633Y85594D01*
X414612Y85693D01*
X414588Y85791D01*
X414560Y85888D01*
X414528Y85985D01*
X414493Y86080D01*
X414454Y86173D01*
X414412Y86265D01*
X414366Y86356D01*
X414317Y86445D01*
X414265Y86531D01*
X414209Y86616D01*
X414151Y86699D01*
X414089Y86779D01*
X414024Y86857D01*
X413957Y86933D01*
X413887Y87006D01*
X413814Y87076D01*
X413738Y87143D01*
X413660Y87208D01*
X413580Y87270D01*
X413497Y87328D01*
X413412Y87384D01*
X413326Y87436D01*
X413237Y87485D01*
X413146Y87531D01*
X413054Y87573D01*
X412961Y87612D01*
X412866Y87647D01*
X412769Y87679D01*
X412672Y87707D01*
X412574Y87731D01*
X412475Y87752D01*
X412375Y87769D01*
X412274Y87782D01*
X412173Y87791D01*
X412072Y87797D01*
X411971Y87799D01*
X408358Y87799D01*
X402193Y93218D02*
X402193Y76962D01*
X402193Y87799D02*
X397677Y87799D01*
X397573Y87797D01*
X397470Y87791D01*
X397366Y87781D01*
X397263Y87767D01*
X397161Y87749D01*
X397060Y87728D01*
X396959Y87702D01*
X396860Y87673D01*
X396761Y87640D01*
X396664Y87603D01*
X396569Y87562D01*
X396475Y87518D01*
X396383Y87470D01*
X396293Y87419D01*
X396204Y87364D01*
X396118Y87306D01*
X396035Y87244D01*
X395953Y87180D01*
X395875Y87112D01*
X395799Y87042D01*
X395725Y86969D01*
X395655Y86892D01*
X395587Y86814D01*
X395523Y86732D01*
X395461Y86649D01*
X395403Y86563D01*
X395348Y86474D01*
X395297Y86384D01*
X395249Y86292D01*
X395205Y86198D01*
X395164Y86103D01*
X395127Y86006D01*
X395094Y85907D01*
X395065Y85808D01*
X395039Y85707D01*
X395018Y85606D01*
X395000Y85504D01*
X394986Y85401D01*
X394976Y85297D01*
X394970Y85194D01*
X394968Y85090D01*
X394968Y76962D01*
X378917Y85993D02*
X374401Y85993D01*
X374401Y85994D02*
X374268Y85992D01*
X374136Y85986D01*
X374004Y85976D01*
X373872Y85963D01*
X373740Y85945D01*
X373610Y85924D01*
X373479Y85899D01*
X373350Y85870D01*
X373222Y85837D01*
X373094Y85801D01*
X372968Y85761D01*
X372843Y85717D01*
X372719Y85669D01*
X372597Y85618D01*
X372476Y85563D01*
X372357Y85505D01*
X372239Y85443D01*
X372124Y85378D01*
X372010Y85309D01*
X371899Y85238D01*
X371790Y85162D01*
X371683Y85084D01*
X371578Y85003D01*
X371476Y84918D01*
X371376Y84831D01*
X371279Y84741D01*
X371184Y84648D01*
X371093Y84552D01*
X371004Y84454D01*
X370918Y84353D01*
X370835Y84249D01*
X370755Y84143D01*
X370679Y84035D01*
X370605Y83925D01*
X370535Y83812D01*
X370468Y83698D01*
X370405Y83581D01*
X370345Y83463D01*
X370288Y83343D01*
X370235Y83221D01*
X370186Y83098D01*
X370140Y82974D01*
X370098Y82848D01*
X370060Y82721D01*
X370025Y82593D01*
X369994Y82464D01*
X369967Y82335D01*
X369944Y82204D01*
X369924Y82073D01*
X369909Y81941D01*
X369897Y81809D01*
X369889Y81677D01*
X369885Y81544D01*
X369885Y81412D01*
X369889Y81279D01*
X369897Y81147D01*
X369909Y81015D01*
X369924Y80883D01*
X369944Y80752D01*
X369967Y80621D01*
X369994Y80492D01*
X370025Y80363D01*
X370060Y80235D01*
X370098Y80108D01*
X370140Y79982D01*
X370186Y79858D01*
X370235Y79735D01*
X370288Y79613D01*
X370345Y79493D01*
X370405Y79375D01*
X370468Y79258D01*
X370535Y79144D01*
X370605Y79031D01*
X370679Y78921D01*
X370755Y78813D01*
X370835Y78707D01*
X370918Y78603D01*
X371004Y78502D01*
X371093Y78404D01*
X371184Y78308D01*
X371279Y78215D01*
X371376Y78125D01*
X371476Y78038D01*
X371578Y77953D01*
X371683Y77872D01*
X371790Y77794D01*
X371899Y77718D01*
X372010Y77647D01*
X372124Y77578D01*
X372239Y77513D01*
X372357Y77451D01*
X372476Y77393D01*
X372597Y77338D01*
X372719Y77287D01*
X372843Y77239D01*
X372968Y77195D01*
X373094Y77155D01*
X373222Y77119D01*
X373350Y77086D01*
X373479Y77057D01*
X373610Y77032D01*
X373740Y77011D01*
X373872Y76993D01*
X374004Y76980D01*
X374136Y76970D01*
X374268Y76964D01*
X374401Y76962D01*
X378917Y76962D01*
X378917Y93218D01*
X374401Y93218D01*
X374282Y93216D01*
X374162Y93210D01*
X374043Y93200D01*
X373925Y93186D01*
X373806Y93169D01*
X373689Y93147D01*
X373572Y93122D01*
X373457Y93092D01*
X373342Y93059D01*
X373228Y93022D01*
X373116Y92982D01*
X373005Y92937D01*
X372896Y92889D01*
X372788Y92838D01*
X372682Y92783D01*
X372578Y92724D01*
X372476Y92662D01*
X372376Y92597D01*
X372278Y92528D01*
X372182Y92456D01*
X372089Y92381D01*
X371999Y92304D01*
X371911Y92223D01*
X371826Y92139D01*
X371744Y92052D01*
X371664Y91963D01*
X371588Y91871D01*
X371514Y91777D01*
X371444Y91680D01*
X371377Y91582D01*
X371313Y91481D01*
X371253Y91377D01*
X371196Y91272D01*
X371143Y91165D01*
X371093Y91057D01*
X371047Y90947D01*
X371005Y90835D01*
X370966Y90722D01*
X370931Y90608D01*
X370900Y90493D01*
X370872Y90376D01*
X370849Y90259D01*
X370829Y90142D01*
X370813Y90023D01*
X370801Y89904D01*
X370793Y89785D01*
X370789Y89666D01*
X370789Y89546D01*
X370793Y89427D01*
X370801Y89308D01*
X370813Y89189D01*
X370829Y89070D01*
X370849Y88953D01*
X370872Y88836D01*
X370900Y88719D01*
X370931Y88604D01*
X370966Y88490D01*
X371005Y88377D01*
X371047Y88265D01*
X371093Y88155D01*
X371143Y88047D01*
X371196Y87940D01*
X371253Y87835D01*
X371313Y87731D01*
X371377Y87630D01*
X371444Y87532D01*
X371514Y87435D01*
X371588Y87341D01*
X371664Y87249D01*
X371744Y87160D01*
X371826Y87073D01*
X371911Y86989D01*
X371999Y86908D01*
X372089Y86831D01*
X372182Y86756D01*
X372278Y86684D01*
X372376Y86615D01*
X372476Y86550D01*
X372578Y86488D01*
X372682Y86429D01*
X372788Y86374D01*
X372896Y86323D01*
X373005Y86275D01*
X373116Y86230D01*
X373228Y86190D01*
X373342Y86153D01*
X373457Y86120D01*
X373572Y86090D01*
X373689Y86065D01*
X373806Y86043D01*
X373925Y86026D01*
X374043Y86012D01*
X374162Y86002D01*
X374282Y85996D01*
X374401Y85994D01*
X363636Y87799D02*
X363636Y79671D01*
X363635Y79671D02*
X363633Y79570D01*
X363627Y79469D01*
X363618Y79368D01*
X363605Y79267D01*
X363588Y79167D01*
X363567Y79068D01*
X363543Y78970D01*
X363515Y78873D01*
X363483Y78776D01*
X363448Y78681D01*
X363409Y78588D01*
X363367Y78496D01*
X363321Y78405D01*
X363272Y78316D01*
X363220Y78230D01*
X363164Y78145D01*
X363106Y78062D01*
X363044Y77982D01*
X362979Y77904D01*
X362912Y77828D01*
X362842Y77755D01*
X362769Y77685D01*
X362693Y77618D01*
X362615Y77553D01*
X362535Y77491D01*
X362452Y77433D01*
X362367Y77377D01*
X362281Y77325D01*
X362192Y77276D01*
X362101Y77230D01*
X362009Y77188D01*
X361916Y77149D01*
X361821Y77114D01*
X361724Y77082D01*
X361627Y77054D01*
X361529Y77030D01*
X361430Y77009D01*
X361330Y76992D01*
X361229Y76979D01*
X361128Y76970D01*
X361027Y76964D01*
X360926Y76962D01*
X356411Y76962D01*
X356411Y87799D01*
X350865Y87799D02*
X345446Y87799D01*
X349059Y93218D02*
X349059Y79671D01*
X349058Y79671D02*
X349056Y79570D01*
X349050Y79469D01*
X349041Y79368D01*
X349028Y79267D01*
X349011Y79167D01*
X348990Y79068D01*
X348966Y78970D01*
X348938Y78873D01*
X348906Y78776D01*
X348871Y78681D01*
X348832Y78588D01*
X348790Y78496D01*
X348744Y78405D01*
X348695Y78316D01*
X348643Y78230D01*
X348587Y78145D01*
X348529Y78062D01*
X348467Y77982D01*
X348402Y77904D01*
X348335Y77828D01*
X348265Y77755D01*
X348192Y77685D01*
X348116Y77618D01*
X348038Y77553D01*
X347958Y77491D01*
X347875Y77433D01*
X347790Y77377D01*
X347704Y77325D01*
X347615Y77276D01*
X347524Y77230D01*
X347432Y77188D01*
X347339Y77149D01*
X347244Y77114D01*
X347147Y77082D01*
X347050Y77054D01*
X346952Y77030D01*
X346853Y77009D01*
X346753Y76992D01*
X346652Y76979D01*
X346551Y76970D01*
X346450Y76964D01*
X346349Y76962D01*
X345446Y76962D01*
X340965Y87799D02*
X335546Y87799D01*
X339159Y93218D02*
X339159Y79671D01*
X339158Y79671D02*
X339156Y79570D01*
X339150Y79469D01*
X339141Y79368D01*
X339128Y79267D01*
X339111Y79167D01*
X339090Y79068D01*
X339066Y78970D01*
X339038Y78873D01*
X339006Y78776D01*
X338971Y78681D01*
X338932Y78588D01*
X338890Y78496D01*
X338844Y78405D01*
X338795Y78316D01*
X338743Y78230D01*
X338687Y78145D01*
X338629Y78062D01*
X338567Y77982D01*
X338502Y77904D01*
X338435Y77828D01*
X338365Y77755D01*
X338292Y77685D01*
X338216Y77618D01*
X338138Y77553D01*
X338058Y77491D01*
X337975Y77433D01*
X337890Y77377D01*
X337804Y77325D01*
X337715Y77276D01*
X337624Y77230D01*
X337532Y77188D01*
X337439Y77149D01*
X337344Y77114D01*
X337247Y77082D01*
X337150Y77054D01*
X337052Y77030D01*
X336953Y77009D01*
X336853Y76992D01*
X336752Y76979D01*
X336651Y76970D01*
X336550Y76964D01*
X336449Y76962D01*
X335546Y76962D01*
X329768Y80574D02*
X329768Y84187D01*
X329766Y84306D01*
X329760Y84426D01*
X329750Y84545D01*
X329736Y84663D01*
X329719Y84782D01*
X329697Y84899D01*
X329672Y85016D01*
X329642Y85131D01*
X329609Y85246D01*
X329572Y85360D01*
X329532Y85472D01*
X329487Y85583D01*
X329439Y85692D01*
X329388Y85800D01*
X329333Y85906D01*
X329274Y86010D01*
X329212Y86112D01*
X329147Y86212D01*
X329078Y86310D01*
X329006Y86406D01*
X328931Y86499D01*
X328854Y86589D01*
X328773Y86677D01*
X328689Y86762D01*
X328602Y86844D01*
X328513Y86924D01*
X328421Y87000D01*
X328327Y87074D01*
X328230Y87144D01*
X328132Y87211D01*
X328031Y87275D01*
X327927Y87335D01*
X327822Y87392D01*
X327715Y87445D01*
X327607Y87495D01*
X327497Y87541D01*
X327385Y87583D01*
X327272Y87622D01*
X327158Y87657D01*
X327043Y87688D01*
X326926Y87716D01*
X326809Y87739D01*
X326692Y87759D01*
X326573Y87775D01*
X326454Y87787D01*
X326335Y87795D01*
X326216Y87799D01*
X326096Y87799D01*
X325977Y87795D01*
X325858Y87787D01*
X325739Y87775D01*
X325620Y87759D01*
X325503Y87739D01*
X325386Y87716D01*
X325269Y87688D01*
X325154Y87657D01*
X325040Y87622D01*
X324927Y87583D01*
X324815Y87541D01*
X324705Y87495D01*
X324597Y87445D01*
X324490Y87392D01*
X324385Y87335D01*
X324281Y87275D01*
X324180Y87211D01*
X324082Y87144D01*
X323985Y87074D01*
X323891Y87000D01*
X323799Y86924D01*
X323710Y86844D01*
X323623Y86762D01*
X323539Y86677D01*
X323458Y86589D01*
X323381Y86499D01*
X323306Y86406D01*
X323234Y86310D01*
X323165Y86212D01*
X323100Y86112D01*
X323038Y86010D01*
X322979Y85906D01*
X322924Y85800D01*
X322873Y85692D01*
X322825Y85583D01*
X322780Y85472D01*
X322740Y85360D01*
X322703Y85246D01*
X322670Y85131D01*
X322640Y85016D01*
X322615Y84899D01*
X322593Y84782D01*
X322576Y84663D01*
X322562Y84545D01*
X322552Y84426D01*
X322546Y84306D01*
X322544Y84187D01*
X322543Y84187D02*
X322543Y80574D01*
X322544Y80574D02*
X322546Y80455D01*
X322552Y80335D01*
X322562Y80216D01*
X322576Y80098D01*
X322593Y79979D01*
X322615Y79862D01*
X322640Y79745D01*
X322670Y79630D01*
X322703Y79515D01*
X322740Y79401D01*
X322780Y79289D01*
X322825Y79178D01*
X322873Y79069D01*
X322924Y78961D01*
X322979Y78855D01*
X323038Y78751D01*
X323100Y78649D01*
X323165Y78549D01*
X323234Y78451D01*
X323306Y78355D01*
X323381Y78262D01*
X323458Y78172D01*
X323539Y78084D01*
X323623Y77999D01*
X323710Y77917D01*
X323799Y77837D01*
X323891Y77761D01*
X323985Y77687D01*
X324082Y77617D01*
X324180Y77550D01*
X324281Y77486D01*
X324385Y77426D01*
X324490Y77369D01*
X324597Y77316D01*
X324705Y77266D01*
X324815Y77220D01*
X324927Y77178D01*
X325040Y77139D01*
X325154Y77104D01*
X325269Y77073D01*
X325386Y77045D01*
X325503Y77022D01*
X325620Y77002D01*
X325739Y76986D01*
X325858Y76974D01*
X325977Y76966D01*
X326096Y76962D01*
X326216Y76962D01*
X326335Y76966D01*
X326454Y76974D01*
X326573Y76986D01*
X326692Y77002D01*
X326809Y77022D01*
X326926Y77045D01*
X327043Y77073D01*
X327158Y77104D01*
X327272Y77139D01*
X327385Y77178D01*
X327497Y77220D01*
X327607Y77266D01*
X327715Y77316D01*
X327822Y77369D01*
X327927Y77426D01*
X328031Y77486D01*
X328132Y77550D01*
X328230Y77617D01*
X328327Y77687D01*
X328421Y77761D01*
X328513Y77837D01*
X328602Y77917D01*
X328689Y77999D01*
X328773Y78084D01*
X328854Y78172D01*
X328931Y78262D01*
X329006Y78355D01*
X329078Y78451D01*
X329147Y78549D01*
X329212Y78649D01*
X329274Y78751D01*
X329333Y78855D01*
X329388Y78961D01*
X329439Y79069D01*
X329487Y79178D01*
X329532Y79289D01*
X329572Y79401D01*
X329609Y79515D01*
X329642Y79630D01*
X329672Y79745D01*
X329697Y79862D01*
X329719Y79979D01*
X329736Y80098D01*
X329750Y80216D01*
X329760Y80335D01*
X329766Y80455D01*
X329768Y80574D01*
X315700Y76962D02*
X315700Y87799D01*
X311184Y87799D01*
X311080Y87797D01*
X310977Y87791D01*
X310873Y87781D01*
X310770Y87767D01*
X310668Y87749D01*
X310567Y87728D01*
X310466Y87702D01*
X310367Y87673D01*
X310268Y87640D01*
X310171Y87603D01*
X310076Y87562D01*
X309982Y87518D01*
X309890Y87470D01*
X309800Y87419D01*
X309711Y87364D01*
X309625Y87306D01*
X309542Y87244D01*
X309460Y87180D01*
X309382Y87112D01*
X309306Y87042D01*
X309232Y86969D01*
X309162Y86892D01*
X309094Y86814D01*
X309030Y86732D01*
X308968Y86649D01*
X308910Y86563D01*
X308855Y86474D01*
X308804Y86384D01*
X308756Y86292D01*
X308712Y86198D01*
X308671Y86103D01*
X308634Y86006D01*
X308601Y85907D01*
X308572Y85808D01*
X308546Y85707D01*
X308525Y85606D01*
X308507Y85504D01*
X308493Y85401D01*
X308483Y85297D01*
X308477Y85194D01*
X308475Y85090D01*
X308475Y76962D01*
X292544Y76962D02*
X292544Y93218D01*
X288028Y93218D01*
X287895Y93216D01*
X287763Y93210D01*
X287631Y93200D01*
X287499Y93187D01*
X287367Y93169D01*
X287237Y93148D01*
X287106Y93123D01*
X286977Y93094D01*
X286849Y93061D01*
X286721Y93025D01*
X286595Y92985D01*
X286470Y92941D01*
X286346Y92893D01*
X286224Y92842D01*
X286103Y92787D01*
X285984Y92729D01*
X285866Y92667D01*
X285751Y92602D01*
X285637Y92533D01*
X285526Y92462D01*
X285417Y92386D01*
X285310Y92308D01*
X285205Y92227D01*
X285103Y92142D01*
X285003Y92055D01*
X284906Y91965D01*
X284811Y91872D01*
X284720Y91776D01*
X284631Y91678D01*
X284545Y91577D01*
X284462Y91473D01*
X284382Y91367D01*
X284306Y91259D01*
X284232Y91149D01*
X284162Y91036D01*
X284095Y90922D01*
X284032Y90805D01*
X283972Y90687D01*
X283915Y90567D01*
X283862Y90445D01*
X283813Y90322D01*
X283767Y90198D01*
X283725Y90072D01*
X283687Y89945D01*
X283652Y89817D01*
X283621Y89688D01*
X283594Y89559D01*
X283571Y89428D01*
X283551Y89297D01*
X283536Y89165D01*
X283524Y89033D01*
X283516Y88901D01*
X283512Y88768D01*
X283512Y88636D01*
X283516Y88503D01*
X283524Y88371D01*
X283536Y88239D01*
X283551Y88107D01*
X283571Y87976D01*
X283594Y87845D01*
X283621Y87716D01*
X283652Y87587D01*
X283687Y87459D01*
X283725Y87332D01*
X283767Y87206D01*
X283813Y87082D01*
X283862Y86959D01*
X283915Y86837D01*
X283972Y86717D01*
X284032Y86599D01*
X284095Y86482D01*
X284162Y86368D01*
X284232Y86255D01*
X284306Y86145D01*
X284382Y86037D01*
X284462Y85931D01*
X284545Y85827D01*
X284631Y85726D01*
X284720Y85628D01*
X284811Y85532D01*
X284906Y85439D01*
X285003Y85349D01*
X285103Y85262D01*
X285205Y85177D01*
X285310Y85096D01*
X285417Y85018D01*
X285526Y84942D01*
X285637Y84871D01*
X285751Y84802D01*
X285866Y84737D01*
X285984Y84675D01*
X286103Y84617D01*
X286224Y84562D01*
X286346Y84511D01*
X286470Y84463D01*
X286595Y84419D01*
X286721Y84379D01*
X286849Y84343D01*
X286977Y84310D01*
X287106Y84281D01*
X287237Y84256D01*
X287367Y84235D01*
X287499Y84217D01*
X287631Y84204D01*
X287763Y84194D01*
X287895Y84188D01*
X288028Y84186D01*
X288028Y84187D02*
X292544Y84187D01*
X287125Y84187D02*
X283512Y76962D01*
X274434Y76962D02*
X269918Y76962D01*
X274434Y76962D02*
X274535Y76964D01*
X274636Y76970D01*
X274737Y76979D01*
X274838Y76992D01*
X274938Y77009D01*
X275037Y77030D01*
X275135Y77054D01*
X275232Y77082D01*
X275329Y77114D01*
X275424Y77149D01*
X275517Y77188D01*
X275609Y77230D01*
X275700Y77276D01*
X275789Y77325D01*
X275875Y77377D01*
X275960Y77433D01*
X276043Y77491D01*
X276123Y77553D01*
X276201Y77618D01*
X276277Y77685D01*
X276350Y77755D01*
X276420Y77828D01*
X276487Y77904D01*
X276552Y77982D01*
X276614Y78062D01*
X276672Y78145D01*
X276728Y78230D01*
X276780Y78316D01*
X276829Y78405D01*
X276875Y78496D01*
X276917Y78588D01*
X276956Y78681D01*
X276991Y78776D01*
X277023Y78873D01*
X277051Y78970D01*
X277075Y79068D01*
X277096Y79167D01*
X277113Y79267D01*
X277126Y79368D01*
X277135Y79469D01*
X277141Y79570D01*
X277143Y79671D01*
X277143Y84187D01*
X277142Y84187D02*
X277140Y84306D01*
X277134Y84426D01*
X277124Y84545D01*
X277110Y84663D01*
X277093Y84782D01*
X277071Y84899D01*
X277046Y85016D01*
X277016Y85131D01*
X276983Y85246D01*
X276946Y85360D01*
X276906Y85472D01*
X276861Y85583D01*
X276813Y85692D01*
X276762Y85800D01*
X276707Y85906D01*
X276648Y86010D01*
X276586Y86112D01*
X276521Y86212D01*
X276452Y86310D01*
X276380Y86406D01*
X276305Y86499D01*
X276228Y86589D01*
X276147Y86677D01*
X276063Y86762D01*
X275976Y86844D01*
X275887Y86924D01*
X275795Y87000D01*
X275701Y87074D01*
X275604Y87144D01*
X275506Y87211D01*
X275405Y87275D01*
X275301Y87335D01*
X275196Y87392D01*
X275089Y87445D01*
X274981Y87495D01*
X274871Y87541D01*
X274759Y87583D01*
X274646Y87622D01*
X274532Y87657D01*
X274417Y87688D01*
X274300Y87716D01*
X274183Y87739D01*
X274066Y87759D01*
X273947Y87775D01*
X273828Y87787D01*
X273709Y87795D01*
X273590Y87799D01*
X273470Y87799D01*
X273351Y87795D01*
X273232Y87787D01*
X273113Y87775D01*
X272994Y87759D01*
X272877Y87739D01*
X272760Y87716D01*
X272643Y87688D01*
X272528Y87657D01*
X272414Y87622D01*
X272301Y87583D01*
X272189Y87541D01*
X272079Y87495D01*
X271971Y87445D01*
X271864Y87392D01*
X271759Y87335D01*
X271655Y87275D01*
X271554Y87211D01*
X271456Y87144D01*
X271359Y87074D01*
X271265Y87000D01*
X271173Y86924D01*
X271084Y86844D01*
X270997Y86762D01*
X270913Y86677D01*
X270832Y86589D01*
X270755Y86499D01*
X270680Y86406D01*
X270608Y86310D01*
X270539Y86212D01*
X270474Y86112D01*
X270412Y86010D01*
X270353Y85906D01*
X270298Y85800D01*
X270247Y85692D01*
X270199Y85583D01*
X270154Y85472D01*
X270114Y85360D01*
X270077Y85246D01*
X270044Y85131D01*
X270014Y85016D01*
X269989Y84899D01*
X269967Y84782D01*
X269950Y84663D01*
X269936Y84545D01*
X269926Y84426D01*
X269920Y84306D01*
X269918Y84187D01*
X269918Y82381D01*
X277143Y82381D01*
X264117Y87799D02*
X260504Y76962D01*
X256892Y87799D01*
X242615Y89606D02*
X238100Y93218D01*
X238100Y76962D01*
X242615Y76962D02*
X233584Y76962D01*
X227609Y76962D02*
X227609Y77865D01*
X226706Y77865D01*
X226706Y76962D01*
X227609Y76962D01*
X220731Y85090D02*
X220727Y85410D01*
X220716Y85729D01*
X220697Y86049D01*
X220670Y86367D01*
X220636Y86685D01*
X220594Y87002D01*
X220544Y87318D01*
X220487Y87633D01*
X220423Y87946D01*
X220351Y88258D01*
X220272Y88568D01*
X220185Y88875D01*
X220091Y89181D01*
X219990Y89484D01*
X219881Y89785D01*
X219766Y90083D01*
X219643Y90379D01*
X219513Y90671D01*
X219376Y90960D01*
X219377Y90961D02*
X219338Y91069D01*
X219295Y91176D01*
X219249Y91281D01*
X219198Y91385D01*
X219145Y91487D01*
X219088Y91587D01*
X219027Y91685D01*
X218963Y91780D01*
X218896Y91874D01*
X218825Y91965D01*
X218752Y92054D01*
X218675Y92140D01*
X218596Y92223D01*
X218514Y92304D01*
X218429Y92382D01*
X218341Y92456D01*
X218251Y92528D01*
X218159Y92596D01*
X218064Y92662D01*
X217967Y92724D01*
X217868Y92782D01*
X217766Y92838D01*
X217664Y92889D01*
X217559Y92937D01*
X217453Y92982D01*
X217345Y93023D01*
X217236Y93060D01*
X217126Y93093D01*
X217014Y93122D01*
X216902Y93148D01*
X216789Y93170D01*
X216675Y93187D01*
X216561Y93201D01*
X216446Y93211D01*
X216331Y93217D01*
X216216Y93219D01*
X216216Y93218D02*
X216101Y93216D01*
X215986Y93210D01*
X215871Y93200D01*
X215757Y93186D01*
X215643Y93169D01*
X215530Y93147D01*
X215418Y93121D01*
X215306Y93092D01*
X215196Y93059D01*
X215087Y93022D01*
X214979Y92981D01*
X214873Y92936D01*
X214769Y92888D01*
X214666Y92837D01*
X214565Y92781D01*
X214465Y92723D01*
X214368Y92661D01*
X214274Y92596D01*
X214181Y92527D01*
X214091Y92455D01*
X214003Y92381D01*
X213918Y92303D01*
X213836Y92222D01*
X213757Y92139D01*
X213680Y92053D01*
X213607Y91964D01*
X213536Y91873D01*
X213469Y91779D01*
X213405Y91684D01*
X213344Y91586D01*
X213287Y91486D01*
X213234Y91384D01*
X213183Y91280D01*
X213137Y91175D01*
X213094Y91068D01*
X213055Y90960D01*
X213056Y90960D02*
X212919Y90671D01*
X212789Y90379D01*
X212666Y90083D01*
X212551Y89785D01*
X212442Y89484D01*
X212341Y89181D01*
X212247Y88875D01*
X212160Y88568D01*
X212081Y88258D01*
X212009Y87946D01*
X211945Y87633D01*
X211888Y87318D01*
X211838Y87002D01*
X211796Y86685D01*
X211762Y86367D01*
X211735Y86049D01*
X211716Y85729D01*
X211705Y85410D01*
X211701Y85090D01*
X220731Y85090D02*
X220727Y84770D01*
X220716Y84451D01*
X220697Y84131D01*
X220670Y83813D01*
X220636Y83495D01*
X220594Y83178D01*
X220544Y82862D01*
X220487Y82547D01*
X220423Y82234D01*
X220351Y81922D01*
X220272Y81612D01*
X220185Y81305D01*
X220091Y80999D01*
X219990Y80696D01*
X219881Y80395D01*
X219766Y80097D01*
X219643Y79801D01*
X219513Y79509D01*
X219376Y79220D01*
X219377Y79220D02*
X219338Y79112D01*
X219295Y79005D01*
X219249Y78900D01*
X219198Y78796D01*
X219145Y78694D01*
X219088Y78594D01*
X219027Y78496D01*
X218963Y78401D01*
X218896Y78307D01*
X218825Y78216D01*
X218752Y78127D01*
X218675Y78041D01*
X218596Y77958D01*
X218514Y77877D01*
X218429Y77799D01*
X218341Y77725D01*
X218251Y77653D01*
X218158Y77584D01*
X218064Y77519D01*
X217967Y77457D01*
X217867Y77399D01*
X217766Y77343D01*
X217664Y77292D01*
X217559Y77244D01*
X217453Y77199D01*
X217345Y77158D01*
X217236Y77121D01*
X217126Y77088D01*
X217014Y77059D01*
X216902Y77033D01*
X216789Y77011D01*
X216675Y76994D01*
X216561Y76980D01*
X216446Y76970D01*
X216331Y76964D01*
X216216Y76962D01*
X213056Y79220D02*
X212919Y79509D01*
X212789Y79801D01*
X212666Y80097D01*
X212551Y80395D01*
X212442Y80696D01*
X212341Y80999D01*
X212247Y81305D01*
X212160Y81612D01*
X212081Y81922D01*
X212009Y82234D01*
X211945Y82547D01*
X211888Y82862D01*
X211838Y83178D01*
X211796Y83495D01*
X211762Y83813D01*
X211735Y84131D01*
X211716Y84451D01*
X211705Y84770D01*
X211701Y85090D01*
X213055Y79220D02*
X213094Y79112D01*
X213137Y79005D01*
X213183Y78900D01*
X213234Y78796D01*
X213287Y78694D01*
X213345Y78594D01*
X213405Y78496D01*
X213469Y78401D01*
X213536Y78307D01*
X213607Y78216D01*
X213680Y78127D01*
X213757Y78041D01*
X213836Y77958D01*
X213918Y77877D01*
X214003Y77799D01*
X214091Y77725D01*
X214181Y77653D01*
X214274Y77584D01*
X214368Y77519D01*
X214465Y77457D01*
X214565Y77399D01*
X214666Y77343D01*
X214769Y77292D01*
X214873Y77244D01*
X214979Y77199D01*
X215087Y77158D01*
X215196Y77121D01*
X215306Y77088D01*
X215418Y77059D01*
X215530Y77033D01*
X215643Y77011D01*
X215757Y76994D01*
X215871Y76980D01*
X215986Y76970D01*
X216101Y76964D01*
X216216Y76962D01*
X219828Y80574D02*
X212604Y89606D01*
D11*
X373486Y65624D02*
X373565Y65457D01*
X373640Y65288D01*
X373711Y65117D01*
X373778Y64945D01*
X373840Y64771D01*
X373899Y64595D01*
X373953Y64419D01*
X374003Y64241D01*
X374049Y64061D01*
X374091Y63881D01*
X374128Y63700D01*
X374161Y63518D01*
X374190Y63336D01*
X374214Y63152D01*
X374234Y62968D01*
X374249Y62784D01*
X374260Y62600D01*
X374267Y62415D01*
X374269Y62230D01*
X373486Y65624D02*
X373456Y65704D01*
X373423Y65783D01*
X373386Y65860D01*
X373346Y65936D01*
X373303Y66010D01*
X373257Y66082D01*
X373207Y66151D01*
X373155Y66219D01*
X373099Y66284D01*
X373041Y66347D01*
X372979Y66406D01*
X372916Y66464D01*
X372849Y66518D01*
X372781Y66569D01*
X372710Y66617D01*
X372637Y66662D01*
X372563Y66704D01*
X372486Y66742D01*
X372408Y66777D01*
X372329Y66809D01*
X372248Y66837D01*
X372166Y66861D01*
X372082Y66882D01*
X371999Y66899D01*
X371914Y66912D01*
X371829Y66921D01*
X371744Y66927D01*
X371658Y66929D01*
X371572Y66927D01*
X371487Y66921D01*
X371402Y66912D01*
X371317Y66899D01*
X371234Y66882D01*
X371150Y66861D01*
X371068Y66837D01*
X370988Y66809D01*
X370908Y66777D01*
X370830Y66742D01*
X370753Y66704D01*
X370679Y66662D01*
X370606Y66617D01*
X370535Y66569D01*
X370467Y66518D01*
X370400Y66464D01*
X370337Y66406D01*
X370276Y66347D01*
X370217Y66284D01*
X370162Y66219D01*
X370109Y66151D01*
X370059Y66082D01*
X370013Y66010D01*
X369970Y65936D01*
X369930Y65860D01*
X369893Y65783D01*
X369860Y65704D01*
X369830Y65624D01*
X369831Y65624D02*
X369752Y65457D01*
X369677Y65288D01*
X369606Y65117D01*
X369539Y64945D01*
X369477Y64771D01*
X369418Y64595D01*
X369364Y64419D01*
X369314Y64241D01*
X369268Y64061D01*
X369226Y63881D01*
X369189Y63700D01*
X369156Y63518D01*
X369127Y63336D01*
X369103Y63152D01*
X369083Y62968D01*
X369068Y62784D01*
X369057Y62600D01*
X369050Y62415D01*
X369048Y62230D01*
X374269Y62230D02*
X374267Y62045D01*
X374260Y61860D01*
X374249Y61676D01*
X374234Y61492D01*
X374214Y61308D01*
X374190Y61124D01*
X374161Y60942D01*
X374128Y60760D01*
X374091Y60579D01*
X374049Y60399D01*
X374003Y60219D01*
X373953Y60041D01*
X373899Y59865D01*
X373840Y59689D01*
X373778Y59515D01*
X373711Y59343D01*
X373640Y59172D01*
X373565Y59003D01*
X373486Y58836D01*
X373456Y58756D01*
X373423Y58677D01*
X373386Y58600D01*
X373346Y58524D01*
X373303Y58450D01*
X373257Y58378D01*
X373207Y58309D01*
X373154Y58241D01*
X373099Y58176D01*
X373040Y58113D01*
X372979Y58054D01*
X372916Y57996D01*
X372849Y57942D01*
X372781Y57891D01*
X372710Y57843D01*
X372637Y57798D01*
X372563Y57756D01*
X372486Y57718D01*
X372408Y57683D01*
X372329Y57651D01*
X372248Y57623D01*
X372166Y57599D01*
X372082Y57578D01*
X371999Y57561D01*
X371914Y57548D01*
X371829Y57539D01*
X371744Y57533D01*
X371658Y57531D01*
X369831Y58836D02*
X369752Y59003D01*
X369677Y59172D01*
X369606Y59343D01*
X369539Y59515D01*
X369477Y59689D01*
X369418Y59865D01*
X369364Y60041D01*
X369314Y60219D01*
X369268Y60399D01*
X369226Y60579D01*
X369189Y60760D01*
X369156Y60942D01*
X369127Y61124D01*
X369103Y61308D01*
X369083Y61492D01*
X369068Y61676D01*
X369057Y61860D01*
X369050Y62045D01*
X369048Y62230D01*
X369830Y58836D02*
X369860Y58756D01*
X369893Y58677D01*
X369930Y58600D01*
X369970Y58524D01*
X370013Y58450D01*
X370059Y58378D01*
X370109Y58309D01*
X370162Y58241D01*
X370217Y58176D01*
X370276Y58113D01*
X370337Y58054D01*
X370400Y57996D01*
X370467Y57942D01*
X370535Y57891D01*
X370606Y57843D01*
X370679Y57798D01*
X370753Y57756D01*
X370830Y57718D01*
X370908Y57683D01*
X370988Y57651D01*
X371068Y57623D01*
X371150Y57599D01*
X371234Y57578D01*
X371317Y57561D01*
X371402Y57548D01*
X371487Y57539D01*
X371572Y57533D01*
X371658Y57531D01*
X373747Y59619D02*
X369570Y64841D01*
X365647Y57531D02*
X359382Y66929D01*
X365647Y66929D02*
X359382Y57531D01*
X353918Y57531D02*
X351830Y57531D01*
X353918Y57531D02*
X354007Y57533D01*
X354095Y57539D01*
X354183Y57548D01*
X354271Y57561D01*
X354358Y57578D01*
X354444Y57598D01*
X354529Y57623D01*
X354614Y57650D01*
X354697Y57682D01*
X354778Y57716D01*
X354858Y57755D01*
X354936Y57796D01*
X355013Y57841D01*
X355087Y57889D01*
X355160Y57940D01*
X355230Y57994D01*
X355297Y58052D01*
X355363Y58112D01*
X355425Y58174D01*
X355485Y58240D01*
X355543Y58307D01*
X355597Y58377D01*
X355648Y58450D01*
X355696Y58524D01*
X355741Y58601D01*
X355782Y58679D01*
X355821Y58759D01*
X355855Y58840D01*
X355887Y58923D01*
X355914Y59008D01*
X355939Y59093D01*
X355959Y59179D01*
X355976Y59266D01*
X355989Y59354D01*
X355998Y59442D01*
X356004Y59530D01*
X356006Y59619D01*
X356007Y59619D02*
X356007Y64841D01*
X356006Y64841D02*
X356004Y64930D01*
X355998Y65018D01*
X355989Y65106D01*
X355976Y65194D01*
X355959Y65281D01*
X355939Y65367D01*
X355914Y65452D01*
X355887Y65537D01*
X355855Y65620D01*
X355821Y65701D01*
X355782Y65781D01*
X355741Y65859D01*
X355696Y65936D01*
X355648Y66010D01*
X355597Y66083D01*
X355543Y66153D01*
X355485Y66220D01*
X355425Y66286D01*
X355363Y66348D01*
X355297Y66408D01*
X355230Y66466D01*
X355160Y66520D01*
X355087Y66571D01*
X355013Y66619D01*
X354936Y66664D01*
X354858Y66705D01*
X354778Y66744D01*
X354697Y66778D01*
X354614Y66810D01*
X354529Y66837D01*
X354444Y66862D01*
X354358Y66882D01*
X354271Y66899D01*
X354183Y66912D01*
X354095Y66921D01*
X354007Y66927D01*
X353918Y66929D01*
X351830Y66929D01*
X348056Y66929D02*
X348056Y57531D01*
X348056Y66929D02*
X345446Y66929D01*
X345346Y66927D01*
X345246Y66921D01*
X345147Y66912D01*
X345047Y66898D01*
X344949Y66881D01*
X344851Y66860D01*
X344754Y66836D01*
X344658Y66807D01*
X344563Y66775D01*
X344470Y66740D01*
X344378Y66701D01*
X344287Y66658D01*
X344199Y66612D01*
X344112Y66562D01*
X344027Y66510D01*
X343944Y66454D01*
X343863Y66395D01*
X343785Y66332D01*
X343709Y66267D01*
X343635Y66199D01*
X343565Y66129D01*
X343497Y66055D01*
X343432Y65979D01*
X343369Y65901D01*
X343310Y65820D01*
X343254Y65737D01*
X343202Y65652D01*
X343152Y65565D01*
X343106Y65477D01*
X343063Y65386D01*
X343024Y65294D01*
X342989Y65201D01*
X342957Y65106D01*
X342928Y65010D01*
X342904Y64913D01*
X342883Y64815D01*
X342866Y64717D01*
X342852Y64617D01*
X342843Y64518D01*
X342837Y64418D01*
X342835Y64318D01*
X342835Y60142D01*
X342837Y60042D01*
X342843Y59942D01*
X342852Y59843D01*
X342866Y59743D01*
X342883Y59645D01*
X342904Y59547D01*
X342928Y59450D01*
X342957Y59354D01*
X342989Y59259D01*
X343024Y59166D01*
X343063Y59074D01*
X343106Y58983D01*
X343152Y58895D01*
X343202Y58808D01*
X343254Y58723D01*
X343310Y58640D01*
X343369Y58559D01*
X343432Y58481D01*
X343497Y58405D01*
X343565Y58331D01*
X343635Y58261D01*
X343709Y58193D01*
X343785Y58128D01*
X343863Y58065D01*
X343944Y58006D01*
X344027Y57950D01*
X344112Y57898D01*
X344199Y57848D01*
X344287Y57802D01*
X344378Y57759D01*
X344470Y57720D01*
X344563Y57685D01*
X344658Y57653D01*
X344754Y57624D01*
X344851Y57600D01*
X344949Y57579D01*
X345047Y57562D01*
X345147Y57548D01*
X345246Y57539D01*
X345346Y57533D01*
X345446Y57531D01*
X348056Y57531D01*
X338303Y57531D02*
X338303Y66929D01*
X335692Y66929D01*
X335592Y66927D01*
X335492Y66921D01*
X335393Y66912D01*
X335293Y66898D01*
X335195Y66881D01*
X335097Y66860D01*
X335000Y66836D01*
X334904Y66807D01*
X334809Y66775D01*
X334716Y66740D01*
X334624Y66701D01*
X334533Y66658D01*
X334445Y66612D01*
X334358Y66562D01*
X334273Y66510D01*
X334190Y66454D01*
X334109Y66395D01*
X334031Y66332D01*
X333955Y66267D01*
X333881Y66199D01*
X333811Y66129D01*
X333743Y66055D01*
X333678Y65979D01*
X333615Y65901D01*
X333556Y65820D01*
X333500Y65737D01*
X333448Y65652D01*
X333398Y65565D01*
X333352Y65477D01*
X333309Y65386D01*
X333270Y65294D01*
X333235Y65201D01*
X333203Y65106D01*
X333174Y65010D01*
X333150Y64913D01*
X333129Y64815D01*
X333112Y64717D01*
X333098Y64617D01*
X333089Y64518D01*
X333083Y64418D01*
X333081Y64318D01*
X333082Y64318D02*
X333082Y60142D01*
X333081Y60142D02*
X333083Y60042D01*
X333089Y59942D01*
X333098Y59843D01*
X333112Y59743D01*
X333129Y59645D01*
X333150Y59547D01*
X333174Y59450D01*
X333203Y59354D01*
X333235Y59259D01*
X333270Y59166D01*
X333309Y59074D01*
X333352Y58983D01*
X333398Y58895D01*
X333448Y58808D01*
X333500Y58723D01*
X333556Y58640D01*
X333615Y58559D01*
X333678Y58481D01*
X333743Y58405D01*
X333811Y58331D01*
X333881Y58261D01*
X333955Y58193D01*
X334031Y58128D01*
X334109Y58065D01*
X334190Y58006D01*
X334273Y57950D01*
X334358Y57898D01*
X334445Y57848D01*
X334533Y57802D01*
X334624Y57759D01*
X334716Y57720D01*
X334809Y57685D01*
X334904Y57653D01*
X335000Y57624D01*
X335097Y57600D01*
X335195Y57579D01*
X335293Y57562D01*
X335393Y57548D01*
X335492Y57539D01*
X335592Y57533D01*
X335692Y57531D01*
X338303Y57531D01*
X326791Y57531D02*
X324703Y57531D01*
X326791Y57531D02*
X326880Y57533D01*
X326968Y57539D01*
X327056Y57548D01*
X327144Y57561D01*
X327231Y57578D01*
X327317Y57598D01*
X327402Y57623D01*
X327487Y57650D01*
X327570Y57682D01*
X327651Y57716D01*
X327731Y57755D01*
X327809Y57796D01*
X327886Y57841D01*
X327960Y57889D01*
X328033Y57940D01*
X328103Y57994D01*
X328170Y58052D01*
X328236Y58112D01*
X328298Y58174D01*
X328358Y58240D01*
X328416Y58307D01*
X328470Y58377D01*
X328521Y58450D01*
X328569Y58524D01*
X328614Y58601D01*
X328655Y58679D01*
X328694Y58759D01*
X328728Y58840D01*
X328760Y58923D01*
X328787Y59008D01*
X328812Y59093D01*
X328832Y59179D01*
X328849Y59266D01*
X328862Y59354D01*
X328871Y59442D01*
X328877Y59530D01*
X328879Y59619D01*
X328880Y59619D02*
X328880Y64841D01*
X328879Y64841D02*
X328877Y64930D01*
X328871Y65018D01*
X328862Y65106D01*
X328849Y65194D01*
X328832Y65281D01*
X328812Y65367D01*
X328787Y65452D01*
X328760Y65537D01*
X328728Y65620D01*
X328694Y65701D01*
X328655Y65781D01*
X328614Y65859D01*
X328569Y65936D01*
X328521Y66010D01*
X328470Y66083D01*
X328416Y66153D01*
X328358Y66220D01*
X328298Y66286D01*
X328236Y66348D01*
X328170Y66408D01*
X328103Y66466D01*
X328033Y66520D01*
X327960Y66571D01*
X327886Y66619D01*
X327809Y66664D01*
X327731Y66705D01*
X327651Y66744D01*
X327570Y66778D01*
X327487Y66810D01*
X327402Y66837D01*
X327317Y66862D01*
X327231Y66882D01*
X327144Y66899D01*
X327056Y66912D01*
X326968Y66921D01*
X326880Y66927D01*
X326791Y66929D01*
X324703Y66929D01*
M02*
