G04 EAGLE Gerber X2 export*
%TF.Part,Single*%
%TF.FileFunction,Copper,L1,Top,Mixed*%
%TF.FilePolarity,Positive*%
%TF.GenerationSoftware,Autodesk,EAGLE,9.0.1*%
%TF.CreationDate,2018-05-23T18:29:57Z*%
G75*
%MOMM*%
%FSLAX34Y34*%
%LPD*%
%AMOC8*
5,1,8,0,0,1.08239X$1,22.5*%
G01*
%ADD10R,1.016000X3.302000*%
%ADD11R,0.480000X1.400000*%
%ADD12R,0.480000X1.525000*%
%ADD13R,1.200000X2.725000*%
%ADD14R,1.000000X1.100000*%
%ADD15R,1.100000X1.900000*%
%ADD16R,2.540000X5.080000*%
%ADD17R,1.100000X1.000000*%
%ADD18R,1.600000X1.100000*%
%ADD19R,0.450000X0.500000*%
%ADD20R,0.500000X0.450000*%
%ADD21R,0.304800X0.609600*%
%ADD22R,0.609600X0.304800*%
%ADD23R,3.454400X3.454400*%
%ADD24R,0.800000X0.300000*%
%ADD25R,0.300000X0.800000*%
%ADD26R,2.750000X2.750000*%
%ADD27R,1.500000X1.600000*%
%ADD28C,0.304800*%
%ADD29C,0.152400*%
%ADD30C,0.756400*%
%ADD31C,1.500000*%


D10*
X298450Y146050D03*
X298450Y196850D03*
X323850Y146050D03*
X323850Y196850D03*
X349250Y146050D03*
X349250Y196850D03*
X374650Y146050D03*
X374650Y196850D03*
X400050Y146050D03*
X400050Y196850D03*
D11*
X364250Y261900D03*
D12*
X349250Y261275D03*
D11*
X334250Y261900D03*
D13*
X349250Y240050D03*
D14*
X393700Y256150D03*
X393700Y239150D03*
X304800Y256150D03*
X304800Y239150D03*
D15*
X380800Y565150D03*
X355800Y565150D03*
D14*
X349250Y630800D03*
X349250Y613800D03*
X323850Y630800D03*
X323850Y613800D03*
X615950Y436000D03*
X615950Y453000D03*
D16*
X615950Y393700D03*
X82550Y304800D03*
D17*
X177800Y465600D03*
X177800Y482600D03*
X520700Y465600D03*
X520700Y482600D03*
X177800Y232900D03*
X177800Y215900D03*
X520700Y232900D03*
X520700Y215900D03*
D18*
X520700Y544050D03*
X520700Y510050D03*
X177800Y544050D03*
X177800Y510050D03*
X520700Y154450D03*
X520700Y188450D03*
X177800Y154450D03*
X177800Y188450D03*
D17*
X488950Y277250D03*
X488950Y294250D03*
X209550Y421250D03*
X209550Y404250D03*
X488950Y421250D03*
X488950Y404250D03*
X209550Y277250D03*
X209550Y294250D03*
X209550Y376800D03*
X209550Y359800D03*
X209550Y321700D03*
X209550Y338700D03*
D16*
X82550Y393700D03*
X615950Y304800D03*
D17*
X82550Y453000D03*
X82550Y436000D03*
D19*
X341750Y82470D03*
X341750Y72470D03*
D20*
X349250Y69970D03*
D19*
X356750Y72470D03*
X356750Y82470D03*
D20*
X349250Y84970D03*
D17*
X357750Y101600D03*
X340750Y101600D03*
D21*
X366754Y525150D03*
X361753Y525150D03*
X356752Y525150D03*
X351751Y525150D03*
X346749Y525150D03*
X341748Y525150D03*
X336747Y525150D03*
X331746Y525150D03*
D22*
X325750Y519154D03*
X325750Y514153D03*
X325750Y509152D03*
X325750Y504151D03*
X325750Y499149D03*
X325750Y494148D03*
X325750Y489147D03*
X325750Y484146D03*
D21*
X331746Y478150D03*
X336747Y478150D03*
X341748Y478150D03*
X346749Y478150D03*
X351751Y478150D03*
X356752Y478150D03*
X361753Y478150D03*
X366754Y478150D03*
D22*
X372750Y484146D03*
X372750Y489147D03*
X372750Y494148D03*
X372750Y499149D03*
X372750Y504151D03*
X372750Y509152D03*
X372750Y514153D03*
X372750Y519154D03*
D23*
X349250Y501650D03*
D24*
X329250Y363020D03*
X329250Y358020D03*
X329250Y353020D03*
X329250Y348020D03*
X329250Y343020D03*
X329250Y338020D03*
D25*
X336750Y330520D03*
X341750Y330520D03*
X346750Y330520D03*
X351750Y330520D03*
X356750Y330520D03*
X361750Y330520D03*
D24*
X369250Y338020D03*
X369250Y343020D03*
X369250Y348020D03*
X369250Y353020D03*
X369250Y358020D03*
X369250Y363020D03*
D25*
X361750Y370520D03*
X356750Y370520D03*
X351750Y370520D03*
X346750Y370520D03*
X341750Y370520D03*
X336750Y370520D03*
D26*
X349250Y350520D03*
D17*
X351400Y298450D03*
X334400Y298450D03*
D14*
X374650Y613800D03*
X374650Y630800D03*
D17*
X321700Y444500D03*
X338700Y444500D03*
D14*
X273050Y332350D03*
X273050Y315350D03*
X298450Y332350D03*
X298450Y315350D03*
D27*
X303150Y577850D03*
X303150Y552450D03*
X325150Y552450D03*
X325150Y577850D03*
D28*
X392800Y240050D02*
X393700Y239150D01*
X392800Y240050D02*
X349250Y240050D01*
X349250Y261275D01*
X311150Y158750D02*
X298450Y146050D01*
X311150Y158750D02*
X311150Y215900D01*
X335300Y240050D01*
X349250Y240050D01*
X400050Y158750D02*
X400050Y146050D01*
X82550Y304800D02*
X38100Y304800D01*
X520700Y154450D02*
X520700Y149266D01*
X615950Y304800D02*
X660400Y304800D01*
X63500Y38100D02*
X38100Y63500D01*
X38100Y304800D01*
X63500Y38100D02*
X177800Y38100D01*
X265430Y38100D01*
X400050Y38100D01*
X520700Y38100D01*
X635000Y38100D01*
X660400Y63500D01*
X660400Y304800D01*
X63500Y660400D02*
X38100Y635000D01*
X63500Y660400D02*
X177800Y660400D01*
X349250Y660400D01*
X520700Y660400D01*
X635000Y660400D01*
X660400Y635000D01*
X38100Y635000D02*
X38100Y304800D01*
X660400Y452120D02*
X660400Y635000D01*
X660400Y452120D02*
X660400Y304800D01*
X177800Y544050D02*
X177800Y552450D01*
X177800Y660400D01*
X520700Y549234D02*
X520700Y544050D01*
X520700Y549234D02*
X520700Y660400D01*
X520700Y154450D02*
X520700Y38100D01*
X177800Y38100D02*
X177800Y154450D01*
X400050Y146050D02*
X419100Y165100D01*
X419100Y230750D02*
X393700Y256150D01*
X419100Y230750D02*
X419100Y165100D01*
X400050Y146050D02*
X400050Y114300D01*
X400050Y38100D01*
X393700Y256150D02*
X370000Y256150D01*
X364250Y261900D01*
X341750Y318650D02*
X341750Y330520D01*
X351400Y309000D02*
X351400Y298450D01*
X351400Y309000D02*
X341750Y318650D01*
X351400Y298450D02*
X364250Y285600D01*
X364250Y261900D01*
X298450Y315350D02*
X273050Y315350D01*
D29*
X346750Y330520D02*
X351750Y330520D01*
X355600Y330520D01*
X356750Y330520D01*
X369250Y338020D02*
X369250Y343020D01*
X369250Y348020D01*
X369250Y353020D01*
D28*
X372750Y514153D02*
X372750Y519154D01*
X468354Y519154D01*
X498434Y549234D02*
X520700Y549234D01*
X498434Y549234D02*
X468354Y519154D01*
X325750Y484146D02*
X321700Y480096D01*
X321700Y444500D01*
X323850Y630800D02*
X374650Y630800D01*
X349250Y630800D02*
X349250Y660400D01*
X303150Y552450D02*
X177800Y552450D01*
X349250Y630800D02*
X374650Y630800D01*
X321700Y385200D02*
X314960Y378460D01*
D30*
X314960Y378460D03*
X314960Y326390D03*
D28*
X309490Y326390D01*
X298450Y315350D01*
X321700Y385200D02*
X321700Y444500D01*
X341750Y330520D02*
X346750Y330520D01*
X355600Y330520D01*
X356750Y330520D02*
X361750Y330520D01*
X369250Y338020D01*
X369250Y353020D01*
X364170Y330520D02*
X361750Y330520D01*
X364170Y330520D02*
X368300Y326390D01*
D30*
X368300Y326390D03*
D28*
X361750Y370520D02*
X361750Y371910D01*
X361750Y370520D02*
X356750Y370520D01*
D31*
X450850Y342900D03*
D28*
X450850Y335280D02*
X441960Y326390D01*
X450850Y335280D02*
X450850Y342900D01*
X615950Y453000D02*
X659520Y453000D01*
X660400Y452120D01*
X376240Y370520D02*
X361750Y370520D01*
X376240Y370520D02*
X391160Y355600D01*
D30*
X394970Y326390D03*
D28*
X391160Y330200D01*
X391160Y355600D01*
X394970Y326390D02*
X441960Y326390D01*
X356750Y100600D02*
X356750Y82470D01*
X356750Y100600D02*
X357750Y101600D01*
X370450Y114300D01*
X400050Y114300D01*
X273050Y218440D02*
X265430Y210820D01*
X265430Y38100D01*
X273050Y238760D02*
X273050Y315350D01*
X273050Y238760D02*
X273050Y218440D01*
X273440Y239150D02*
X304800Y239150D01*
X273440Y239150D02*
X273050Y238760D01*
X304800Y256150D02*
X317500Y256150D01*
X328500Y256150D01*
X334250Y261900D01*
X334250Y298300D01*
X334400Y298450D01*
X334400Y326390D01*
X334400Y328170D01*
X336750Y330520D01*
X338700Y392040D02*
X338700Y419100D01*
X338700Y444500D01*
X346749Y525150D02*
X346710Y537210D01*
D30*
X346710Y537210D03*
X375920Y537210D03*
D28*
X366754Y525150D01*
X331746Y478150D02*
X331746Y451454D01*
X338700Y444500D01*
X375920Y537210D02*
X393700Y554990D01*
X393700Y594750D02*
X374650Y613800D01*
X393700Y594750D02*
X393700Y554990D01*
X346710Y537210D02*
X340360Y543560D01*
X340360Y562640D02*
X325150Y577850D01*
X340360Y562640D02*
X340360Y543560D01*
X338700Y392040D02*
X325120Y378460D01*
D30*
X325120Y378460D03*
X325120Y326390D03*
D28*
X334400Y326390D01*
X330200Y419100D02*
X338700Y419100D01*
D30*
X330200Y419100D03*
D28*
X341750Y85090D02*
X341750Y82470D01*
X341750Y85090D02*
X341750Y100600D01*
X340750Y101600D01*
X341870Y84970D02*
X349250Y84970D01*
X341870Y84970D02*
X341750Y85090D01*
X317500Y232410D02*
X317500Y256150D01*
X317500Y232410D02*
X307340Y222250D01*
X276860Y207010D02*
X276860Y128270D01*
X290830Y114300D01*
X328930Y114300D02*
X341750Y101480D01*
X341750Y100600D01*
X307340Y222250D02*
X292100Y222250D01*
X276860Y207010D01*
X290830Y114300D02*
X328930Y114300D01*
D30*
X50800Y419100D03*
D28*
X50800Y444500D01*
X59300Y453000D01*
X82550Y453000D01*
D29*
X361753Y525150D02*
X361753Y546103D01*
X380800Y565150D01*
X380800Y582250D01*
X349250Y613800D01*
X355800Y581850D02*
X355800Y565150D01*
X355800Y581850D02*
X323850Y613800D01*
X356752Y564198D02*
X356752Y525150D01*
X356752Y564198D02*
X355800Y565150D01*
X351751Y532091D02*
X351751Y525150D01*
X351751Y532091D02*
X353060Y533400D01*
D31*
X425450Y342900D03*
D29*
X353060Y533400D02*
X353060Y544830D01*
X349250Y548640D01*
D30*
X349250Y548640D03*
D29*
X410210Y443230D02*
X410210Y416560D01*
X410210Y356870D01*
X424180Y342900D01*
X425450Y342900D01*
X593090Y416560D02*
X615950Y393700D01*
X593090Y416560D02*
X584200Y416560D01*
D30*
X584200Y416560D03*
X410210Y416560D03*
D29*
X593090Y416560D02*
X612530Y436000D01*
X615950Y436000D01*
D30*
X382270Y461010D03*
D29*
X392430Y461010D01*
X410210Y443230D01*
X209550Y388620D02*
X209550Y376800D01*
D30*
X209550Y388620D03*
D29*
X372750Y504151D02*
X482149Y504151D01*
X520700Y465600D01*
X226353Y514153D02*
X177800Y465600D01*
X226353Y514153D02*
X325750Y514153D01*
X190500Y245600D02*
X177800Y232900D01*
X190500Y245600D02*
X190500Y444500D01*
X250151Y504151D01*
X325750Y504151D01*
D28*
X520700Y510050D02*
X520700Y482600D01*
X177800Y482600D02*
X177800Y510050D01*
X520700Y215900D02*
X520700Y188450D01*
X177800Y188450D02*
X177800Y215900D01*
D29*
X488950Y421250D02*
X488950Y431800D01*
D30*
X488950Y431800D03*
D29*
X209550Y431800D02*
X209550Y421250D01*
D30*
X209550Y431800D03*
D29*
X209550Y277250D02*
X209550Y266700D01*
D30*
X209550Y266700D03*
D29*
X369250Y358020D02*
X377310Y358020D01*
X472050Y311150D02*
X488950Y294250D01*
X382270Y353060D02*
X377310Y358020D01*
X382270Y353060D02*
X382270Y320040D01*
X391160Y311150D01*
X472050Y311150D01*
X377390Y363020D02*
X369250Y363020D01*
X425450Y314960D02*
X426720Y314960D01*
X471170Y314960D01*
X488950Y332740D01*
X488950Y404250D01*
X386080Y354330D02*
X377390Y363020D01*
X386080Y354330D02*
X386080Y321310D01*
X392430Y314960D01*
X425450Y314960D01*
X82550Y393700D02*
X82550Y436000D01*
X229752Y509152D02*
X325750Y509152D01*
X190500Y469900D02*
X190500Y457200D01*
X169300Y436000D01*
X82550Y436000D01*
X190500Y469900D02*
X229752Y509152D01*
X212770Y363020D02*
X329250Y363020D01*
X212770Y363020D02*
X209550Y359800D01*
X228870Y358020D02*
X329250Y358020D01*
X228870Y358020D02*
X209550Y338700D01*
X520700Y235780D02*
X520700Y232900D01*
X467242Y494148D02*
X372750Y494148D01*
X467242Y494148D02*
X509270Y452120D01*
X509270Y244330D01*
X520700Y232900D01*
X329250Y353020D02*
X247610Y353020D01*
X241300Y346710D01*
D30*
X241300Y346710D03*
X228600Y387350D03*
D29*
X211700Y404250D01*
X209550Y404250D01*
X263320Y348020D02*
X329250Y348020D01*
X263320Y348020D02*
X209550Y294250D01*
X209550Y309880D02*
X209550Y321700D01*
D30*
X209550Y309880D03*
D29*
X488950Y277250D02*
X488950Y266700D01*
D30*
X488950Y266700D03*
D29*
X341748Y525150D02*
X341748Y530742D01*
X325150Y547340D02*
X325150Y552450D01*
X325150Y547340D02*
X341748Y530742D01*
X329250Y338020D02*
X304120Y338020D01*
X298450Y332350D01*
X346710Y370560D02*
X346750Y370520D01*
X341748Y462162D02*
X341748Y478150D01*
X353060Y450850D02*
X353060Y435610D01*
X349250Y431800D01*
X349250Y386080D01*
X347980Y384810D01*
D30*
X347980Y384810D03*
D29*
X353060Y450850D02*
X341748Y462162D01*
X346750Y383580D02*
X346750Y370520D01*
X346750Y383580D02*
X347980Y384810D01*
D30*
X320040Y311150D03*
D29*
X320040Y275590D01*
D30*
X320040Y275590D03*
X320040Y99060D03*
D29*
X320040Y94180D01*
X341750Y72470D01*
X346749Y463511D02*
X346749Y478150D01*
X346749Y463511D02*
X356870Y453390D01*
X356870Y385008D02*
X357068Y384810D01*
D30*
X357068Y384810D03*
D29*
X356870Y385008D02*
X356870Y453390D01*
X351750Y379888D02*
X351750Y370520D01*
X351750Y379888D02*
X356870Y385008D01*
D30*
X367030Y311150D03*
D29*
X367030Y289560D01*
X381000Y275590D01*
D30*
X381000Y275590D03*
X381000Y99060D03*
D29*
X381000Y96720D01*
X356750Y72470D01*
X341750Y370520D02*
X341750Y388740D01*
X344170Y391160D01*
X344170Y434340D01*
X347980Y438150D01*
X336747Y457003D02*
X336747Y478150D01*
X336747Y457003D02*
X337820Y455930D01*
X342900Y455930D01*
X347980Y450850D01*
X347980Y438150D01*
X329250Y343020D02*
X283720Y343020D01*
X273050Y332350D01*
D31*
X425450Y368300D03*
D29*
X361753Y471367D02*
X361753Y478150D01*
X361753Y471367D02*
X364490Y468630D01*
X402590Y468630D01*
X425450Y445770D02*
X425450Y368300D01*
X425450Y445770D02*
X402590Y468630D01*
D31*
X450850Y368300D03*
D29*
X407040Y478150D02*
X366754Y478150D01*
X450850Y434340D02*
X450850Y368300D01*
X450850Y434340D02*
X407040Y478150D01*
M02*
