M48
;GenerationSoftware,Autodesk,EAGLE,9.0.1*%
;CreationDate,2018-05-23T18:29:57Z*%
FMAT,2
ICI,OFF
METRIC,TZ,000.000
T4C0.350
T3C1.000
T2C2.100
T1C3.000
%
G90
M71
T1
X55880Y34925
X13970Y34925
T2
X17780Y17145
X52070Y52705
X17780Y52705
X52070Y17145
T3
X45085Y34290
X42545Y34290
X42545Y36830
X45085Y36830
T4
X33020Y41910
X5080Y41910
X34925Y54864
X58420Y41656
X41021Y41656
X38227Y46101
X20955Y38862
X48895Y43180
X20955Y43180
X20955Y26670
X31496Y37846
X22860Y38735
X20955Y30988
X48895Y26670
X34798Y38481
X32004Y31115
X32004Y27559
X32004Y9906
X35707Y38481
X36703Y31115
X38100Y27559
X38100Y9906
X31496Y32639
X36830Y32639
X39497Y32639
X34671Y53721
X37592Y53721
X32512Y37846
X32512Y32639
X24130Y34671
M30