G04 EAGLE Gerber X2 export*
%TF.Part,Single*%
%TF.FileFunction,Soldermask,Bot,1*%
%TF.FilePolarity,Negative*%
%TF.GenerationSoftware,Autodesk,EAGLE,9.0.1*%
%TF.CreationDate,2018-05-23T18:29:57Z*%
G75*
%MOMM*%
%FSLAX34Y34*%
%LPD*%
%AMOC8*
5,1,8,0,0,1.08239X$1,22.5*%
G01*
%ADD10C,3.203200*%
%ADD11C,2.303200*%
%ADD12C,0.959600*%
%ADD13C,1.703200*%


D10*
X558800Y349250D03*
X139700Y349250D03*
D11*
X520700Y527050D03*
X177800Y527050D03*
X520700Y171450D03*
X177800Y171450D03*
D12*
X314960Y378460D03*
X314960Y326390D03*
X368300Y326390D03*
D13*
X450850Y342900D03*
D12*
X394970Y326390D03*
X346710Y537210D03*
X375920Y537210D03*
X325120Y378460D03*
X325120Y326390D03*
X330200Y419100D03*
X50800Y419100D03*
D13*
X425450Y342900D03*
D12*
X349250Y548640D03*
X584200Y416560D03*
X410210Y416560D03*
X382270Y461010D03*
X209550Y388620D03*
X488950Y431800D03*
X209550Y431800D03*
X209550Y266700D03*
X241300Y346710D03*
X228600Y387350D03*
X209550Y309880D03*
X488950Y266700D03*
X347980Y384810D03*
X320040Y311150D03*
X320040Y275590D03*
X320040Y99060D03*
X357068Y384810D03*
X367030Y311150D03*
X381000Y275590D03*
X381000Y99060D03*
D13*
X425450Y368300D03*
X450850Y368300D03*
M02*
