G04 EAGLE Gerber X2 export*
%TF.Part,Single*%
%TF.FileFunction,Paste,Top*%
%TF.FilePolarity,Positive*%
%TF.GenerationSoftware,Autodesk,EAGLE,9.0.1*%
%TF.CreationDate,2018-05-23T18:29:57Z*%
G75*
%MOMM*%
%FSLAX34Y34*%
%LPD*%
%AMOC8*
5,1,8,0,0,1.08239X$1,22.5*%
G01*
%ADD10R,1.016000X3.302000*%
%ADD11R,0.480000X1.400000*%
%ADD12R,0.480000X1.525000*%
%ADD13R,1.200000X2.725000*%
%ADD14R,1.000000X1.100000*%
%ADD15R,1.100000X1.900000*%
%ADD16R,2.540000X5.080000*%
%ADD17R,1.100000X1.000000*%
%ADD18R,1.600000X1.100000*%
%ADD19R,0.450000X0.500000*%
%ADD20R,0.500000X0.450000*%
%ADD21R,0.304800X0.609600*%
%ADD22R,0.609600X0.304800*%
%ADD23R,0.800000X0.300000*%
%ADD24R,0.300000X0.800000*%
%ADD25R,2.750000X2.750000*%
%ADD26R,1.500000X1.600000*%

G36*
X348252Y502525D02*
X348252Y502525D01*
X348254Y502524D01*
X348297Y502544D01*
X348341Y502562D01*
X348341Y502564D01*
X348343Y502565D01*
X348376Y502650D01*
X348376Y517922D01*
X348375Y517924D01*
X348376Y517926D01*
X348356Y517969D01*
X348338Y518013D01*
X348336Y518013D01*
X348335Y518015D01*
X348250Y518048D01*
X332978Y518048D01*
X332976Y518047D01*
X332974Y518048D01*
X332931Y518028D01*
X332887Y518010D01*
X332887Y518008D01*
X332885Y518007D01*
X332852Y517922D01*
X332852Y502650D01*
X332853Y502648D01*
X332852Y502646D01*
X332872Y502603D01*
X332890Y502559D01*
X332892Y502559D01*
X332893Y502557D01*
X332978Y502524D01*
X348250Y502524D01*
X348252Y502525D01*
G37*
G36*
X365524Y502525D02*
X365524Y502525D01*
X365526Y502524D01*
X365569Y502544D01*
X365613Y502562D01*
X365613Y502564D01*
X365615Y502565D01*
X365648Y502650D01*
X365648Y517922D01*
X365647Y517924D01*
X365648Y517926D01*
X365628Y517969D01*
X365610Y518013D01*
X365608Y518013D01*
X365607Y518015D01*
X365522Y518048D01*
X350250Y518048D01*
X350248Y518047D01*
X350246Y518048D01*
X350203Y518028D01*
X350159Y518010D01*
X350159Y518008D01*
X350157Y518007D01*
X350124Y517922D01*
X350124Y502650D01*
X350125Y502648D01*
X350124Y502646D01*
X350144Y502603D01*
X350162Y502559D01*
X350164Y502559D01*
X350165Y502557D01*
X350250Y502524D01*
X365522Y502524D01*
X365524Y502525D01*
G37*
G36*
X348252Y485253D02*
X348252Y485253D01*
X348254Y485252D01*
X348297Y485272D01*
X348341Y485290D01*
X348341Y485292D01*
X348343Y485293D01*
X348376Y485378D01*
X348376Y500650D01*
X348375Y500652D01*
X348376Y500654D01*
X348356Y500697D01*
X348338Y500741D01*
X348336Y500741D01*
X348335Y500743D01*
X348250Y500776D01*
X332978Y500776D01*
X332976Y500775D01*
X332974Y500776D01*
X332931Y500756D01*
X332887Y500738D01*
X332887Y500736D01*
X332885Y500735D01*
X332852Y500650D01*
X332852Y485378D01*
X332853Y485376D01*
X332852Y485374D01*
X332872Y485331D01*
X332890Y485287D01*
X332892Y485287D01*
X332893Y485285D01*
X332978Y485252D01*
X348250Y485252D01*
X348252Y485253D01*
G37*
G36*
X365524Y485253D02*
X365524Y485253D01*
X365526Y485252D01*
X365569Y485272D01*
X365613Y485290D01*
X365613Y485292D01*
X365615Y485293D01*
X365648Y485378D01*
X365648Y500650D01*
X365647Y500652D01*
X365648Y500654D01*
X365628Y500697D01*
X365610Y500741D01*
X365608Y500741D01*
X365607Y500743D01*
X365522Y500776D01*
X350250Y500776D01*
X350248Y500775D01*
X350246Y500776D01*
X350203Y500756D01*
X350159Y500738D01*
X350159Y500736D01*
X350157Y500735D01*
X350124Y500650D01*
X350124Y485378D01*
X350125Y485376D01*
X350124Y485374D01*
X350144Y485331D01*
X350162Y485287D01*
X350164Y485287D01*
X350165Y485285D01*
X350250Y485252D01*
X365522Y485252D01*
X365524Y485253D01*
G37*
G36*
X343274Y521977D02*
X343274Y521977D01*
X343276Y521976D01*
X343319Y521996D01*
X343363Y522014D01*
X343364Y522016D01*
X343366Y522017D01*
X343398Y522102D01*
X343398Y528198D01*
X343398Y528200D01*
X343398Y528202D01*
X343378Y528245D01*
X343360Y528289D01*
X343358Y528289D01*
X343357Y528291D01*
X343272Y528324D01*
X340224Y528324D01*
X340222Y528323D01*
X340220Y528324D01*
X340177Y528304D01*
X340133Y528286D01*
X340133Y528284D01*
X340131Y528283D01*
X340098Y528198D01*
X340098Y522102D01*
X340099Y522100D01*
X340098Y522098D01*
X340118Y522055D01*
X340136Y522011D01*
X340138Y522011D01*
X340139Y522009D01*
X340224Y521976D01*
X343272Y521976D01*
X343274Y521977D01*
G37*
G36*
X338273Y521977D02*
X338273Y521977D01*
X338275Y521976D01*
X338318Y521996D01*
X338362Y522014D01*
X338362Y522016D01*
X338364Y522017D01*
X338397Y522102D01*
X338397Y528198D01*
X338396Y528200D01*
X338397Y528202D01*
X338377Y528245D01*
X338359Y528289D01*
X338357Y528289D01*
X338356Y528291D01*
X338271Y528324D01*
X335223Y528324D01*
X335221Y528323D01*
X335219Y528324D01*
X335176Y528304D01*
X335132Y528286D01*
X335131Y528284D01*
X335129Y528283D01*
X335097Y528198D01*
X335097Y522102D01*
X335097Y522100D01*
X335097Y522098D01*
X335117Y522055D01*
X335135Y522011D01*
X335137Y522011D01*
X335138Y522009D01*
X335223Y521976D01*
X338271Y521976D01*
X338273Y521977D01*
G37*
G36*
X348275Y521977D02*
X348275Y521977D01*
X348277Y521976D01*
X348320Y521996D01*
X348364Y522014D01*
X348365Y522016D01*
X348367Y522017D01*
X348400Y522102D01*
X348400Y528198D01*
X348399Y528200D01*
X348400Y528202D01*
X348380Y528245D01*
X348361Y528289D01*
X348359Y528289D01*
X348358Y528291D01*
X348273Y528324D01*
X345225Y528324D01*
X345223Y528323D01*
X345221Y528324D01*
X345178Y528304D01*
X345135Y528286D01*
X345134Y528284D01*
X345132Y528283D01*
X345099Y528198D01*
X345099Y522102D01*
X345100Y522100D01*
X345099Y522098D01*
X345119Y522055D01*
X345138Y522011D01*
X345140Y522011D01*
X345140Y522009D01*
X345225Y521976D01*
X348273Y521976D01*
X348275Y521977D01*
G37*
G36*
X358278Y521977D02*
X358278Y521977D01*
X358280Y521976D01*
X358323Y521996D01*
X358367Y522014D01*
X358367Y522016D01*
X358369Y522017D01*
X358402Y522102D01*
X358402Y528198D01*
X358401Y528200D01*
X358402Y528202D01*
X358382Y528245D01*
X358364Y528289D01*
X358362Y528289D01*
X358361Y528291D01*
X358276Y528324D01*
X355228Y528324D01*
X355226Y528323D01*
X355224Y528324D01*
X355181Y528304D01*
X355137Y528286D01*
X355136Y528284D01*
X355134Y528283D01*
X355102Y528198D01*
X355102Y522102D01*
X355102Y522100D01*
X355102Y522098D01*
X355122Y522055D01*
X355140Y522011D01*
X355142Y522011D01*
X355143Y522009D01*
X355228Y521976D01*
X358276Y521976D01*
X358278Y521977D01*
G37*
G36*
X363279Y521977D02*
X363279Y521977D01*
X363281Y521976D01*
X363324Y521996D01*
X363368Y522014D01*
X363369Y522016D01*
X363371Y522017D01*
X363403Y522102D01*
X363403Y528198D01*
X363403Y528200D01*
X363403Y528202D01*
X363383Y528245D01*
X363365Y528289D01*
X363363Y528289D01*
X363362Y528291D01*
X363277Y528324D01*
X360229Y528324D01*
X360227Y528323D01*
X360225Y528324D01*
X360182Y528304D01*
X360138Y528286D01*
X360138Y528284D01*
X360136Y528283D01*
X360103Y528198D01*
X360103Y522102D01*
X360104Y522100D01*
X360103Y522098D01*
X360123Y522055D01*
X360141Y522011D01*
X360143Y522011D01*
X360144Y522009D01*
X360229Y521976D01*
X363277Y521976D01*
X363279Y521977D01*
G37*
G36*
X368280Y521977D02*
X368280Y521977D01*
X368282Y521976D01*
X368325Y521996D01*
X368369Y522014D01*
X368370Y522016D01*
X368372Y522017D01*
X368405Y522102D01*
X368405Y528198D01*
X368404Y528200D01*
X368405Y528202D01*
X368385Y528245D01*
X368366Y528289D01*
X368364Y528289D01*
X368363Y528291D01*
X368278Y528324D01*
X365230Y528324D01*
X365228Y528323D01*
X365226Y528324D01*
X365183Y528304D01*
X365140Y528286D01*
X365139Y528284D01*
X365137Y528283D01*
X365104Y528198D01*
X365104Y522102D01*
X365105Y522100D01*
X365104Y522098D01*
X365124Y522055D01*
X365143Y522011D01*
X365145Y522011D01*
X365146Y522009D01*
X365230Y521976D01*
X368278Y521976D01*
X368280Y521977D01*
G37*
G36*
X328800Y517505D02*
X328800Y517505D01*
X328802Y517504D01*
X328845Y517524D01*
X328889Y517543D01*
X328889Y517545D01*
X328891Y517546D01*
X328924Y517630D01*
X328924Y520678D01*
X328923Y520680D01*
X328924Y520682D01*
X328904Y520725D01*
X328886Y520769D01*
X328884Y520770D01*
X328883Y520772D01*
X328798Y520805D01*
X322702Y520805D01*
X322700Y520804D01*
X322698Y520805D01*
X322655Y520785D01*
X322611Y520766D01*
X322611Y520764D01*
X322609Y520763D01*
X322576Y520678D01*
X322576Y517630D01*
X322577Y517628D01*
X322576Y517626D01*
X322596Y517583D01*
X322614Y517540D01*
X322616Y517539D01*
X322617Y517537D01*
X322702Y517504D01*
X328798Y517504D01*
X328800Y517505D01*
G37*
G36*
X375800Y517505D02*
X375800Y517505D01*
X375802Y517504D01*
X375845Y517524D01*
X375889Y517543D01*
X375889Y517545D01*
X375891Y517546D01*
X375924Y517630D01*
X375924Y520678D01*
X375923Y520680D01*
X375924Y520682D01*
X375904Y520725D01*
X375886Y520769D01*
X375884Y520770D01*
X375883Y520772D01*
X375798Y520805D01*
X369702Y520805D01*
X369700Y520804D01*
X369698Y520805D01*
X369655Y520785D01*
X369611Y520766D01*
X369611Y520764D01*
X369609Y520763D01*
X369576Y520678D01*
X369576Y517630D01*
X369577Y517628D01*
X369576Y517626D01*
X369596Y517583D01*
X369614Y517540D01*
X369616Y517539D01*
X369617Y517537D01*
X369702Y517504D01*
X375798Y517504D01*
X375800Y517505D01*
G37*
G36*
X328800Y512504D02*
X328800Y512504D01*
X328802Y512503D01*
X328845Y512523D01*
X328889Y512541D01*
X328889Y512543D01*
X328891Y512544D01*
X328924Y512629D01*
X328924Y515677D01*
X328923Y515679D01*
X328924Y515681D01*
X328904Y515724D01*
X328886Y515768D01*
X328884Y515769D01*
X328883Y515771D01*
X328798Y515803D01*
X322702Y515803D01*
X322700Y515803D01*
X322698Y515803D01*
X322655Y515783D01*
X322611Y515765D01*
X322611Y515763D01*
X322609Y515762D01*
X322576Y515677D01*
X322576Y512629D01*
X322577Y512627D01*
X322576Y512625D01*
X322596Y512582D01*
X322614Y512538D01*
X322616Y512538D01*
X322617Y512536D01*
X322702Y512503D01*
X328798Y512503D01*
X328800Y512504D01*
G37*
G36*
X375800Y512504D02*
X375800Y512504D01*
X375802Y512503D01*
X375845Y512523D01*
X375889Y512541D01*
X375889Y512543D01*
X375891Y512544D01*
X375924Y512629D01*
X375924Y515677D01*
X375923Y515679D01*
X375924Y515681D01*
X375904Y515724D01*
X375886Y515768D01*
X375884Y515769D01*
X375883Y515771D01*
X375798Y515803D01*
X369702Y515803D01*
X369700Y515803D01*
X369698Y515803D01*
X369655Y515783D01*
X369611Y515765D01*
X369611Y515763D01*
X369609Y515762D01*
X369576Y515677D01*
X369576Y512629D01*
X369577Y512627D01*
X369576Y512625D01*
X369596Y512582D01*
X369614Y512538D01*
X369616Y512538D01*
X369617Y512536D01*
X369702Y512503D01*
X375798Y512503D01*
X375800Y512504D01*
G37*
G36*
X328800Y507502D02*
X328800Y507502D01*
X328802Y507502D01*
X328845Y507522D01*
X328889Y507540D01*
X328889Y507542D01*
X328891Y507543D01*
X328924Y507628D01*
X328924Y510676D01*
X328923Y510678D01*
X328924Y510680D01*
X328904Y510723D01*
X328886Y510767D01*
X328884Y510767D01*
X328883Y510769D01*
X328798Y510802D01*
X322702Y510802D01*
X322700Y510801D01*
X322698Y510802D01*
X322655Y510782D01*
X322611Y510764D01*
X322611Y510762D01*
X322609Y510761D01*
X322576Y510676D01*
X322576Y507628D01*
X322577Y507626D01*
X322576Y507624D01*
X322596Y507581D01*
X322614Y507537D01*
X322616Y507536D01*
X322617Y507534D01*
X322702Y507502D01*
X328798Y507502D01*
X328800Y507502D01*
G37*
G36*
X375800Y507502D02*
X375800Y507502D01*
X375802Y507502D01*
X375845Y507522D01*
X375889Y507540D01*
X375889Y507542D01*
X375891Y507543D01*
X375924Y507628D01*
X375924Y510676D01*
X375923Y510678D01*
X375924Y510680D01*
X375904Y510723D01*
X375886Y510767D01*
X375884Y510767D01*
X375883Y510769D01*
X375798Y510802D01*
X369702Y510802D01*
X369700Y510801D01*
X369698Y510802D01*
X369655Y510782D01*
X369611Y510764D01*
X369611Y510762D01*
X369609Y510761D01*
X369576Y510676D01*
X369576Y507628D01*
X369577Y507626D01*
X369576Y507624D01*
X369596Y507581D01*
X369614Y507537D01*
X369616Y507536D01*
X369617Y507534D01*
X369702Y507502D01*
X375798Y507502D01*
X375800Y507502D01*
G37*
G36*
X375800Y502501D02*
X375800Y502501D01*
X375802Y502500D01*
X375845Y502520D01*
X375889Y502539D01*
X375889Y502541D01*
X375891Y502542D01*
X375924Y502627D01*
X375924Y505675D01*
X375923Y505677D01*
X375924Y505679D01*
X375904Y505722D01*
X375886Y505765D01*
X375884Y505766D01*
X375883Y505768D01*
X375798Y505801D01*
X369702Y505801D01*
X369700Y505800D01*
X369698Y505801D01*
X369655Y505781D01*
X369611Y505762D01*
X369611Y505760D01*
X369609Y505760D01*
X369576Y505675D01*
X369576Y502627D01*
X369577Y502625D01*
X369576Y502623D01*
X369596Y502580D01*
X369614Y502536D01*
X369616Y502535D01*
X369617Y502533D01*
X369702Y502500D01*
X375798Y502500D01*
X375800Y502501D01*
G37*
G36*
X328800Y502501D02*
X328800Y502501D01*
X328802Y502500D01*
X328845Y502520D01*
X328889Y502539D01*
X328889Y502541D01*
X328891Y502542D01*
X328924Y502627D01*
X328924Y505675D01*
X328923Y505677D01*
X328924Y505679D01*
X328904Y505722D01*
X328886Y505765D01*
X328884Y505766D01*
X328883Y505768D01*
X328798Y505801D01*
X322702Y505801D01*
X322700Y505800D01*
X322698Y505801D01*
X322655Y505781D01*
X322611Y505762D01*
X322611Y505760D01*
X322609Y505760D01*
X322576Y505675D01*
X322576Y502627D01*
X322577Y502625D01*
X322576Y502623D01*
X322596Y502580D01*
X322614Y502536D01*
X322616Y502535D01*
X322617Y502533D01*
X322702Y502500D01*
X328798Y502500D01*
X328800Y502501D01*
G37*
G36*
X328800Y497500D02*
X328800Y497500D01*
X328802Y497499D01*
X328845Y497519D01*
X328889Y497538D01*
X328889Y497540D01*
X328891Y497540D01*
X328924Y497625D01*
X328924Y500673D01*
X328923Y500675D01*
X328924Y500677D01*
X328904Y500720D01*
X328886Y500764D01*
X328884Y500765D01*
X328883Y500767D01*
X328798Y500800D01*
X322702Y500800D01*
X322700Y500799D01*
X322698Y500800D01*
X322655Y500780D01*
X322611Y500761D01*
X322611Y500759D01*
X322609Y500758D01*
X322576Y500673D01*
X322576Y497625D01*
X322577Y497623D01*
X322576Y497621D01*
X322596Y497578D01*
X322614Y497535D01*
X322616Y497534D01*
X322617Y497532D01*
X322702Y497499D01*
X328798Y497499D01*
X328800Y497500D01*
G37*
G36*
X375800Y497500D02*
X375800Y497500D01*
X375802Y497499D01*
X375845Y497519D01*
X375889Y497538D01*
X375889Y497540D01*
X375891Y497540D01*
X375924Y497625D01*
X375924Y500673D01*
X375923Y500675D01*
X375924Y500677D01*
X375904Y500720D01*
X375886Y500764D01*
X375884Y500765D01*
X375883Y500767D01*
X375798Y500800D01*
X369702Y500800D01*
X369700Y500799D01*
X369698Y500800D01*
X369655Y500780D01*
X369611Y500761D01*
X369611Y500759D01*
X369609Y500758D01*
X369576Y500673D01*
X369576Y497625D01*
X369577Y497623D01*
X369576Y497621D01*
X369596Y497578D01*
X369614Y497535D01*
X369616Y497534D01*
X369617Y497532D01*
X369702Y497499D01*
X375798Y497499D01*
X375800Y497500D01*
G37*
G36*
X333272Y521977D02*
X333272Y521977D01*
X333274Y521976D01*
X333317Y521996D01*
X333360Y522014D01*
X333361Y522016D01*
X333363Y522017D01*
X333396Y522102D01*
X333396Y528198D01*
X333395Y528200D01*
X333396Y528202D01*
X333376Y528245D01*
X333357Y528289D01*
X333355Y528289D01*
X333355Y528291D01*
X333270Y528324D01*
X330222Y528324D01*
X330220Y528323D01*
X330218Y528324D01*
X330175Y528304D01*
X330131Y528286D01*
X330130Y528284D01*
X330128Y528283D01*
X330095Y528198D01*
X330095Y522102D01*
X330096Y522100D01*
X330095Y522098D01*
X330115Y522055D01*
X330134Y522011D01*
X330136Y522011D01*
X330137Y522009D01*
X330222Y521976D01*
X333270Y521976D01*
X333272Y521977D01*
G37*
G36*
X353277Y521977D02*
X353277Y521977D01*
X353279Y521976D01*
X353322Y521996D01*
X353365Y522014D01*
X353366Y522016D01*
X353368Y522017D01*
X353401Y522102D01*
X353401Y528198D01*
X353400Y528200D01*
X353401Y528202D01*
X353381Y528245D01*
X353362Y528289D01*
X353360Y528289D01*
X353360Y528291D01*
X353275Y528324D01*
X350227Y528324D01*
X350225Y528323D01*
X350223Y528324D01*
X350180Y528304D01*
X350136Y528286D01*
X350135Y528284D01*
X350133Y528283D01*
X350100Y528198D01*
X350100Y522102D01*
X350101Y522100D01*
X350100Y522098D01*
X350120Y522055D01*
X350139Y522011D01*
X350141Y522011D01*
X350142Y522009D01*
X350227Y521976D01*
X353275Y521976D01*
X353277Y521977D01*
G37*
G36*
X328800Y492499D02*
X328800Y492499D01*
X328802Y492498D01*
X328845Y492518D01*
X328889Y492536D01*
X328889Y492538D01*
X328891Y492539D01*
X328924Y492624D01*
X328924Y495672D01*
X328923Y495674D01*
X328924Y495676D01*
X328904Y495719D01*
X328886Y495763D01*
X328884Y495764D01*
X328883Y495766D01*
X328798Y495798D01*
X322702Y495798D01*
X322700Y495798D01*
X322698Y495798D01*
X322655Y495778D01*
X322611Y495760D01*
X322611Y495758D01*
X322609Y495757D01*
X322576Y495672D01*
X322576Y492624D01*
X322577Y492622D01*
X322576Y492620D01*
X322596Y492577D01*
X322614Y492533D01*
X322616Y492533D01*
X322617Y492531D01*
X322702Y492498D01*
X328798Y492498D01*
X328800Y492499D01*
G37*
G36*
X375800Y492499D02*
X375800Y492499D01*
X375802Y492498D01*
X375845Y492518D01*
X375889Y492536D01*
X375889Y492538D01*
X375891Y492539D01*
X375924Y492624D01*
X375924Y495672D01*
X375923Y495674D01*
X375924Y495676D01*
X375904Y495719D01*
X375886Y495763D01*
X375884Y495764D01*
X375883Y495766D01*
X375798Y495798D01*
X369702Y495798D01*
X369700Y495798D01*
X369698Y495798D01*
X369655Y495778D01*
X369611Y495760D01*
X369611Y495758D01*
X369609Y495757D01*
X369576Y495672D01*
X369576Y492624D01*
X369577Y492622D01*
X369576Y492620D01*
X369596Y492577D01*
X369614Y492533D01*
X369616Y492533D01*
X369617Y492531D01*
X369702Y492498D01*
X375798Y492498D01*
X375800Y492499D01*
G37*
G36*
X328800Y487497D02*
X328800Y487497D01*
X328802Y487497D01*
X328845Y487517D01*
X328889Y487535D01*
X328889Y487537D01*
X328891Y487538D01*
X328924Y487623D01*
X328924Y490671D01*
X328923Y490673D01*
X328924Y490675D01*
X328904Y490718D01*
X328886Y490762D01*
X328884Y490762D01*
X328883Y490764D01*
X328798Y490797D01*
X322702Y490797D01*
X322700Y490796D01*
X322698Y490797D01*
X322655Y490777D01*
X322611Y490759D01*
X322611Y490757D01*
X322609Y490756D01*
X322576Y490671D01*
X322576Y487623D01*
X322577Y487621D01*
X322576Y487619D01*
X322596Y487576D01*
X322614Y487532D01*
X322616Y487531D01*
X322617Y487529D01*
X322702Y487497D01*
X328798Y487497D01*
X328800Y487497D01*
G37*
G36*
X375800Y487497D02*
X375800Y487497D01*
X375802Y487497D01*
X375845Y487517D01*
X375889Y487535D01*
X375889Y487537D01*
X375891Y487538D01*
X375924Y487623D01*
X375924Y490671D01*
X375923Y490673D01*
X375924Y490675D01*
X375904Y490718D01*
X375886Y490762D01*
X375884Y490762D01*
X375883Y490764D01*
X375798Y490797D01*
X369702Y490797D01*
X369700Y490796D01*
X369698Y490797D01*
X369655Y490777D01*
X369611Y490759D01*
X369611Y490757D01*
X369609Y490756D01*
X369576Y490671D01*
X369576Y487623D01*
X369577Y487621D01*
X369576Y487619D01*
X369596Y487576D01*
X369614Y487532D01*
X369616Y487531D01*
X369617Y487529D01*
X369702Y487497D01*
X375798Y487497D01*
X375800Y487497D01*
G37*
G36*
X328800Y482496D02*
X328800Y482496D01*
X328802Y482495D01*
X328845Y482515D01*
X328889Y482534D01*
X328889Y482536D01*
X328891Y482537D01*
X328924Y482622D01*
X328924Y485670D01*
X328923Y485672D01*
X328924Y485674D01*
X328904Y485717D01*
X328886Y485760D01*
X328884Y485761D01*
X328883Y485763D01*
X328798Y485796D01*
X322702Y485796D01*
X322700Y485795D01*
X322698Y485796D01*
X322655Y485776D01*
X322611Y485757D01*
X322611Y485755D01*
X322609Y485755D01*
X322576Y485670D01*
X322576Y482622D01*
X322577Y482620D01*
X322576Y482618D01*
X322596Y482575D01*
X322614Y482531D01*
X322616Y482530D01*
X322617Y482528D01*
X322702Y482495D01*
X328798Y482495D01*
X328800Y482496D01*
G37*
G36*
X375800Y482496D02*
X375800Y482496D01*
X375802Y482495D01*
X375845Y482515D01*
X375889Y482534D01*
X375889Y482536D01*
X375891Y482537D01*
X375924Y482622D01*
X375924Y485670D01*
X375923Y485672D01*
X375924Y485674D01*
X375904Y485717D01*
X375886Y485760D01*
X375884Y485761D01*
X375883Y485763D01*
X375798Y485796D01*
X369702Y485796D01*
X369700Y485795D01*
X369698Y485796D01*
X369655Y485776D01*
X369611Y485757D01*
X369611Y485755D01*
X369609Y485755D01*
X369576Y485670D01*
X369576Y482622D01*
X369577Y482620D01*
X369576Y482618D01*
X369596Y482575D01*
X369614Y482531D01*
X369616Y482530D01*
X369617Y482528D01*
X369702Y482495D01*
X375798Y482495D01*
X375800Y482496D01*
G37*
G36*
X333272Y474977D02*
X333272Y474977D01*
X333274Y474976D01*
X333317Y474996D01*
X333360Y475014D01*
X333361Y475016D01*
X333363Y475017D01*
X333396Y475102D01*
X333396Y481198D01*
X333395Y481200D01*
X333396Y481202D01*
X333376Y481245D01*
X333357Y481289D01*
X333355Y481289D01*
X333355Y481291D01*
X333270Y481324D01*
X330222Y481324D01*
X330220Y481323D01*
X330218Y481324D01*
X330175Y481304D01*
X330131Y481286D01*
X330130Y481284D01*
X330128Y481283D01*
X330095Y481198D01*
X330095Y475102D01*
X330096Y475100D01*
X330095Y475098D01*
X330115Y475055D01*
X330134Y475011D01*
X330136Y475011D01*
X330137Y475009D01*
X330222Y474976D01*
X333270Y474976D01*
X333272Y474977D01*
G37*
G36*
X363279Y474977D02*
X363279Y474977D01*
X363281Y474976D01*
X363324Y474996D01*
X363368Y475014D01*
X363369Y475016D01*
X363371Y475017D01*
X363403Y475102D01*
X363403Y481198D01*
X363403Y481200D01*
X363403Y481202D01*
X363383Y481245D01*
X363365Y481289D01*
X363363Y481289D01*
X363362Y481291D01*
X363277Y481324D01*
X360229Y481324D01*
X360227Y481323D01*
X360225Y481324D01*
X360182Y481304D01*
X360138Y481286D01*
X360138Y481284D01*
X360136Y481283D01*
X360103Y481198D01*
X360103Y475102D01*
X360104Y475100D01*
X360103Y475098D01*
X360123Y475055D01*
X360141Y475011D01*
X360143Y475011D01*
X360144Y475009D01*
X360229Y474976D01*
X363277Y474976D01*
X363279Y474977D01*
G37*
G36*
X368280Y474977D02*
X368280Y474977D01*
X368282Y474976D01*
X368325Y474996D01*
X368369Y475014D01*
X368370Y475016D01*
X368372Y475017D01*
X368405Y475102D01*
X368405Y481198D01*
X368404Y481200D01*
X368405Y481202D01*
X368385Y481245D01*
X368366Y481289D01*
X368364Y481289D01*
X368363Y481291D01*
X368278Y481324D01*
X365230Y481324D01*
X365228Y481323D01*
X365226Y481324D01*
X365183Y481304D01*
X365140Y481286D01*
X365139Y481284D01*
X365137Y481283D01*
X365104Y481198D01*
X365104Y475102D01*
X365105Y475100D01*
X365104Y475098D01*
X365124Y475055D01*
X365143Y475011D01*
X365145Y475011D01*
X365146Y475009D01*
X365230Y474976D01*
X368278Y474976D01*
X368280Y474977D01*
G37*
G36*
X348275Y474977D02*
X348275Y474977D01*
X348277Y474976D01*
X348320Y474996D01*
X348364Y475014D01*
X348365Y475016D01*
X348367Y475017D01*
X348400Y475102D01*
X348400Y481198D01*
X348399Y481200D01*
X348400Y481202D01*
X348380Y481245D01*
X348361Y481289D01*
X348359Y481289D01*
X348358Y481291D01*
X348273Y481324D01*
X345225Y481324D01*
X345223Y481323D01*
X345221Y481324D01*
X345178Y481304D01*
X345135Y481286D01*
X345134Y481284D01*
X345132Y481283D01*
X345099Y481198D01*
X345099Y475102D01*
X345100Y475100D01*
X345099Y475098D01*
X345119Y475055D01*
X345138Y475011D01*
X345140Y475011D01*
X345140Y475009D01*
X345225Y474976D01*
X348273Y474976D01*
X348275Y474977D01*
G37*
G36*
X358278Y474977D02*
X358278Y474977D01*
X358280Y474976D01*
X358323Y474996D01*
X358367Y475014D01*
X358367Y475016D01*
X358369Y475017D01*
X358402Y475102D01*
X358402Y481198D01*
X358401Y481200D01*
X358402Y481202D01*
X358382Y481245D01*
X358364Y481289D01*
X358362Y481289D01*
X358361Y481291D01*
X358276Y481324D01*
X355228Y481324D01*
X355226Y481323D01*
X355224Y481324D01*
X355181Y481304D01*
X355137Y481286D01*
X355136Y481284D01*
X355134Y481283D01*
X355102Y481198D01*
X355102Y475102D01*
X355102Y475100D01*
X355102Y475098D01*
X355122Y475055D01*
X355140Y475011D01*
X355142Y475011D01*
X355143Y475009D01*
X355228Y474976D01*
X358276Y474976D01*
X358278Y474977D01*
G37*
G36*
X338273Y474977D02*
X338273Y474977D01*
X338275Y474976D01*
X338318Y474996D01*
X338362Y475014D01*
X338362Y475016D01*
X338364Y475017D01*
X338397Y475102D01*
X338397Y481198D01*
X338396Y481200D01*
X338397Y481202D01*
X338377Y481245D01*
X338359Y481289D01*
X338357Y481289D01*
X338356Y481291D01*
X338271Y481324D01*
X335223Y481324D01*
X335221Y481323D01*
X335219Y481324D01*
X335176Y481304D01*
X335132Y481286D01*
X335131Y481284D01*
X335129Y481283D01*
X335097Y481198D01*
X335097Y475102D01*
X335097Y475100D01*
X335097Y475098D01*
X335117Y475055D01*
X335135Y475011D01*
X335137Y475011D01*
X335138Y475009D01*
X335223Y474976D01*
X338271Y474976D01*
X338273Y474977D01*
G37*
G36*
X353277Y474977D02*
X353277Y474977D01*
X353279Y474976D01*
X353322Y474996D01*
X353365Y475014D01*
X353366Y475016D01*
X353368Y475017D01*
X353401Y475102D01*
X353401Y481198D01*
X353400Y481200D01*
X353401Y481202D01*
X353381Y481245D01*
X353362Y481289D01*
X353360Y481289D01*
X353360Y481291D01*
X353275Y481324D01*
X350227Y481324D01*
X350225Y481323D01*
X350223Y481324D01*
X350180Y481304D01*
X350136Y481286D01*
X350135Y481284D01*
X350133Y481283D01*
X350100Y481198D01*
X350100Y475102D01*
X350101Y475100D01*
X350100Y475098D01*
X350120Y475055D01*
X350139Y475011D01*
X350141Y475011D01*
X350142Y475009D01*
X350227Y474976D01*
X353275Y474976D01*
X353277Y474977D01*
G37*
G36*
X343274Y474977D02*
X343274Y474977D01*
X343276Y474976D01*
X343319Y474996D01*
X343363Y475014D01*
X343364Y475016D01*
X343366Y475017D01*
X343398Y475102D01*
X343398Y481198D01*
X343398Y481200D01*
X343398Y481202D01*
X343378Y481245D01*
X343360Y481289D01*
X343358Y481289D01*
X343357Y481291D01*
X343272Y481324D01*
X340224Y481324D01*
X340222Y481323D01*
X340220Y481324D01*
X340177Y481304D01*
X340133Y481286D01*
X340133Y481284D01*
X340131Y481283D01*
X340098Y481198D01*
X340098Y475102D01*
X340099Y475100D01*
X340098Y475098D01*
X340118Y475055D01*
X340136Y475011D01*
X340138Y475011D01*
X340139Y475009D01*
X340224Y474976D01*
X343272Y474976D01*
X343274Y474977D01*
G37*
D10*
X298450Y146050D03*
X298450Y196850D03*
X323850Y146050D03*
X323850Y196850D03*
X349250Y146050D03*
X349250Y196850D03*
X374650Y146050D03*
X374650Y196850D03*
X400050Y146050D03*
X400050Y196850D03*
D11*
X364250Y261900D03*
D12*
X349250Y261275D03*
D11*
X334250Y261900D03*
D13*
X349250Y240050D03*
D14*
X393700Y256150D03*
X393700Y239150D03*
X304800Y256150D03*
X304800Y239150D03*
D15*
X380800Y565150D03*
X355800Y565150D03*
D14*
X349250Y630800D03*
X349250Y613800D03*
X323850Y630800D03*
X323850Y613800D03*
X615950Y436000D03*
X615950Y453000D03*
D16*
X615950Y393700D03*
X82550Y304800D03*
D17*
X177800Y465600D03*
X177800Y482600D03*
X520700Y465600D03*
X520700Y482600D03*
X177800Y232900D03*
X177800Y215900D03*
X520700Y232900D03*
X520700Y215900D03*
D18*
X520700Y544050D03*
X520700Y510050D03*
X177800Y544050D03*
X177800Y510050D03*
X520700Y154450D03*
X520700Y188450D03*
X177800Y154450D03*
X177800Y188450D03*
D17*
X488950Y277250D03*
X488950Y294250D03*
X209550Y421250D03*
X209550Y404250D03*
X488950Y421250D03*
X488950Y404250D03*
X209550Y277250D03*
X209550Y294250D03*
X209550Y376800D03*
X209550Y359800D03*
X209550Y321700D03*
X209550Y338700D03*
D16*
X82550Y393700D03*
X615950Y304800D03*
D17*
X82550Y453000D03*
X82550Y436000D03*
D19*
X341750Y82470D03*
X341750Y72470D03*
D20*
X349250Y69970D03*
D19*
X356750Y72470D03*
X356750Y82470D03*
D20*
X349250Y84970D03*
D17*
X357750Y101600D03*
X340750Y101600D03*
D21*
X366754Y525150D03*
X361753Y525150D03*
X356752Y525150D03*
X351751Y525150D03*
X346749Y525150D03*
X341748Y525150D03*
X336747Y525150D03*
X331746Y525150D03*
D22*
X325750Y519154D03*
X325750Y514153D03*
X325750Y509152D03*
X325750Y504151D03*
X325750Y499149D03*
X325750Y494148D03*
X325750Y489147D03*
X325750Y484146D03*
D21*
X331746Y478150D03*
X336747Y478150D03*
X341748Y478150D03*
X346749Y478150D03*
X351751Y478150D03*
X356752Y478150D03*
X361753Y478150D03*
X366754Y478150D03*
D22*
X372750Y484146D03*
X372750Y489147D03*
X372750Y494148D03*
X372750Y499149D03*
X372750Y504151D03*
X372750Y509152D03*
X372750Y514153D03*
X372750Y519154D03*
D23*
X329250Y363020D03*
X329250Y358020D03*
X329250Y353020D03*
X329250Y348020D03*
X329250Y343020D03*
X329250Y338020D03*
D24*
X336750Y330520D03*
X341750Y330520D03*
X346750Y330520D03*
X351750Y330520D03*
X356750Y330520D03*
X361750Y330520D03*
D23*
X369250Y338020D03*
X369250Y343020D03*
X369250Y348020D03*
X369250Y353020D03*
X369250Y358020D03*
X369250Y363020D03*
D24*
X361750Y370520D03*
X356750Y370520D03*
X351750Y370520D03*
X346750Y370520D03*
X341750Y370520D03*
X336750Y370520D03*
D25*
X349250Y350520D03*
D17*
X351400Y298450D03*
X334400Y298450D03*
D14*
X374650Y613800D03*
X374650Y630800D03*
D17*
X321700Y444500D03*
X338700Y444500D03*
D14*
X273050Y332350D03*
X273050Y315350D03*
X298450Y332350D03*
X298450Y315350D03*
D26*
X303150Y577850D03*
X303150Y552450D03*
X325150Y552450D03*
X325150Y577850D03*
M02*
