G04 EAGLE Gerber X2 export*
%TF.Part,Single*%
%TF.FileFunction,Profile,NP*%
%TF.FilePolarity,Positive*%
%TF.GenerationSoftware,Autodesk,EAGLE,8.6.0*%
%TF.CreationDate,2018-05-27T13:22:00Z*%
G75*
%MOMM*%
%FSLAX34Y34*%
%LPD*%
%AMOC8*
5,1,8,0,0,1.08239X$1,22.5*%
G01*
%ADD10C,0.254000*%


D10*
X0Y50800D02*
X50800Y0D01*
X647700Y0D01*
X698500Y50800D01*
X698500Y647700D01*
X647700Y698500D01*
X50800Y698500D01*
X0Y647700D01*
X0Y50800D01*
X103900Y348714D02*
X103824Y347646D01*
X103671Y346585D01*
X103443Y345538D01*
X103141Y344510D01*
X102767Y343506D01*
X102322Y342531D01*
X101808Y341591D01*
X101229Y340690D01*
X100587Y339832D01*
X99885Y339022D01*
X99128Y338265D01*
X98318Y337563D01*
X97460Y336921D01*
X96559Y336342D01*
X95619Y335828D01*
X94644Y335383D01*
X93640Y335009D01*
X92612Y334707D01*
X91565Y334479D01*
X90504Y334326D01*
X89436Y334250D01*
X88364Y334250D01*
X87296Y334326D01*
X86235Y334479D01*
X85188Y334707D01*
X84160Y335009D01*
X83156Y335383D01*
X82181Y335828D01*
X81241Y336342D01*
X80340Y336921D01*
X79482Y337563D01*
X78672Y338265D01*
X77915Y339022D01*
X77213Y339832D01*
X76571Y340690D01*
X75992Y341591D01*
X75478Y342531D01*
X75033Y343506D01*
X74659Y344510D01*
X74357Y345538D01*
X74129Y346585D01*
X73976Y347646D01*
X73900Y348714D01*
X73900Y349786D01*
X73976Y350854D01*
X74129Y351915D01*
X74357Y352962D01*
X74659Y353990D01*
X75033Y354994D01*
X75478Y355969D01*
X75992Y356909D01*
X76571Y357810D01*
X77213Y358668D01*
X77915Y359478D01*
X78672Y360235D01*
X79482Y360937D01*
X80340Y361579D01*
X81241Y362158D01*
X82181Y362672D01*
X83156Y363117D01*
X84160Y363491D01*
X85188Y363793D01*
X86235Y364021D01*
X87296Y364174D01*
X88364Y364250D01*
X89436Y364250D01*
X90504Y364174D01*
X91565Y364021D01*
X92612Y363793D01*
X93640Y363491D01*
X94644Y363117D01*
X95619Y362672D01*
X96559Y362158D01*
X97460Y361579D01*
X98318Y360937D01*
X99128Y360235D01*
X99885Y359478D01*
X100587Y358668D01*
X101229Y357810D01*
X101808Y356909D01*
X102322Y355969D01*
X102767Y354994D01*
X103141Y353990D01*
X103443Y352962D01*
X103671Y351915D01*
X103824Y350854D01*
X103900Y349786D01*
X103900Y348714D01*
X237250Y348714D02*
X237174Y347646D01*
X237021Y346585D01*
X236793Y345538D01*
X236491Y344510D01*
X236117Y343506D01*
X235672Y342531D01*
X235158Y341591D01*
X234579Y340690D01*
X233937Y339832D01*
X233235Y339022D01*
X232478Y338265D01*
X231668Y337563D01*
X230810Y336921D01*
X229909Y336342D01*
X228969Y335828D01*
X227994Y335383D01*
X226990Y335009D01*
X225962Y334707D01*
X224915Y334479D01*
X223854Y334326D01*
X222786Y334250D01*
X221714Y334250D01*
X220646Y334326D01*
X219585Y334479D01*
X218538Y334707D01*
X217510Y335009D01*
X216506Y335383D01*
X215531Y335828D01*
X214591Y336342D01*
X213690Y336921D01*
X212832Y337563D01*
X212022Y338265D01*
X211265Y339022D01*
X210563Y339832D01*
X209921Y340690D01*
X209342Y341591D01*
X208828Y342531D01*
X208383Y343506D01*
X208009Y344510D01*
X207707Y345538D01*
X207479Y346585D01*
X207326Y347646D01*
X207250Y348714D01*
X207250Y349786D01*
X207326Y350854D01*
X207479Y351915D01*
X207707Y352962D01*
X208009Y353990D01*
X208383Y354994D01*
X208828Y355969D01*
X209342Y356909D01*
X209921Y357810D01*
X210563Y358668D01*
X211265Y359478D01*
X212022Y360235D01*
X212832Y360937D01*
X213690Y361579D01*
X214591Y362158D01*
X215531Y362672D01*
X216506Y363117D01*
X217510Y363491D01*
X218538Y363793D01*
X219585Y364021D01*
X220646Y364174D01*
X221714Y364250D01*
X222786Y364250D01*
X223854Y364174D01*
X224915Y364021D01*
X225962Y363793D01*
X226990Y363491D01*
X227994Y363117D01*
X228969Y362672D01*
X229909Y362158D01*
X230810Y361579D01*
X231668Y360937D01*
X232478Y360235D01*
X233235Y359478D01*
X233937Y358668D01*
X234579Y357810D01*
X235158Y356909D01*
X235672Y355969D01*
X236117Y354994D01*
X236491Y353990D01*
X236793Y352962D01*
X237021Y351915D01*
X237174Y350854D01*
X237250Y349786D01*
X237250Y348714D01*
X103900Y348714D02*
X103824Y347646D01*
X103671Y346585D01*
X103443Y345538D01*
X103141Y344510D01*
X102767Y343506D01*
X102322Y342531D01*
X101808Y341591D01*
X101229Y340690D01*
X100587Y339832D01*
X99885Y339022D01*
X99128Y338265D01*
X98318Y337563D01*
X97460Y336921D01*
X96559Y336342D01*
X95619Y335828D01*
X94644Y335383D01*
X93640Y335009D01*
X92612Y334707D01*
X91565Y334479D01*
X90504Y334326D01*
X89436Y334250D01*
X88364Y334250D01*
X87296Y334326D01*
X86235Y334479D01*
X85188Y334707D01*
X84160Y335009D01*
X83156Y335383D01*
X82181Y335828D01*
X81241Y336342D01*
X80340Y336921D01*
X79482Y337563D01*
X78672Y338265D01*
X77915Y339022D01*
X77213Y339832D01*
X76571Y340690D01*
X75992Y341591D01*
X75478Y342531D01*
X75033Y343506D01*
X74659Y344510D01*
X74357Y345538D01*
X74129Y346585D01*
X73976Y347646D01*
X73900Y348714D01*
X73900Y349786D01*
X73976Y350854D01*
X74129Y351915D01*
X74357Y352962D01*
X74659Y353990D01*
X75033Y354994D01*
X75478Y355969D01*
X75992Y356909D01*
X76571Y357810D01*
X77213Y358668D01*
X77915Y359478D01*
X78672Y360235D01*
X79482Y360937D01*
X80340Y361579D01*
X81241Y362158D01*
X82181Y362672D01*
X83156Y363117D01*
X84160Y363491D01*
X85188Y363793D01*
X86235Y364021D01*
X87296Y364174D01*
X88364Y364250D01*
X89436Y364250D01*
X90504Y364174D01*
X91565Y364021D01*
X92612Y363793D01*
X93640Y363491D01*
X94644Y363117D01*
X95619Y362672D01*
X96559Y362158D01*
X97460Y361579D01*
X98318Y360937D01*
X99128Y360235D01*
X99885Y359478D01*
X100587Y358668D01*
X101229Y357810D01*
X101808Y356909D01*
X102322Y355969D01*
X102767Y354994D01*
X103141Y353990D01*
X103443Y352962D01*
X103671Y351915D01*
X103824Y350854D01*
X103900Y349786D01*
X103900Y348714D01*
X237250Y348714D02*
X237174Y347646D01*
X237021Y346585D01*
X236793Y345538D01*
X236491Y344510D01*
X236117Y343506D01*
X235672Y342531D01*
X235158Y341591D01*
X234579Y340690D01*
X233937Y339832D01*
X233235Y339022D01*
X232478Y338265D01*
X231668Y337563D01*
X230810Y336921D01*
X229909Y336342D01*
X228969Y335828D01*
X227994Y335383D01*
X226990Y335009D01*
X225962Y334707D01*
X224915Y334479D01*
X223854Y334326D01*
X222786Y334250D01*
X221714Y334250D01*
X220646Y334326D01*
X219585Y334479D01*
X218538Y334707D01*
X217510Y335009D01*
X216506Y335383D01*
X215531Y335828D01*
X214591Y336342D01*
X213690Y336921D01*
X212832Y337563D01*
X212022Y338265D01*
X211265Y339022D01*
X210563Y339832D01*
X209921Y340690D01*
X209342Y341591D01*
X208828Y342531D01*
X208383Y343506D01*
X208009Y344510D01*
X207707Y345538D01*
X207479Y346585D01*
X207326Y347646D01*
X207250Y348714D01*
X207250Y349786D01*
X207326Y350854D01*
X207479Y351915D01*
X207707Y352962D01*
X208009Y353990D01*
X208383Y354994D01*
X208828Y355969D01*
X209342Y356909D01*
X209921Y357810D01*
X210563Y358668D01*
X211265Y359478D01*
X212022Y360235D01*
X212832Y360937D01*
X213690Y361579D01*
X214591Y362158D01*
X215531Y362672D01*
X216506Y363117D01*
X217510Y363491D01*
X218538Y363793D01*
X219585Y364021D01*
X220646Y364174D01*
X221714Y364250D01*
X222786Y364250D01*
X223854Y364174D01*
X224915Y364021D01*
X225962Y363793D01*
X226990Y363491D01*
X227994Y363117D01*
X228969Y362672D01*
X229909Y362158D01*
X230810Y361579D01*
X231668Y360937D01*
X232478Y360235D01*
X233235Y359478D01*
X233937Y358668D01*
X234579Y357810D01*
X235158Y356909D01*
X235672Y355969D01*
X236117Y354994D01*
X236491Y353990D01*
X236793Y352962D01*
X237021Y351915D01*
X237174Y350854D01*
X237250Y349786D01*
X237250Y348714D01*
X573800Y348714D02*
X573724Y347646D01*
X573571Y346585D01*
X573343Y345538D01*
X573041Y344510D01*
X572667Y343506D01*
X572222Y342531D01*
X571708Y341591D01*
X571129Y340690D01*
X570487Y339832D01*
X569785Y339022D01*
X569028Y338265D01*
X568218Y337563D01*
X567360Y336921D01*
X566459Y336342D01*
X565519Y335828D01*
X564544Y335383D01*
X563540Y335009D01*
X562512Y334707D01*
X561465Y334479D01*
X560404Y334326D01*
X559336Y334250D01*
X558264Y334250D01*
X557196Y334326D01*
X556135Y334479D01*
X555088Y334707D01*
X554060Y335009D01*
X553056Y335383D01*
X552081Y335828D01*
X551141Y336342D01*
X550240Y336921D01*
X549382Y337563D01*
X548572Y338265D01*
X547815Y339022D01*
X547113Y339832D01*
X546471Y340690D01*
X545892Y341591D01*
X545378Y342531D01*
X544933Y343506D01*
X544559Y344510D01*
X544257Y345538D01*
X544029Y346585D01*
X543876Y347646D01*
X543800Y348714D01*
X543800Y349786D01*
X543876Y350854D01*
X544029Y351915D01*
X544257Y352962D01*
X544559Y353990D01*
X544933Y354994D01*
X545378Y355969D01*
X545892Y356909D01*
X546471Y357810D01*
X547113Y358668D01*
X547815Y359478D01*
X548572Y360235D01*
X549382Y360937D01*
X550240Y361579D01*
X551141Y362158D01*
X552081Y362672D01*
X553056Y363117D01*
X554060Y363491D01*
X555088Y363793D01*
X556135Y364021D01*
X557196Y364174D01*
X558264Y364250D01*
X559336Y364250D01*
X560404Y364174D01*
X561465Y364021D01*
X562512Y363793D01*
X563540Y363491D01*
X564544Y363117D01*
X565519Y362672D01*
X566459Y362158D01*
X567360Y361579D01*
X568218Y360937D01*
X569028Y360235D01*
X569785Y359478D01*
X570487Y358668D01*
X571129Y357810D01*
X571708Y356909D01*
X572222Y355969D01*
X572667Y354994D01*
X573041Y353990D01*
X573343Y352962D01*
X573571Y351915D01*
X573724Y350854D01*
X573800Y349786D01*
X573800Y348714D01*
X154700Y348714D02*
X154624Y347646D01*
X154471Y346585D01*
X154243Y345538D01*
X153941Y344510D01*
X153567Y343506D01*
X153122Y342531D01*
X152608Y341591D01*
X152029Y340690D01*
X151387Y339832D01*
X150685Y339022D01*
X149928Y338265D01*
X149118Y337563D01*
X148260Y336921D01*
X147359Y336342D01*
X146419Y335828D01*
X145444Y335383D01*
X144440Y335009D01*
X143412Y334707D01*
X142365Y334479D01*
X141304Y334326D01*
X140236Y334250D01*
X139164Y334250D01*
X138096Y334326D01*
X137035Y334479D01*
X135988Y334707D01*
X134960Y335009D01*
X133956Y335383D01*
X132981Y335828D01*
X132041Y336342D01*
X131140Y336921D01*
X130282Y337563D01*
X129472Y338265D01*
X128715Y339022D01*
X128013Y339832D01*
X127371Y340690D01*
X126792Y341591D01*
X126278Y342531D01*
X125833Y343506D01*
X125459Y344510D01*
X125157Y345538D01*
X124929Y346585D01*
X124776Y347646D01*
X124700Y348714D01*
X124700Y349786D01*
X124776Y350854D01*
X124929Y351915D01*
X125157Y352962D01*
X125459Y353990D01*
X125833Y354994D01*
X126278Y355969D01*
X126792Y356909D01*
X127371Y357810D01*
X128013Y358668D01*
X128715Y359478D01*
X129472Y360235D01*
X130282Y360937D01*
X131140Y361579D01*
X132041Y362158D01*
X132981Y362672D01*
X133956Y363117D01*
X134960Y363491D01*
X135988Y363793D01*
X137035Y364021D01*
X138096Y364174D01*
X139164Y364250D01*
X140236Y364250D01*
X141304Y364174D01*
X142365Y364021D01*
X143412Y363793D01*
X144440Y363491D01*
X145444Y363117D01*
X146419Y362672D01*
X147359Y362158D01*
X148260Y361579D01*
X149118Y360937D01*
X149928Y360235D01*
X150685Y359478D01*
X151387Y358668D01*
X152029Y357810D01*
X152608Y356909D01*
X153122Y355969D01*
X153567Y354994D01*
X153941Y353990D01*
X154243Y352962D01*
X154471Y351915D01*
X154624Y350854D01*
X154700Y349786D01*
X154700Y348714D01*
X520287Y516550D02*
X519465Y516615D01*
X518650Y516744D01*
X517848Y516936D01*
X517063Y517191D01*
X516301Y517507D01*
X515566Y517882D01*
X514862Y518313D01*
X514195Y518798D01*
X513567Y519334D01*
X512984Y519917D01*
X512448Y520545D01*
X511963Y521212D01*
X511532Y521916D01*
X511157Y522651D01*
X510841Y523413D01*
X510586Y524198D01*
X510394Y525000D01*
X510265Y525815D01*
X510200Y526637D01*
X510200Y527463D01*
X510265Y528285D01*
X510394Y529100D01*
X510586Y529902D01*
X510841Y530687D01*
X511157Y531449D01*
X511532Y532184D01*
X511963Y532888D01*
X512448Y533556D01*
X512984Y534183D01*
X513567Y534766D01*
X514195Y535302D01*
X514862Y535787D01*
X515566Y536218D01*
X516301Y536593D01*
X517063Y536909D01*
X517848Y537164D01*
X518650Y537356D01*
X519465Y537485D01*
X520287Y537550D01*
X521113Y537550D01*
X521935Y537485D01*
X522750Y537356D01*
X523552Y537164D01*
X524337Y536909D01*
X525099Y536593D01*
X525834Y536218D01*
X526538Y535787D01*
X527206Y535302D01*
X527833Y534766D01*
X528416Y534183D01*
X528952Y533556D01*
X529437Y532888D01*
X529868Y532184D01*
X530243Y531449D01*
X530559Y530687D01*
X530814Y529902D01*
X531006Y529100D01*
X531135Y528285D01*
X531200Y527463D01*
X531200Y526637D01*
X531135Y525815D01*
X531006Y525000D01*
X530814Y524198D01*
X530559Y523413D01*
X530243Y522651D01*
X529868Y521916D01*
X529437Y521212D01*
X528952Y520545D01*
X528416Y519917D01*
X527833Y519334D01*
X527206Y518798D01*
X526538Y518313D01*
X525834Y517882D01*
X525099Y517507D01*
X524337Y517191D01*
X523552Y516936D01*
X522750Y516744D01*
X521935Y516615D01*
X521113Y516550D01*
X520287Y516550D01*
X177387Y516550D02*
X176565Y516615D01*
X175750Y516744D01*
X174948Y516936D01*
X174163Y517191D01*
X173401Y517507D01*
X172666Y517882D01*
X171962Y518313D01*
X171295Y518798D01*
X170667Y519334D01*
X170084Y519917D01*
X169548Y520545D01*
X169063Y521212D01*
X168632Y521916D01*
X168257Y522651D01*
X167941Y523413D01*
X167686Y524198D01*
X167494Y525000D01*
X167365Y525815D01*
X167300Y526637D01*
X167300Y527463D01*
X167365Y528285D01*
X167494Y529100D01*
X167686Y529902D01*
X167941Y530687D01*
X168257Y531449D01*
X168632Y532184D01*
X169063Y532888D01*
X169548Y533556D01*
X170084Y534183D01*
X170667Y534766D01*
X171295Y535302D01*
X171962Y535787D01*
X172666Y536218D01*
X173401Y536593D01*
X174163Y536909D01*
X174948Y537164D01*
X175750Y537356D01*
X176565Y537485D01*
X177387Y537550D01*
X178213Y537550D01*
X179035Y537485D01*
X179850Y537356D01*
X180652Y537164D01*
X181437Y536909D01*
X182199Y536593D01*
X182934Y536218D01*
X183638Y535787D01*
X184306Y535302D01*
X184933Y534766D01*
X185516Y534183D01*
X186052Y533556D01*
X186537Y532888D01*
X186968Y532184D01*
X187343Y531449D01*
X187659Y530687D01*
X187914Y529902D01*
X188106Y529100D01*
X188235Y528285D01*
X188300Y527463D01*
X188300Y526637D01*
X188235Y525815D01*
X188106Y525000D01*
X187914Y524198D01*
X187659Y523413D01*
X187343Y522651D01*
X186968Y521916D01*
X186537Y521212D01*
X186052Y520545D01*
X185516Y519917D01*
X184933Y519334D01*
X184306Y518798D01*
X183638Y518313D01*
X182934Y517882D01*
X182199Y517507D01*
X181437Y517191D01*
X180652Y516936D01*
X179850Y516744D01*
X179035Y516615D01*
X178213Y516550D01*
X177387Y516550D01*
X521113Y181950D02*
X521935Y181885D01*
X522750Y181756D01*
X523552Y181564D01*
X524337Y181309D01*
X525099Y180993D01*
X525834Y180618D01*
X526538Y180187D01*
X527206Y179702D01*
X527833Y179166D01*
X528416Y178583D01*
X528952Y177956D01*
X529437Y177288D01*
X529868Y176584D01*
X530243Y175849D01*
X530559Y175087D01*
X530814Y174302D01*
X531006Y173500D01*
X531135Y172685D01*
X531200Y171863D01*
X531200Y171037D01*
X531135Y170215D01*
X531006Y169400D01*
X530814Y168598D01*
X530559Y167813D01*
X530243Y167051D01*
X529868Y166316D01*
X529437Y165612D01*
X528952Y164945D01*
X528416Y164317D01*
X527833Y163734D01*
X527206Y163198D01*
X526538Y162713D01*
X525834Y162282D01*
X525099Y161907D01*
X524337Y161591D01*
X523552Y161336D01*
X522750Y161144D01*
X521935Y161015D01*
X521113Y160950D01*
X520287Y160950D01*
X519465Y161015D01*
X518650Y161144D01*
X517848Y161336D01*
X517063Y161591D01*
X516301Y161907D01*
X515566Y162282D01*
X514862Y162713D01*
X514195Y163198D01*
X513567Y163734D01*
X512984Y164317D01*
X512448Y164945D01*
X511963Y165612D01*
X511532Y166316D01*
X511157Y167051D01*
X510841Y167813D01*
X510586Y168598D01*
X510394Y169400D01*
X510265Y170215D01*
X510200Y171037D01*
X510200Y171863D01*
X510265Y172685D01*
X510394Y173500D01*
X510586Y174302D01*
X510841Y175087D01*
X511157Y175849D01*
X511532Y176584D01*
X511963Y177288D01*
X512448Y177956D01*
X512984Y178583D01*
X513567Y179166D01*
X514195Y179702D01*
X514862Y180187D01*
X515566Y180618D01*
X516301Y180993D01*
X517063Y181309D01*
X517848Y181564D01*
X518650Y181756D01*
X519465Y181885D01*
X520287Y181950D01*
X521113Y181950D01*
X178213Y181950D02*
X179035Y181885D01*
X179850Y181756D01*
X180652Y181564D01*
X181437Y181309D01*
X182199Y180993D01*
X182934Y180618D01*
X183638Y180187D01*
X184306Y179702D01*
X184933Y179166D01*
X185516Y178583D01*
X186052Y177956D01*
X186537Y177288D01*
X186968Y176584D01*
X187343Y175849D01*
X187659Y175087D01*
X187914Y174302D01*
X188106Y173500D01*
X188235Y172685D01*
X188300Y171863D01*
X188300Y171037D01*
X188235Y170215D01*
X188106Y169400D01*
X187914Y168598D01*
X187659Y167813D01*
X187343Y167051D01*
X186968Y166316D01*
X186537Y165612D01*
X186052Y164945D01*
X185516Y164317D01*
X184933Y163734D01*
X184306Y163198D01*
X183638Y162713D01*
X182934Y162282D01*
X182199Y161907D01*
X181437Y161591D01*
X180652Y161336D01*
X179850Y161144D01*
X179035Y161015D01*
X178213Y160950D01*
X177387Y160950D01*
X176565Y161015D01*
X175750Y161144D01*
X174948Y161336D01*
X174163Y161591D01*
X173401Y161907D01*
X172666Y162282D01*
X171962Y162713D01*
X171295Y163198D01*
X170667Y163734D01*
X170084Y164317D01*
X169548Y164945D01*
X169063Y165612D01*
X168632Y166316D01*
X168257Y167051D01*
X167941Y167813D01*
X167686Y168598D01*
X167494Y169400D01*
X167365Y170215D01*
X167300Y171037D01*
X167300Y171863D01*
X167365Y172685D01*
X167494Y173500D01*
X167686Y174302D01*
X167941Y175087D01*
X168257Y175849D01*
X168632Y176584D01*
X169063Y177288D01*
X169548Y177956D01*
X170084Y178583D01*
X170667Y179166D01*
X171295Y179702D01*
X171962Y180187D01*
X172666Y180618D01*
X173401Y180993D01*
X174163Y181309D01*
X174948Y181564D01*
X175750Y181756D01*
X176565Y181885D01*
X177387Y181950D01*
X178213Y181950D01*
M02*
